<svg width="62" height="46" viewBox="0 0 62 46" fill="none" xmlns="http://www.w3.org/2000/svg">
<g filter="url(#filter0_dd_820_8735)">
<rect x="9.04297" y="5.00024" width="43.5405" height="28.0501" rx="5.0239" fill="white"/>
<rect x="8.9383" y="4.89558" width="43.7498" height="28.2595" rx="5.12857" stroke="#D6DCE5" stroke-width="0.209329"/>
<path d="M23.126 15.3517C23.4165 14.9883 23.6136 14.5005 23.5616 14.002C23.1364 14.0231 22.6175 14.2825 22.317 14.6461C22.0473 14.9575 21.8085 15.4658 21.8708 15.9434C22.3481 15.9848 22.825 15.7048 23.126 15.3517Z" fill="#000008"/>
<path d="M23.5562 16.0367C22.863 15.9954 22.2736 16.4301 21.9425 16.4301C21.6113 16.4301 21.1044 16.0575 20.5561 16.0675C19.8424 16.078 19.1803 16.4815 18.8181 17.1232C18.0733 18.4071 18.6215 20.3114 19.3459 21.357C19.6976 21.8743 20.1216 22.4439 20.6802 22.4234C21.2079 22.4027 21.4148 22.0817 22.0563 22.0817C22.6974 22.0817 22.8837 22.4234 23.4424 22.4131C24.0218 22.4027 24.384 21.8955 24.7357 21.3777C25.1393 20.788 25.3045 20.2187 25.3148 20.1874C25.3044 20.177 24.1977 19.7525 24.1874 18.4793C24.177 17.4133 25.0564 16.9062 25.0977 16.8748C24.6011 16.1403 23.8252 16.0575 23.5562 16.0367Z" fill="#000008"/>
<path d="M29.5921 14.594C31.0988 14.594 32.148 15.6325 32.148 17.1446C32.148 18.6621 31.0772 19.7061 29.5544 19.7061H27.8862V22.359H26.6809V14.594L29.5921 14.594ZM27.8862 18.6944H29.2691C30.3185 18.6944 30.9157 18.1294 30.9157 17.15C30.9157 16.1707 30.3185 15.6111 29.2745 15.6111H27.8862V18.6944Z" fill="#000008"/>
<path d="M32.4629 20.75C32.4629 19.7598 33.2216 19.1518 34.567 19.0765L36.1167 18.985V18.5492C36.1167 17.9195 35.6915 17.5429 34.9814 17.5429C34.3086 17.5429 33.8888 17.8657 33.7867 18.3716H32.689C32.7535 17.3491 33.6252 16.5957 35.0243 16.5957C36.3965 16.5957 37.2736 17.3222 37.2736 18.4576V22.359H36.1597V21.428H36.1329C35.8047 22.0577 35.0889 22.4558 34.3464 22.4558C33.2378 22.4558 32.4629 21.767 32.4629 20.75ZM36.1167 20.2389V19.7922L34.7229 19.8783C34.0287 19.9267 33.636 20.2335 33.636 20.7178C33.636 21.2128 34.0449 21.5357 34.6692 21.5357C35.4817 21.5357 36.1167 20.976 36.1167 20.2389Z" fill="#000008"/>
<path d="M38.3252 24.4415V23.4998C38.4112 23.5213 38.6049 23.5213 38.7018 23.5213C39.2399 23.5213 39.5305 23.2953 39.708 22.7142C39.708 22.7034 39.8103 22.3698 39.8103 22.3644L37.7656 16.698H39.0246L40.4561 21.3043H40.4775L41.9091 16.698H43.1359L41.0156 22.6549C40.5315 24.0272 39.9718 24.4684 38.7987 24.4684C38.7018 24.4684 38.4112 24.4576 38.3252 24.4415Z" fill="#000008"/>
</g>
<defs>
<filter id="filter0_dd_820_8735" x="0.460811" y="0.604307" width="60.7053" height="45.2152" filterUnits="userSpaceOnUse" color-interpolation-filters="sRGB">
<feFlood flood-opacity="0" result="BackgroundImageFix"/>
<feColorMatrix in="SourceAlpha" type="matrix" values="0 0 0 0 0 0 0 0 0 0 0 0 0 0 0 0 0 0 127 0" result="hardAlpha"/>
<feOffset dy="0.418659"/>
<feGaussianBlur stdDeviation="2.09329"/>
<feColorMatrix type="matrix" values="0 0 0 0 0.717647 0 0 0 0 0.717647 0 0 0 0 0.717647 0 0 0 0.08 0"/>
<feBlend mode="normal" in2="BackgroundImageFix" result="effect1_dropShadow_820_8735"/>
<feColorMatrix in="SourceAlpha" type="matrix" values="0 0 0 0 0 0 0 0 0 0 0 0 0 0 0 0 0 0 127 0" result="hardAlpha"/>
<feOffset dy="4.18659"/>
<feGaussianBlur stdDeviation="4.18659"/>
<feColorMatrix type="matrix" values="0 0 0 0 0.717647 0 0 0 0 0.717647 0 0 0 0 0.717647 0 0 0 0.08 0"/>
<feBlend mode="normal" in2="effect1_dropShadow_820_8735" result="effect2_dropShadow_820_8735"/>
<feBlend mode="normal" in="SourceGraphic" in2="effect2_dropShadow_820_8735" result="shape"/>
</filter>
</defs>
</svg>
