<svg width="20" height="20" viewBox="0 0 20 20" fill="none" xmlns="http://www.w3.org/2000/svg">
<path d="M10 11.875C7.36631 11.8819 4.77799 11.189 2.5 9.86719V16.25C2.5 16.4157 2.56592 16.5747 2.68311 16.6919C2.80029 16.8092 2.95929 16.875 3.125 16.875H16.875C17.0407 16.875 17.1997 16.8092 17.3169 16.6919C17.4341 16.5747 17.5 16.4157 17.5 16.25V9.86719C15.2205 11.1855 12.6332 11.8781 10 11.875Z" fill="#00001C" fill-opacity="0.1"/>
<path fill-rule="evenodd" clip-rule="evenodd" d="M1.875 6.25C1.875 6.25 1.875 5.73223 2.24112 5.36612C2.24112 5.36612 2.60723 5 3.125 5H16.875C16.875 5 17.3927 5 17.7589 5.36612C17.7589 5.36612 18.125 5.73223 18.125 6.25V16.25C18.125 16.25 18.125 16.7677 17.7589 17.1339C17.7589 17.1339 17.3927 17.5 16.875 17.5H3.125C3.125 17.5 2.60723 17.5 2.24112 17.1339C2.24112 17.1339 1.875 16.7677 1.875 16.25V6.25ZM3.125 6.25V16.25H16.875V6.25H3.125Z" fill="#011B30"/>
<path d="M6.79919 3.04918C6.25 3.59835 6.25 4.375 6.25 4.375V5.625C6.25 5.97018 6.52981 6.25 6.875 6.25C7.22019 6.25 7.5 5.97018 7.5 5.625V4.375C7.5 4.11612 7.68306 3.93306 7.68306 3.93306C7.86613 3.75 8.125 3.75 8.125 3.75H11.875C12.1339 3.75 12.3169 3.93306 12.3169 3.93306C12.5 4.11612 12.5 4.375 12.5 4.375V5.625C12.5 5.97018 12.7798 6.25 13.125 6.25C13.4702 6.25 13.75 5.97018 13.75 5.625V4.375C13.75 3.59835 13.2008 3.04918 13.2008 3.04918C12.6516 2.5 11.875 2.5 11.875 2.5H8.125C7.34838 2.5 6.79919 3.04918 6.79919 3.04918Z" fill="#011B30"/>
<path d="M2.81399 9.32681C2.71871 9.2715 2.61017 9.24219 2.5 9.24219C2.4889 9.24219 2.4778 9.2425 2.46672 9.24306C2.25606 9.25431 2.06528 9.37106 1.95941 9.5535C1.90412 9.64881 1.875 9.757 1.875 9.86719C1.875 9.87831 1.87529 9.88937 1.87589 9.9005C1.88712 10.1111 2.00387 10.3019 2.18634 10.4078C5.81101 12.5109 10.0016 12.5 10.0016 12.5C14.1874 12.505 17.8129 10.4082 17.8129 10.4082C18.0061 10.2965 18.125 10.0903 18.125 9.86719C18.125 9.85738 18.1248 9.84756 18.1243 9.83775C18.1196 9.73794 18.0911 9.64075 18.0411 9.55431C17.9293 9.36113 17.7231 9.24219 17.5 9.24219C17.4902 9.24219 17.4804 9.24244 17.4706 9.24288C17.3708 9.24763 17.2736 9.27613 17.1871 9.32619C13.8529 11.2543 9.99837 11.25 9.99837 11.25C6.14606 11.2601 2.81399 9.32681 2.81399 9.32681Z" fill="#011B30"/>
<path d="M9.0625 10H10.9375C11.2827 10 11.5625 9.72019 11.5625 9.375C11.5625 9.02981 11.2827 8.75 10.9375 8.75H9.0625C8.71731 8.75 8.4375 9.02981 8.4375 9.375C8.4375 9.72019 8.71731 10 9.0625 10Z" fill="#011B30"/>
</svg>
