<svg width="24" height="24" viewBox="0 0 24 24" fill="none" xmlns="http://www.w3.org/2000/svg">
<path d="M18.7787 0H5.22132C4.02652 0 3.01178 0.963642 3.01178 2.20954V22.2563C3.0153 23.8377 4.9468 24.5797 6.04489 23.4697L11.2126 18.3034C11.6267 17.8714 12.3733 17.8714 12.7874 18.3034L17.9551 23.4697C19.0537 24.5801 20.9849 23.837 20.9882 22.2563V2.20954C20.9882 0.963642 19.9735 0 18.7787 0ZM19.5819 22.2564C19.5801 22.5912 19.1639 22.7017 18.9486 22.4743C17.9156 21.4397 14.9694 18.4945 13.7828 17.31C12.8493 16.3337 11.1521 16.3334 10.219 17.3081C9.3993 18.1263 7.79474 19.7304 6.52985 20.9949L5.05832 22.4658C4.84629 22.6907 4.4249 22.6156 4.4181 22.2691V2.20954C4.4181 1.76035 4.78221 1.40637 5.22132 1.40637H18.7786C19.2171 1.40637 19.5819 1.75979 19.5819 2.20954V22.2564Z" fill="black"/>
</svg>
