<svg width="24" height="24" viewBox="0 0 24 24" fill="none" xmlns="http://www.w3.org/2000/svg">
<path d="M18.1849 2H5.8818C4.8798 2 4 2.77747 4 3.69774V20.8638C4 21.1719 4.0909 21.4286 4.2374 21.627C4.4126 21.8641 4.6947 22 4.9972 21.9999C5.2832 21.9999 5.5877 21.8798 5.8689 21.6533L11.3733 17.2453C11.5433 17.1083 11.7875 17.0299 12.0414 17.0299C12.2952 17.0299 12.5389 17.1083 12.7094 17.2457L18.1954 21.6526C18.4776 21.8798 18.7611 22 19.0466 22C19.5294 22 20 21.6488 20 20.8639V3.69774C20 2.77747 19.1869 2 18.1849 2Z" fill="#03599F"/>
</svg>
