<svg width="36" height="36" viewBox="0 0 36 36" fill="none" xmlns="http://www.w3.org/2000/svg">
<g clip-path="url(#clip0_2526_4154)">
<path d="M34.6802 11.251H18.0009C14.2732 11.2473 11.2483 14.2663 11.2446 17.994C11.2434 19.1518 11.5401 20.2905 12.1062 21.3005L3.7666 6.99114C9.84084 -0.870495 21.1381 -2.31943 28.9998 3.75481C31.5245 5.70554 33.485 8.29271 34.6802 11.251Z" fill="#F44336"/>
<path d="M36.0001 18.0007C35.9918 27.9379 27.9381 35.9916 18.0009 35.9999C17.2483 36.0027 16.4965 35.9526 15.751 35.8499L23.8506 21.3755C25.707 18.1438 24.6004 14.0194 21.3757 12.1509C20.3548 11.5599 19.1956 11.2493 18.0159 11.251H34.6801C35.556 13.3933 36.0044 15.6862 36.0001 18.0007Z" fill="#FFC107"/>
<path d="M23.8504 21.3756L15.7507 35.85H15.7357C5.87922 34.6046 -1.10151 25.6048 0.143805 15.7482C0.546888 12.558 1.79776 9.53402 3.76628 6.99121L12.1059 21.3006L12.1509 21.3756C14.0106 24.6063 18.1372 25.7177 21.3679 23.858C22.3999 23.264 23.2564 22.4075 23.8504 21.3756Z" fill="#4CAF50"/>
<path d="M23.8505 21.3756C21.9907 24.6063 17.8641 25.7177 14.6334 23.858C13.6015 23.264 12.745 22.4075 12.151 21.3756L12.106 21.3006C10.2835 18.0487 11.4424 13.9351 14.6942 12.1126C15.7043 11.5466 16.843 11.2499 18.0007 11.251H18.0157C19.1954 11.2493 20.3546 11.5599 21.3756 12.1509C24.6003 14.0195 25.7069 18.1439 23.8505 21.3756Z" fill="#F44336"/>
<path d="M23.8505 21.3756C21.9907 24.6063 17.8641 25.7177 14.6334 23.858C13.6015 23.264 12.745 22.4075 12.151 21.3756L12.106 21.3006C10.2835 18.0487 11.4424 13.9351 14.6942 12.1126C15.7043 11.5466 16.843 11.2499 18.0007 11.251H18.0157C19.1954 11.2493 20.3546 11.5599 21.3756 12.1509C24.6003 14.0195 25.7069 18.1439 23.8505 21.3756Z" fill="#2196F3"/>
<path d="M17.9749 25.5003C16.6672 25.5001 15.3827 25.1556 14.2505 24.5013C13.1089 23.8411 12.1608 22.8924 11.5011 21.7505C9.43016 18.1634 10.6592 13.5767 14.2462 11.5058C15.3875 10.8468 16.6824 10.5003 18.0004 10.501C22.1423 10.4977 25.5027 13.8529 25.5058 17.9948C25.5069 19.3133 25.1603 20.6087 24.501 21.7505C23.1494 24.0742 20.6631 25.5028 17.9749 25.5003ZM18.0138 12.0009C15.8614 11.9894 13.8687 13.135 12.7955 15.0008C11.1388 17.8736 12.1246 21.5457 14.9974 23.2024C17.8702 24.8592 21.5423 23.8734 23.1991 21.0006C24.8558 18.1309 23.8726 14.4616 21.003 12.8047C20.0945 12.2802 19.0643 12.0031 18.0153 12.001L18.0138 12.0009Z" fill="#FAFAFA"/>
</g>
<defs>
<clipPath id="clip0_2526_4154">
<rect width="36" height="36" fill="white"/>
</clipPath>
</defs>
</svg>
