<svg width="24" height="24" viewBox="0 0 24 24" fill="none" xmlns="http://www.w3.org/2000/svg">
<path fill-rule="evenodd" clip-rule="evenodd" d="M17 20H21H21.013C21.559 19.993 22 19.548 22 19V13C22 12.448 21.552 12 21 12H17C16.448 12 16 12.448 16 13V19C16 19.552 16.448 20 17 20ZM14 17V13C14 11.343 15.343 10 17 10H20V7C20 6.204 19.684 5.441 19.121 4.879C18.559 4.316 17.796 4 17 4H5C4.204 4 3.441 4.316 2.879 4.879C2.316 5.441 2 6.204 2 7V14C2 14.796 2.316 15.559 2.879 16.121C3.441 16.684 4.204 17 5 17H10V18H9C8.448 18 8 18.448 8 19C8 19.552 8.448 20 9 20H13C13.552 20 14 19.552 14 19C14 18.448 13.552 18 13 18H12V17H14Z" fill="#03599F"/>
</svg>
