<svg width="20" height="20" viewBox="0 0 20 20" fill="none" xmlns="http://www.w3.org/2000/svg">
<path d="M17.5 7.5L11.3672 11.875H8.63281L2.5 7.5L10 2.5L17.5 7.5Z" fill="#00001C" fill-opacity="0.1"/>
<path fill-rule="evenodd" clip-rule="evenodd" d="M9.65331 1.97997C9.86325 1.84001 10.1368 1.84001 10.3467 1.97997L17.8467 6.97994C18.0206 7.09587 18.125 7.291 18.125 7.5V15.625C18.125 15.625 18.125 16.1427 17.7589 16.5089C17.7589 16.5089 17.3927 16.875 16.875 16.875H3.125C3.125 16.875 2.60723 16.875 2.24112 16.5089C2.24112 16.5089 1.875 16.1427 1.875 15.625V7.5C1.875 7.291 1.97944 7.09587 2.15331 6.97994L9.65331 1.97997ZM3.125 7.8345L10 3.25115L16.875 7.8345V15.625H3.125V7.8345Z" fill="#011B30"/>
<path d="M8.27187 11.3647L2.33465 15.5599C2.19928 15.6555 2.10744 15.8011 2.07935 15.9644C2.07334 15.9994 2.07031 16.0348 2.07031 16.0703L2.07049 16.0854C2.07349 16.2094 2.11331 16.3297 2.18488 16.431C2.30201 16.5968 2.49234 16.6953 2.69531 16.6953C2.70283 16.6953 2.71036 16.6952 2.71787 16.6949C2.83927 16.6905 2.95676 16.6509 3.05598 16.5807L8.99319 12.3856C9.15894 12.2685 9.25781 12.078 9.25781 11.875C9.25781 11.8675 9.25769 11.8599 9.25737 11.8524C9.253 11.7311 9.21338 11.6136 9.14325 11.5143C9.04763 11.3789 8.90206 11.2871 8.73869 11.2591C8.70375 11.253 8.66831 11.25 8.63281 11.25L8.61769 11.2502C8.49375 11.2532 8.37319 11.2932 8.27187 11.3647Z" fill="#011B30"/>
<path d="M17.6654 15.5599L11.7279 11.3646C11.6224 11.29 11.4964 11.25 11.3672 11.25C11.3533 11.25 11.3394 11.2504 11.3254 11.2514C11.1376 11.2639 10.9654 11.3606 10.8568 11.5143C10.7822 11.6198 10.7422 11.7458 10.7422 11.875C10.7422 11.8889 10.7426 11.9028 10.7436 11.9167C10.7561 12.1046 10.8527 12.2768 11.0065 12.3854L16.944 16.5807C17.0495 16.6553 17.1755 16.6953 17.3047 16.6953C17.3186 16.6953 17.3325 16.6949 17.3464 16.6939C17.5342 16.6814 17.7065 16.5848 17.8151 16.431C17.8897 16.3255 17.9297 16.1995 17.9297 16.0703C17.9297 16.0564 17.9293 16.0425 17.9283 16.0286C17.9158 15.8407 17.8191 15.6685 17.6654 15.5599Z" fill="#011B30"/>
<path d="M8.83287 11.25L2.86297 6.99119C2.75703 6.91562 2.63014 6.875 2.5 6.875C2.48702 6.875 2.47404 6.87537 2.46109 6.87619C2.27317 6.88794 2.10054 6.98375 1.9912 7.13706C1.91562 7.243 1.875 7.36988 1.875 7.5C1.875 7.513 1.87541 7.52594 1.87621 7.53894C1.88793 7.72681 1.98375 7.89944 2.13703 8.00881L8.26988 12.3838C8.37581 12.4594 8.50269 12.5 8.63281 12.5H11.3672C11.4973 12.5 11.6242 12.4594 11.7301 12.3838L17.8629 8.00881C18.0274 7.8915 18.125 7.702 18.125 7.5C18.125 7.49156 18.1248 7.48306 18.1245 7.47463C18.1196 7.35325 18.0794 7.23594 18.0088 7.13706C17.9126 7.00206 17.7666 6.91094 17.6031 6.88356C17.5691 6.87787 17.5346 6.875 17.5 6.875L17.4821 6.87525C17.3581 6.87881 17.238 6.91919 17.1371 6.99119L11.1671 11.25H8.83287Z" fill="#011B30"/>
</svg>
