<svg width="24" height="24" viewBox="0 0 24 24" fill="none" xmlns="http://www.w3.org/2000/svg">
<path d="M20.1035 7.99939V13.4444C20.1035 13.9016 20.0135 14.3543 19.8385 14.7767C19.6635 15.199 19.4071 15.5828 19.0838 15.9061C18.7605 16.2294 18.3767 16.4858 17.9544 16.6608C17.532 16.8358 17.0793 16.9258 16.6221 16.9258H7.57031V17.6221C7.57197 18.1756 7.79257 18.7059 8.18395 19.0973C8.57533 19.4887 9.10569 19.7093 9.65918 19.711H17.6874C17.7963 19.7124 17.9034 19.7386 18.0007 19.7876L20.4865 21.027C20.5837 21.0759 20.6909 21.1021 20.7998 21.1035C20.9301 21.1035 21.0578 21.0673 21.1688 20.9991C21.2692 20.9364 21.3519 20.8491 21.4091 20.7456C21.4664 20.642 21.4963 20.5256 21.4961 20.4073V9.96292C21.4949 9.53196 21.3604 9.11192 21.1111 8.76039C20.8618 8.40886 20.5098 8.14304 20.1035 7.99939Z" fill="#03599F"/>
<path d="M18.7109 13.4443V5.08887C18.7109 4.53486 18.4909 4.00355 18.0991 3.61181C17.7074 3.22008 17.1761 3 16.6221 3H4.08887C3.53487 3 3.00355 3.22008 2.61182 3.61181C2.22008 4.00355 2 4.53486 2 5.08887V17.6221C1.99995 17.7533 2.03697 17.8818 2.1068 17.9929C2.17663 18.104 2.27642 18.1931 2.39467 18.2499C2.51292 18.3067 2.64483 18.329 2.77519 18.3141C2.90554 18.2993 3.02905 18.2479 3.13147 18.1659L6.23135 15.6857C6.35451 15.5872 6.50744 15.5334 6.66514 15.5332H16.6221C17.1761 15.5332 17.7074 15.3131 18.0991 14.9214C18.4909 14.5296 18.7109 13.9983 18.7109 13.4443ZM10.9961 12.3163C10.9648 12.4028 10.9149 12.4812 10.8499 12.5462C10.7849 12.6112 10.7065 12.6611 10.6201 12.6923C10.5367 12.7291 10.4466 12.748 10.3555 12.748C10.2644 12.748 10.1743 12.7291 10.0909 12.6923C10.0045 12.6611 9.926 12.6112 9.86102 12.5462C9.79605 12.4812 9.74615 12.4028 9.71488 12.3163C9.6792 12.2326 9.66028 12.1427 9.65918 12.0518C9.66188 11.8674 9.73398 11.6909 9.8611 11.5574C9.92882 11.4959 10.0065 11.4465 10.0909 11.4112C10.1739 11.3733 10.2642 11.3537 10.3555 11.3537C10.4468 11.3537 10.537 11.3733 10.6201 11.4112C10.7044 11.4465 10.7821 11.4959 10.8498 11.5574C10.9781 11.6902 11.0504 11.8672 11.0518 12.0518C11.0507 12.1427 11.0317 12.2326 10.9961 12.3163ZM11.129 9.87933C11.0912 9.90206 11.0602 9.93468 11.0394 9.9737C11.0187 10.0127 11.009 10.0566 11.0114 10.1008C11.0114 10.2854 10.938 10.4625 10.8074 10.5931C10.6769 10.7237 10.4998 10.797 10.3151 10.797C10.1304 10.797 9.95331 10.7237 9.82273 10.5931C9.69215 10.4625 9.61879 10.2854 9.61879 10.1008C9.61405 9.78126 9.70413 9.46754 9.87763 9.19922C10.0511 8.93091 10.3003 8.72005 10.5936 8.59329C10.74 8.53256 10.863 8.42626 10.9442 8.29015C11.0255 8.15404 11.0607 7.99537 11.0447 7.83766C11.0287 7.67995 10.9623 7.53161 10.8553 7.41462C10.7483 7.29763 10.6065 7.21822 10.4509 7.18818C10.2774 7.15655 10.0983 7.18737 9.94532 7.27518C9.79237 7.363 9.67546 7.50213 9.61531 7.66792C9.5522 7.84035 9.42354 7.98088 9.25732 8.0589C9.09111 8.13693 8.9008 8.14614 8.72783 8.08454C8.55485 8.02293 8.41322 7.89549 8.33375 7.72996C8.25427 7.56444 8.24341 7.37422 8.3035 7.20071C8.42193 6.86598 8.62215 6.56616 8.88597 6.32852C9.14978 6.09088 9.46882 5.92297 9.81407 5.84004C10.1593 5.75712 10.5198 5.76183 10.8628 5.85373C11.2057 5.94563 11.5203 6.12181 11.7778 6.36625C12.0354 6.61068 12.2277 6.91562 12.3373 7.25333C12.447 7.59105 12.4705 7.95081 12.4057 8.29991C12.3408 8.64901 12.1898 8.97636 11.9662 9.25221C11.7427 9.52805 11.4537 9.74363 11.1256 9.87933H11.129Z" fill="#03599F"/>
</svg>
