<svg width="61" height="46" viewBox="0 0 61 46" fill="none" xmlns="http://www.w3.org/2000/svg">
<g filter="url(#filter0_dd_820_8733)">
<rect x="8.83398" y="5.00024" width="43.5405" height="28.0501" rx="5.0239" fill="white"/>
<rect x="8.72932" y="4.89558" width="43.7498" height="28.2595" rx="5.12857" stroke="#D6DCE5" stroke-width="0.209329"/>
<path d="M29.6576 22.3874H28.6783V14.7671H31.2745C31.9325 14.7671 32.4936 14.9865 32.9526 15.4251C33.4219 15.8638 33.6565 16.3993 33.6565 17.0318C33.6565 17.6796 33.4219 18.2151 32.9526 18.6487C32.4987 19.0822 31.9376 19.2965 31.2745 19.2965H29.6576V22.3874ZM29.6576 15.7057V18.3631H31.2949C31.6826 18.3631 32.009 18.2304 32.264 17.9703C32.5242 17.7102 32.6568 17.3939 32.6568 17.0369C32.6568 16.685 32.5242 16.3738 32.264 16.1137C32.009 15.8434 31.6877 15.7108 31.2949 15.7108H29.6576V15.7057Z" fill="#3C4043"/>
<path d="M36.2169 17.0012C36.9412 17.0012 37.5124 17.195 37.9307 17.5827C38.3489 17.9703 38.558 18.5008 38.558 19.1741V22.3874H37.6246V21.6631H37.5838C37.1809 22.2599 36.6402 22.5558 35.9669 22.5558C35.3906 22.5558 34.9111 22.3874 34.5235 22.0457C34.1358 21.704 33.942 21.2806 33.942 20.7705C33.942 20.2299 34.146 19.8014 34.5541 19.4852C34.9621 19.1639 35.5079 19.0057 36.1863 19.0057C36.7677 19.0057 37.2472 19.1129 37.6195 19.3271V19.1026C37.6195 18.7609 37.4869 18.4753 37.2166 18.2355C36.9463 17.9958 36.63 17.8785 36.2679 17.8785C35.7221 17.8785 35.2886 18.108 34.9723 18.5722L34.1103 18.0315C34.5847 17.3429 35.2886 17.0012 36.2169 17.0012ZM34.9519 20.7858C34.9519 21.0409 35.059 21.2551 35.2784 21.4234C35.4926 21.5917 35.7476 21.6784 36.0384 21.6784C36.4515 21.6784 36.8187 21.5254 37.1401 21.2194C37.4614 20.9134 37.6246 20.5563 37.6246 20.1432C37.3186 19.9034 36.8953 19.781 36.3495 19.781C35.9516 19.781 35.6201 19.8779 35.3549 20.0667C35.0845 20.2656 34.9519 20.5053 34.9519 20.7858Z" fill="#3C4043"/>
<path d="M43.8831 17.1696L40.6187 24.6776H39.6088L40.8227 22.0508L38.6703 17.1696H39.7363L41.2869 20.9134H41.3073L42.8171 17.1696H43.8831Z" fill="#3C4043"/>
<path d="M25.7623 18.6793C25.7623 18.36 25.7337 18.0545 25.6807 17.7607H21.5757V19.4439L23.9398 19.4444C23.8439 20.0044 23.5354 20.4819 23.0625 20.8001V21.8922H24.4698C25.2915 21.1317 25.7623 20.0075 25.7623 18.6793Z" fill="#4285F4"/>
<path d="M23.063 20.8002C22.6713 21.0644 22.1669 21.2189 21.5767 21.2189C20.4368 21.2189 19.4697 20.4508 19.1234 19.4154H17.6717V20.5416C18.3909 21.9687 19.8691 22.948 21.5767 22.948C22.757 22.948 23.7486 22.5599 24.4703 21.8917L23.063 20.8002Z" fill="#34A853"/>
<path d="M18.9866 18.5798C18.9866 18.2891 19.0351 18.0081 19.1233 17.7438V16.6176H17.6717C17.3743 17.2078 17.207 17.8739 17.207 18.5798C17.207 19.2858 17.3748 19.9519 17.6717 20.542L19.1233 19.4158C19.0351 19.1516 18.9866 18.8706 18.9866 18.5798Z" fill="#FABB05"/>
<path d="M21.5767 15.9403C22.2209 15.9403 22.7978 16.1622 23.2533 16.5957L24.5004 15.3496C23.7429 14.6442 22.7555 14.2112 21.5767 14.2112C19.8696 14.2112 18.3909 15.1905 17.6717 16.6176L19.1233 17.7438C19.4696 16.7084 20.4368 15.9403 21.5767 15.9403Z" fill="#E94235"/>
</g>
<defs>
<filter id="filter0_dd_820_8733" x="0.251826" y="0.604307" width="60.7053" height="45.2152" filterUnits="userSpaceOnUse" color-interpolation-filters="sRGB">
<feFlood flood-opacity="0" result="BackgroundImageFix"/>
<feColorMatrix in="SourceAlpha" type="matrix" values="0 0 0 0 0 0 0 0 0 0 0 0 0 0 0 0 0 0 127 0" result="hardAlpha"/>
<feOffset dy="0.418659"/>
<feGaussianBlur stdDeviation="2.09329"/>
<feColorMatrix type="matrix" values="0 0 0 0 0.717647 0 0 0 0 0.717647 0 0 0 0 0.717647 0 0 0 0.08 0"/>
<feBlend mode="normal" in2="BackgroundImageFix" result="effect1_dropShadow_820_8733"/>
<feColorMatrix in="SourceAlpha" type="matrix" values="0 0 0 0 0 0 0 0 0 0 0 0 0 0 0 0 0 0 127 0" result="hardAlpha"/>
<feOffset dy="4.18659"/>
<feGaussianBlur stdDeviation="4.18659"/>
<feColorMatrix type="matrix" values="0 0 0 0 0.717647 0 0 0 0 0.717647 0 0 0 0 0.717647 0 0 0 0.08 0"/>
<feBlend mode="normal" in2="effect1_dropShadow_820_8733" result="effect2_dropShadow_820_8733"/>
<feBlend mode="normal" in="SourceGraphic" in2="effect2_dropShadow_820_8733" result="shape"/>
</filter>
</defs>
</svg>
