<svg width="20" height="20" viewBox="0 0 20 20" fill="none" xmlns="http://www.w3.org/2000/svg">
<g clip-path="url(#clip0_1249_18892)">
<path d="M18.3346 10C18.3346 5.39767 14.6037 1.66671 10.0013 1.66671C5.39893 1.66671 1.66797 5.39767 1.66797 10C1.66797 14.6024 5.39893 18.3334 10.0013 18.3334C14.6037 18.3334 18.3346 14.6024 18.3346 10Z" stroke="#011B30" stroke-width="1.5"/>
<path d="M16.6693 4.74918C15.8903 4.80532 14.8926 5.10688 14.2008 6.00233C12.9513 7.61969 11.7018 7.75465 10.8688 7.21553C9.61923 6.40685 10.6693 5.09699 9.20271 4.38515C8.24688 3.9212 8.11361 2.65873 8.64559 1.66669" stroke="#011B30" stroke-width="1.5" stroke-linejoin="round"/>
<path d="M1.66797 9.16669C2.30338 9.71845 3.19335 10.2235 4.24192 10.2235C6.40833 10.2235 6.84161 10.6374 6.84161 12.2932C6.84161 13.9489 6.84161 13.9489 7.27489 15.1907C7.55672 15.9985 7.65524 16.8062 7.09347 17.5" stroke="#011B30" stroke-width="1.5" stroke-linejoin="round"/>
<path d="M18.3346 11.2103C17.5954 10.7843 16.668 10.609 15.7291 11.2838C13.9327 12.5749 12.6941 11.5051 12.1362 12.5742C11.315 14.148 14.2477 14.6426 11.668 18.3334" stroke="#011B30" stroke-width="1.5" stroke-linejoin="round"/>
</g>
<defs>
<clipPath id="clip0_1249_18892">
<rect width="20" height="20" fill="white"/>
</clipPath>
</defs>
</svg>
