<svg width="20" height="20" viewBox="0 0 20 20" fill="none" xmlns="http://www.w3.org/2000/svg">
<path fill-rule="evenodd" clip-rule="evenodd" d="M5.5806 3.7056C6.75269 2.53349 8.34237 1.875 10 1.875C11.6576 1.875 13.2473 2.53349 14.4194 3.7056C15.5915 4.8777 16.25 6.46737 16.25 8.125C16.25 13.75 10 18.125 10 18.125C10 18.125 3.75 13.75 3.75 8.125C3.75 6.46737 4.40849 4.8777 5.5806 3.7056ZM8.61106 10.2037C9.02219 10.4784 9.50556 10.625 10 10.625C10.6631 10.625 11.2989 10.3616 11.7677 9.89275C12.2366 9.42387 12.5 8.78806 12.5 8.125C12.5 7.63056 12.3534 7.14719 12.0787 6.73606C11.804 6.32494 11.4135 6.00449 10.9567 5.81527C10.4999 5.62607 9.99725 5.57656 9.51225 5.67306C9.02731 5.7695 8.58188 6.00761 8.23225 6.35725C7.88263 6.70688 7.6445 7.15231 7.54806 7.63725C7.45156 8.12225 7.50106 8.62488 7.69025 9.08175C7.8795 9.5385 8.19994 9.929 8.61106 10.2037Z" fill="#00001C" fill-opacity="0.1"/>
<path fill-rule="evenodd" clip-rule="evenodd" d="M10 5C10 5 11.2944 5 12.2097 5.91529C12.2097 5.91529 13.125 6.83056 13.125 8.125C13.125 8.125 13.125 9.41944 12.2097 10.3347C12.2097 10.3347 11.2944 11.25 10 11.25C10 11.25 8.70556 11.25 7.79031 10.3347C7.79031 10.3347 6.875 9.41944 6.875 8.125C6.875 8.125 6.875 6.83056 7.79031 5.91529C7.79031 5.91529 8.70556 5 10 5ZM10 6.25C10 6.25 9.22338 6.25 8.67419 6.79919C8.67419 6.79919 8.125 7.34838 8.125 8.125C8.125 8.125 8.125 8.90162 8.67419 9.45081C8.67419 9.45081 9.22338 10 10 10C10 10 10.7766 10 11.3258 9.45081C11.3258 9.45081 11.875 8.90162 11.875 8.125C11.875 8.125 11.875 7.34838 11.3258 6.79919C11.3258 6.79919 10.7766 6.25 10 6.25Z" fill="#011B30"/>
<path fill-rule="evenodd" clip-rule="evenodd" d="M16.3517 5.49405C16.3517 5.49405 16.875 6.7575 16.875 8.125C16.875 8.125 16.875 11.8744 13.5966 15.6445C13.5966 15.6445 12.5891 16.8031 11.3813 17.8298C11.3813 17.8298 10.7731 18.3468 10.3584 18.637C10.1432 18.7877 9.85681 18.7877 9.64156 18.637C9.64156 18.637 9.22694 18.3468 8.61869 17.8298C8.61869 17.8298 7.41088 16.8031 6.40338 15.6445C6.40338 15.6445 3.125 11.8744 3.125 8.125C3.125 8.125 3.125 6.7575 3.64833 5.49405C3.64833 5.49405 4.17166 4.23062 5.13864 3.26364C5.13864 3.26364 6.10562 2.29666 7.36906 1.77333C7.36906 1.77333 8.6325 1.25 10 1.25C10 1.25 11.3675 1.25 12.6309 1.77333C12.6309 1.77333 13.8944 2.29666 14.8614 3.26364C14.8614 3.26364 15.8284 4.23062 16.3517 5.49405ZM15.625 8.125C15.625 8.125 15.625 7.00612 15.1968 5.97241C15.1968 5.97241 14.7686 4.93869 13.9775 4.14753C13.9775 4.14753 13.1863 3.35636 12.1526 2.92817C12.1526 2.92817 11.1189 2.5 10 2.5C10 2.5 8.88113 2.5 7.84738 2.92817C7.84738 2.92817 6.81369 3.35636 6.02252 4.14753C6.02252 4.14753 5.23136 4.93869 4.80317 5.97241C4.80317 5.97241 4.375 7.00612 4.375 8.125C4.375 8.125 4.375 11.4069 7.34662 14.8242C7.34662 14.8242 8.29225 15.9117 9.42819 16.8773C9.42819 16.8773 9.74531 17.1468 10 17.3459C10 17.3459 10.2547 17.1468 10.5718 16.8773C10.5718 16.8773 11.7077 15.9117 12.6534 14.8242C12.6534 14.8242 15.625 11.4069 15.625 8.125Z" fill="#011B30"/>
</svg>
