<svg width="128" height="50" viewBox="0 0 128 50" fill="none" xmlns="http://www.w3.org/2000/svg">
<path d="M15.3027 30.32V16.7689H17.5172L24.8128 26.0511H24.292V16.7689H27.0629V30.32H24.8685L17.5729 21.0178H18.0736V30.32H15.3027ZM29.0081 30.32L35.2443 16.7689H37.6502L43.8864 30.32H40.884L39.2682 26.5533L40.4612 27.38H32.4333L33.6263 26.5533L32.0283 30.32H29.0059H29.0081ZM36.4194 19.9422L33.9557 25.8044L33.4349 25.0556H39.4596L38.9411 25.8044L36.4573 19.9422H36.4194ZM49.0365 30.32L42.9338 16.7689H46.1298L50.8081 27.5889H49.8466L54.5249 16.7689H57.5851L51.4824 30.32H49.0387H49.0365Z" fill="#03599F"/>
<path d="M59.3848 30.32V16.7689H62.3693V27.8022H68.6456V30.32H59.387H59.3848ZM71.1895 30.32V16.7689H80.4881V19.0956H74.0383V22.2667H80.063V24.6111H74.0383V27.9933H80.4881V30.32H71.1895ZM81.8302 30.32L88.0663 16.7689H90.4722L96.7084 30.32H93.7061L92.0903 26.5533L93.2832 27.38H85.2554L86.4483 26.5533L84.8503 30.32H81.8279H81.8302ZM89.2415 19.9422L86.7777 25.8044L86.2591 25.0556H92.2839L91.7631 25.8044L89.2793 19.9422H89.2415ZM98.6536 30.32V16.7689H104.852C106.365 16.7689 107.534 17.1333 108.355 17.8644C109.176 18.5956 109.588 19.6133 109.588 20.92C109.588 21.7667 109.401 22.4956 109.029 23.1111C108.658 23.7267 108.119 24.2 107.411 24.5333C106.719 24.8667 105.865 25.0333 104.852 25.0333L105.006 24.7067H105.796C106.334 24.7067 106.804 24.84 107.2 25.1111C107.612 25.3667 107.963 25.7644 108.259 26.3022L110.454 30.32H107.162L104.814 25.9956C104.685 25.7644 104.538 25.5844 104.371 25.4578C104.204 25.3178 104.013 25.22 103.793 25.1689C103.588 25.1044 103.356 25.0733 103.1 25.0733H101.638V30.32H98.6536ZM101.638 22.92H104.313C105.108 22.92 105.707 22.76 106.103 22.44C106.515 22.12 106.719 21.64 106.719 20.9978C106.719 20.3556 106.515 19.8956 106.103 19.5756C105.704 19.2556 105.108 19.0956 104.313 19.0956H101.638V22.92ZM112.829 30.32V16.7689H115.043L122.339 26.0511H121.82V16.7689H124.591V30.32H122.397L115.101 21.0178H115.602V30.32H112.831H112.829Z" fill="#012440"/>
<path d="M39.9963 15.0889L27.9357 3.04888C26.7606 1.87555 24.8554 1.87555 23.6825 3.04888L3.82108 22.8778C2.64818 24.0511 2.64818 25.9511 3.82108 27.1244L23.6825 46.9533C24.8554 48.1267 26.7606 48.1267 27.9357 46.9533L41.8013 33.1089" stroke="#03599F" stroke-width="2.5" stroke-linecap="round"/>
</svg>
