<svg width="62" height="46" viewBox="0 0 62 46" fill="none" xmlns="http://www.w3.org/2000/svg">
<g filter="url(#filter0_dd_820_8729)">
<rect x="9.41797" y="5.00024" width="43.5405" height="28.0501" rx="5.0239" fill="white"/>
<rect x="9.3133" y="4.89558" width="43.7498" height="28.2595" rx="5.12857" stroke="#D6DCE5" stroke-width="0.209329"/>
<path d="M27.0276 27.3058V26.1969C27.0341 26.1039 27.0206 26.0105 26.9882 25.9231C26.9557 25.8357 26.905 25.7562 26.8395 25.6899C26.7739 25.6236 26.6949 25.5721 26.6078 25.5387C26.5208 25.5054 26.4276 25.4909 26.3345 25.4964C26.2124 25.4884 26.0903 25.5133 25.9811 25.5686C25.8718 25.6239 25.7794 25.7074 25.7135 25.8106C25.6534 25.7105 25.5675 25.6285 25.4647 25.5732C25.3619 25.5179 25.2461 25.4914 25.1295 25.4964C25.0278 25.4913 24.9266 25.5128 24.8358 25.5588C24.7451 25.6049 24.6679 25.6738 24.612 25.7589V25.5408H24.2276V27.3058H24.6157V26.3281C24.6071 26.2676 24.612 26.206 24.6302 26.1477C24.6483 26.0893 24.6792 26.0358 24.7206 25.9908C24.762 25.9459 24.8129 25.9107 24.8695 25.8879C24.9262 25.865 24.9872 25.855 25.0482 25.8587C25.3032 25.8587 25.4326 26.025 25.4326 26.3244V27.3058H25.8207V26.3281C25.8128 26.2677 25.8182 26.2064 25.8366 26.1483C25.855 26.0903 25.8859 26.037 25.9272 25.9923C25.9684 25.9475 26.019 25.9123 26.0753 25.8892C26.1317 25.8661 26.1924 25.8557 26.2532 25.8587C26.5156 25.8587 26.6413 26.025 26.6413 26.3244V27.3058H27.0276ZM29.19 26.4242V25.5426H28.8019V25.757C28.7367 25.6729 28.6524 25.6055 28.5559 25.5605C28.4595 25.5155 28.3537 25.4942 28.2474 25.4983C28.0023 25.4983 27.7673 25.5956 27.594 25.7689C27.4207 25.9422 27.3233 26.1773 27.3233 26.4224C27.3233 26.6674 27.4207 26.9025 27.594 27.0758C27.7673 27.2491 28.0023 27.3465 28.2474 27.3465C28.3537 27.3505 28.4595 27.3292 28.5559 27.2842C28.6524 27.2392 28.7367 27.1718 28.8019 27.0877V27.3021H29.1863L29.19 26.4242ZM27.7613 26.4242C27.7675 26.3202 27.8039 26.2203 27.8661 26.1367C27.9283 26.0531 28.0136 25.9896 28.1115 25.9539C28.2093 25.9181 28.3155 25.9118 28.4169 25.9357C28.5183 25.9596 28.6105 26.0126 28.6822 26.0882C28.7539 26.1638 28.8019 26.2588 28.8203 26.3613C28.8387 26.4639 28.8267 26.5695 28.7858 26.6654C28.7448 26.7612 28.6768 26.8429 28.59 26.9006C28.5032 26.9582 28.4015 26.9892 28.2973 26.9897C28.2237 26.9915 28.1506 26.9778 28.0826 26.9497C28.0147 26.9215 27.9533 26.8795 27.9025 26.8262C27.8517 26.773 27.8126 26.7097 27.7876 26.6405C27.7627 26.5713 27.7525 26.4976 27.7576 26.4242H27.7613ZM37.4034 25.5001C37.5299 25.4998 37.6554 25.5236 37.773 25.5703C37.8853 25.6153 37.9876 25.6819 38.0743 25.7662C38.1598 25.8499 38.2276 25.9498 38.2739 26.0601C38.3704 26.2971 38.3704 26.5624 38.2739 26.7994C38.2277 26.9097 38.1598 27.0097 38.0743 27.0932C37.9876 27.1776 37.8853 27.2442 37.773 27.2892C37.5293 27.3839 37.2589 27.3839 37.0152 27.2892C36.9035 27.2442 36.8017 27.1777 36.7158 27.0932C36.6311 27.0093 36.5639 26.9094 36.5181 26.7994C36.4217 26.5624 36.4217 26.2971 36.5181 26.0601C36.5639 25.95 36.6311 25.8502 36.7158 25.7662C36.8017 25.6818 36.9035 25.6153 37.0152 25.5703C37.1371 25.5198 37.2678 25.4941 37.3997 25.4946L37.4034 25.5001ZM37.4034 25.8697C37.3281 25.8687 37.2534 25.8825 37.1834 25.9104C37.1176 25.9368 37.0578 25.9764 37.0078 26.0268C36.9569 26.0799 36.9173 26.1428 36.8914 26.2117C36.8349 26.3592 36.8349 26.5224 36.8914 26.67C36.9172 26.7389 36.9568 26.8018 37.0078 26.8548C37.0578 26.9053 37.1175 26.9449 37.1834 26.9713C37.3242 27.0264 37.4806 27.0264 37.6214 26.9713C37.6905 26.9457 37.7534 26.9061 37.8063 26.8548C37.8574 26.8019 37.897 26.739 37.9227 26.67C37.9792 26.5224 37.9792 26.3592 37.9227 26.2117C37.897 26.1427 37.8574 26.0798 37.8063 26.0268C37.7534 25.9756 37.6905 25.9359 37.6214 25.9104C37.5517 25.8785 37.4763 25.8609 37.3997 25.8587L37.4034 25.8697ZM31.2784 26.4242C31.2784 25.8697 30.9347 25.5001 30.4412 25.5001C30.1961 25.5035 29.9624 25.6042 29.7916 25.7799C29.6207 25.9556 29.5266 26.1921 29.53 26.4371C29.5335 26.6822 29.6341 26.9159 29.8099 27.0868C29.9856 27.2577 30.222 27.3517 30.4671 27.3483C30.7302 27.3573 30.9874 27.2691 31.1897 27.1006L31.0049 26.816C30.859 26.9331 30.6782 26.9981 30.4911 27.0008C30.364 27.0118 30.2377 26.9727 30.139 26.8919C30.0403 26.8112 29.977 26.6951 29.9625 26.5684H31.2729C31.2784 26.5222 31.2784 26.476 31.2784 26.4242ZM29.9644 26.269C29.9715 26.1516 30.0238 26.0416 30.1103 25.962C30.1968 25.8824 30.3108 25.8394 30.4283 25.842C30.4858 25.8408 30.543 25.8509 30.5966 25.8718C30.6502 25.8927 30.6992 25.9239 30.7407 25.9637C30.7823 26.0036 30.8156 26.0512 30.8387 26.1039C30.8618 26.1565 30.8743 26.2133 30.8755 26.2708L29.9644 26.269ZM32.8956 25.9917C32.7268 25.8945 32.5359 25.8424 32.3412 25.8402C32.1305 25.8402 32.0048 25.9178 32.0048 26.0472C32.0048 26.1765 32.1378 26.1987 32.3042 26.2209L32.489 26.2468C32.8734 26.3022 33.1063 26.4649 33.1063 26.7754C33.1063 27.0859 32.8106 27.352 32.3023 27.352C32.0299 27.3592 31.7624 27.2789 31.539 27.1228L31.7239 26.8234C31.8935 26.9492 32.1005 27.0143 32.3116 27.0082C32.574 27.0082 32.7145 26.9306 32.7145 26.7938C32.7145 26.694 32.6147 26.6386 32.404 26.609L32.2192 26.5832C31.8237 26.5277 31.6093 26.3503 31.6093 26.062C31.6093 25.7108 31.8976 25.4964 32.3485 25.4964C32.6009 25.488 32.8505 25.5521 33.0675 25.6812L32.8956 25.9917ZM34.7438 25.8919H34.1173V26.6885C34.1173 26.8733 34.1801 26.9842 34.3723 26.9842C34.4923 26.9802 34.6093 26.9459 34.7124 26.8844L34.8233 27.2134C34.6792 27.3033 34.5126 27.3507 34.3427 27.3502C33.8881 27.3502 33.7291 27.1062 33.7291 26.6959V25.8919H33.3706V25.5408H33.7291V25.0048H34.1173V25.5408H34.7438V25.8919ZM36.0727 25.4964C36.1659 25.4968 36.2584 25.513 36.3462 25.5445L36.2279 25.9141C36.1515 25.8836 36.0699 25.8686 35.9876 25.8697C35.7363 25.8697 35.618 26.0324 35.618 26.3244V27.3132H35.2336V25.5482H35.6143V25.7626C35.6615 25.6815 35.7296 25.6147 35.8116 25.5692C35.8936 25.5236 35.9863 25.501 36.0801 25.5038L36.0727 25.4964ZM38.7304 27.0489C38.7544 27.0486 38.7782 27.053 38.8006 27.0618C38.8218 27.0705 38.8413 27.083 38.8579 27.0988C38.8741 27.1147 38.8873 27.1335 38.8967 27.1542C38.9061 27.1758 38.9109 27.1991 38.9109 27.2226C38.9109 27.2461 38.9061 27.2694 38.8967 27.291C38.8873 27.3117 38.8741 27.3305 38.8579 27.3465C38.8413 27.3622 38.8218 27.3748 38.8006 27.3834C38.7785 27.3932 38.7545 27.3982 38.7304 27.3982C38.6953 27.3979 38.6611 27.3877 38.6316 27.3687C38.6022 27.3498 38.5787 27.3228 38.564 27.291C38.5548 27.2694 38.55 27.2461 38.55 27.2226C38.55 27.1991 38.5548 27.1759 38.564 27.1542C38.5734 27.1335 38.5866 27.1147 38.6028 27.0988C38.6195 27.083 38.6389 27.0705 38.6601 27.0618C38.6796 27.0541 38.7002 27.0497 38.7211 27.0489H38.7304ZM38.7304 27.3612C38.7488 27.3614 38.7671 27.3576 38.784 27.3502C38.7999 27.3431 38.8143 27.333 38.8265 27.3206C38.8421 27.3048 38.8537 27.2854 38.8602 27.2641C38.8667 27.2429 38.8679 27.2203 38.8637 27.1985C38.8596 27.1766 38.8501 27.1561 38.8362 27.1388C38.8223 27.1214 38.8044 27.1077 38.784 27.0988C38.7671 27.0914 38.7488 27.0876 38.7304 27.0877C38.7119 27.0878 38.6937 27.0916 38.6768 27.0988C38.6602 27.1056 38.6451 27.1157 38.6324 27.1284C38.6093 27.1536 38.5965 27.1866 38.5965 27.2208C38.5965 27.255 38.6093 27.288 38.6324 27.3132C38.6452 27.3261 38.6605 27.3364 38.6773 27.3434C38.6941 27.3504 38.7122 27.3539 38.7304 27.3538V27.3612ZM38.7415 27.1413C38.7587 27.1405 38.7757 27.1457 38.7895 27.1561C38.7952 27.1608 38.7996 27.1667 38.8025 27.1735C38.8054 27.1802 38.8067 27.1876 38.8061 27.1949C38.8064 27.201 38.8054 27.2072 38.8032 27.2129C38.8009 27.2186 38.7975 27.2238 38.7932 27.2282C38.7825 27.2379 38.7688 27.2438 38.7544 27.2448L38.808 27.3058H38.7655L38.7156 27.2448H38.6989V27.3058H38.6638V27.1358L38.7415 27.1413ZM38.7008 27.1727V27.2171H38.7415C38.7487 27.2192 38.7564 27.2192 38.7636 27.2171C38.7649 27.2145 38.7656 27.2116 38.7656 27.2088C38.7656 27.2059 38.7649 27.203 38.7636 27.2004C38.7649 27.1979 38.7656 27.195 38.7656 27.1921C38.7656 27.1892 38.7649 27.1864 38.7636 27.1838C38.7564 27.1817 38.7487 27.1817 38.7415 27.1838L38.7008 27.1727Z" fill="#000008"/>
<path d="M34.1893 12.0748H28.3675V22.5374H34.1893V12.0748Z" fill="#7673C0"/>
<path d="M28.7372 17.3071C28.7361 16.2993 28.9643 15.3045 29.4046 14.398C29.8449 13.4915 30.4857 12.697 31.2784 12.0748C30.2969 11.3034 29.1181 10.8237 27.8768 10.6906C26.6355 10.5574 25.3818 10.7762 24.259 11.3219C23.1362 11.8675 22.1895 12.7181 21.5272 13.7763C20.8649 14.8345 20.5137 16.0577 20.5137 17.3061C20.5137 18.5545 20.8649 19.7778 21.5272 20.836C22.1895 21.8942 23.1362 22.7448 24.259 23.2904C25.3818 23.8361 26.6355 24.0548 27.8768 23.9217C29.1181 23.7885 30.2969 23.3089 31.2784 22.5375C30.4859 21.9154 29.8453 21.1213 29.405 20.2151C28.9648 19.309 28.7364 18.3145 28.7372 17.3071Z" fill="#EB001B"/>
<path d="M41.4084 21.4285V21.2215H41.4953V21.1772H41.2753V21.2215H41.3622V21.4359L41.4084 21.4285ZM41.8353 21.4285V21.1698H41.7688L41.6912 21.3546L41.6136 21.1698H41.5452V21.4285H41.5932V21.2345L41.6653 21.4027H41.7152L41.7873 21.2345V21.4304L41.8353 21.4285Z" fill="#00A1DF"/>
<path d="M42.0423 17.3071C42.042 18.5552 41.6906 19.7781 41.0283 20.8361C40.366 21.894 39.4194 22.7443 38.2968 23.2898C37.1741 23.8354 35.9207 24.0541 34.6796 23.921C33.4385 23.788 32.2599 23.3086 31.2784 22.5375C32.0706 21.9149 32.7111 21.1205 33.1515 20.2143C33.5919 19.3081 33.8207 18.3137 33.8207 17.3061C33.8207 16.2986 33.5919 15.3042 33.1515 14.398C32.7111 13.4918 32.0706 12.6974 31.2784 12.0748C32.2599 11.3032 33.4387 10.8233 34.6801 10.6899C35.9214 10.5566 37.1752 10.7752 38.2982 11.3208C39.4212 11.8664 40.368 12.7169 41.0304 13.7752C41.6928 14.8334 42.0441 16.0567 42.0442 17.3052L42.0423 17.3071Z" fill="#00A1DF"/>
</g>
<defs>
<filter id="filter0_dd_820_8729" x="0.835811" y="0.604307" width="60.7053" height="45.2152" filterUnits="userSpaceOnUse" color-interpolation-filters="sRGB">
<feFlood flood-opacity="0" result="BackgroundImageFix"/>
<feColorMatrix in="SourceAlpha" type="matrix" values="0 0 0 0 0 0 0 0 0 0 0 0 0 0 0 0 0 0 127 0" result="hardAlpha"/>
<feOffset dy="0.418659"/>
<feGaussianBlur stdDeviation="2.09329"/>
<feColorMatrix type="matrix" values="0 0 0 0 0.717647 0 0 0 0 0.717647 0 0 0 0 0.717647 0 0 0 0.08 0"/>
<feBlend mode="normal" in2="BackgroundImageFix" result="effect1_dropShadow_820_8729"/>
<feColorMatrix in="SourceAlpha" type="matrix" values="0 0 0 0 0 0 0 0 0 0 0 0 0 0 0 0 0 0 127 0" result="hardAlpha"/>
<feOffset dy="4.18659"/>
<feGaussianBlur stdDeviation="4.18659"/>
<feColorMatrix type="matrix" values="0 0 0 0 0.717647 0 0 0 0 0.717647 0 0 0 0 0.717647 0 0 0 0.08 0"/>
<feBlend mode="normal" in2="effect1_dropShadow_820_8729" result="effect2_dropShadow_820_8729"/>
<feBlend mode="normal" in="SourceGraphic" in2="effect2_dropShadow_820_8729" result="shape"/>
</filter>
</defs>
</svg>
