<svg width="24" height="24" viewBox="0 0 24 24" fill="none" xmlns="http://www.w3.org/2000/svg">
<path d="M19.9407 4.59154C18.6742 4.45677 17.4277 4.17503 16.2264 3.75201C15.1239 3.36249 14.0664 2.85585 13.072 2.24079C12.8125 2.08329 12.5148 2 12.2112 2C11.9077 2 11.6099 2.08329 11.3504 2.24079L11.3495 2.24173C10.3553 2.85629 9.29811 3.36261 8.19607 3.75201C6.99501 4.17494 5.74881 4.45669 4.48262 4.59157C4.07589 4.63322 3.69908 4.82433 3.42518 5.12788C3.15128 5.43143 2.99977 5.82583 3 6.23469V11.1429C3.00067 12.9538 3.48529 14.7317 4.40371 16.2925C5.32213 17.8532 6.64098 19.1402 8.22375 20.0201L11.4076 21.7896C11.6528 21.9276 11.9294 22 12.2108 22C12.4921 22 12.7687 21.9276 13.0139 21.7896L16.1987 20.0201C17.7815 19.1402 19.1003 17.8532 20.0187 16.2925C20.9371 14.7317 21.4218 12.9538 21.4224 11.1429V6.23469C21.4227 5.82596 21.2713 5.43167 20.9976 5.12813C20.7239 4.82459 20.3473 4.63339 19.9407 4.59154ZM15.9708 10.2619L12.428 14.0408C12.2598 14.2206 12.0279 14.3276 11.782 14.3388C11.536 14.35 11.2954 14.2646 11.1115 14.1008L8.98582 12.2113C8.79863 12.0449 8.68521 11.811 8.6705 11.561C8.65579 11.311 8.74101 11.0654 8.90739 10.8782C9.07378 10.691 9.30771 10.5776 9.55773 10.5629C9.80774 10.5481 10.0534 10.6334 10.2405 10.7997L11.6789 12.0775L14.5925 8.97024C14.6809 8.87605 14.7876 8.80094 14.9061 8.74952C15.0247 8.69811 15.1524 8.67148 15.2816 8.67127C15.4658 8.67136 15.6459 8.72529 15.7999 8.82641C15.9538 8.92753 16.0748 9.07144 16.148 9.24043C16.2213 9.40943 16.2435 9.59614 16.212 9.77761C16.1805 9.95907 16.0967 10.1274 15.9708 10.2619Z" fill="#03599F"/>
</svg>
