<svg width="24" height="24" viewBox="0 0 24 24" fill="none" xmlns="http://www.w3.org/2000/svg">
<path d="M13.9668 3.17188H13.2807C13.0387 2.4898 12.387 2 11.623 2C10.8591 2 10.2074 2.4898 9.96535 3.17188H9.2793C8.31 3.17188 7.52148 3.96039 7.52148 4.92969C7.52148 5.25355 7.78355 5.51562 8.10742 5.51562H15.1387C15.4625 5.51562 15.7246 5.25355 15.7246 4.92969C15.7246 3.96039 14.9361 3.17188 13.9668 3.17188Z" fill="#768998"/>
<path d="M17.4766 4.34375H16.8313C16.87 4.53316 16.8906 4.72906 16.8906 4.92969C16.8906 5.89898 16.1021 6.6875 15.1328 6.6875H8.10156C7.13227 6.6875 6.34375 5.89898 6.34375 4.92969C6.34375 4.72906 6.36441 4.53316 6.40305 4.34375H5.75781C4.78852 4.34375 4 5.13227 4 6.10156V20.2422C4 21.2115 4.78852 22 5.75781 22H17.4766C18.4459 22 19.2344 21.2115 19.2344 20.2422V6.10156C19.2344 5.13227 18.4459 4.34375 17.4766 4.34375ZM9.85938 18.4062H7.51562C7.19176 18.4062 6.92969 18.1442 6.92969 17.8203C6.92969 17.4964 7.19176 17.2344 7.51562 17.2344H9.85938C10.1832 17.2344 10.4453 17.4964 10.4453 17.8203C10.4453 18.1442 10.1832 18.4062 9.85938 18.4062ZM9.85938 14.3047H7.51562C7.19176 14.3047 6.92969 14.0426 6.92969 13.7188C6.92969 13.3949 7.19176 13.1328 7.51562 13.1328H9.85938C10.1832 13.1328 10.4453 13.3949 10.4453 13.7188C10.4453 14.0426 10.1832 14.3047 9.85938 14.3047ZM9.85938 10.2031H7.51562C7.19176 10.2031 6.92969 9.94105 6.92969 9.61719C6.92969 9.29332 7.19176 9.03125 7.51562 9.03125H9.85938C10.1832 9.03125 10.4453 9.29332 10.4453 9.61719C10.4453 9.94105 10.1832 10.2031 9.85938 10.2031ZM15.5471 18.5779C15.7759 18.8068 15.7759 19.1776 15.5471 19.4065C15.4326 19.5209 15.2827 19.5782 15.1328 19.5782C14.9829 19.5782 14.833 19.5209 14.7186 19.4065L13.9609 18.6489L13.2033 19.4065C13.0889 19.5209 12.9389 19.5782 12.7891 19.5782C12.6392 19.5782 12.4892 19.5209 12.3748 19.4065C12.1459 19.1776 12.1459 18.8068 12.3748 18.5779L13.1324 17.8203L12.3748 17.0627C12.1459 16.8338 12.1459 16.463 12.3748 16.2341C12.6036 16.0053 12.9745 16.0053 13.2033 16.2341L13.9609 16.9918L14.7186 16.2341C14.9474 16.0053 15.3182 16.0053 15.5471 16.2341C15.776 16.463 15.776 16.8338 15.5471 17.0627L14.7895 17.8203L15.5471 18.5779ZM16.133 12.9611L14.3752 14.7189C14.2607 14.8334 14.1108 14.8906 13.9609 14.8906C13.8111 14.8906 13.6611 14.8334 13.5467 14.7189L12.3748 13.5471C12.1459 13.3182 12.1459 12.9474 12.3748 12.7185C12.6037 12.4896 12.9745 12.4896 13.2034 12.7185L13.9609 13.4761L15.3045 12.1326C15.5334 11.9037 15.9042 11.9037 16.133 12.1326C16.3619 12.3614 16.3619 12.7323 16.133 12.9611ZM16.133 9.44551L14.3752 11.2033C14.2607 11.3178 14.1108 11.375 13.9609 11.375C13.8111 11.375 13.6611 11.3178 13.5467 11.2033L12.3748 10.0314C12.1459 9.80258 12.1459 9.43176 12.3748 9.20289C12.6037 8.97402 12.9745 8.97402 13.2034 9.20289L13.9609 9.96051L15.3045 8.61695C15.5334 8.38809 15.9042 8.38809 16.133 8.61695C16.3619 8.84582 16.3619 9.21664 16.133 9.44551Z" fill="#768998"/>
</svg>
