<svg width="24" height="24" viewBox="0 0 24 24" fill="none" xmlns="http://www.w3.org/2000/svg">
<path d="M12.5562 4.16875C12.2188 3.94375 11.7812 3.94375 11.4438 4.16875L7.19688 7H3.5C2.67188 7 2 7.67188 2 8.5V18.5C2 19.3281 2.67188 20 3.5 20H10V17C10 15.8969 10.8969 15 12 15C13.1031 15 14 15.8969 14 17V20H20.5C21.3281 20 22 19.3281 22 18.5V8.5C22 7.67188 21.3281 7 20.5 7H16.8031L12.5562 4.16875ZM9.25 9.5C9.25 8.77065 9.53973 8.07118 10.0555 7.55546C10.5712 7.03973 11.2707 6.75 12 6.75C12.7293 6.75 13.4288 7.03973 13.9445 7.55546C14.4603 8.07118 14.75 8.77065 14.75 9.5C14.75 10.2293 14.4603 10.9288 13.9445 11.4445C13.4288 11.9603 12.7293 12.25 12 12.25C11.2707 12.25 10.5712 11.9603 10.0555 11.4445C9.53973 10.9288 9.25 10.2293 9.25 9.5ZM12 8C11.725 8 11.5 8.225 11.5 8.5V9.5C11.5 9.775 11.725 10 12 10H13C13.275 10 13.5 9.775 13.5 9.5C13.5 9.225 13.275 9 13 9H12.5V8.5C12.5 8.225 12.275 8 12 8Z" fill="#768998"/>
</svg>
