<svg width="24" height="24" viewBox="0 0 24 24" fill="none" xmlns="http://www.w3.org/2000/svg">
<path d="M15.3516 8.40208V5.29237C15.3516 4.02838 14.3232 2.99991 13.059 2.99991H5.29232C4.02833 2.99991 3 4.02838 3 5.29237V10.4855C3 11.5682 3.75436 12.4779 4.76497 12.7169V14.0159C4.76497 14.2291 4.89351 14.4214 5.09058 14.5031C5.15581 14.5302 5.22434 14.5432 5.29232 14.5432C5.42951 14.5432 5.56437 14.4897 5.66531 14.3887L7.27592 12.7781H7.59398V11.7492C7.59398 9.90351 9.09541 8.40208 10.941 8.40208H15.3516Z" fill="#768998"/>
<path d="M18.7075 9.45679H10.9408C9.67677 9.45679 8.64844 10.4851 8.64844 11.7492V16.9424C8.64844 18.2065 9.67677 19.2349 10.9408 19.2349H16.7239L18.3345 20.8456C18.4354 20.9465 18.5703 21.0001 18.7076 21.0001C18.7755 21.0001 18.844 20.9871 18.9092 20.96C19.1063 20.8783 19.2348 20.686 19.2348 20.4728V19.1737C20.2456 18.9349 20.9999 18.0251 20.9999 16.9424V11.7492C20.9999 10.4851 19.9715 9.45679 18.7075 9.45679ZM17.0693 13.4705L14.5729 15.9669C14.4699 16.0699 14.3349 16.1213 14.2 16.1213C14.065 16.1213 13.93 16.0699 13.8272 15.9669L12.5788 14.7187C12.3728 14.5129 12.3728 14.1789 12.5788 13.9729C12.7847 13.767 13.1187 13.767 13.3245 13.9729L14.2 14.8482L16.3234 12.7247C16.5294 12.5188 16.8633 12.5188 17.0693 12.7247C17.2753 12.9307 17.2753 13.2647 17.0693 13.4705Z" fill="#768998"/>
</svg>
