<svg width="24" height="24" viewBox="0 0 24 24" fill="none" xmlns="http://www.w3.org/2000/svg">
<path d="M5.48889 21.5778C5.62222 21.7111 5.77778 21.8111 5.94445 21.8889C6.12222 21.9556 6.3 22 6.48889 22C6.72222 22 6.94445 21.9445 7.15556 21.8333C7.35556 21.7222 7.53333 21.5667 7.66667 21.3778C9.11111 19.2556 10.7111 17.2556 12.4556 15.3667L8.63333 11.5444C6.75556 13.2889 4.74445 14.8889 2.62222 16.3333C2.43333 16.4667 2.27778 16.6444 2.16667 16.8444C2.05556 17.0444 2 17.2778 2 17.5111C2 17.7 2.03333 17.8778 2.11111 18.0556C2.17778 18.2333 2.28889 18.3889 2.42222 18.5111L5.48889 21.5778Z" fill="#768998"/>
<path d="M18.5135 2.42222C18.3802 2.28889 18.2247 2.17778 18.058 2.11111C17.8802 2.03333 17.6913 2 17.5135 2C17.2802 2 17.058 2.05556 16.8469 2.16667C16.6358 2.27778 16.4691 2.43333 16.3358 2.62222C14.8913 4.74445 13.2913 6.74445 11.5469 8.63333L15.3691 12.4556C17.2469 10.7111 19.258 9.11111 21.3802 7.66667C21.558 7.54445 21.7024 7.4 21.8024 7.21111C21.9135 7.03333 21.9691 6.83333 21.9913 6.62222C22.0135 6.41111 21.9913 6.2 21.9135 6.01111C21.8358 5.82222 21.7247 5.63333 21.5802 5.48889L18.5135 2.42222Z" fill="#768998"/>
<path d="M11.7097 17.5889L11.5431 19.2222C11.532 19.3111 11.5431 19.4 11.5875 19.4778C11.6208 19.5556 11.6875 19.6222 11.7653 19.6667C11.8431 19.7 11.9208 19.7222 11.9986 19.7111C12.0875 19.7111 12.1764 19.6889 12.2431 19.6333L13.3542 18.8889L14.4653 19.6333C14.5431 19.6778 14.6208 19.7111 14.7097 19.7111C14.7986 19.7111 14.8875 19.6889 14.9542 19.6333C15.032 19.5889 15.0875 19.5222 15.1208 19.4333C15.1542 19.3556 15.1653 19.2667 15.1542 19.1778L14.3986 14.6333C13.4542 15.5778 12.5542 16.5556 11.6875 17.5778L11.7097 17.5889Z" fill="#768998"/>
<path d="M19.6668 11.7667C19.6223 11.6889 19.5556 11.6222 19.4779 11.5889C19.4001 11.5556 19.3112 11.5333 19.2223 11.5445L17.589 11.7111C16.5668 12.5778 15.589 13.4778 14.6445 14.4111L19.189 15.1778C19.2779 15.1889 19.3668 15.1778 19.4445 15.1445C19.5223 15.1111 19.589 15.0445 19.6445 14.9778C19.689 14.9 19.7223 14.8222 19.7223 14.7333C19.7223 14.6445 19.7001 14.5556 19.6445 14.4889L18.9334 13.3778L19.6779 12.2667C19.7223 12.2 19.7556 12.1111 19.7556 12.0222C19.7556 11.9333 19.7334 11.8556 19.689 11.7778L19.6668 11.7667Z" fill="#768998"/>
<path d="M11.5433 8.62222L8.62109 11.5444L12.4433 15.3667L15.3655 12.4444L11.5433 8.62222Z" fill="#768998"/>
</svg>
