<svg width="16" height="16" viewBox="0 0 16 16" fill="none" xmlns="http://www.w3.org/2000/svg">
<path d="M7.99888 15.4286C12.1016 15.4286 15.4275 12.1027 15.4275 8C15.4275 3.89731 12.1016 0.571426 7.99888 0.571426C3.8962 0.571426 0.570312 3.89731 0.570312 8C0.570312 12.1027 3.8962 15.4286 7.99888 15.4286Z" fill="#E28000" stroke="#FAFBFB" stroke-linecap="round" stroke-linejoin="round"/>
<path d="M5.42634 6.28571C5.26855 6.28571 5.14062 6.15779 5.14062 5.99999C5.14062 5.8422 5.26855 5.71428 5.42634 5.71428" fill="white"/>
<path d="M5.42634 6.28571C5.26855 6.28571 5.14062 6.15779 5.14062 5.99999C5.14062 5.8422 5.26855 5.71428 5.42634 5.71428" stroke="#FAFBFB" stroke-linecap="round" stroke-linejoin="round"/>
<path d="M5.42578 6.28571C5.58358 6.28571 5.7115 6.15779 5.7115 5.99999C5.7115 5.8422 5.58358 5.71428 5.42578 5.71428" fill="white"/>
<path d="M5.42578 6.28571C5.58358 6.28571 5.7115 6.15779 5.7115 5.99999C5.7115 5.8422 5.58358 5.71428 5.42578 5.71428" stroke="#FAFBFB" stroke-linecap="round" stroke-linejoin="round"/>
<path d="M10.5709 6.28571C10.4131 6.28571 10.2852 6.15779 10.2852 5.99999C10.2852 5.8422 10.4131 5.71428 10.5709 5.71428" fill="white"/>
<path d="M10.5709 6.28571C10.4131 6.28571 10.2852 6.15779 10.2852 5.99999C10.2852 5.8422 10.4131 5.71428 10.5709 5.71428" stroke="#FAFBFB" stroke-linecap="round" stroke-linejoin="round"/>
<path d="M10.5703 6.28571C10.7281 6.28571 10.856 6.15779 10.856 5.99999C10.856 5.8422 10.7281 5.71428 10.5703 5.71428" fill="white"/>
<path d="M10.5703 6.28571C10.7281 6.28571 10.856 6.15779 10.856 5.99999C10.856 5.8422 10.7281 5.71428 10.5703 5.71428" stroke="#FAFBFB" stroke-linecap="round" stroke-linejoin="round"/>
<path d="M5.14062 10.8571H10.8549H5.14062Z" fill="white"/>
<path d="M5.14062 10.8571H10.8549" stroke="#FAFBFB" stroke-linecap="round" stroke-linejoin="round"/>
</svg>
