<svg width="48" height="48" viewBox="0 0 48 48" fill="none" xmlns="http://www.w3.org/2000/svg">
<rect width="48" height="48" rx="24" fill="#03599F"/>
<path fill-rule="evenodd" clip-rule="evenodd" d="M31.2559 17.9226C31.5813 17.5972 31.5813 17.0695 31.2559 16.7441C30.9305 16.4186 30.4028 16.4186 30.0774 16.7441L25.1233 21.6982L21.5612 16.8405C21.4042 16.6265 21.1546 16.5 20.8892 16.5H17.3333C17.0193 16.5 16.7319 16.6765 16.59 16.9566C16.4481 17.2368 16.4756 17.5729 16.6613 17.8261L21.8795 24.942L16.7441 30.0774C16.4186 30.4028 16.4186 30.9305 16.7441 31.2559C17.0695 31.5813 17.5972 31.5813 17.9226 31.2559L22.8767 26.3018L26.4388 31.1595C26.5958 31.3735 26.8454 31.5 27.1108 31.5H30.6667C30.9807 31.5 31.2681 31.3235 31.41 31.0433C31.5519 30.7633 31.5244 30.4271 31.3387 30.1738L26.1205 23.058L31.2559 17.9226ZM24.3086 23.4054C24.3343 23.4483 24.3643 23.4893 24.3984 23.528L29.0222 29.8333H27.5332L18.9778 18.1667H20.4669L24.3086 23.4054Z" fill="white"/>
</svg>
