<svg width="20" height="20" viewBox="0 0 20 20" fill="none" xmlns="http://www.w3.org/2000/svg">
<g clip-path="url(#clip0_1952_5941)">
<path d="M11.6663 6.6665L8.33301 6.6665C6.26467 6.6665 5.83301 7.09817 5.83301 9.1665L5.83301 18.3332H14.1663L14.1663 9.1665C14.1663 7.09817 13.7347 6.6665 11.6663 6.6665Z" stroke="#768998" stroke-width="1.5" stroke-linejoin="round"/>
<path d="M9.1665 10L10.8332 10M9.1665 12.5H10.8332M9.1665 15H10.8332" stroke="#768998" stroke-width="1.5" stroke-linecap="round" stroke-linejoin="round"/>
<path d="M17.4997 18.3332L17.4997 6.8212C17.4997 5.79762 17.4997 5.28584 17.2508 4.87455C17.0018 4.46327 16.5536 4.23439 15.6571 3.77664L12.039 1.92931C11.072 1.43554 10.833 1.60956 10.833 2.69045L10.833 6.41942" stroke="#768998" stroke-width="1.5" stroke-linecap="round" stroke-linejoin="round"/>
<path d="M2.5 18.3333L2.5 10.8333C2.5 10.1439 2.64389 10 3.33333 10H5.83333" stroke="#768998" stroke-width="1.5" stroke-linecap="round" stroke-linejoin="round"/>
<path d="M18.3332 18.3333L1.6665 18.3333" stroke="#768998" stroke-width="1.5" stroke-linecap="round" stroke-linejoin="round"/>
</g>
<defs>
<clipPath id="clip0_1952_5941">
<rect width="20" height="20" fill="white"/>
</clipPath>
</defs>
</svg>
