<svg width="20" height="20" viewBox="0 0 20 20" fill="none" xmlns="http://www.w3.org/2000/svg">
<g clip-path="url(#clip0_1952_7818)">
<path d="M18.3332 10.0002C18.3332 5.39779 14.6022 1.66683 9.99984 1.66683C5.39746 1.66683 1.6665 5.39779 1.6665 10.0002C1.6665 14.6025 5.39746 18.3335 9.99984 18.3335C14.6022 18.3335 18.3332 14.6025 18.3332 10.0002Z" stroke="#768998" stroke-width="1.5"/>
<path d="M16.6663 4.74924C15.8874 4.80538 14.8897 5.10695 14.1979 6.00239C12.9484 7.61975 11.6989 7.75471 10.8658 7.21559C9.6163 6.40691 10.6663 5.09705 9.19978 4.38521C8.24395 3.92127 8.11068 2.65879 8.64266 1.66675" stroke="#768998" stroke-width="1.5" stroke-linejoin="round"/>
<path d="M1.6665 9.16675C2.30192 9.71851 3.19189 10.2236 4.24045 10.2236C6.40686 10.2236 6.84015 10.6375 6.84015 12.2932C6.84015 13.949 6.84015 13.949 7.27343 15.1908C7.55526 15.9985 7.65377 16.8063 7.092 17.5001" stroke="#768998" stroke-width="1.5" stroke-linejoin="round"/>
<path d="M18.3332 11.2104C17.5939 10.7844 16.6665 10.6091 15.7277 11.2839C13.9312 12.575 12.6926 11.5052 12.1348 12.5743C11.3136 14.1481 14.2463 14.6427 11.6665 18.3335" stroke="#768998" stroke-width="1.5" stroke-linejoin="round"/>
</g>
<defs>
<clipPath id="clip0_1952_7818">
<rect width="20" height="20" fill="white"/>
</clipPath>
</defs>
</svg>
