<svg width="60" height="60" viewBox="0 0 60 60" fill="none" xmlns="http://www.w3.org/2000/svg">
<path d="M30.0562 51.0938C41.706 51.0938 51.15 41.6498 51.15 30C51.15 18.3502 41.706 8.90625 30.0562 8.90625C18.4065 8.90625 8.96249 18.3502 8.96249 30C8.96249 41.6498 18.4065 51.0938 30.0562 51.0938Z" fill="#EE404C"/>
<path d="M21.6094 38.3906C21.8274 38.6117 22.0872 38.7873 22.3737 38.9071C22.6602 39.0269 22.9676 39.0886 23.2781 39.0886C23.5886 39.0886 23.8961 39.0269 24.1825 38.9071C24.469 38.7873 24.7288 38.6117 24.9469 38.3906L30 33.3375L35.0531 38.3906C35.4957 38.8332 36.096 39.0818 36.7219 39.0818C37.3478 39.0818 37.948 38.8332 38.3906 38.3906C38.8332 37.948 39.0818 37.3478 39.0818 36.7219C39.0818 36.096 38.8332 35.4957 38.3906 35.0531L33.3375 30L38.3906 24.9469C38.6098 24.7277 38.7836 24.4676 38.9022 24.1813C39.0208 23.8949 39.0818 23.5881 39.0818 23.2781C39.0818 22.9682 39.0208 22.6613 38.9022 22.375C38.7836 22.0887 38.6098 21.8285 38.3906 21.6094C38.1715 21.3902 37.9113 21.2164 37.625 21.0978C37.3387 20.9792 37.0318 20.9182 36.7219 20.9182C36.4119 20.9182 36.1051 20.9792 35.8187 21.0978C35.5324 21.2164 35.2723 21.3902 35.0531 21.6094L30 26.6625L24.9469 21.6094C24.7277 21.3902 24.4676 21.2164 24.1812 21.0978C23.8949 20.9792 23.588 20.9182 23.2781 20.9182C22.9682 20.9182 22.6613 20.9792 22.375 21.0978C22.0887 21.2164 21.8285 21.3902 21.6094 21.6094C21.3902 21.8285 21.2164 22.0887 21.0978 22.375C20.9792 22.6613 20.9181 22.9682 20.9181 23.2781C20.9181 23.5881 20.9792 23.8949 21.0978 24.1813C21.2164 24.4676 21.3902 24.7277 21.6094 24.9469L26.6625 30L21.6094 35.0531C21.3883 35.2712 21.2127 35.531 21.0929 35.8175C20.9731 36.1039 20.9113 36.4114 20.9113 36.7219C20.9113 37.0324 20.9731 37.3398 21.0929 37.6263C21.2127 37.9128 21.3883 38.1726 21.6094 38.3906Z" fill="#FFF7ED"/>
</svg>
