<svg width="20" height="20" viewBox="0 0 20 20" fill="none" xmlns="http://www.w3.org/2000/svg">
<g clip-path="url(#clip0_1952_5696)">
<path d="M1.6665 9.50016C1.6665 8.53494 1.86795 8.3335 2.83317 8.3335H17.1665C18.1317 8.3335 18.3332 8.53494 18.3332 9.50016V10.5002C18.3332 11.4654 18.1317 11.6668 17.1665 11.6668H2.83317C1.86795 11.6668 1.6665 11.4654 1.6665 10.5002V9.50016Z" stroke="#768998" stroke-width="1.5" stroke-linecap="round"/>
<path d="M1.6665 2.83341C1.6665 1.86819 1.86795 1.66675 2.83317 1.66675H17.1665C18.1317 1.66675 18.3332 1.86819 18.3332 2.83341V3.83341C18.3332 4.79864 18.1317 5.00008 17.1665 5.00008H2.83317C1.86795 5.00008 1.6665 4.79864 1.6665 3.83341V2.83341Z" stroke="#768998" stroke-width="1.5" stroke-linecap="round"/>
<path d="M1.6665 16.1667C1.6665 15.2014 1.86795 15 2.83317 15H17.1665C18.1317 15 18.3332 15.2014 18.3332 16.1667V17.1667C18.3332 18.1319 18.1317 18.3333 17.1665 18.3333H2.83317C1.86795 18.3333 1.6665 18.1319 1.6665 17.1667V16.1667Z" stroke="#768998" stroke-width="1.5" stroke-linecap="round"/>
</g>
<defs>
<clipPath id="clip0_1952_5696">
<rect width="20" height="20" fill="white"/>
</clipPath>
</defs>
</svg>
