<svg width="19" height="22" viewBox="0 0 19 22" fill="none" xmlns="http://www.w3.org/2000/svg">
<g id="elements">
<path id="Rectangle 2174" d="M1 12V11.1963C1 8.22892 1 6.74523 1.46894 5.56024C2.22281 3.65521 3.81714 2.15255 5.83836 1.44201C7.09563 1.00003 8.66981 1.00003 11.8182 1.00003C13.6173 1.00003 14.5168 1.00003 15.2352 1.25259C16.3902 1.65861 17.3012 2.51728 17.732 3.60587C18 4.283 18 5.13082 18 6.82646V11.0142V12" stroke="#FAFBFB" stroke-width="1.5" stroke-linecap="round" stroke-linejoin="round"/>
<path id="Vector" d="M1 11C1 9.15905 2.49238 7.66667 4.33333 7.66667C4.99912 7.66667 5.78404 7.78333 6.43137 7.60988C7.00652 7.45576 7.45576 7.00652 7.60988 6.43136C7.78333 5.78404 7.66667 4.99912 7.66667 4.33333C7.66667 2.49238 9.15905 1 11 1" stroke="#FAFBFB" stroke-width="1.5" stroke-linecap="round" stroke-linejoin="round"/>
<path id="Vector_2" d="M13.8561 21C13.8561 21.4142 14.1918 21.75 14.6061 21.75C15.0203 21.75 15.3561 21.4142 15.3561 21H13.8561ZM11.1969 21.75C11.6111 21.75 11.9469 21.4142 11.9469 21C11.9469 20.5858 11.6111 20.25 11.1969 20.25V21.75ZM8.28783 20.25C7.87362 20.25 7.53783 20.5858 7.53783 21C7.53783 21.4142 7.87362 21.75 8.28783 21.75V20.25ZM8.28783 14.25C7.87362 14.25 7.53783 14.5858 7.53783 15C7.53783 15.4142 7.87362 15.75 8.28783 15.75V14.25ZM11.1969 15.75C11.6111 15.75 11.9469 15.4142 11.9469 15C11.9469 14.5858 11.6111 14.25 11.1969 14.25V15.75ZM1 14.25C0.585786 14.25 0.25 14.5858 0.25 15C0.25 15.4142 0.585786 15.75 1 15.75V14.25ZM4.87879 21.75C5.293 21.75 5.62879 21.4142 5.62879 21C5.62879 20.5858 5.293 20.25 4.87879 20.25V21.75ZM3.64914 17.1766L3.08105 16.6869L3.64914 17.1766ZM2.22964 18.8234L1.66155 18.3338L2.22964 18.8234ZM1.24668 20.6303L1.86342 20.2035H1.86342L1.24668 20.6303ZM15.7697 15.75H16.5455V14.25H15.7697V15.75ZM15.3561 21V18H13.8561V21H15.3561ZM15.3561 18V16.2H13.8561V18H15.3561ZM16.5455 17.25H14.6061V18.75H16.5455V17.25ZM17.25 16.5C17.25 16.9361 16.913 17.25 16.5455 17.25V18.75C17.7846 18.75 18.75 17.7207 18.75 16.5H17.25ZM16.5455 15.75C16.913 15.75 17.25 16.0639 17.25 16.5H18.75C18.75 15.2793 17.7846 14.25 16.5455 14.25V15.75ZM15.7697 14.25C15.5173 14.25 15.2502 14.2483 15.0283 14.2791C14.7824 14.3132 14.4848 14.3992 14.238 14.6536L15.3149 15.6978C15.2386 15.7766 15.1633 15.7747 15.2343 15.7649C15.2732 15.7595 15.3324 15.7549 15.4266 15.7525C15.5203 15.7501 15.6297 15.75 15.7697 15.75V14.25ZM15.3561 16.2C15.3561 16.0559 15.3561 15.9421 15.3585 15.8444C15.3609 15.7462 15.3654 15.6823 15.3711 15.6386C15.3821 15.5543 15.3881 15.6223 15.3149 15.6978L14.238 14.6536C13.9944 14.9049 13.9153 15.2022 13.8837 15.4447C13.8546 15.6678 13.8561 15.9377 13.8561 16.2H15.3561ZM11.1969 20.25H9.74238V21.75H11.1969V20.25ZM9.74238 20.25H8.28783V21.75H9.74238V20.25ZM8.28783 15.75H9.74238V14.25H8.28783V15.75ZM9.74238 15.75H11.1969V14.25H9.74238V15.75ZM8.99238 15V21H10.4924V15H8.99238ZM1 15.75H2.14305V14.25H1V15.75ZM4.87879 20.25H3.73574V21.75H4.87879V20.25ZM3.08105 16.6869L1.66155 18.3338L2.79773 19.3131L4.21723 17.6662L3.08105 16.6869ZM3.73574 20.25C2.9715 20.25 2.46523 20.2488 2.11402 20.2086C1.725 20.1642 1.78771 20.0941 1.86342 20.2035L0.629932 21.0571C0.961456 21.5362 1.52428 21.651 1.94363 21.6989C2.40079 21.7512 3.01115 21.75 3.73574 21.75V20.25ZM1.66155 18.3338C1.26808 18.7902 0.906948 19.2054 0.69244 19.5566C0.582178 19.7372 0.469622 19.9641 0.433434 20.2229C0.392803 20.5135 0.454529 20.8036 0.629932 21.0571L1.86342 20.2035C1.91092 20.2722 1.92833 20.3637 1.91898 20.4306C1.91408 20.4657 1.9084 20.4436 1.97263 20.3384C2.10709 20.1182 2.36535 19.8147 2.79773 19.3131L1.66155 18.3338ZM2.14305 15.75C2.90729 15.75 3.41355 15.7512 3.76476 15.7914C4.15378 15.8358 4.09107 15.9059 4.01536 15.7965L5.24886 14.9429C4.91733 14.4638 4.35451 14.349 3.93516 14.3011C3.478 14.2488 2.86764 14.25 2.14305 14.25V15.75ZM4.21723 17.6662C4.6107 17.2098 4.97184 16.7946 5.18635 16.4434C5.29661 16.2628 5.40917 16.0359 5.44535 15.7771C5.48599 15.4865 5.42426 15.1964 5.24886 14.9429L4.01536 15.7965C3.96787 15.7278 3.95046 15.6363 3.95981 15.5694C3.96471 15.5343 3.97038 15.5564 3.90616 15.6616C3.77169 15.8818 3.51344 16.1853 3.08105 16.6869L4.21723 17.6662Z" fill="#FAFBFB"/>
</g>
</svg>
