<svg width="20" height="16" viewBox="0 0 20 16" fill="none" xmlns="http://www.w3.org/2000/svg">
<path d="M1.6665 3L7.42736 6.26414C9.55117 7.46751 10.4485 7.46751 12.5723 6.26414L18.3332 3" stroke="#768998" stroke-width="1.5" stroke-linejoin="round"/>
<path d="M1.67964 9.22977C1.73412 11.7844 1.76136 13.0617 2.70397 14.0079C3.64657 14.9541 4.95845 14.987 7.58219 15.0529C9.19926 15.0936 10.8004 15.0936 12.4175 15.0529C15.0412 14.987 16.3531 14.9541 17.2957 14.0079C18.2383 13.0617 18.2656 11.7844 18.32 9.22977C18.3376 8.40836 18.3376 7.59181 18.32 6.77041C18.2656 4.2158 18.2383 2.93849 17.2957 1.9923C16.3531 1.04611 15.0412 1.01315 12.4175 0.947222C10.8004 0.906592 9.19926 0.90659 7.58219 0.947217C4.95844 1.01313 3.64657 1.04609 2.70396 1.99229C1.76136 2.93848 1.73412 4.21579 1.67964 6.7704C1.66212 7.5918 1.66212 8.40836 1.67964 9.22977Z" stroke="#768998" stroke-width="1.5" stroke-linejoin="round"/>
</svg>
