<svg width="20" height="20" viewBox="0 0 20 20" fill="none" xmlns="http://www.w3.org/2000/svg">
<g id="location-01">
<g id="elements">
<path id="Vector" d="M11.3481 17.8058C10.9867 18.1442 10.5037 18.3334 10.0009 18.3334C9.49821 18.3334 9.01515 18.1442 8.65374 17.8058C5.34418 14.6883 0.908969 11.2058 3.07189 6.14974C4.24136 3.41598 7.04862 1.66669 10.0009 1.66669C12.9532 1.66669 15.7605 3.41598 16.93 6.14974C19.0902 11.1994 14.6658 14.6991 11.3481 17.8058Z" stroke="#FF9C1C" stroke-width="1.3"/>
<path id="Ellipse 1590" d="M12.9163 9.16667C12.9163 10.7775 11.6105 12.0833 9.99967 12.0833C8.38884 12.0833 7.08301 10.7775 7.08301 9.16667C7.08301 7.55584 8.38884 6.25 9.99967 6.25C11.6105 6.25 12.9163 7.55584 12.9163 9.16667Z" stroke="#FF9C1C" stroke-width="1.3"/>
</g>
</g>
</svg>
