<svg width="20" height="20" viewBox="0 0 20 20" fill="none" xmlns="http://www.w3.org/2000/svg">
<g id="mail-01">
<g id="elements">
<path id="Vector 7163" d="M1.66663 5L7.42748 8.26414C9.55129 9.46751 10.4486 9.46751 12.5724 8.26414L18.3333 5" stroke="#FF9C1C" stroke-width="1.3" stroke-linejoin="round"/>
<path id="Vector" d="M1.67976 11.2297C1.73424 13.7843 1.76148 15.0616 2.70409 16.0078C3.6467 16.954 4.95857 16.9869 7.58232 17.0529C9.19939 17.0935 10.8005 17.0935 12.4176 17.0529C15.0414 16.9869 16.3532 16.954 17.2958 16.0078C18.2384 15.0616 18.2657 13.7843 18.3202 11.2297C18.3377 10.4083 18.3377 9.59172 18.3202 8.77032C18.2657 6.21571 18.2384 4.9384 17.2958 3.99221C16.3532 3.04602 15.0414 3.01305 12.4176 2.94713C10.8005 2.9065 9.19938 2.9065 7.58231 2.94713C4.95857 3.01304 3.64669 3.046 2.70409 3.9922C1.76148 4.93839 1.73424 6.21569 1.67976 8.77031C1.66225 9.59171 1.66225 10.4083 1.67976 11.2297Z" stroke="#FF9C1C" stroke-width="1.3" stroke-linejoin="round"/>
</g>
</g>
</svg>
