<svg width="20" height="20" viewBox="0 0 20 20" fill="none" xmlns="http://www.w3.org/2000/svg">
<g clip-path="url(#clip0_1952_7018)">
<path d="M2.9165 15C2.9165 13.8215 2.9165 13.2322 3.28262 12.8661C3.64874 12.5 4.23799 12.5 5.4165 12.5H5.83317C6.61884 12.5 7.01168 12.5 7.25576 12.7441C7.49984 12.9882 7.49984 13.381 7.49984 14.1667V18.3333H2.9165V15Z" stroke="#768998" stroke-width="1.5" stroke-linecap="round" stroke-linejoin="round"/>
<path d="M12.5 15.8334C12.5 15.0477 12.5 14.6549 12.7441 14.4108C12.9882 14.1667 13.381 14.1667 14.1667 14.1667H14.5833C15.7618 14.1667 16.3511 14.1667 16.7172 14.5329C17.0833 14.899 17.0833 15.4882 17.0833 16.6667V18.3334H12.5V15.8334Z" stroke="#768998" stroke-width="1.5" stroke-linecap="round" stroke-linejoin="round"/>
<path d="M1.6665 18.3335H18.3332" stroke="#768998" stroke-width="1.5" stroke-linecap="round" stroke-linejoin="round"/>
<path d="M7.5 13.3335C7.5 12.155 7.5 11.5657 7.86612 11.1996C8.23223 10.8335 8.82149 10.8335 10 10.8335C11.1785 10.8335 11.7678 10.8335 12.1339 11.1996C12.5 11.5657 12.5 12.155 12.5 13.3335V18.3335H7.5V13.3335Z" stroke="#768998" stroke-width="1.5" stroke-linecap="round" stroke-linejoin="round"/>
<path d="M10.5757 2.14814L11.1623 3.33104C11.2423 3.4957 11.4556 3.65365 11.6356 3.68389L12.6988 3.862C13.3787 3.97626 13.5387 4.47361 13.0488 4.96425L12.2222 5.79765C12.0822 5.93879 12.0056 6.211 12.0489 6.4059L12.2855 7.43758C12.4722 8.25418 12.0422 8.57007 11.3256 8.14329L10.3291 7.54848C10.1491 7.44094 9.85246 7.44094 9.66915 7.54848L8.67259 8.14329C7.95934 8.57007 7.52605 8.25082 7.7127 7.43758L7.94934 6.4059C7.99267 6.211 7.91601 5.93879 7.77603 5.79765L6.94945 4.96425C6.46284 4.47361 6.61949 3.97626 7.29941 3.862L8.36263 3.68389C8.53927 3.65365 8.75258 3.4957 8.83258 3.33104L9.41918 2.14814C9.73914 1.50628 10.2591 1.50628 10.5757 2.14814Z" stroke="#768998" stroke-width="1.5" stroke-linecap="round" stroke-linejoin="round"/>
</g>
<defs>
<clipPath id="clip0_1952_7018">
<rect width="20" height="20" fill="white"/>
</clipPath>
</defs>
</svg>
