<svg width="16" height="17" viewBox="0 0 16 17" fill="none" xmlns="http://www.w3.org/2000/svg">
<g id="Social Icons">
<path id="Vector" d="M15.8406 5.77773C15.8406 5.77773 15.6844 4.67461 15.2031 4.19023C14.5938 3.55273 13.9125 3.54961 13.6 3.51211C11.3625 3.34961 8.00313 3.34961 8.00313 3.34961H7.99687C7.99687 3.34961 4.6375 3.34961 2.4 3.51211C2.0875 3.54961 1.40625 3.55273 0.796875 4.19023C0.315625 4.67461 0.1625 5.77773 0.1625 5.77773C0.1625 5.77773 0 7.07461 0 8.36836V9.58086C0 10.8746 0.159375 12.1715 0.159375 12.1715C0.159375 12.1715 0.315625 13.2746 0.79375 13.759C1.40313 14.3965 2.20313 14.3746 2.55938 14.4434C3.84063 14.5652 8 14.6027 8 14.6027C8 14.6027 11.3625 14.5965 13.6 14.4371C13.9125 14.3996 14.5938 14.3965 15.2031 13.759C15.6844 13.2746 15.8406 12.1715 15.8406 12.1715C15.8406 12.1715 16 10.8777 16 9.58086V8.36836C16 7.07461 15.8406 5.77773 15.8406 5.77773ZM6.34688 11.0527V6.55586L10.6687 8.81211L6.34688 11.0527Z" fill="#1D3C55"/>
</g>
</svg>
