<svg width="16" height="17" viewBox="0 0 16 17" fill="none" xmlns="http://www.w3.org/2000/svg">
<g id="Social Icons">
<path id="Vector" d="M8 0.977722C3.58176 0.977722 0 4.55948 0 8.97772C0 12.7294 2.58304 15.8776 6.06752 16.7422V11.4225H4.41792V8.97772H6.06752V7.92428C6.06752 5.2014 7.29984 3.93932 9.97312 3.93932C10.48 3.93932 11.3546 4.03884 11.7123 4.13804V6.35404C11.5235 6.3342 11.1955 6.32428 10.7882 6.32428C9.47648 6.32428 8.9696 6.82124 8.9696 8.11308V8.97772H11.5827L11.1338 11.4225H8.9696V16.9192C12.9309 16.4408 16.0003 13.068 16.0003 8.97772C16 4.55948 12.4182 0.977722 8 0.977722Z" fill="#1D3C55"/>
</g>
</svg>
