<svg width="16" height="17" viewBox="0 0 16 17" fill="none" xmlns="http://www.w3.org/2000/svg">
<g id="Social Icons">
<path id="Vector" d="M8 2.41835C10.1375 2.41835 10.3906 2.42772 11.2313 2.46522C12.0125 2.4996 12.4344 2.63085 12.7156 2.74022C13.0875 2.88397 13.3563 3.05897 13.6344 3.3371C13.9156 3.61835 14.0875 3.88397 14.2313 4.25585C14.3406 4.5371 14.4719 4.9621 14.5063 5.74022C14.5438 6.58397 14.5531 6.8371 14.5531 8.97147C14.5531 11.109 14.5438 11.3621 14.5063 12.2027C14.4719 12.984 14.3406 13.4058 14.2313 13.6871C14.0875 14.059 13.9125 14.3277 13.6344 14.6058C13.3531 14.8871 13.0875 15.059 12.7156 15.2027C12.4344 15.3121 12.0094 15.4433 11.2313 15.4777C10.3875 15.5152 10.1344 15.5246 8 15.5246C5.8625 15.5246 5.60938 15.5152 4.76875 15.4777C3.9875 15.4433 3.56563 15.3121 3.28438 15.2027C2.9125 15.059 2.64375 14.884 2.36563 14.6058C2.08438 14.3246 1.9125 14.059 1.76875 13.6871C1.65938 13.4058 1.52813 12.9808 1.49375 12.2027C1.45625 11.359 1.44688 11.1058 1.44688 8.97147C1.44688 6.83397 1.45625 6.58085 1.49375 5.74022C1.52813 4.95897 1.65938 4.5371 1.76875 4.25585C1.9125 3.88397 2.0875 3.61522 2.36563 3.3371C2.64688 3.05585 2.9125 2.88397 3.28438 2.74022C3.56563 2.63085 3.99063 2.4996 4.76875 2.46522C5.60938 2.42772 5.8625 2.41835 8 2.41835ZM8 0.977722C5.82813 0.977722 5.55625 0.987097 4.70313 1.0246C3.85313 1.0621 3.26875 1.1996 2.7625 1.39647C2.23438 1.60272 1.7875 1.8746 1.34375 2.32147C0.896875 2.76522 0.625 3.2121 0.41875 3.7371C0.221875 4.24647 0.084375 4.82772 0.046875 5.67772C0.009375 6.53397 0 6.80585 0 8.97772C0 11.1496 0.009375 11.4215 0.046875 12.2746C0.084375 13.1246 0.221875 13.709 0.41875 14.2152C0.625 14.7433 0.896875 15.1902 1.34375 15.634C1.7875 16.0777 2.23438 16.3527 2.75938 16.5558C3.26875 16.7527 3.85 16.8902 4.7 16.9277C5.55313 16.9652 5.825 16.9746 7.99688 16.9746C10.1688 16.9746 10.4406 16.9652 11.2938 16.9277C12.1438 16.8902 12.7281 16.7527 13.2344 16.5558C13.7594 16.3527 14.2063 16.0777 14.65 15.634C15.0938 15.1902 15.3688 14.7433 15.5719 14.2183C15.7688 13.709 15.9063 13.1277 15.9438 12.2777C15.9813 11.4246 15.9906 11.1527 15.9906 8.98085C15.9906 6.80897 15.9813 6.5371 15.9438 5.68397C15.9063 4.83397 15.7688 4.2496 15.5719 3.74335C15.375 3.2121 15.1031 2.76522 14.6563 2.32147C14.2125 1.87772 13.7656 1.60272 13.2406 1.3996C12.7313 1.20272 12.15 1.06522 11.3 1.02772C10.4438 0.987097 10.1719 0.977722 8 0.977722Z" fill="#1D3C55"/>
<path id="Vector_2" d="M8 4.86835C5.73125 4.86835 3.89062 6.70897 3.89062 8.97772C3.89062 11.2465 5.73125 13.0871 8 13.0871C10.2688 13.0871 12.1094 11.2465 12.1094 8.97772C12.1094 6.70897 10.2688 4.86835 8 4.86835ZM8 11.6433C6.52813 11.6433 5.33437 10.4496 5.33437 8.97772C5.33437 7.50585 6.52813 6.3121 8 6.3121C9.47188 6.3121 10.6656 7.50585 10.6656 8.97772C10.6656 10.4496 9.47188 11.6433 8 11.6433Z" fill="#1D3C55"/>
<path id="Vector_3" d="M13.2312 4.70584C13.2312 5.23709 12.8 5.66521 12.2719 5.66521C11.7406 5.66521 11.3125 5.23396 11.3125 4.70584C11.3125 4.17459 11.7438 3.74646 12.2719 3.74646C12.8 3.74646 13.2312 4.17771 13.2312 4.70584Z" fill="#1D3C55"/>
</g>
</svg>
