<svg width="497" height="295" viewBox="0 0 497 295" fill="none" xmlns="http://www.w3.org/2000/svg">
<g clip-path="url(#clip0_2122_4303)">
<path d="M316.733 57.0524C316.733 57.0524 318.272 46.6189 305.543 44.6364C299.179 43.6448 295.375 47.0677 293.161 50.7382C290.806 54.643 290.135 59.3282 291.05 63.7943C292.245 69.628 295.404 79.4168 303.752 89.6147C304.39 90.3945 305.397 90.7705 306.387 90.5812C311.794 89.5452 329.546 85.3842 337.23 74.2682C337.23 74.2682 345.934 61.2743 332.184 53.7136C332.184 53.7136 321.469 48.9483 316.733 57.0524Z" fill="white"/>
<path d="M160.889 90.7043C160.889 90.7043 156.532 86.8054 151.726 92.0765C149.323 94.7117 149.744 97.5143 150.765 99.6584C151.852 101.939 153.814 103.68 156.16 104.622C159.224 105.853 164.718 107.385 171.986 106.647C172.541 106.591 173.023 106.241 173.238 105.726C174.41 102.913 177.91 93.4447 175.115 86.5003C175.115 86.5003 171.763 78.5113 164.065 82.5498C164.065 82.5498 158.587 86.0416 160.889 90.7043Z" fill="white"/>
<path d="M136.216 86.2799C136.216 86.2799 134.162 84.441 131.895 86.9272C130.761 88.1704 130.96 89.4923 131.442 90.503C131.954 91.5787 132.88 92.4002 133.986 92.8443C135.431 93.4249 138.022 94.1477 141.451 93.7995C141.712 93.773 141.94 93.6082 142.041 93.3653C142.594 92.0388 144.245 87.5733 142.927 84.2973C142.927 84.2973 141.346 80.5296 137.715 82.434C137.715 82.434 135.13 84.0802 136.216 86.2799Z" fill="white"/>
<path d="M422.968 21.2076C422.968 21.2076 423.629 16.2159 417.539 15.3586C414.494 14.9304 412.702 16.5905 411.671 18.3586C410.574 20.2391 410.287 22.4805 410.755 24.606C411.367 27.3822 412.944 32.033 417.001 36.8427C417.311 37.21 417.794 37.3828 418.265 37.2855C420.839 36.7533 429.285 34.6424 432.874 29.2813C432.874 29.2813 436.938 23.0173 430.321 19.5044C430.321 19.5044 425.172 17.3054 422.968 21.2076Z" fill="#FD6E74"/>
<path d="M49.2045 168.022C49.2045 168.022 46.7331 163.634 41.3482 166.602C38.6554 168.086 38.2208 170.489 38.4586 172.521C38.7117 174.683 39.8295 176.648 41.482 178.066C43.6401 179.92 47.6965 182.692 53.8314 184.104C54.3005 184.212 54.7902 184.061 55.1089 183.7C56.8468 181.73 62.3311 174.976 61.9799 168.536C61.9799 168.536 61.4638 161.089 54.0613 162.25C54.0613 162.25 48.6215 163.58 49.2045 168.022Z" fill="#FD6E74"/>
<path d="M43.2397 36.9572C43.2397 36.9572 40.7682 32.5692 35.3834 35.5373C32.6906 37.0214 32.2559 39.4242 32.4938 41.4564C32.7469 43.6183 33.8647 45.583 35.5172 47.0015C37.6753 48.8549 41.7316 51.6278 47.8666 53.0397C48.3357 53.1476 48.8253 52.9961 49.144 52.6353C50.882 50.6654 56.3663 43.9109 56.0151 37.4709C56.0151 37.4709 55.4989 30.024 48.0965 31.185C48.0965 31.185 42.6566 32.5149 43.2397 36.9572Z" fill="#FD6E74"/>
<path d="M63.8629 18.4645C63.8629 18.4645 62.2183 15.5453 58.6357 17.5199C56.844 18.5075 56.5545 20.1061 56.7135 21.4585C56.8818 22.8969 57.6259 24.2035 58.7251 25.1481C60.161 26.3813 62.8597 28.2262 66.9419 29.1655C67.254 29.2369 67.58 29.1363 67.792 28.896C68.9482 27.5854 72.5971 23.0915 72.3632 18.8067C72.3632 18.8067 72.02 13.8521 67.095 14.6246C67.0936 14.6246 63.4746 15.5089 63.8629 18.4645Z" fill="#FD6E74"/>
<path d="M460.883 170.564C460.883 170.564 461.903 167.373 458.016 166.097C456.072 165.459 454.703 166.336 453.82 167.372C452.88 168.475 452.429 169.909 452.485 171.356C452.559 173.246 453.045 176.477 455.136 180.103C455.296 180.38 455.592 180.55 455.912 180.541C457.66 180.495 463.439 180.104 466.421 177.014C466.421 177.014 469.819 173.389 465.898 170.312C465.898 170.312 462.786 168.268 460.883 170.564Z" fill="#FD6E74"/>
<mask id="mask0_2122_4303" style="mask-type:luminance" maskUnits="userSpaceOnUse" x="0" y="-37" width="497" height="332">
<path d="M496.943 -36.3557H0V294.616H496.943V-36.3557Z" fill="white"/>
</mask>
<g mask="url(#mask0_2122_4303)">
<path d="M92.5499 81.6992C93.2529 81.208 94.588 79.9437 93.3934 76.0826C92.1987 72.2208 80.3218 73.0635 79.6897 71.9402C79.0569 70.8169 82.0087 68.0082 84.398 61.69C86.7873 55.3711 81.6576 49.123 79.6897 49.8948C77.7218 50.6673 76.0355 61.1982 71.3264 63.6553C67.8565 65.4664 62.7863 71.5066 60.3579 74.5602C44.905 72.7458 -40.0066 62.0971 -74.894 43.384C-74.894 43.384 -82.3786 78.9647 -72.0548 90.5672C-62.104 101.751 46.0354 103.951 66.0801 99.708C70.6811 101.166 81.1328 101.409 85.6636 100.936C90.3719 100.445 90.2315 95.6702 90.2315 95.6702C93.6047 94.3363 92.691 88.6496 92.691 88.6496C95.0094 85.8416 92.5499 81.6992 92.5499 81.6992Z" fill="#E29579"/>
<path d="M91.8504 81.4835C90.1144 82.0296 88.2837 82.2943 86.4483 82.3188C84.607 82.3466 82.7762 82.1302 80.9713 81.6609C80.0742 81.3987 79.13 80.991 78.4515 80.2158C78.1215 79.8339 77.8605 79.3805 77.7326 78.8741C77.5981 78.3704 77.6345 77.811 77.828 77.3344C78.2083 76.368 79.0604 75.718 79.9649 75.4307C80.8779 75.1474 81.8168 75.1632 82.7146 75.283C81.8108 75.3479 80.9011 75.4545 80.1119 75.8172C79.3308 76.1575 78.6847 76.8029 78.4482 77.5529C78.2063 78.2989 78.4873 79.1064 79.0452 79.6836C79.5845 80.2714 80.371 80.6243 81.2019 80.852C82.8975 81.3094 84.6845 81.5622 86.4616 81.6648C88.2459 81.7615 90.0435 81.6873 91.8504 81.4835Z" fill="#DF8666"/>
<path d="M89.8825 88.4954C88.0988 88.561 86.3158 88.5431 84.5314 88.4074C82.7477 88.277 80.9633 88.0069 79.2161 87.5508C78.3428 87.3079 77.447 87.0114 76.6492 86.4626C75.8607 85.9284 75.1895 85.0474 75.0888 84.0478C74.9616 83.0728 75.3002 82.0501 76.0045 81.3921C76.7002 80.7408 77.6822 80.4429 78.5641 80.6183C77.6716 80.6322 76.8321 81.038 76.3053 81.6768C75.768 82.303 75.5884 83.1727 75.7395 83.9459C75.8939 84.723 76.4034 85.3737 77.0958 85.8007C77.7783 86.2462 78.5972 86.5202 79.4334 86.7373C81.1224 87.1954 82.857 87.4952 84.6043 87.7567C86.3522 88.0135 88.1187 88.2134 89.8825 88.4954Z" fill="#DF8666"/>
<path d="M88.6603 95.463C87.2079 95.3922 85.7674 95.1764 84.3468 94.8713C82.9229 94.5701 81.5275 94.165 80.1473 93.6824C79.4589 93.4243 78.7572 93.1257 78.1218 92.6809C77.4936 92.2308 76.9338 91.6317 76.6237 90.8996C76.2983 90.1847 76.2493 89.2937 76.6124 88.5848C76.9523 87.8904 77.6533 87.3384 78.4021 87.3609C77.6858 87.5323 77.1928 88.1168 76.9954 88.743C76.7787 89.3718 76.9079 90.045 77.2173 90.615C77.8528 91.7866 79.1157 92.432 80.4355 92.8914C81.774 93.3766 83.1436 93.8115 84.5118 94.2371L88.6603 95.463Z" fill="#DF8666"/>
<path d="M82.9302 99.5293C82.0231 99.3983 81.1319 99.1858 80.2699 98.8277C79.4085 98.4775 78.5849 97.9473 77.9316 97.2271C77.2922 96.5076 76.8158 95.5597 76.8099 94.5595C76.7827 93.5864 77.1948 92.5644 77.982 92.054C77.4612 92.8139 77.3432 93.6956 77.4658 94.5065C77.5937 95.3161 78.0019 96.0515 78.5604 96.6664C79.111 97.2953 79.8094 97.795 80.5621 98.2412C81.3168 98.686 82.1351 99.0686 82.9302 99.5293Z" fill="#DF8666"/>
<path d="M66.9023 85.8575C68.5071 85.6709 70.0377 85.2108 71.4298 84.4972C72.816 83.779 74.0709 82.8205 75.0688 81.6423C76.0786 80.474 76.8313 79.0872 77.3262 77.6077C77.8152 76.1237 78.0339 74.5416 77.9703 72.9291C78.3837 74.494 78.3559 76.1879 77.9583 77.7891C77.5667 79.3957 76.7902 80.9161 75.7088 82.1897C74.6169 83.4534 73.2334 84.4562 71.7055 85.091C70.1842 85.7311 68.5138 86.0217 66.9023 85.8575Z" fill="#DF8666"/>
<path d="M380.896 220.14C380.126 219.763 378.612 218.719 379.198 214.721C379.784 210.721 391.649 209.728 392.101 208.521C392.553 207.313 389.204 204.993 385.87 199.117C382.536 193.24 386.642 186.277 388.706 186.738C390.769 187.199 394.057 197.345 399.088 199.05C402.796 200.305 408.736 205.494 411.606 208.139C426.595 203.971 508.856 180.395 540.445 156.542C540.445 156.542 553.321 190.549 544.908 203.6C536.798 216.18 430.286 234.977 409.826 233.867C405.504 236.015 395.215 237.861 390.665 238.09C385.937 238.329 385.34 233.59 385.34 233.59C381.801 232.79 381.829 227.031 381.829 227.031C379.104 224.611 380.896 220.14 380.896 220.14Z" fill="#E29579"/>
<path d="M381.562 219.819C383.362 220.091 385.212 220.072 387.03 219.814C388.854 219.559 390.629 219.063 392.34 218.322C393.186 217.926 394.056 217.377 394.608 216.507C394.875 216.079 395.063 215.591 395.111 215.071C395.167 214.552 395.044 214.005 394.78 213.563C394.255 212.667 393.313 212.155 392.375 212.01C391.429 211.871 390.504 212.031 389.636 212.287C390.539 212.212 391.454 212.178 392.289 212.415C393.113 212.631 393.852 213.169 394.2 213.874C394.554 214.574 394.401 215.415 393.938 216.071C393.496 216.735 392.774 217.205 391.988 217.557C390.383 218.269 388.656 218.793 386.916 219.169C385.166 219.539 383.379 219.743 381.562 219.819Z" fill="#DF8666"/>
<path d="M384.586 226.445C386.359 226.236 388.118 225.944 389.86 225.535C391.603 225.132 393.324 224.591 394.981 223.872C395.806 223.497 396.646 223.067 397.349 222.402C398.046 221.753 398.574 220.779 398.519 219.776C398.494 218.793 398.003 217.834 397.205 217.292C396.417 216.755 395.401 216.612 394.557 216.921C395.441 216.797 396.333 217.069 396.953 217.619C397.58 218.155 397.891 218.987 397.861 219.774C397.828 220.566 397.425 221.287 396.807 221.816C396.201 222.361 395.435 222.757 394.641 223.101C393.043 223.813 391.375 224.376 389.689 224.903C388 225.426 386.285 225.895 384.586 226.445Z" fill="#DF8666"/>
<path d="M386.871 233.141C388.295 232.848 389.685 232.413 391.042 231.893C392.403 231.376 393.719 230.762 395.008 230.074C395.649 229.713 396.296 229.31 396.856 228.772C397.407 228.231 397.867 227.554 398.062 226.782C398.273 226.025 398.184 225.137 397.716 224.493C397.274 223.859 396.496 223.421 395.76 223.559C396.493 223.618 397.071 224.12 397.363 224.708C397.674 225.296 397.649 225.981 397.432 226.592C396.985 227.847 395.836 228.679 394.603 229.335C393.355 230.021 392.069 230.661 390.782 231.292L386.871 233.141Z" fill="#DF8666"/>
<path d="M393.156 236.279C394.033 236.009 394.88 235.663 395.677 235.176C396.475 234.698 397.206 234.047 397.741 233.236C398.262 232.426 398.586 231.417 398.438 230.427C398.315 229.461 397.751 228.515 396.894 228.131C397.525 228.802 397.778 229.656 397.782 230.475C397.78 231.295 397.49 232.084 397.033 232.778C396.586 233.484 395.973 234.086 395.298 234.642C394.621 235.197 393.871 235.701 393.156 236.279Z" fill="#DF8666"/>
<path d="M406.888 220.305C405.273 220.367 403.69 220.148 402.205 219.657C400.725 219.161 399.337 218.407 398.17 217.396C396.992 216.396 396.034 215.142 395.318 213.757C394.606 212.365 394.146 210.836 393.961 209.232C393.793 210.842 394.082 212.512 394.721 214.033C395.355 215.56 396.357 216.943 397.622 218.035C398.895 219.116 400.417 219.894 402.024 220.286C403.626 220.685 405.321 220.716 406.888 220.305Z" fill="#DF8666"/>
<path d="M425.021 228.084C424.935 230.189 424.809 231.811 424.67 233.055C424.206 237.033 423.53 237.192 422.96 237.331C422.782 237.371 422.596 237.391 422.411 237.391C420.449 237.391 418.157 235.14 416.898 233.724C417.719 233.671 418.587 233.611 419.495 233.538C420.535 234.531 421.589 235.299 422.225 235.405C422.364 235.021 422.503 234.3 422.629 233.26C422.974 230.54 423.232 225.668 423.133 219.287C423.02 212.118 422.523 207.55 422.026 205.154C421.821 204.155 421.615 203.539 421.443 203.261C420.376 203.327 418.793 204.876 417.58 206.445C416.739 206.69 415.957 206.915 415.235 207.12L414.844 206.882C415.467 205.882 418.74 200.944 421.847 201.288C422.417 201.355 423.245 201.447 423.941 204.592C424.299 206.233 424.624 208.709 424.862 212.449C425.167 217.341 425.227 223.186 425.021 228.084Z" fill="#24629F"/>
<path d="M421.639 233.353C421.38 234.922 421.089 236.027 420.811 236.431C420.201 237.311 419.273 237.781 418.193 237.781C417.915 237.781 417.623 237.755 417.325 237.689C415.662 237.338 413.754 235.901 412.78 233.896C413.489 233.889 414.244 233.863 415.053 233.823C415.781 234.829 416.835 235.557 417.743 235.749C418.723 235.954 419.061 235.465 419.174 235.306C419.333 235.054 419.499 234.432 419.658 233.525C420.658 227.965 421.44 211.767 419.048 206.021C418.922 205.704 418.783 205.426 418.631 205.174C418.048 204.208 417.577 204.247 417.418 204.261C416.775 204.314 415.828 205.604 415.046 207.173C414.105 207.438 413.277 207.67 412.555 207.875C413.25 206.094 414.967 202.46 417.266 202.275C418.14 202.209 419.379 202.5 420.406 204.267C420.612 204.618 420.797 205.022 420.97 205.465C423.401 211.76 422.759 226.727 421.639 233.353Z" fill="#FFA430"/>
<path d="M118.561 193.173C119.259 189.6 115.12 187.13 115.12 187.13C115.503 186.364 116.074 184.617 113.181 181.792C110.288 178.966 100.25 185.364 99.1576 184.678C98.0657 183.992 99.32 180.118 98.4043 173.425C97.4892 166.733 89.9973 163.684 88.6364 165.3C87.2754 166.916 90.8189 176.977 87.8525 181.379C85.6666 184.624 84.0923 192.348 83.4151 196.189C78.2774 198.24 64.8845 203.491 47.9805 209.415C48.5814 211.636 49.1751 213.857 49.7847 216.07C52.1117 224.522 54.3228 233.01 56.6637 241.46C76.941 230.916 94.5162 220.618 100.446 215.569C105.187 214.659 114.489 209.894 118.247 207.321C122.152 204.646 119.749 200.517 119.749 200.517C122.078 197.737 118.561 193.173 118.561 193.173Z" fill="#E29579"/>
<path d="M114.395 187.276C113.129 188.582 111.647 189.687 110.045 190.583C108.44 191.485 106.727 192.167 104.917 192.614C104.003 192.812 102.978 192.902 102.012 192.544C101.54 192.365 101.094 192.091 100.74 191.707C100.381 191.328 100.146 190.819 100.088 190.307C99.9611 189.277 100.4 188.299 101.058 187.616C101.726 186.932 102.558 186.499 103.405 186.176C102.641 186.664 101.892 187.191 101.372 187.885C100.848 188.557 100.587 189.432 100.738 190.204C100.881 190.975 101.514 191.551 102.279 191.792C103.034 192.052 103.893 191.987 104.732 191.792C106.441 191.386 108.132 190.757 109.743 190.001C111.36 189.236 112.904 188.316 114.395 187.276Z" fill="#DF8666"/>
<path d="M116.019 194.376C114.482 195.283 112.907 196.117 111.273 196.847C109.642 197.582 107.945 198.195 106.191 198.626C105.308 198.828 104.379 198.995 103.416 198.892C102.468 198.798 101.457 198.343 100.892 197.513C100.315 196.716 100.124 195.656 100.43 194.742C100.73 193.838 101.451 193.109 102.31 192.843C101.532 193.28 100.988 194.037 100.83 194.849C100.656 195.655 100.913 196.505 101.415 197.113C101.922 197.723 102.68 198.052 103.493 198.097C104.306 198.163 105.156 198.014 105.995 197.807C107.698 197.405 109.366 196.842 111.027 196.24C112.685 195.633 114.334 194.968 116.019 194.376Z" fill="#DF8666"/>
<path d="M118.265 201.084C116.955 201.713 115.586 202.21 114.191 202.618C112.795 203.032 111.376 203.341 109.933 203.574C109.204 203.675 108.445 203.747 107.674 203.658C106.907 203.562 106.129 203.302 105.507 202.806C104.88 202.333 104.412 201.573 104.393 200.777C104.36 200.004 104.713 199.185 105.381 198.849C104.833 199.34 104.679 200.089 104.804 200.733C104.913 201.389 105.349 201.919 105.893 202.273C107.011 203 108.429 202.965 109.808 202.741C111.216 202.53 112.627 202.26 114.033 201.982L118.265 201.084Z" fill="#DF8666"/>
<path d="M115.174 207.386C114.314 207.703 113.43 207.941 112.501 208.036C111.577 208.139 110.6 208.065 109.682 207.743C108.776 207.415 107.906 206.809 107.423 205.933C106.934 205.09 106.809 203.996 107.258 203.172C107.162 204.087 107.48 204.919 107.974 205.573C108.473 206.224 109.182 206.676 109.967 206.951C110.751 207.241 111.604 207.348 112.478 207.382C113.353 207.413 114.255 207.36 115.174 207.386Z" fill="#DF8666"/>
<path d="M94.5586 203.004C95.8805 202.075 97.0062 200.941 97.8894 199.651C98.7654 198.36 99.4107 196.92 99.7255 195.408C100.055 193.9 100.055 192.322 99.7844 190.787C99.5062 189.249 98.943 187.754 98.1174 186.367C99.2279 187.546 100.012 189.048 100.426 190.645C100.849 192.244 100.892 193.95 100.549 195.584C100.192 197.215 99.4551 198.756 98.4149 200.042C97.3825 201.329 96.0534 202.38 94.5586 203.004Z" fill="#DF8666"/>
<path d="M57.9724 205.253C57.9724 205.253 69.5678 229.414 71.2242 234.048C71.2242 234.048 7.94684 270.786 -12.2622 274.757C-12.2622 274.757 -28.1643 231.4 -22.201 227.759C-16.2377 224.119 57.9724 205.253 57.9724 205.253Z" fill="#8EE4FD"/>
<path opacity="0.5" d="M-11.2695 265.987L7.98137 257.448L27.2462 248.948C33.678 246.139 40.0845 243.274 46.4825 240.39C49.6861 238.959 52.8739 237.493 56.049 236.001C57.6279 235.239 59.2361 234.531 60.7918 233.724L63.1414 232.539L65.426 231.234L63.1897 232.626L60.8733 233.879C59.3368 234.733 57.7505 235.485 56.1908 236.293C53.0415 237.845 49.8756 239.364 46.6959 240.852C40.3383 243.833 33.9264 246.695 27.5139 249.553C21.0814 252.366 14.6477 255.175 8.18346 257.913C1.71923 260.653 -4.75627 263.364 -11.2695 265.987Z" fill="#8EE4FD"/>
<path d="M516.243 42.346C515.83 34.9276 515.63 27.5019 515.683 20.0836C477.956 38.6027 422.343 54.5224 410.282 57.8765C407.411 55.2327 401.472 50.0437 397.764 48.7874C392.733 47.0829 389.445 36.9366 387.381 36.4759C385.318 36.0152 381.211 42.9782 384.545 48.8542C387.88 54.7303 391.228 57.0517 390.776 58.2585C390.325 59.4658 378.46 60.4587 377.874 64.4582C377.288 68.4577 378.802 69.5009 379.572 69.8782C379.572 69.8782 377.78 74.3496 380.504 76.7677C380.504 76.7677 380.477 82.5272 384.015 83.3269C384.015 83.3269 384.612 88.0657 389.34 87.8274C393.89 87.5984 404.179 85.7516 408.501 83.6036C422.943 84.388 480.259 75.2518 515.58 65.3856C515.628 57.7064 515.822 50.0173 516.243 42.346Z" fill="#E29579"/>
<path d="M380.23 69.5578C382.03 69.8305 383.88 69.8107 385.697 69.5532C387.522 69.2976 389.297 68.8019 391.008 68.0611C391.854 67.6646 392.724 67.1159 393.276 66.2461C393.543 65.8185 393.731 65.33 393.779 64.8097C393.835 64.2914 393.712 63.744 393.448 63.3024C392.923 62.4062 391.981 61.8945 391.043 61.7495C390.097 61.6098 389.172 61.77 388.303 62.0262C389.207 61.9514 390.122 61.917 390.957 62.154C391.781 62.3704 392.52 62.9086 392.868 63.6136C393.222 64.3132 393.069 65.1546 392.606 65.8105C392.164 66.4745 391.442 66.9438 390.656 67.2966C389.051 68.0088 387.324 68.5331 385.584 68.9084C383.834 69.2785 382.047 69.4817 380.23 69.5578Z" fill="#DF8666"/>
<path d="M383.254 76.1845C385.027 75.9753 386.786 75.6834 388.528 75.275C390.271 74.8719 391.992 74.3311 393.649 73.6116C394.474 73.2369 395.314 72.8066 396.017 72.1414C396.714 71.4927 397.242 70.5183 397.187 69.5155C397.162 68.5325 396.671 67.574 395.873 67.0325C395.085 66.4957 394.069 66.3527 393.225 66.6612C394.109 66.5374 395.001 66.8101 395.62 67.3602C396.248 67.8963 396.559 68.7277 396.529 69.5155C396.496 70.3071 396.093 71.028 395.475 71.5569C394.869 72.1023 394.103 72.4982 393.309 72.8417C391.711 73.554 390.043 74.1166 388.357 74.6442C386.668 75.1651 384.953 75.6344 383.254 76.1845Z" fill="#DF8666"/>
<path d="M385.539 82.88C386.963 82.5868 388.353 82.1525 389.71 81.6323C391.071 81.1153 392.387 80.501 393.676 79.8126C394.317 79.4518 394.964 79.0487 395.524 78.5112C396.075 77.9697 396.535 77.2919 396.73 76.5207C396.941 75.7641 396.852 74.8765 396.384 74.2317C395.942 73.5976 395.164 73.1601 394.428 73.2977C395.161 73.3567 395.739 73.8591 396.031 74.4469C396.342 75.0353 396.317 75.7198 396.1 76.3308C395.653 77.5858 394.504 78.4179 393.271 79.0745C392.023 79.7596 390.737 80.4004 389.45 81.0312L385.539 82.88Z" fill="#DF8666"/>
<path d="M391.824 86.0176C392.701 85.7482 393.548 85.402 394.345 84.9155C395.142 84.4369 395.874 83.7862 396.409 82.9747C396.929 82.1651 397.254 81.1557 397.106 80.1661C396.983 79.2003 396.419 78.2537 395.562 77.8705C396.193 78.541 396.446 79.3949 396.45 80.2144C396.448 81.0339 396.158 81.8229 395.701 82.5173C395.254 83.2236 394.641 83.8246 393.966 84.3813C393.289 84.936 392.539 85.4398 391.824 86.0176Z" fill="#DF8666"/>
<path d="M405.556 70.0443C403.941 70.1065 402.358 69.8868 400.873 69.3963C399.393 68.8998 398.005 68.1459 396.838 67.1351C395.66 66.1355 394.702 64.8812 393.986 63.4957C393.274 62.1043 392.814 60.5752 392.629 58.9713C392.461 60.5812 392.75 62.2506 393.389 63.7718C394.023 65.2989 395.025 66.6823 396.29 67.7739C397.563 68.8548 399.085 69.6326 400.692 70.0251C402.294 70.4243 403.989 70.4547 405.556 70.0443Z" fill="#DF8666"/>
<path d="M427.587 52.5651L411.906 56.0959L413.452 84.3383L432.447 82.3525L427.587 52.5651Z" fill="#E5F7F9"/>
<path d="M426.262 51.6827C426.262 51.6827 502.46 22.5572 523.221 9.53882C523.221 9.53882 534.043 45.5041 533.159 61.3908C533.159 61.3908 465.355 81.4695 428.691 83.4553L426.262 51.6827Z" fill="#24629F"/>
<g opacity="0.5">
<path d="M431.797 50.5792L433.705 63.6889L435.562 76.8053L435.287 76.6074C442.876 75.0651 450.461 73.4824 458.022 71.8024C465.581 70.1144 473.13 68.3801 480.652 66.5373C488.169 64.6739 495.662 62.7113 503.091 60.5302C506.801 59.4247 510.487 58.2425 514.138 56.9563C517.777 55.6483 521.398 54.2417 524.78 52.3446C521.44 54.3152 517.84 55.8045 514.224 57.1926C510.601 58.5768 506.914 59.7815 503.215 60.9399C499.51 62.0804 495.787 63.1634 492.05 64.194C488.31 65.2107 484.557 66.1818 480.799 67.1284C477.039 68.0677 473.271 68.9779 469.498 69.8655C465.724 70.7446 461.939 71.582 458.154 72.4087C450.579 74.0517 442.994 75.6403 435.374 77.0648L435.129 77.1105L435.098 76.8669L433.42 63.7267L431.797 50.5792Z" fill="#24629F"/>
<path d="M443.503 66.4658C443.535 67.8592 442.363 69.2135 440.853 69.2784C440.117 69.3214 439.345 69.0606 438.778 68.539C438.209 68.0194 437.873 67.2462 437.871 66.4658C437.872 65.6854 438.207 64.9116 438.776 64.3919C439.343 63.8683 440.116 63.6089 440.852 63.6519C442.365 63.7168 443.535 65.0731 443.503 66.4658ZM443.503 66.4658C443.5 65.7714 443.202 65.0863 442.694 64.6263C442.187 64.1649 441.503 63.9418 440.853 63.9842C439.52 64.0537 438.507 65.2498 438.533 66.4658C438.506 67.6811 439.518 68.8806 440.853 68.9487C441.503 68.9904 442.188 68.7674 442.694 68.3053C443.202 67.8459 443.5 67.1608 443.503 66.4658Z" fill="#24629F"/>
</g>
</g>
<mask id="mask1_2122_4303" style="mask-type:luminance" maskUnits="userSpaceOnUse" x="0" y="-37" width="497" height="332">
<path d="M496.943 -36.3557H0V294.616H496.943V-36.3557Z" fill="white"/>
</mask>
<g mask="url(#mask1_2122_4303)">
<path d="M289.105 298.146C289.105 298.146 303.241 212.093 341.671 204.591C380.101 197.09 297.498 299.47 297.498 299.47L289.105 298.146Z" fill="#8EE4FD"/>
<path opacity="0.5" d="M299.047 280.494C302.027 273.999 305.199 267.592 308.467 261.235C311.738 254.879 315.157 248.599 318.705 242.39C320.492 239.293 322.334 236.228 324.22 233.189C326.105 230.15 328.047 227.143 330.105 224.215C332.16 221.287 334.29 218.404 336.634 215.694C337.225 215.021 337.841 214.37 338.443 213.707C339.078 213.075 339.709 212.439 340.367 211.83C341.707 210.646 343.128 209.52 344.766 208.783L343.601 209.445C343.207 209.655 342.878 209.966 342.514 210.222C341.777 210.725 341.157 211.376 340.486 211.959C339.85 212.582 339.239 213.232 338.626 213.878C338.045 214.554 337.451 215.218 336.881 215.903C334.599 218.643 332.523 221.55 330.525 224.504C326.528 230.414 322.825 236.524 319.279 242.72C315.689 248.892 312.281 255.17 308.917 261.47C307.232 264.618 305.573 267.782 303.935 270.956C302.279 274.122 300.662 277.307 299.047 280.494Z" fill="#8EE4FD"/>
<path d="M293.527 299.029C293.527 299.029 341.234 230.187 361.995 237.688C382.756 245.19 298.828 299.47 298.828 299.47L293.527 299.029Z" fill="#B4EFFF"/>
<path opacity="0.5" d="M300.816 293.733C301.843 292.428 303.05 291.272 304.195 290.07L307.699 286.521C310.058 284.179 312.44 281.859 314.831 279.549C319.619 274.936 324.498 270.416 329.413 265.938C334.367 261.501 339.357 257.101 344.498 252.879C347.075 250.776 349.676 248.7 352.343 246.709C355.028 244.747 357.74 242.798 360.671 241.219C357.817 242.927 355.154 244.922 352.54 246.968C349.919 249.006 347.358 251.123 344.825 253.27C339.759 257.566 334.772 261.957 329.857 266.428C324.909 270.862 320.041 275.386 315.18 279.917C312.748 282.181 310.329 284.459 307.925 286.752L304.318 290.193L302.535 291.934C301.953 292.524 301.327 293.081 300.816 293.733Z" fill="#B4EFFF"/>
<path d="M214.452 296.822C214.452 296.822 194.574 206.798 149.076 206.356C103.578 205.915 207.384 300.794 207.384 300.794L214.452 296.822Z" fill="#B4EFFF"/>
<path opacity="0.5" d="M144.66 211.211C149.905 217.373 155.069 223.603 160.204 229.857C165.337 236.113 170.412 242.415 175.467 248.734C180.482 255.084 185.5 261.434 190.378 267.892C191.605 269.502 192.817 271.122 194.016 272.752C195.219 274.379 196.434 275.997 197.6 277.651C198.772 279.301 199.955 280.942 201.067 282.634C201.623 283.48 202.215 284.301 202.741 285.166L204.293 287.774L202.657 285.221C202.111 284.371 201.498 283.564 200.923 282.734C199.772 281.072 198.549 279.461 197.338 277.841C196.144 276.21 194.909 274.609 193.681 273.003C192.459 271.392 191.224 269.791 189.973 268.202C185.014 261.812 180.003 255.461 174.949 249.144C169.939 242.793 164.857 236.498 159.81 230.175L144.66 211.211Z" fill="#B4EFFF"/>
<path d="M205.619 298.146C205.619 298.146 156.902 237.843 142.893 248.28C116.832 267.696 200.76 301.677 200.76 301.677L205.619 298.146Z" fill="#8EE4FD"/>
<path opacity="0.5" d="M142.676 253.796C147.716 257.02 152.693 260.34 157.65 263.69C162.607 267.041 167.51 270.469 172.406 273.909C177.266 277.397 182.122 280.896 186.872 284.539C189.241 286.367 191.597 288.214 193.9 290.128C195.044 291.093 196.182 292.067 197.277 293.089C198.368 294.108 199.475 295.141 200.32 296.38C199.418 295.186 198.277 294.205 197.159 293.22C196.034 292.237 194.867 291.305 193.694 290.379C191.354 288.521 188.968 286.722 186.564 284.946C181.757 281.393 176.909 277.893 172.021 274.448C167.161 270.964 162.253 267.547 157.361 264.107L142.676 253.796Z" fill="#8EE4FD"/>
</g>
<path d="M207.314 208.563C207.314 208.563 202.676 219.154 202.676 223.788C202.676 228.422 205.768 298.146 205.768 298.146H296.764C296.764 298.146 300.519 228.642 299.856 223.788C299.193 218.934 296.101 207.681 296.101 207.681L207.314 208.563Z" fill="#24629F"/>
<g opacity="0.5">
<path d="M206.379 214.007C213.726 216.344 221.249 218.101 228.863 219.227C236.475 220.35 244.175 220.891 251.867 220.759C259.56 220.681 267.242 219.935 274.821 218.604L280.486 217.492L286.1 216.14L291.661 214.574L297.156 212.78L291.714 214.741L286.185 216.453L280.578 217.899L274.913 219.105C267.323 220.544 259.603 221.289 251.876 221.42C244.149 221.496 236.411 220.963 228.785 219.727C221.16 218.493 213.641 216.603 206.379 214.007Z" fill="#24629F"/>
<path d="M249.5 221.582C249.626 225.753 249.693 229.926 249.742 234.097C249.811 238.269 249.793 242.441 249.823 246.612L249.302 246.358C251.322 244.786 253.591 243.66 255.557 242.159L255.439 242.4C255.448 238.899 255.469 235.397 255.529 231.896C255.569 228.395 255.642 224.893 255.744 221.392C255.846 224.893 255.919 228.395 255.959 231.896C256.019 235.397 256.04 238.899 256.05 242.4L256.05 242.549L255.932 242.641C254.921 243.427 253.852 244.1 252.795 244.778C251.741 245.459 250.679 246.123 249.699 246.867L249.172 247.266L249.177 246.612C249.206 242.441 249.188 238.269 249.258 234.097C249.307 229.925 249.374 225.753 249.5 221.582Z" fill="#24629F"/>
<path d="M295.001 214.242C295.746 221.224 296.154 228.243 296.286 235.268C296.419 242.293 296.228 249.324 295.807 256.338C295.332 263.35 294.621 270.347 293.594 277.298L292.769 282.502L291.845 287.689L290.796 292.851L289.637 297.988L290.624 292.817L291.526 287.632L292.357 282.437L293.09 277.228C294.01 270.276 294.724 263.296 295.147 256.297C295.623 249.301 295.803 242.287 295.779 235.274C295.752 228.26 295.474 221.247 295.001 214.242Z" fill="#24629F"/>
<path d="M209.23 215.152C208.622 221.999 208.128 228.853 207.809 235.714C207.491 242.575 207.299 249.442 207.326 256.31C207.299 263.178 207.486 270.045 207.803 276.906L208.069 282.05L208.405 287.192L208.782 292.332L209.216 297.469L208.607 292.349L208.081 287.219L207.652 282.079L207.294 276.933C206.871 270.068 206.689 263.188 206.664 256.309C206.693 249.43 206.875 242.551 207.302 235.686C207.728 228.822 208.35 221.97 209.23 215.152Z" fill="#24629F"/>
<path d="M283.965 216.948C284.044 219.56 284.347 222.151 284.906 224.684C285.468 227.214 286.24 229.698 287.289 232.066C288.288 234.454 289.561 236.724 291.014 238.87L292.144 240.456L293.358 241.98L294.635 243.458C295.089 243.924 295.539 244.396 295.986 244.875C295.49 244.45 294.997 244.019 294.509 243.581L293.114 242.195L291.815 240.715L290.598 239.165C289.036 237.048 287.745 234.735 286.68 232.328C285.665 229.899 284.87 227.373 284.409 224.784C283.945 222.195 283.771 219.557 283.965 216.948Z" fill="#24629F"/>
<path d="M221.435 218.273C221.485 218.994 221.528 219.716 221.564 220.441L221.546 222.618L221.367 224.791L221.054 226.951C220.542 229.82 219.622 232.612 218.406 235.263C217.143 237.893 215.576 240.383 213.687 242.604L212.216 244.218L210.647 245.733L208.97 247.123C208.384 247.552 207.794 247.975 207.203 248.39C207.752 247.916 208.302 247.449 208.857 246.988L210.423 245.498L211.909 243.933L213.292 242.281C215.071 240.028 216.612 237.588 217.807 234.982C219.051 232.399 219.946 229.657 220.556 226.852C221.166 224.046 221.443 221.165 221.435 218.273Z" fill="#24629F"/>
<path d="M210.293 245.743C210.632 249.965 210.899 254.191 211.154 258.418C211.411 262.644 211.608 266.873 211.838 271.101C212.014 275.332 212.22 279.561 212.37 283.792L212.581 290.14C212.627 292.257 212.696 294.373 212.723 296.491C212.546 294.38 212.413 292.267 212.257 290.155L211.861 283.816C211.606 279.589 211.405 275.36 211.178 271.132C211.003 266.902 210.795 262.673 210.647 258.441C210.498 254.21 210.359 249.978 210.293 245.743Z" fill="#24629F"/>
<path d="M293.452 242.433C293.129 246.945 292.706 251.447 292.253 255.947C291.8 260.446 291.267 264.937 290.732 269.428C290.141 273.912 289.552 278.398 288.822 282.864C288.451 285.096 288.065 287.326 287.619 289.545C287.382 290.653 287.139 291.759 286.854 292.855C286.566 293.945 286.281 295.061 285.723 296.05C285.98 295.545 286.148 295.006 286.292 294.461C286.441 293.917 286.567 293.367 286.683 292.815C286.919 291.712 287.111 290.599 287.3 289.487C287.681 287.261 288.009 285.026 288.318 282.788C288.944 278.314 289.537 273.834 290.076 269.347L291.75 255.891L292.584 249.161L293.452 242.433Z" fill="#24629F"/>
<path d="M251.262 297.705C251.146 294.267 251.077 290.828 251.032 287.39C250.963 283.952 250.969 280.513 250.946 277.075C250.913 273.637 250.955 270.198 250.966 266.76C250.967 263.322 251.048 259.883 251.093 256.445L251.094 256.348L251.172 256.303C252.968 255.246 254.754 254.173 256.562 253.136C254.837 254.305 253.089 255.439 251.351 256.588L251.43 256.446C251.476 259.884 251.556 263.323 251.556 266.761C251.568 270.199 251.61 273.638 251.576 277.076C251.553 280.514 251.56 283.953 251.491 287.391C251.446 290.828 251.377 294.266 251.262 297.705Z" fill="#24629F"/>
</g>
<path d="M262.459 94.67C265.533 94.1027 268.382 93.1403 271.049 91.7363C267.035 87.4826 264.455 80.057 264.103 74.8806L263.281 62.7829H238.848L238.026 74.8806C237.727 79.2831 235.815 85.3101 232.781 89.632C242.531 92.0183 252.417 94.1199 262.459 94.67Z" fill="#E29579"/>
<path d="M263.139 63.7963C263.139 63.7963 255.78 72.2573 251.102 72.2573H250.996C246.266 72.2838 238.84 63.7963 238.84 63.7963C242.196 66.3177 246.266 67.7693 250.996 67.7561H251.088C255.766 67.7567 259.81 66.3044 263.139 63.7963Z" fill="#2E2044"/>
<path d="M284.06 95.8125C284.06 95.8125 283.066 86.8763 281.409 82.2427C279.753 77.6091 263.706 69.2865 263.706 69.2865L264.071 76.5056C264.071 76.5056 252.476 85.8834 249.826 85.8834C249.826 85.8834 243.336 84.95 238.022 74.8806L238.485 68.0453C238.485 68.0453 225.641 76.5056 224.205 80.2569C222.769 84.0081 221.334 92.2824 221.334 92.2824C221.334 92.2824 196.708 106.404 192.511 114.126C188.315 121.849 202.23 170.612 200.463 173.701C198.695 176.791 199.8 201.723 206.868 210.329C206.868 210.329 262.525 221.802 297.201 210.329C297.201 210.329 300.293 185.616 296.98 174.142C296.98 174.142 308.465 117.657 307.582 113.905C306.698 110.154 284.06 95.8125 284.06 95.8125Z" fill="#FFA430"/>
<g opacity="0.5">
<path d="M221.441 92.5028C222.309 92.8914 223.046 93.4348 223.753 94.0147C224.446 94.6104 225.108 95.2439 225.638 96.0329C224.77 95.645 224.032 95.1016 223.326 94.5211C222.635 93.924 221.973 93.2905 221.441 92.5028Z" fill="#FFA430"/>
<path d="M283.565 94.2689C283.819 94.766 283.718 95.3538 283.457 95.8165C283.187 96.2733 282.727 96.6546 282.168 96.681C282.44 96.2071 282.67 95.8655 282.884 95.4856C283.109 95.1109 283.291 94.7409 283.565 94.2689Z" fill="#FFA430"/>
<path d="M237.886 75.0196C237.582 74.6138 236.989 74.6866 236.627 74.9408C236.223 75.1851 236.068 75.6617 236.096 76.1144C236.166 77.0319 236.708 77.8613 237.146 78.6821C238.069 80.3231 239.256 81.8032 240.593 83.1224C241.938 84.4357 243.406 85.6219 244.968 86.6744C245.751 87.1973 246.552 87.6931 247.37 88.1624C248.184 88.6291 249.013 89.0587 249.881 89.199C250.742 89.3533 251.621 89.1282 252.428 88.7052C253.239 88.2902 253.998 87.7183 254.773 87.1748C256.316 86.0773 257.8 84.9077 259.232 83.6778C260.654 82.4373 261.986 81.0922 263.161 79.6148C263.749 78.8774 264.298 78.1075 264.804 77.3072C265.046 76.9147 265.282 76.4778 265.204 76.0211C265.168 75.8027 265.016 75.6047 264.819 75.4869C264.627 75.3671 264.353 75.3333 264.165 75.4935C264.34 75.3188 264.631 75.3294 264.843 75.4426C265.059 75.5531 265.241 75.751 265.302 76.0006C265.415 76.5023 265.179 76.9842 264.955 77.3953C264.489 78.2273 263.976 79.0336 263.419 79.8114C262.281 81.3484 260.972 82.7531 259.573 84.0558C258.176 85.3624 256.662 86.5321 255.127 87.662C254.354 88.2147 253.597 88.8025 252.719 89.2659C251.86 89.7319 250.804 90.0291 249.775 89.8504C248.758 89.6723 247.876 89.1878 247.054 88.7079C246.229 88.2227 245.42 87.7103 244.629 87.1709C243.058 86.0773 241.549 84.8766 240.231 83.4772C238.911 82.0871 237.743 80.5395 236.862 78.8363C236.464 77.9778 235.953 77.1252 235.922 76.1184C235.923 75.8715 235.968 75.6213 236.07 75.3942C236.18 75.1645 236.36 74.9765 236.575 74.8561C236.981 74.6085 237.611 74.5893 237.886 75.0196Z" fill="#FFA430"/>
<path d="M243.849 98.4497C243.681 99.2202 243.238 99.9126 242.71 100.497C242.183 101.088 241.581 101.603 241.002 102.125C239.835 103.153 238.768 104.289 237.849 105.532C236.014 108.002 234.695 110.916 234.496 113.978C234.246 117.015 235.051 120.179 236.96 122.578C237.428 123.172 237.989 123.698 238.631 124.087C239.27 124.474 240.016 124.708 240.752 124.607C241.117 124.561 241.478 124.444 241.761 124.216C242.044 123.995 242.229 123.649 242.162 123.288C242.121 122.939 241.812 122.586 241.445 122.653C241.1 122.708 240.756 123.143 240.979 123.502C240.722 123.161 241.025 122.658 241.423 122.556C241.869 122.445 242.261 122.85 242.335 123.254C242.444 123.675 242.24 124.132 241.924 124.406C241.611 124.692 241.206 124.851 240.802 124.927C239.976 125.079 239.131 124.841 238.424 124.45C237.71 124.055 237.091 123.515 236.567 122.901C234.471 120.441 233.625 117.105 233.836 113.928C234.1 110.721 235.475 107.693 237.447 105.223C238.438 103.986 239.568 102.868 240.793 101.878C241.408 101.39 242.031 100.922 242.583 100.377C243.13 99.8338 243.611 99.2003 243.849 98.4497Z" fill="#FFA430"/>
<path d="M260.936 98.4478C261.581 99.7551 262.093 101.127 262.544 102.518C262.974 103.915 263.318 105.34 263.6 106.776C264.157 109.65 264.402 112.572 264.578 115.483C264.697 118.389 264.793 121.346 264.274 124.252C264.145 124.977 263.974 125.695 263.763 126.4C263.534 127.098 263.355 127.814 262.921 128.467C262.699 128.783 262.385 129.055 262.012 129.189C261.646 129.331 261.189 129.299 260.874 129.05C260.56 128.826 260.357 128.378 260.545 128.009C260.719 127.669 261.17 127.461 261.498 127.663C261.155 127.494 260.759 127.743 260.636 128.051C260.5 128.37 260.695 128.735 260.975 128.906C261.256 129.097 261.617 129.095 261.92 128.957C262.227 128.821 262.475 128.577 262.651 128.287C263.004 127.705 263.17 126.977 263.359 126.289C263.538 125.592 263.675 124.885 263.771 124.172C264.175 121.318 264.087 118.413 263.917 115.516C263.797 112.615 263.545 109.725 263.1 106.863C262.654 104.001 261.964 101.174 260.936 98.4478Z" fill="#FFA430"/>
</g>
<path d="M255.014 184.872C254.524 184.667 253.974 184.641 253.444 184.621C249.958 184.475 246.473 184.336 242.988 184.197C245.413 183.873 247.832 183.548 250.257 183.224C250.853 183.145 251.462 183.059 251.979 182.787C252.496 182.516 252.9 182.013 252.847 181.457C252.801 180.887 252.291 180.411 251.721 180.179C251.144 179.954 250.515 179.921 249.899 179.901C246.745 179.789 243.598 179.775 240.45 179.861C239.708 179.881 238.8 179.822 238.443 179.206C238.012 178.458 238.794 177.69 239.456 177.154C240.046 176.677 240.603 176.141 240.881 175.466C241.159 174.791 241.106 173.944 240.57 173.381C239.96 172.752 238.913 172.633 238.065 172.871C237.223 173.103 236.521 173.613 235.805 174.083C233.321 175.704 230.478 176.883 227.477 177.525C227.039 177.617 226.595 177.703 226.152 177.789C223.09 177.112 218.287 176.025 212.199 174.572C211.133 181.636 209.576 188.629 208.156 195.645C214.604 195.532 220.05 195.085 224.019 194.305C224.615 194.351 225.238 194.351 225.781 194.404C227.888 194.623 229.995 194.901 232.096 195.245C234.527 195.635 236.939 196.112 239.344 196.668C242.472 197.396 245.791 198.257 248.8 197.383C249.535 197.165 250.357 196.602 250.118 195.907C249.972 195.483 249.482 195.238 249.045 195.046C246.944 194.113 244.599 193.775 242.498 192.842C245.573 193.008 248.886 192.571 251.953 192.736C252.47 192.769 253 192.796 253.471 192.624C253.941 192.452 254.332 192.021 254.253 191.551C254.153 190.889 253.305 190.578 252.603 190.406C249.449 189.632 246.295 188.864 243.141 188.089C247.044 188.493 251.165 188.864 254.657 187.388C255.306 187.116 256.002 186.653 255.969 185.984C255.948 185.501 255.511 185.071 255.014 184.872Z" fill="#EE8E72"/>
<path d="M220.457 94.9295C220.457 94.9295 199.585 95.702 187.658 105.962C175.732 116.222 139.952 151.636 138.626 174.142C137.301 196.648 176.394 203.599 223.438 195.986C223.438 195.986 225.757 180.431 224.763 173.811L192.296 166.861L211.18 152.96C211.18 152.96 220.457 112.692 220.457 94.9295Z" fill="#FFA430"/>
<g opacity="0.5">
<path d="M183.02 165.537C185.971 165.936 188.909 166.406 191.845 166.887C194.781 167.367 197.707 167.905 200.638 168.411C203.56 168.97 206.486 169.501 209.403 170.086L213.776 170.977C215.229 171.297 216.687 171.596 218.137 171.936C216.66 171.743 215.191 171.508 213.718 171.296L209.312 170.587C206.376 170.106 203.45 169.57 200.519 169.062C197.597 168.501 194.67 167.973 191.753 167.386C188.836 166.801 185.922 166.205 183.02 165.537Z" fill="#FFA430"/>
<path d="M186.578 160.159C187.707 161.154 188.678 162.276 189.611 163.427C190.528 164.592 191.408 165.787 192.127 167.109C190.997 166.114 190.026 164.992 189.094 163.84C188.178 162.675 187.299 161.48 186.578 160.159Z" fill="#FFA430"/>
<path d="M215.648 155.939C214.28 156.507 212.896 157.034 211.521 157.583L207.37 159.16C205.989 159.693 204.591 160.179 203.202 160.692L199.028 162.205L197.023 162.933L198.716 161.637L202.088 159.054C203.214 158.195 204.33 157.324 205.473 156.486C207.741 154.79 210.017 153.103 212.335 151.471C210.181 153.315 207.985 155.103 205.78 156.882C204.686 157.782 203.566 158.648 202.456 159.527L199.12 162.157L198.807 161.588L202.999 160.123C204.399 159.642 205.789 159.135 207.196 158.676L211.41 157.274C212.824 156.83 214.229 156.364 215.648 155.939Z" fill="#FFA430"/>
<path d="M200.688 100.001C202.806 101.27 204.577 103.112 205.917 105.203C207.244 107.302 208.162 109.686 208.411 112.141C207.648 109.803 206.66 107.591 205.357 105.558C204.069 103.516 202.484 101.683 200.688 100.001Z" fill="#FFA430"/>
<path d="M209.74 115.891C210.166 116.232 210.403 116.651 210.598 117.088C210.773 117.533 210.903 117.997 210.845 118.539C210.418 118.199 210.18 117.78 209.987 117.342C209.813 116.897 209.683 116.433 209.74 115.891Z" fill="#FFA430"/>
<path d="M201.789 198.193C203.273 197.983 204.761 197.845 206.249 197.719C207.737 197.585 209.227 197.503 210.717 197.421C212.209 197.355 213.7 197.29 215.194 197.276L217.435 197.259C218.183 197.276 218.93 197.272 219.679 197.31C218.938 197.422 218.193 197.491 217.451 197.582L215.219 197.785C213.731 197.919 212.241 198.001 210.751 198.081C209.259 198.147 207.768 198.212 206.274 198.225C204.781 198.246 203.287 198.255 201.789 198.193Z" fill="#FFA430"/>
<path d="M149.008 176.127C149.507 176.712 149.937 177.22 150.442 177.68C150.939 178.151 151.475 178.543 152.095 179C151.315 179.049 150.56 178.686 149.991 178.164C149.431 177.633 149.016 176.907 149.008 176.127Z" fill="#FFA430"/>
</g>
<path d="M241.929 184.872C242.419 184.667 242.969 184.641 243.499 184.621C246.984 184.475 250.469 184.336 253.955 184.197C251.53 183.873 249.111 183.548 246.686 183.224C246.09 183.145 245.48 183.059 244.963 182.787C244.446 182.516 244.042 182.013 244.095 181.457C244.142 180.887 244.652 180.411 245.222 180.179C245.798 179.954 246.428 179.921 247.044 179.901C250.198 179.789 253.345 179.775 256.492 179.861C257.234 179.881 258.142 179.822 258.5 179.206C258.931 178.458 258.149 177.69 257.486 177.154C256.897 176.677 256.34 176.141 256.062 175.466C255.783 174.791 255.836 173.944 256.373 173.381C256.983 172.752 258.03 172.633 258.878 172.871C259.719 173.103 260.421 173.613 261.137 174.083C263.622 175.704 266.464 176.883 269.466 177.525C269.903 177.617 270.347 177.703 270.791 177.789C273.853 177.112 278.656 176.025 284.743 174.572C285.809 181.636 287.367 188.629 288.786 195.645C282.339 195.532 276.892 195.085 272.924 194.305C272.328 194.351 271.705 194.351 271.161 194.404C269.054 194.623 266.947 194.901 264.847 195.245C262.415 195.635 260.003 196.112 257.598 196.668C254.471 197.396 251.151 198.257 248.143 197.383C247.408 197.165 246.586 196.602 246.824 195.907C246.97 195.483 247.461 195.238 247.898 195.046C249.998 194.113 252.344 193.775 254.444 192.842C251.37 193.008 248.057 192.571 244.989 192.736C244.472 192.769 243.942 192.796 243.472 192.624C243.001 192.452 242.61 192.021 242.69 191.551C242.789 190.889 243.637 190.578 244.34 190.406C247.494 189.632 250.648 188.864 253.802 188.089C249.899 188.493 245.778 188.864 242.286 187.388C241.636 187.116 240.941 186.653 240.974 185.984C240.994 185.501 241.432 185.071 241.929 184.872Z" fill="#EE8E72"/>
<path d="M284.069 96.1435C284.069 96.1435 297.356 95.702 309.282 105.962C321.209 116.222 356.989 151.636 358.314 174.142C359.639 196.648 320.546 203.599 273.502 195.986C273.502 195.986 271.183 180.431 272.177 173.811L304.644 166.861L285.76 152.96C285.76 152.96 284.069 113.905 284.069 96.1435Z" fill="#FFA430"/>
<g opacity="0.5">
<path d="M299.129 101.493C297.984 103.322 296.969 105.178 296.18 107.142C295.375 109.1 294.805 111.136 294.345 113.244C294.282 111.081 294.755 108.909 295.567 106.893C296.395 104.884 297.574 102.999 299.129 101.493Z" fill="#FFA430"/>
<path d="M293.902 117.877C294.163 118.429 294.222 118.981 294.233 119.532C294.223 120.083 294.165 120.635 293.902 121.187C293.639 120.635 293.58 120.083 293.57 119.532C293.582 118.981 293.64 118.429 293.902 117.877Z" fill="#FFA430"/>
<path d="M288.82 152.74C289.708 153.507 290.587 154.284 291.442 155.086C292.295 155.888 293.164 156.675 294 157.494C295.687 159.119 297.343 160.774 298.97 162.458L300.333 163.87L298.619 162.931C297.594 162.369 296.589 161.768 295.576 161.185C294.562 160.602 293.566 159.985 292.576 159.359C293.647 159.836 294.711 160.324 295.76 160.843C296.807 161.363 297.865 161.865 298.901 162.407L298.55 162.879C296.863 161.255 295.206 159.6 293.581 157.914C292.761 157.079 291.973 156.211 291.17 155.358C290.366 154.505 289.589 153.627 288.82 152.74Z" fill="#FFA430"/>
<path d="M280.203 171.274C282.885 170.662 285.579 170.12 288.275 169.59C290.972 169.059 293.678 168.585 296.379 168.08C299.089 167.627 301.794 167.147 304.509 166.721L308.583 166.094C309.945 165.91 311.304 165.702 312.67 165.537C311.33 165.85 309.983 166.121 308.64 166.414L304.598 167.222C301.901 167.753 299.195 168.228 296.494 168.732C293.784 169.182 291.079 169.666 288.364 170.09C285.65 170.515 282.932 170.93 280.203 171.274Z" fill="#FFA430"/>
<path d="M310.465 162.007C309.677 163.015 308.758 163.869 307.808 164.686C306.844 165.488 305.849 166.253 304.723 166.861C305.51 165.851 306.43 164.998 307.38 164.181C308.344 163.38 309.34 162.617 310.465 162.007Z" fill="#FFA430"/>
<path d="M279.102 195.324C280.657 195.436 282.2 195.624 283.74 195.825C285.283 196.019 286.816 196.268 288.349 196.523C289.879 196.793 291.408 197.071 292.926 197.412C294.439 197.759 295.973 198.071 297.433 198.633C296.673 198.47 295.903 198.368 295.135 198.258L292.833 197.912C291.297 197.69 289.767 197.429 288.237 197.175C286.709 196.903 285.18 196.638 283.658 196.324C282.135 196.019 280.613 195.706 279.102 195.324Z" fill="#FFA430"/>
<path d="M348.895 174.142C349.217 174.713 349.271 175.357 349.204 175.974C349.119 176.588 348.908 177.2 348.453 177.673C348.412 177.023 348.485 176.464 348.548 175.892C348.628 175.321 348.696 174.762 348.895 174.142Z" fill="#FFA430"/>
</g>
<path d="M219.121 166.639C225.504 165.596 252.705 161.735 279.496 166.656C280.138 166.774 280.56 167.398 280.432 168.037C279.579 172.281 277 187.487 280.434 201.887C280.571 202.463 280.266 203.049 279.711 203.258C274.633 205.167 250.17 213.181 220.001 203.25C219.397 203.051 219.059 202.401 219.249 201.794C220.459 197.915 223.95 184.081 218.21 168.178C217.963 167.495 218.403 166.756 219.121 166.639Z" fill="#FFBD69"/>
<path d="M278.893 40.9196C277.213 39.9042 275.511 40.5053 274.359 41.2056C274.688 38.1521 274.723 35.0078 274.439 31.8696C272.819 14.0163 251.821 13.0247 251.821 13.0247H250.198C250.198 13.0247 229.2 14.0163 227.581 31.8696C227.296 35.0078 227.331 38.1521 227.66 41.2056C226.509 40.5053 224.807 39.9042 223.127 40.9196C220.354 42.5963 223.992 54.3882 231.11 53.9394C234.959 62.1011 241.713 67.7945 251.01 67.7535C260.308 67.7945 267.061 62.1011 270.91 53.9394C278.027 54.3882 281.666 42.5963 278.893 40.9196Z" fill="#E29579"/>
<path d="M254.316 44.0202C254.316 44.0202 255.882 44.8291 255.909 46.3125C255.936 47.7959 254.91 47.823 254.91 47.823C254.91 47.823 253.564 48.111 253.12 47.9885C252.812 47.9038 252.211 47.3643 252.211 47.3643C252.211 47.3643 250.726 43.7501 254.316 44.0202Z" fill="#DF8666"/>
<path d="M254.635 47.8773C255.3 47.5794 255.492 46.8943 255.407 46.3793C255.312 45.8246 254.989 45.3242 254.547 44.8734C254.331 44.6291 254.102 44.4259 253.831 44.1519C253.489 43.7832 253.375 43.3013 253.402 42.9015C253.447 42.0919 253.82 41.4366 254.278 40.8892C254.156 41.5882 254.075 42.2845 254.158 42.8657C254.217 43.151 254.309 43.3787 254.474 43.4972C254.706 43.6971 255 43.9487 255.255 44.2121C255.758 44.7509 256.214 45.5108 256.16 46.3595C256.157 47.212 255.388 47.9938 254.635 47.8773Z" fill="#2E2044"/>
<path d="M251.867 47.308C251.978 47.0373 252.249 47.03 252.409 47.1273C252.565 47.2312 252.672 47.4808 252.47 47.6946C252.186 47.6641 252.12 47.7058 252.059 47.6714C252.004 47.6304 252.013 47.5516 251.867 47.308Z" fill="#2E2044"/>
<path d="M238.318 58.1116C241.52 58.1116 244.116 55.5181 244.116 52.3189C244.116 49.1197 241.52 46.5263 238.318 46.5263C235.116 46.5263 232.52 49.1197 232.52 52.3189C232.52 55.5181 235.116 58.1116 238.318 58.1116Z" fill="#DF8666"/>
<path d="M263.861 58.1116C267.063 58.1116 269.659 55.5181 269.659 52.3189C269.659 49.1197 267.063 46.5263 263.861 46.5263C260.658 46.5263 258.062 49.1197 258.062 52.3189C258.062 55.5181 260.658 58.1116 263.861 58.1116Z" fill="#DF8666"/>
<path d="M241.8 34.835C242.008 34.4021 242.31 34.0076 242.675 33.67C243.032 33.3179 243.477 33.063 243.939 32.8492C244.405 32.6381 244.917 32.5255 245.429 32.4944C245.941 32.4759 246.456 32.5282 246.933 32.697C247.32 32.834 247.524 33.2596 247.386 33.6469C247.273 33.9646 246.966 34.1585 246.645 34.142L246.611 34.14C246.233 34.1201 245.868 34.0917 245.506 34.1155C245.143 34.1261 244.785 34.1771 244.424 34.2512C244.059 34.3227 243.718 34.4756 243.363 34.6325C243.016 34.8033 242.678 35.0184 242.337 35.2666L242.327 35.2739C242.169 35.3891 241.948 35.354 241.833 35.1965C241.754 35.0872 241.746 34.9482 241.8 34.835Z" fill="#2E2044"/>
<path d="M263.672 34.835C263.464 34.4021 263.162 34.0076 262.797 33.67C262.44 33.3179 261.996 33.063 261.533 32.8492C261.066 32.6381 260.555 32.5255 260.043 32.4944C259.531 32.4759 259.016 32.5282 258.539 32.697C258.152 32.834 257.948 33.2596 258.086 33.6469C258.199 33.9646 258.506 34.1585 258.827 34.142L258.861 34.14C259.239 34.1201 259.603 34.0917 259.966 34.1155C260.329 34.1261 260.687 34.1771 261.048 34.2512C261.413 34.3227 261.754 34.4756 262.109 34.6325C262.456 34.8033 262.794 35.0184 263.135 35.2666L263.145 35.2739C263.303 35.3891 263.524 35.354 263.639 35.1965C263.718 35.0872 263.726 34.9482 263.672 34.835Z" fill="#2E2044"/>
<path d="M249.523 54.4649C249.939 54.5814 250.199 54.6887 250.486 54.8005C250.766 54.927 251.023 55.0395 251.396 55.2593C251.065 55.5518 250.603 55.5459 250.232 55.3963C249.869 55.2328 249.544 54.9051 249.523 54.4649Z" fill="#2E2044"/>
<path d="M247.353 42.2938C247.353 43.858 246.687 45.1256 245.866 45.1256C245.045 45.1256 244.379 43.858 244.379 42.2938C244.379 40.7297 245.045 39.462 245.866 39.462C246.687 39.462 247.353 40.7297 247.353 42.2938Z" fill="#2E2044"/>
<path d="M260.306 42.2939C260.306 43.858 259.64 45.1256 258.819 45.1256C257.998 45.1256 257.332 43.858 257.332 42.2939C257.332 40.7297 257.998 39.4621 258.819 39.4621C259.64 39.4621 260.306 40.7297 260.306 42.2939Z" fill="#2E2044"/>
<path d="M224.267 45.2329C223.772 45.0349 223.572 44.3425 223.762 43.7786C223.966 43.1656 224.588 42.7757 225.186 42.6983C225.793 42.5871 226.425 42.7863 226.914 43.0617C227.41 43.351 227.792 43.7283 228.14 44.0877C229.5 45.5777 230.39 47.553 230.314 49.5467C229.365 47.8171 228.403 46.3039 227.169 44.982C226.567 44.3022 225.96 43.7686 225.261 43.7216C224.917 43.7018 224.558 43.7911 224.344 44.0606C224.116 44.3386 223.991 44.8119 224.267 45.2329Z" fill="#2E2044"/>
<path d="M227.036 49.8493C226.5 49.7625 226.058 49.3184 225.853 48.7921C225.632 48.2626 225.648 47.6225 225.91 47.0578C226.193 46.5018 226.687 46.0941 227.241 45.9405C227.782 45.7763 228.406 45.8511 228.805 46.2205C228.304 46.4012 227.974 46.6276 227.695 46.8659C227.428 47.1141 227.218 47.3657 227.099 47.6357C226.958 47.8952 226.889 48.2162 226.859 48.5803C226.842 48.9457 226.869 49.3455 227.036 49.8493Z" fill="#2E2044"/>
<path d="M277.797 45.2329C278.293 45.0349 278.492 44.3425 278.302 43.7786C278.099 43.1656 277.477 42.7757 276.878 42.6983C276.271 42.5871 275.639 42.7863 275.15 43.0617C274.655 43.351 274.272 43.7283 273.925 44.0877C272.565 45.5777 271.674 47.553 271.751 49.5467C272.7 47.8171 273.662 46.3039 274.895 44.982C275.498 44.3022 276.105 43.7686 276.804 43.7216C277.147 43.7018 277.507 43.7911 277.721 44.0606C277.949 44.3386 278.074 44.8119 277.797 45.2329Z" fill="#2E2044"/>
<path d="M275.026 49.8493C275.562 49.7625 276.004 49.3184 276.209 48.7921C276.43 48.2626 276.414 47.6225 276.151 47.0578C275.869 46.5018 275.375 46.0941 274.822 45.9405C274.28 45.7763 273.657 45.8511 273.258 46.2205C273.758 46.4012 274.088 46.6276 274.368 46.8659C274.635 47.1141 274.845 47.3657 274.964 47.6357C275.104 47.8952 275.173 48.2162 275.204 48.5803C275.22 48.9457 275.193 49.3455 275.026 49.8493Z" fill="#2E2044"/>
<path d="M246.926 47.5801C248.044 48.0256 252.171 49.5772 255.03 49.4018C255.195 49.3919 255.3 49.564 255.211 49.703C254.554 50.7237 252.411 53.6951 249.868 53.4204C247.245 53.1371 246.746 48.9742 246.657 47.7807C246.646 47.6337 246.79 47.5258 246.926 47.5801Z" fill="white"/>
<path d="M289.952 36.3589C289.183 33.9693 286.751 32.5924 284.578 31.3215C282.411 30.0506 280.092 28.3163 279.867 25.8075C279.695 23.9541 280.748 22.2397 281.57 20.5649C282.398 18.8902 283.008 16.825 282.027 15.2297C281.119 13.7536 279.152 13.2902 277.416 13.416C275.68 13.5484 273.997 14.1242 272.261 14.1706C268.895 14.2633 265.853 12.3767 262.812 10.9403C257.074 8.22633 250.508 6.9554 244.293 8.23957C238.071 9.53036 232.783 13.7668 230.246 19.5853C226.886 19.0557 223.348 20.4524 221.042 22.9546C218.737 25.4567 217.643 28.9584 217.829 32.3541C218.127 37.8416 221.519 42.9055 221.274 48.3996C221.182 50.584 220.506 52.7023 220.234 54.8801C219.962 57.0512 220.168 59.4408 221.586 61.1156C222.931 62.7108 225.164 63.3463 227.251 63.2271C229.345 63.108 231.332 62.3335 233.261 61.5326C233.989 61.2281 234.712 60.9236 235.447 60.639C233.738 58.6995 232.293 56.4356 231.114 53.9401C223.998 54.3902 220.36 42.5944 223.13 40.9197C224.753 39.9426 226.393 40.4629 227.542 41.1308C229.122 43.1008 230.741 45.0621 232.23 47.0519C236.369 41.0752 238.393 33.592 237.881 26.3424C241.732 31.6843 247.361 35.7241 253.658 37.6636C255.924 38.3619 258.424 38.7829 260.629 37.9111C261.796 37.4491 262.9 36.627 264.153 36.7031C265.367 36.7766 266.358 37.6815 267.139 38.6128C267.919 39.5442 268.645 40.5894 269.729 41.1394C271.314 41.9437 272.938 42.2667 274.365 41.2063C274.366 41.2056 274.367 41.205 274.368 41.2043C275.514 40.5027 277.217 39.9076 278.9 40.9203C281.669 42.5951 278.032 54.3909 270.916 53.9408C269.067 57.8661 266.542 61.2155 263.395 63.6316C267.298 63.5124 271.34 62.0231 273.579 58.8391C275.355 56.3237 275.819 53.0537 277.667 50.5979C279.675 47.9171 282.975 46.6064 285.738 44.7133C288.501 42.8195 290.979 39.5495 289.952 36.3589Z" fill="#2E2044"/>
<g opacity="0.5">
<path d="M231.5 20.1571C232.661 20.6066 233.681 21.3321 234.589 22.1641C235.484 23.0108 236.279 23.9779 236.806 25.1045C235.862 24.2982 235.02 23.4582 234.137 22.6474C233.268 21.8226 232.371 21.0408 231.5 20.1571Z" fill="#2E2044"/>
<path d="M281.046 14.9199C279.673 16.6403 278.29 18.3712 276.627 19.8381C274.979 21.3056 272.994 22.4746 270.786 22.9188C269.687 23.1333 268.539 23.1611 267.43 22.93C266.319 22.699 265.278 22.2165 264.344 21.5982C262.464 20.3617 260.959 18.7068 259.274 17.3287C255.915 14.5704 251.526 13.1399 247.191 13.3021C246.108 13.3484 245.03 13.4888 243.972 13.7171C242.923 13.9753 241.878 14.2871 240.9 14.7339C239.926 15.186 239.001 15.7506 238.226 16.4701C237.455 17.1903 236.837 18.0681 236.529 19.0597L236.098 18.6612C238.041 17.898 240.173 17.7265 242.213 17.9688C244.262 18.2077 246.234 18.8141 248.125 19.5694C251.928 21.1011 255.278 23.447 258.651 25.6427C262.019 27.8278 265.546 29.8976 269.477 30.788C271.428 31.2328 273.467 31.3466 275.455 31.0388C277.436 30.733 279.376 29.9797 280.957 28.7108C279.41 30.0201 277.476 30.8316 275.48 31.1917C273.479 31.5545 271.409 31.4936 269.412 31.0911C265.397 30.2617 261.797 28.1984 258.384 26.059C254.961 23.917 251.629 21.6002 247.903 20.1221C246.043 19.3886 244.115 18.8081 242.143 18.589C240.178 18.3659 238.163 18.542 236.336 19.2695L235.707 19.5197L235.904 18.871C236.246 17.7484 236.935 16.7627 237.779 15.9896C238.626 15.2125 239.61 14.622 240.635 14.152C241.666 13.6873 242.745 13.3709 243.836 13.1081C244.934 12.8765 246.049 12.7368 247.17 12.6944C251.644 12.5561 256.185 14.0269 259.609 16.9282C261.31 18.3646 262.78 20.0241 264.581 21.2427C265.475 21.8531 266.46 22.3244 267.51 22.5594C268.56 22.7937 269.659 22.7851 270.724 22.5925C272.868 22.2132 274.848 21.1262 276.517 19.7123C278.203 18.2991 279.63 16.6045 281.046 14.9199Z" fill="#2E2044"/>
<path d="M271.273 36.0391C271.623 35.9756 271.976 35.9167 272.332 35.8664L273.408 35.7916L274.489 35.8286L275.566 35.9491C277 36.1642 278.391 36.6415 279.684 37.3001C280.97 37.9727 282.165 38.8299 283.17 39.8738L283.892 40.682L284.547 41.5412L285.108 42.4613C285.273 42.7804 285.429 43.1021 285.579 43.4244C285.366 43.1365 285.16 42.8479 284.961 42.5566L284.29 41.7385L283.581 40.9607L282.818 40.2405C281.769 39.3204 280.62 38.5188 279.381 37.8866C278.148 37.2412 276.829 36.7693 275.471 36.4456C274.109 36.1311 272.699 36.0034 271.273 36.0391Z" fill="#2E2044"/>
<path d="M230.768 22.5356C229.391 23.502 228.167 24.6677 227.173 26.0028C226.164 27.3234 225.374 28.8061 224.857 30.3736C224.334 31.9371 224.057 33.5834 224.063 35.231C224.061 36.8792 224.351 38.5175 224.861 40.0784L224.236 40.1618C224.454 37.2446 225.683 34.4174 227.683 32.3065C228.67 31.2427 229.856 30.363 231.129 29.7017C231.755 29.3661 232.382 29.0332 232.898 28.5572C233.405 28.0853 233.823 27.467 233.895 26.7495C233.89 27.4717 233.513 28.1554 233.012 28.6731C232.508 29.2026 231.883 29.5866 231.278 29.9619C230.059 30.686 228.951 31.5598 228.039 32.6282C227.58 33.1564 227.163 33.7191 226.801 34.3155C226.423 34.9013 226.104 35.5242 225.833 36.1649C225.284 37.4458 224.967 38.8187 224.878 40.2021L224.777 41.7643L224.252 40.2862C223.677 38.6658 223.432 36.9401 223.446 35.2283C223.468 33.5159 223.757 31.8027 224.35 30.1962C224.949 28.5923 225.823 27.101 226.906 25.7916C228.004 24.4949 229.306 23.3709 230.768 22.5356Z" fill="#2E2044"/>
<path d="M235.8 32.5435C234.972 34.6067 233.814 36.4953 232.967 38.487C232.111 40.4682 231.529 42.5732 231.666 44.7907C231.336 43.7296 231.279 42.5745 231.434 41.4598C231.579 40.3398 231.92 39.2556 232.359 38.2249C233.262 36.1656 234.522 34.3466 235.8 32.5435Z" fill="#2E2044"/>
</g>
</g>
<defs>
<clipPath id="clip0_2122_4303">
<rect width="497" height="295" fill="white"/>
</clipPath>
</defs>
</svg>
