<svg width="36" height="36" viewBox="0 0 36 36" fill="none" xmlns="http://www.w3.org/2000/svg">
<g id="SVG">
<path id="Vector" d="M22.8141 9.7944C22.8414 9.82176 22.8714 9.84588 22.9023 9.86676C22.9161 9.87576 22.9311 9.88224 22.9452 9.89016C22.9639 9.9006 22.9819 9.91176 23.0013 9.91968C23.02 9.92724 23.0398 9.93192 23.0593 9.93768C23.0758 9.94272 23.092 9.9492 23.109 9.95244C23.1457 9.95964 23.1831 9.9636 23.2216 9.9636C23.2602 9.9636 23.298 9.95964 23.3343 9.95244C23.3512 9.9492 23.3674 9.94236 23.3841 9.93768C23.4034 9.93192 23.4232 9.92724 23.442 9.91968C23.4615 9.91176 23.4795 9.90024 23.4981 9.89016C23.5125 9.88224 23.5276 9.87576 23.541 9.86676C23.5719 9.84624 23.6014 9.82212 23.6289 9.79476L25.0699 8.35404C25.2949 8.12904 25.2949 7.76436 25.0699 7.539C24.8449 7.314 24.4798 7.314 24.2548 7.539L23.7981 7.99584V3.59052C23.7981 3.27228 23.5399 3.01416 23.2216 3.01416C22.9035 3.01416 22.6453 3.27228 22.6453 3.59052V7.99584L22.1884 7.539C21.9634 7.314 21.5988 7.314 21.3735 7.539C21.148 7.764 21.148 8.12904 21.3735 8.35404L22.8141 9.7944ZM11.5753 9.79476C11.603 9.82212 11.6325 9.84624 11.6635 9.86676C11.6768 9.87576 11.6919 9.88224 11.7063 9.89016C11.725 9.9006 11.743 9.91176 11.7628 9.91968C11.7812 9.92724 11.801 9.93192 11.8204 9.93768C11.837 9.94272 11.8532 9.9492 11.8701 9.95244C11.9068 9.95964 11.9443 9.9636 11.9828 9.9636C12.0217 9.9636 12.0591 9.95964 12.0955 9.95244C12.1124 9.9492 12.1286 9.94236 12.1452 9.93768C12.1646 9.93192 12.1848 9.92724 12.2031 9.91968C12.2226 9.91176 12.2406 9.90024 12.2593 9.89016C12.2737 9.88224 12.2888 9.87576 12.3021 9.86676C12.3331 9.84624 12.3626 9.82212 12.3903 9.79476L13.8314 8.35404C14.0564 8.12904 14.0564 7.76436 13.8314 7.539C13.6064 7.314 13.2414 7.314 13.0164 7.539L12.5592 7.99584V3.59052C12.5592 3.27228 12.301 3.01416 11.9828 3.01416C11.6646 3.01416 11.4064 3.27228 11.4064 3.59052V7.99584L10.9496 7.539C10.7246 7.314 10.3599 7.314 10.1346 7.539C9.90955 7.764 9.90955 8.12904 10.1346 8.35404L11.5753 9.79476ZM17.0505 7.48932C17.0778 7.51668 17.1078 7.5408 17.1391 7.56168C17.1525 7.57032 17.1672 7.5768 17.1813 7.58472C17.1999 7.59516 17.2186 7.60632 17.2381 7.6146C17.2564 7.62216 17.2762 7.62684 17.2957 7.63224C17.3122 7.63728 17.3284 7.64376 17.3457 7.647C17.3821 7.6542 17.4199 7.65816 17.4585 7.65816C17.4969 7.65816 17.5347 7.6542 17.5711 7.647C17.5881 7.64376 17.6043 7.63692 17.6211 7.63224C17.6403 7.62648 17.6604 7.6218 17.6787 7.6146C17.6985 7.60632 17.7169 7.59516 17.7357 7.58472C17.7496 7.57716 17.7648 7.57068 17.7781 7.56168C17.809 7.5408 17.8386 7.51704 17.8663 7.48968L19.3071 6.0486C19.5321 5.8236 19.5321 5.45856 19.3071 5.23356C19.0821 5.00856 18.717 5.00856 18.492 5.23356L18.0348 5.6904V3.59052C18.0348 3.27228 17.7766 3.01416 17.4585 3.01416C17.1402 3.01416 16.882 3.27228 16.882 3.59052V5.6904L16.4248 5.23356C16.1998 5.00856 15.8352 5.00856 15.6099 5.23356C15.3849 5.45856 15.3849 5.8236 15.6099 6.0486L17.0505 7.48932ZM28.0852 16.9412V14.8614C28.0852 13.2724 26.7925 11.9796 25.2034 11.9796H22.7763C22.6762 11.7956 22.5697 11.6138 22.4499 11.4392C22.2699 11.1772 21.9105 11.1113 21.6484 11.2906C21.6399 11.2967 21.633 11.3042 21.6243 11.3111C21.4177 11.4706 21.3465 11.7442 21.4407 11.9796C21.4563 12.0185 21.4753 12.0563 21.5001 12.0923C21.6027 12.2417 21.6939 12.3976 21.7785 12.556C21.8785 12.7428 21.9675 12.935 22.0419 13.1323C22.1992 13.5488 22.299 13.9855 22.3378 14.4334C22.3501 14.5756 22.3584 14.7188 22.3584 14.8628C22.3584 14.9122 22.3558 14.9608 22.3545 15.0098C22.3486 15.2048 22.3324 15.3974 22.3044 15.5861C22.2543 15.9227 22.1701 16.2482 22.0552 16.5588H19.1641C19.1793 16.476 19.1878 16.391 19.1878 16.304C19.1878 16.0538 19.1302 15.8096 19.0284 15.5861C18.9286 15.3675 18.7839 15.171 18.6021 15.0098C18.5676 14.9791 18.5337 14.9482 18.4966 14.9201L17.8473 14.433L17.1135 13.8829C16.9689 13.7746 16.8828 13.6021 16.8828 13.4218C16.8828 13.2626 17.0121 13.1334 17.1708 13.1334H17.4534C17.4552 13.1338 17.457 13.1341 17.4588 13.1341C17.4606 13.1341 17.4624 13.1338 17.4642 13.1334H17.7468C17.9031 13.1334 18.0348 13.2655 18.0348 13.4218C18.0348 13.74 18.2929 13.9981 18.6111 13.9981C18.9294 13.9981 19.1875 13.74 19.1875 13.4218C19.1875 13.3224 19.1775 13.2256 19.1583 13.132C19.1145 12.9188 19.0222 12.7234 18.8955 12.5556C18.6879 12.2806 18.3847 12.0811 18.0348 12.0098V11.9792V11.6592C18.0348 11.341 17.7766 11.0828 17.4585 11.0828C17.1402 11.0828 16.882 11.341 16.882 11.6592V11.9792V12.0098C16.5321 12.0811 16.2294 12.2806 16.0213 12.5556C15.8943 12.7234 15.802 12.9188 15.7585 13.132C15.7395 13.2256 15.7293 13.3224 15.7293 13.4218C15.7293 13.7875 15.8496 14.141 16.0602 14.433C16.161 14.5727 16.2805 14.6998 16.4209 14.8049L16.6935 15.0093L17.4621 15.5858L17.8044 15.8424C17.9491 15.9504 18.0348 16.1228 18.0348 16.3035C18.0348 16.4148 17.9707 16.5105 17.8782 16.5584H17.0391C16.9465 16.5105 16.8825 16.4148 16.8825 16.3035C16.8825 15.9854 16.6243 15.7272 16.306 15.7272C15.9879 15.7272 15.7297 15.9854 15.7297 16.3035C15.7297 16.3907 15.7387 16.4756 15.7534 16.5584H12.8623C12.7474 16.2477 12.6632 15.9224 12.6132 15.5858C12.5851 15.3971 12.5689 15.2045 12.5631 15.0093C12.5617 14.9604 12.5592 14.9118 12.5592 14.8625C12.5592 14.7178 12.5667 14.5748 12.5793 14.433C12.6189 13.979 12.7204 13.5424 12.876 13.132C12.9512 12.9332 13.0387 12.741 13.138 12.5556C13.2457 12.3547 13.3674 12.1625 13.5009 11.9792C14.393 10.7585 15.8341 9.9636 17.4585 9.9636C18.3631 9.9636 19.2465 10.212 20.0133 10.6814C20.2758 10.8427 20.6145 10.766 20.787 10.5162C20.7931 10.5076 20.8003 10.5004 20.806 10.4914C20.9724 10.2199 20.887 9.86496 20.6157 9.699C19.6674 9.11796 18.5755 8.81088 17.4585 8.81088C15.1645 8.81088 13.1647 10.0936 12.1387 11.9796H11.3305C11.0122 11.9796 10.7541 12.2377 10.7541 12.556C10.7541 12.8742 11.0122 13.1323 11.3305 13.1323H11.6599C11.535 13.5492 11.455 13.9844 11.4234 14.4334H9.67735C9.35911 14.4334 9.10099 14.6915 9.10099 15.0098V16.5588H9.02755C9.00703 16.5552 8.98651 16.5506 8.96635 16.5458C8.94115 16.5401 8.91559 16.5347 8.89075 16.5278C8.86591 16.521 8.84143 16.5131 8.81695 16.5051C8.79283 16.4976 8.76871 16.49 8.74531 16.481C8.72119 16.472 8.69779 16.4619 8.67403 16.4519C8.65099 16.4421 8.62795 16.4328 8.60599 16.4223C8.58295 16.4115 8.56099 16.3994 8.53831 16.3874C8.51671 16.376 8.49439 16.3647 8.47351 16.3526C8.45155 16.34 8.43103 16.3259 8.40979 16.3122C8.38927 16.2986 8.36875 16.286 8.34859 16.2719C8.32807 16.2575 8.30863 16.2416 8.28883 16.2261C8.26975 16.2114 8.25031 16.1966 8.23159 16.1811C8.21287 16.1649 8.19487 16.1477 8.17651 16.1307C8.15887 16.1142 8.14051 16.098 8.12359 16.0808C8.10631 16.0631 8.09011 16.0443 8.07355 16.0263C8.05699 16.0083 8.04007 15.9903 8.02459 15.9716C8.00875 15.953 7.99435 15.9327 7.97923 15.9134C7.96447 15.8936 7.94899 15.8748 7.93495 15.855C7.92055 15.8345 7.90795 15.8129 7.89463 15.792C7.88167 15.7715 7.86799 15.7514 7.85575 15.7304C7.84315 15.7085 7.83235 15.6858 7.82047 15.6632C7.80931 15.6419 7.79743 15.6206 7.78735 15.5987C7.77655 15.5753 7.76719 15.5511 7.75711 15.5274C7.74811 15.5051 7.73803 15.4835 7.73011 15.4611C7.72075 15.4359 7.71355 15.41 7.70527 15.3845C7.69843 15.3621 7.69051 15.3405 7.68439 15.3179C7.67719 15.2906 7.67179 15.2628 7.66567 15.2351C7.66099 15.2132 7.65523 15.1919 7.65127 15.17C7.64551 15.1376 7.64227 15.1047 7.63831 15.072C7.63615 15.0536 7.63291 15.0356 7.63111 15.0173C7.62643 14.9658 7.62427 14.9136 7.62427 14.861C7.62427 14.6659 7.65595 14.4769 7.71967 14.2966C7.80427 14.0507 7.94611 13.8239 8.12971 13.6403C8.39827 13.3721 8.73631 13.2022 9.10747 13.1492C9.40303 13.1071 9.61111 12.8476 9.59923 12.5556C9.59851 12.5362 9.59959 12.5171 9.59671 12.4973C9.55135 12.1819 9.25723 11.9666 8.94439 12.0077C8.32411 12.0962 7.76071 12.3788 7.31431 12.8249C7.00759 13.1316 6.77071 13.5107 6.63103 13.9164C6.52483 14.2166 6.47119 14.5342 6.47119 14.861V30.1031C6.47119 31.6922 7.76431 32.9849 9.35299 32.9849H26.6442C28.2333 32.9849 29.526 31.6917 29.526 30.1031V27.077V22.4667V19.4406C29.5263 18.3794 28.9575 17.4416 28.0852 16.9412ZM28.3737 30.1034C28.3737 31.0571 27.5982 31.8326 26.6445 31.8326H9.35335C8.40007 31.8326 7.62427 31.0571 7.62427 30.1034V17.1719C7.63471 17.1794 7.64623 17.1855 7.65667 17.1932C7.72903 17.2457 7.80391 17.2953 7.88131 17.3411C7.89103 17.3468 7.90003 17.3537 7.90975 17.3591C7.99615 17.4087 8.08651 17.453 8.17867 17.4941C8.20711 17.5067 8.23627 17.5175 8.26471 17.5293C8.33419 17.5574 8.40511 17.5826 8.47711 17.6057C8.50771 17.6154 8.53759 17.6255 8.56855 17.6342C8.66827 17.6618 8.76979 17.6864 8.87419 17.7039C8.87491 17.7039 8.87527 17.7039 8.87563 17.7044C8.90659 17.7098 8.93827 17.7119 8.96995 17.7119H9.10135H9.67771H10.2541H12.121H12.782H13.4764H16.8651H16.882H18.0348H18.0517H21.4404H22.1349H22.7958H24.6267H25.2031H25.7794H26.6442C26.7385 17.7119 26.8357 17.7198 26.934 17.7363C26.9463 17.7386 26.9574 17.7417 26.9697 17.744C27.7846 17.8973 28.3732 18.6044 28.3732 19.4414V21.8912H24.3387C24.1857 21.8912 24.0393 21.9519 23.9313 22.0599L21.6258 24.3654C21.4008 24.5904 21.4008 24.9554 21.6258 25.1804L23.9313 27.4859C24.0393 27.5939 24.1857 27.6548 24.3387 27.6548H28.3732L28.3737 30.1034ZM10.2537 15.5864H11.4511C11.491 15.9198 11.558 16.2446 11.6502 16.5591H10.2537V15.5864ZM23.4657 15.5864H24.6271V16.5591H23.2666C23.3589 16.2446 23.4258 15.9194 23.4657 15.5864ZM23.2576 13.1323H25.2034C26.1567 13.1323 26.9325 13.9081 26.9325 14.8614V16.575C26.836 16.5653 26.7393 16.5588 26.6445 16.5588H25.7799V15.0098C25.7799 14.6915 25.5217 14.4334 25.2034 14.4334H23.4942C23.4633 13.9895 23.3829 13.5539 23.2576 13.1323ZM22.8483 24.7722L24.5775 23.0432H28.3737V26.5013H24.5775L22.8483 24.7722Z" fill="url(#paint0_linear_576_4977)"/>
<path id="Vector_2" d="M26.12 24.5502C26.1056 24.5157 26.0884 24.4839 26.0683 24.4522C26.0452 24.4209 26.0221 24.3918 25.9963 24.3658C25.7798 24.1495 25.3939 24.1495 25.1809 24.3658C25.1549 24.3918 25.129 24.4206 25.1089 24.4522C25.0886 24.4843 25.0714 24.5157 25.0541 24.5502C25.0426 24.5847 25.031 24.6222 25.0228 24.6597C25.0171 24.697 25.0112 24.7348 25.0112 24.7723C25.0112 24.9249 25.0717 25.0719 25.1812 25.1787C25.2907 25.2882 25.4347 25.3486 25.5877 25.3486C25.7431 25.3486 25.8875 25.2882 25.9969 25.1787C26.1035 25.0722 26.164 24.9249 26.164 24.7723C26.164 24.7348 26.1611 24.697 26.1524 24.6597C26.146 24.6222 26.1344 24.5847 26.12 24.5502Z" fill="url(#paint1_linear_576_4977)"/>
</g>
<defs>
<linearGradient id="paint0_linear_576_4977" x1="41.258" y1="42.5849" x2="5.02862" y2="41.2168" gradientUnits="userSpaceOnUse">
<stop stop-color="#FFB555"/>
<stop offset="1" stop-color="#E28000"/>
</linearGradient>
<linearGradient id="paint1_linear_576_4977" x1="26.7506" y1="25.7154" x2="24.9409" y2="25.626" gradientUnits="userSpaceOnUse">
<stop stop-color="#FFB555"/>
<stop offset="1" stop-color="#E28000"/>
</linearGradient>
</defs>
</svg>
