<svg width="36" height="36" viewBox="0 0 36 36" fill="none" xmlns="http://www.w3.org/2000/svg">
<path id="Vector" d="M35.9613 13.9241C35.975 13.8835 35.9853 13.8419 35.9921 13.7996C35.9921 13.7921 35.9921 13.7854 35.9921 13.7779C35.9939 13.6878 35.9795 13.5981 35.9493 13.5132C35.9493 13.5072 35.9493 13.4997 35.9448 13.4929C35.9087 13.3933 35.8517 13.3025 35.7776 13.2267L29.6179 7.05054L28.5261 5.95418H28.5216L27.6607 5.0873L31.4537 1.28156C31.5944 1.14035 31.6731 0.949066 31.6727 0.749788C31.6722 0.55051 31.5927 0.359563 31.4514 0.218951C31.3816 0.149326 31.2986 0.0941553 31.2073 0.056588C31.1161 0.0190208 31.0183 -0.000207221 30.9196 1.6863e-06C30.7204 0.000423589 30.5295 0.0799909 30.3888 0.2212L26.0679 4.55712C25.9274 4.69774 25.8483 4.88846 25.8483 5.0873C25.8483 5.28614 25.9274 5.47684 26.0679 5.61748L26.8966 6.45062L24.7391 8.35161H21.492C20.6667 8.35124 19.8698 8.65384 19.2528 9.202L11.6339 15.9511C11.4947 16.0736 11.4059 16.2434 11.3846 16.4276C11.3632 16.6118 11.4109 16.7973 11.5184 16.9485C11.5934 17.0595 13.4681 19.6481 15.9173 19.0624C17.6068 18.656 19.5798 16.9072 20.4264 16.0951C21.7972 16.7574 23.344 16.9633 24.8403 16.683C27.6967 16.1581 28.3746 14.9785 28.4811 14.746C28.5661 14.5634 28.5762 14.3548 28.509 14.1649C28.4419 13.975 28.3029 13.8191 28.1219 13.7306C28.0343 13.688 27.9389 13.6632 27.8417 13.6577C27.7444 13.6523 27.6469 13.6663 27.5551 13.6989C27.4632 13.7314 27.3787 13.782 27.3066 13.8476C27.2345 13.9132 27.1761 13.9925 27.135 14.0808C27.1305 14.0883 26.6633 14.824 24.5711 15.2057C23.2544 15.4698 21.8868 15.2354 20.7331 14.548C20.5863 14.4443 20.4071 14.3968 20.2282 14.4141C20.0492 14.4315 19.8824 14.5125 19.7583 14.6425C19.0834 15.3482 17.0166 17.2537 15.5663 17.6031C14.6117 17.8281 13.6991 17.1134 13.1824 16.5863L20.2494 10.3231C20.5919 10.019 21.034 9.85112 21.492 9.85141H25.0226C25.2054 9.85151 25.3819 9.78483 25.519 9.66393L27.9599 7.51397L28.4099 7.96391L34.1323 13.7126L31.7619 15.6864C31.6629 15.7686 31.5869 15.8749 31.5408 15.995C31.4949 16.1153 31.4807 16.2452 31.4994 16.3725C31.6269 17.2462 31.7694 19.9451 30.7825 20.8524C29.7379 21.8123 28.5013 23.0916 27.8099 23.8205L21.2686 17.2574C21.199 17.1875 21.1162 17.1319 21.0251 17.094C20.9341 17.056 20.8365 17.0364 20.7378 17.0362C20.5385 17.0358 20.3472 17.1145 20.206 17.2552C20.0647 17.3957 19.9852 17.5868 19.9847 17.786C19.9843 17.9853 20.063 18.1765 20.2037 18.3178L27.3135 25.4508L27.8212 25.9593C28.0064 26.1461 28.1105 26.3987 28.1105 26.6619C28.1105 26.9251 28.0064 27.1777 27.8212 27.3646C27.6403 27.548 27.3942 27.6522 27.1367 27.6548C26.8792 27.6573 26.6311 27.5579 26.4466 27.3781L21.585 22.5037C21.4443 22.3624 21.2534 22.283 21.0542 22.2825C20.8549 22.2821 20.6637 22.3608 20.5224 22.5015C20.3811 22.642 20.3016 22.8331 20.3012 23.0323C20.3007 23.2316 20.3795 23.4228 20.5202 23.5641L25.3945 28.4512C25.7255 28.7417 25.9371 29.1445 25.9884 29.582C25.9794 29.6789 25.9488 29.7725 25.8992 29.8562C25.8495 29.9397 25.7819 30.0114 25.7012 30.0657C25.4597 30.2659 24.8973 30.7406 23.9937 29.8407L19.675 25.5078C19.6054 25.4379 19.5226 25.3823 19.4316 25.3443C19.3406 25.3064 19.2429 25.2868 19.1442 25.2866C19.0456 25.2865 18.9478 25.3057 18.8566 25.3431C18.7652 25.3808 18.6823 25.436 18.6124 25.5056C18.5425 25.5752 18.487 25.658 18.4491 25.749C18.4111 25.84 18.3915 25.9377 18.3912 26.0364C18.391 26.135 18.4102 26.2328 18.4477 26.324C18.4854 26.4153 18.5406 26.4983 18.6102 26.5682L22.9198 30.8973C23.0995 31.085 23.1991 31.3353 23.1973 31.5951C23.1957 31.8548 23.0929 32.1038 22.9108 32.2892C22.82 32.3808 22.7118 32.4535 22.5926 32.5032C22.4733 32.5527 22.3456 32.5782 22.2164 32.5779C22.0876 32.5785 21.9601 32.5534 21.841 32.5044C21.722 32.4553 21.6138 32.3832 21.5228 32.2922L20.9701 31.738C20.9529 31.7207 20.9304 31.7147 20.9124 31.6997C20.8863 31.1682 20.6878 30.6596 20.3469 30.2508C20.0062 29.8421 19.5415 29.5555 19.0234 29.4343C19.1556 29.0039 19.1688 28.5457 19.0616 28.1085C18.9545 27.6711 18.7308 27.271 18.4144 26.9506C18.1602 26.7 17.8526 26.51 17.5146 26.395C17.8787 25.9164 18.0578 25.3224 18.0188 24.7224C17.9798 24.1223 17.7253 23.5566 17.3023 23.1291C16.8686 22.7168 16.3038 22.4704 15.7066 22.4326C15.1093 22.395 14.5179 22.5685 14.0358 22.9229C13.9133 22.5943 13.7223 22.2956 13.4756 22.0463C13.0011 21.5924 12.3699 21.3393 11.7133 21.3393C11.0568 21.3393 10.4256 21.5924 9.95108 22.0463L8.18132 23.8228C7.61965 23.2229 6.37031 21.9128 5.21622 20.8532C4.22935 19.9488 4.37183 17.2492 4.49632 16.3748C4.51502 16.2475 4.50062 16.1174 4.45453 15.9973C4.40843 15.877 4.33218 15.7708 4.2331 15.6886L1.86567 13.7149L8.03359 7.51247L10.4783 9.66618C10.6154 9.78708 10.7919 9.85376 10.9747 9.85366H14.506C14.9817 9.85736 15.4391 10.0375 15.7898 10.3591L15.96 10.4896C16.1178 10.611 16.3173 10.6648 16.5147 10.6391C16.712 10.6135 16.8911 10.5104 17.0126 10.3527C17.1339 10.195 17.1878 9.99551 17.1621 9.79812C17.1365 9.60075 17.0334 9.42164 16.8757 9.30023L16.7452 9.20275C16.1279 8.65501 15.3313 8.35248 14.506 8.35236H11.2582L9.0962 6.44762L9.92109 5.62273C10.0617 5.48209 10.1406 5.29139 10.1406 5.09255C10.1406 4.89371 10.0617 4.70299 9.92109 4.56237L5.60017 0.2212C5.45956 0.0799909 5.26861 0.000423589 5.06933 1.6863e-06C4.87005 -0.000420207 4.67877 0.0783378 4.53756 0.218951C4.39635 0.359563 4.31679 0.55051 4.31637 0.749788C4.31594 0.949066 4.3947 1.14035 4.53531 1.28156L8.3283 5.0873L0.214393 13.229C0.105681 13.3393 0.0340496 13.4808 0.0094555 13.6337C-0.0151386 13.7867 0.00852642 13.9435 0.0771611 14.0823C0.0935796 14.1105 0.111868 14.1376 0.131904 14.1633C0.155467 14.209 0.183878 14.252 0.216643 14.2916C0.226391 14.3013 0.23989 14.3043 0.250388 14.3141C0.260887 14.3238 0.264636 14.3358 0.274385 14.3441L2.96127 16.581C2.84879 17.7104 2.72505 20.6042 4.19936 21.96C5.3242 22.9964 6.58854 24.3222 7.12396 24.8892L7.10747 24.9064C6.64239 25.3749 6.3814 26.0085 6.3814 26.6687C6.3814 27.3289 6.64239 27.9622 7.10747 28.4309C7.5645 28.8905 8.18414 29.1516 8.83223 29.1576C8.83616 29.8103 9.09719 30.4353 9.55871 30.897C10.0202 31.3587 10.6451 31.6198 11.2979 31.624C11.3025 32.2745 11.562 32.8973 12.0208 33.3585C12.3728 33.714 12.8243 33.9545 13.3158 34.0483C13.8072 34.1419 14.3155 34.0844 14.7737 33.8834C14.8874 34.2737 15.0961 34.6299 15.3811 34.9198C15.6112 35.1523 15.8852 35.3368 16.1872 35.4624C16.4893 35.588 16.8133 35.6523 17.1404 35.6517C17.3662 35.6481 17.5905 35.6139 17.807 35.5497C18.252 35.8435 18.7736 36 19.3068 35.9997C19.6326 36.0051 19.9562 35.9458 20.2587 35.8251C20.5614 35.7045 20.8371 35.525 21.0698 35.297C21.4116 34.9534 21.6383 34.5122 21.7185 34.0342C21.8821 34.0673 22.0488 34.084 22.2157 34.0837C22.8297 34.0832 23.4217 33.8549 23.877 33.4431C24.3325 33.0313 24.6188 32.4651 24.6806 31.8542C25.0368 31.895 25.3977 31.8595 25.739 31.7498C26.0805 31.6402 26.3946 31.459 26.6603 31.2183C26.8994 31.0311 27.0965 30.7957 27.2387 30.5273C27.3808 30.259 27.4648 29.9637 27.4852 29.6608C27.4936 29.4848 27.4809 29.3086 27.447 29.1358C27.991 29.0674 28.4965 28.8197 28.8838 28.4317C29.3487 27.963 29.6095 27.3296 29.6095 26.6694C29.6095 26.0092 29.3487 25.3758 28.8838 24.9072L28.8695 24.8929C29.5444 24.182 30.7818 22.8989 31.7941 21.9683C33.2692 20.6125 33.144 17.7186 33.033 16.5893L35.7199 14.3523C35.7334 14.3411 35.7394 14.3231 35.7529 14.3111C35.7664 14.2991 35.7641 14.3043 35.7694 14.2998C35.7848 14.2795 35.7988 14.2582 35.8114 14.2361C35.8558 14.1861 35.8931 14.1304 35.9223 14.0703C35.9402 14.023 35.9532 13.974 35.9613 13.9241ZM8.17082 25.9675L11.0204 23.1081C11.2082 22.9285 11.458 22.8281 11.7178 22.8281C11.9777 22.8281 12.2275 22.9285 12.4153 23.1081C12.596 23.2911 12.6987 23.5371 12.7017 23.7943C12.7048 24.0515 12.608 24.2999 12.4317 24.4872L9.55289 27.3728L9.54239 27.3856C9.35266 27.5583 9.10313 27.6503 8.84668 27.6422C8.59023 27.6341 8.34703 27.5264 8.16865 27.3419C7.99026 27.1574 7.89073 26.9109 7.89114 26.6543C7.89154 26.3977 7.99187 26.1514 8.17082 25.9675ZM10.6192 29.8362C10.437 29.6522 10.3339 29.4041 10.3318 29.1453C10.3297 28.8863 10.4288 28.6367 10.608 28.4497C10.6147 28.4437 10.6222 28.4392 10.6282 28.4332L13.4779 25.5746C13.4929 25.5588 13.5026 25.5408 13.5176 25.5251L14.8449 24.191C14.9362 24.0991 15.0447 24.0262 15.1642 23.9764C15.2838 23.9266 15.412 23.9009 15.5416 23.9009C15.6712 23.9009 15.7994 23.9266 15.9189 23.9764C16.0385 24.0262 16.1471 24.0991 16.2382 24.191C16.4235 24.3779 16.5275 24.6304 16.5275 24.8937C16.5275 25.1569 16.4235 25.4094 16.2382 25.5963L12.0103 29.837C11.9191 29.9289 11.8105 30.0018 11.691 30.0516C11.5714 30.1014 11.4432 30.1271 11.3137 30.1271C11.1841 30.1271 11.0559 30.1014 10.9363 30.0516C10.8168 30.0018 10.7082 29.9289 10.617 29.837L10.6192 29.8362ZM13.0849 32.3012C12.8998 32.1141 12.796 31.8616 12.796 31.5985C12.796 31.3353 12.8998 31.0829 13.0849 30.8958L15.96 28.0132C16.0523 27.9217 16.1617 27.8495 16.2819 27.8003C16.4022 27.7511 16.5308 27.726 16.6609 27.7266C16.7908 27.7272 16.9193 27.7535 17.039 27.8037C17.1588 27.854 17.2675 27.9273 17.359 28.0195C17.4504 28.1119 17.5228 28.2213 17.5719 28.3415C17.6211 28.4617 17.6461 28.5905 17.6455 28.7204C17.6449 28.8503 17.6188 28.9788 17.5684 29.0986C17.5182 29.2183 17.4448 29.3271 17.3526 29.4185L16.6837 30.0897L15.3834 31.393L15.3751 31.4035L14.4812 32.3034C14.2932 32.4844 14.0422 32.5854 13.7811 32.5849C13.5201 32.5846 13.2694 32.4828 13.0819 32.3012H13.0849ZM16.4422 33.8594C16.2586 33.6729 16.1556 33.4215 16.1556 33.1598C16.1556 32.8979 16.2586 32.6467 16.4422 32.4601L17.747 31.1508C17.8381 31.0589 17.9465 30.9858 18.0659 30.936C18.1854 30.8862 18.3135 30.8606 18.4429 30.8606C18.5724 30.8606 18.7005 30.8862 18.82 30.936C18.9394 30.9858 19.0478 31.0589 19.1388 31.1508C19.3244 31.3377 19.4285 31.5903 19.4285 31.8535C19.4285 32.1167 19.3244 32.3693 19.1388 32.5561L17.8363 33.8594C17.6488 34.0393 17.3991 34.1396 17.1393 34.1396C16.8794 34.1396 16.6297 34.0393 16.4422 33.8594ZM20.0065 34.2344C19.8244 34.3913 19.5906 34.4747 19.3503 34.4684L20.1985 33.6165C20.2165 33.5992 20.2277 33.5782 20.2442 33.561C20.2553 33.6837 20.2397 33.8074 20.1988 33.9236C20.1577 34.0397 20.0921 34.1458 20.0065 34.2344Z" fill="url(#paint0_linear_576_4938)"/>
<defs>
<linearGradient id="paint0_linear_576_4938" x1="54.3078" y1="47.5312" x2="-2.19664" y2="44.7581" gradientUnits="userSpaceOnUse">
<stop stop-color="#FFB555"/>
<stop offset="1" stop-color="#E28000"/>
</linearGradient>
</defs>
</svg>
