<svg width="36" height="36" viewBox="0 0 36 36" fill="none" xmlns="http://www.w3.org/2000/svg">
<g id="SVG">
<path id="Vector" d="M25.0576 2.664C25.1523 2.54744 25.2695 2.45102 25.4019 2.38041C25.5345 2.30981 25.6799 2.26644 25.8294 2.25288C25.979 2.23933 26.1297 2.25586 26.2728 2.3015C26.4159 2.34713 26.5484 2.42094 26.6624 2.51857C26.7765 2.61623 26.87 2.73572 26.937 2.87002C27.0042 3.00432 27.0438 3.15072 27.0535 3.30057C27.0633 3.45044 27.0429 3.6007 26.9936 3.74256C26.9444 3.88441 26.8671 4.01496 26.7666 4.1265L24.6751 6.57225C24.9891 6.7815 25.2849 7.01325 25.5674 7.2585L27.6204 4.85775C28.0119 4.401 28.2009 3.81938 28.1548 3.21975C28.1326 2.92538 28.0521 2.63835 27.9182 2.37532C27.7841 2.1123 27.5991 1.87849 27.3741 1.6875C26.4673 0.910125 24.9756 1.02712 24.2016 1.935L21.3856 5.22787C21.7941 5.30684 22.1964 5.41473 22.5894 5.55075L25.0576 2.664ZM15.1869 6.831C15.0881 6.83097 14.9909 6.80497 14.9052 6.75561C14.8196 6.70626 14.7483 6.63526 14.6987 6.54975L14.1362 5.5755C14.0628 5.44638 14.0434 5.29345 14.0823 5.1501C14.1213 5.00676 14.2153 4.88461 14.3439 4.81035C14.4726 4.73607 14.6253 4.7157 14.769 4.75366C14.9126 4.79163 15.0353 4.88486 15.1104 5.013L15.6729 5.98725C15.7223 6.07267 15.7482 6.16958 15.7484 6.26822C15.7484 6.36686 15.7224 6.46378 15.6732 6.54925C15.624 6.63474 15.5532 6.70576 15.4679 6.75522C15.3825 6.80466 15.2856 6.8308 15.1869 6.831ZM19.6869 5.625C19.5378 5.625 19.3947 5.56574 19.2892 5.46024C19.1837 5.35476 19.1244 5.21169 19.1244 5.0625V3.9375C19.1244 3.78831 19.1837 3.64524 19.2892 3.53976C19.3947 3.43426 19.5378 3.375 19.6869 3.375C19.8362 3.375 19.9793 3.43426 20.0847 3.53976C20.1902 3.64524 20.2494 3.78831 20.2494 3.9375V5.0625C20.2494 5.21169 20.1902 5.35476 20.0847 5.46024C19.9793 5.56574 19.8362 5.625 19.6869 5.625ZM20.8119 3.375C20.6628 3.375 20.5197 3.31574 20.4143 3.21024C20.3087 3.10476 20.2494 2.96169 20.2494 2.8125V2.25H19.1244V2.8125C19.1244 2.96169 19.0652 3.10476 18.9597 3.21024C18.8543 3.31574 18.7112 3.375 18.5619 3.375C18.4128 3.375 18.2697 3.31574 18.1643 3.21024C18.0587 3.10476 17.9994 2.96169 17.9994 2.8125V1.6875C17.9994 1.53831 18.0587 1.39524 18.1643 1.28975C18.2697 1.18426 18.4128 1.125 18.5619 1.125H20.8119C20.9612 1.125 21.1042 1.18426 21.2097 1.28975C21.3152 1.39524 21.3744 1.53831 21.3744 1.6875V2.8125C21.3744 2.96169 21.3152 3.10476 21.2097 3.21024C21.1042 3.31574 20.9612 3.375 20.8119 3.375ZM23.3421 7.7355C23.4683 7.80959 23.5619 7.92849 23.6041 8.0685C23.6243 8.14119 23.6297 8.21713 23.6201 8.29192C23.6104 8.36671 23.5862 8.43886 23.5485 8.50417C23.5108 8.56948 23.4605 8.62667 23.4006 8.67239C23.3406 8.7181 23.2722 8.75145 23.1991 8.7705C23.0569 8.80121 22.9083 8.77791 22.7823 8.70513C22.6563 8.63235 22.5619 8.5153 22.5174 8.37675C22.4758 8.22375 22.4994 8.0685 22.5726 7.9425C22.6456 7.8165 22.7671 7.71637 22.9156 7.686C22.9864 7.66532 23.0607 7.65905 23.1339 7.66755C23.2071 7.67604 23.2779 7.69916 23.3421 7.7355ZM16.5921 19.4276C16.6565 19.4637 16.7124 19.5129 16.7566 19.572C16.8007 19.6311 16.8321 19.6989 16.8486 19.7708C16.8705 19.8412 16.8773 19.9155 16.8686 19.9887C16.8599 20.062 16.8357 20.1327 16.7979 20.196C16.7622 20.2606 16.713 20.3169 16.6539 20.361C16.5948 20.4053 16.5269 20.4365 16.4549 20.4525C16.3131 20.4883 16.163 20.4687 16.0353 20.3976C15.9075 20.3265 15.8116 20.2094 15.7674 20.07C15.7278 19.9258 15.7464 19.7719 15.8191 19.6415C15.8921 19.511 16.0133 19.4144 16.1567 19.3725C16.2293 19.3521 16.3052 19.3465 16.38 19.356C16.4547 19.3654 16.5269 19.3899 16.5921 19.4276ZM26.0162 10.4107C26.0885 10.538 26.1101 10.6878 26.0769 10.8304C26.0577 10.9032 26.0243 10.9716 25.9785 11.0315C25.9328 11.0914 25.8756 11.1416 25.8103 11.1792C25.7451 11.2169 25.673 11.2413 25.5983 11.2509C25.5236 11.2605 25.4476 11.2552 25.3749 11.2354C25.2366 11.1907 25.1196 11.0962 25.0469 10.9703C24.9741 10.8443 24.9507 10.6958 24.9812 10.5536C25.0004 10.4808 25.0338 10.4124 25.0795 10.3526C25.1253 10.2927 25.1826 10.2425 25.2478 10.2049C25.3111 10.167 25.3818 10.143 25.455 10.1343C25.5283 10.1255 25.6026 10.1323 25.6731 10.1542C25.8272 10.1959 25.9431 10.2847 26.0162 10.4107ZM14.3252 17.1608C14.3983 17.2878 14.4219 17.442 14.3758 17.586C14.3592 17.6579 14.3278 17.7255 14.2836 17.7845C14.2395 17.8435 14.1835 17.8929 14.1193 17.9292C14.0561 17.9669 13.9857 17.9908 13.9126 17.9995C13.8396 18.0082 13.7655 18.0015 13.6952 17.9797C13.5543 17.9398 13.434 17.8476 13.3589 17.7219C13.2838 17.5962 13.2597 17.4466 13.2913 17.3036C13.3304 17.1562 13.4263 17.0306 13.5579 16.9537C13.6846 16.8797 13.8353 16.8584 13.9776 16.8942C14.1239 16.9341 14.2487 17.0298 14.3252 17.1608ZM26.9961 14.0659C26.9961 14.2121 26.9399 14.3471 26.8386 14.4596C26.7855 14.513 26.7224 14.5553 26.6529 14.5842C26.5833 14.613 26.5088 14.6279 26.4336 14.6279C26.3583 14.6279 26.2838 14.613 26.2143 14.5842C26.1449 14.5553 26.0817 14.513 26.0286 14.4596C25.9308 14.3518 25.8767 14.2114 25.8767 14.0659C25.8767 13.9203 25.9308 13.7799 26.0286 13.6721C26.1411 13.5596 26.2874 13.5034 26.4336 13.5034C26.5799 13.5034 26.7261 13.5596 26.8273 13.6721C26.9398 13.7846 26.9961 13.9196 26.9961 14.0659ZM13.4961 14.0659C13.4961 14.2121 13.4398 14.3584 13.3273 14.4596C13.2771 14.5137 13.2161 14.5566 13.1483 14.5857C13.0805 14.6147 13.0073 14.6293 12.9336 14.6284C12.8598 14.6293 12.7866 14.6147 12.7188 14.5857C12.651 14.5566 12.59 14.5137 12.5398 14.4596C12.4382 14.3545 12.3803 14.2146 12.378 14.0683C12.3757 13.9221 12.4291 13.7804 12.5274 13.6721C12.6327 13.5663 12.7753 13.5059 12.9245 13.5038C13.0738 13.5017 13.218 13.5581 13.3262 13.6609C13.4398 13.7734 13.4961 13.9196 13.4961 14.0659ZM26.0162 17.7199C25.9421 17.846 25.8233 17.9396 25.6832 17.982C25.6106 18.0021 25.5345 18.0074 25.4598 17.9979C25.385 17.9883 25.3128 17.964 25.2475 17.9263C25.1821 17.8885 25.125 17.8383 25.0792 17.7783C25.0336 17.7184 25.0002 17.6499 24.9812 17.577C24.9506 17.4348 24.9738 17.2861 25.0466 17.1601C25.1193 17.0341 25.2364 16.9398 25.3749 16.8953C25.5291 16.8535 25.6832 16.8783 25.8103 16.9515C25.9374 17.0245 26.0353 17.1462 26.0668 17.2947C26.0875 17.3652 26.0939 17.4393 26.0852 17.5125C26.0765 17.5856 26.0531 17.656 26.0162 17.7199ZM14.3252 10.9699C14.2891 11.0342 14.2399 11.0903 14.1808 11.1344C14.1217 11.1786 14.054 11.2099 13.9821 11.2264C13.9116 11.2483 13.8373 11.2551 13.764 11.2464C13.6908 11.2376 13.6202 11.2136 13.5568 11.1757C13.4922 11.14 13.436 11.0909 13.3917 11.0317C13.3475 10.9726 13.3164 10.9047 13.3003 10.8326C13.2645 10.6907 13.2843 10.5405 13.3557 10.4128C13.427 10.285 13.5444 10.1893 13.6839 10.1453C13.828 10.1056 13.9819 10.1242 14.1124 10.197C14.2429 10.2698 14.3396 10.3911 14.3814 10.5345C14.4014 10.6072 14.4066 10.6831 14.397 10.7578C14.3873 10.8326 14.3629 10.9046 14.3252 10.9699ZM23.3421 20.3951C23.2148 20.4674 23.0651 20.4891 22.9224 20.4559C22.8495 20.4367 22.7812 20.4033 22.7214 20.3575C22.6614 20.3118 22.6113 20.2547 22.5735 20.1893C22.5358 20.124 22.5115 20.052 22.5019 19.9771C22.4923 19.9025 22.4976 19.8265 22.5174 19.754C22.5621 19.6155 22.6566 19.4986 22.7826 19.4259C22.9085 19.3531 23.0569 19.3298 23.1991 19.3601C23.3464 19.3992 23.4723 19.4951 23.5491 19.6268C23.6221 19.7538 23.6459 19.908 23.5986 20.052C23.581 20.1234 23.5493 20.1906 23.5051 20.2495C23.4611 20.3085 23.4057 20.358 23.3421 20.3951ZM16.5921 8.70413C16.5287 8.74169 16.458 8.7656 16.3848 8.77431C16.3116 8.78303 16.2373 8.77637 16.1669 8.75475C16.095 8.7381 16.0274 8.70671 15.9683 8.66256C15.9093 8.6184 15.86 8.56245 15.8237 8.49825C15.7857 8.43498 15.7615 8.36436 15.7527 8.29105C15.744 8.21775 15.7509 8.14342 15.7731 8.073C15.813 7.93212 15.9053 7.81182 16.031 7.73673C16.1567 7.66166 16.3062 7.63746 16.4492 7.66913C16.5964 7.70822 16.7223 7.8041 16.7991 7.93575C16.8363 7.99971 16.8605 8.07041 16.8701 8.14375C16.8798 8.21709 16.875 8.29164 16.8556 8.36307C16.8364 8.43451 16.8033 8.50143 16.758 8.55997C16.7127 8.6185 16.6563 8.6675 16.5921 8.70413ZM19.6869 21.375C19.5407 21.375 19.4056 21.3188 19.2931 21.2175C19.2399 21.1644 19.1976 21.1012 19.1687 21.0318C19.1399 20.9624 19.1248 20.8878 19.1248 20.8125C19.1248 20.7372 19.1399 20.6626 19.1687 20.5932C19.1976 20.5238 19.2399 20.4606 19.2931 20.4075C19.5069 20.205 19.8669 20.205 20.0807 20.4075C20.1932 20.52 20.2494 20.6663 20.2494 20.8125C20.2494 20.9587 20.1932 21.105 20.0807 21.2062C19.9682 21.3188 19.8332 21.375 19.6869 21.375ZM19.6869 7.875C19.6131 7.8759 19.54 7.86135 19.4722 7.83228C19.4044 7.80323 19.3434 7.76029 19.2931 7.70625C19.2391 7.65603 19.1962 7.59504 19.1672 7.52722C19.1381 7.45941 19.1235 7.38627 19.1244 7.3125C19.1244 7.16625 19.1806 7.02 19.2931 6.91875C19.3983 6.81675 19.5383 6.75876 19.6847 6.75666C19.8311 6.75457 19.9728 6.80853 20.0807 6.9075C20.1866 7.01278 20.247 7.15531 20.2491 7.30458C20.2512 7.45385 20.1948 7.59802 20.0919 7.70625C19.9794 7.81875 19.8332 7.875 19.6869 7.875ZM19.6869 15.75C18.7566 15.75 17.9994 14.9929 17.9994 14.0625C17.9994 13.1321 18.7566 12.375 19.6869 12.375C20.6174 12.375 21.3744 13.1321 21.3744 14.0625C21.3744 14.9929 20.6174 15.75 19.6869 15.75ZM19.6869 13.5C19.5378 13.5 19.3947 13.5593 19.2892 13.6647C19.1837 13.7702 19.1244 13.9133 19.1244 14.0625C19.1244 14.2117 19.1837 14.3548 19.2892 14.4603C19.3947 14.5657 19.5378 14.625 19.6869 14.625C19.8362 14.625 19.9793 14.5657 20.0847 14.4603C20.1902 14.3548 20.2494 14.2117 20.2494 14.0625C20.2494 13.9133 20.1902 13.7702 20.0847 13.6647C19.9793 13.5593 19.8362 13.5 19.6869 13.5Z" fill="url(#paint0_linear_576_4953)"/>
<path id="Vector_2" d="M15.164 23.9345H15.146C15.072 23.9321 14.9993 23.9153 14.9319 23.8849C14.8646 23.8544 14.8039 23.8109 14.7533 23.7571C14.7028 23.7032 14.6633 23.6398 14.6372 23.5706C14.6112 23.5015 14.599 23.4278 14.6014 23.354C14.7971 17.1046 10.5401 15.5071 10.4974 15.4925C10.3883 15.4535 10.2938 15.3818 10.227 15.2872C10.1601 15.1925 10.1241 15.0796 10.1239 14.9637V11.7091C10.1239 11.5662 10.179 11.4278 10.2769 11.3232L11.0104 10.5458C11.763 9.70772 12.1208 8.94272 12.0634 8.28235C12.0094 7.66472 11.5943 7.21472 11.2466 6.9166L7.89752 10.6437L6.54639 16.9381L8.67039 22.5935C8.71545 22.7311 8.70585 22.8808 8.64356 23.0114C8.58126 23.1421 8.47107 23.2438 8.33582 23.2955C8.20055 23.3471 8.05061 23.3447 7.91706 23.2888C7.78352 23.2328 7.67661 23.1277 7.61852 22.9951L5.43602 17.1833C5.3973 17.0818 5.38908 16.9711 5.41239 16.865L6.82989 10.2623C6.84998 10.1665 6.89499 10.0776 6.96039 10.0047L10.7674 5.76572C10.8667 5.65477 11.006 5.58772 11.1546 5.57927C11.3033 5.57084 11.4493 5.62171 11.5605 5.72072L11.682 5.8186C12.0983 6.14597 13.0736 6.91097 13.1839 8.18335C13.2694 9.1666 12.816 10.2173 11.8384 11.3063L11.2489 11.933V14.5958C12.4245 15.1708 15.9132 17.3858 15.7253 23.39C15.7209 23.536 15.6599 23.6744 15.555 23.7761C15.4502 23.8777 15.3099 23.9345 15.164 23.9345ZM27.9135 11.3851C27.377 11.3851 26.8583 11.1927 26.4522 10.844C26.2272 10.6526 26.0424 10.4186 25.9085 10.1554C25.7744 9.89219 25.6938 9.60508 25.6715 9.3106C25.6476 9.01579 25.6826 8.71919 25.7744 8.43802C25.866 8.15683 26.0127 7.89667 26.2058 7.6726L26.3847 7.44422C27.1857 6.50597 28.665 6.40135 29.5718 7.17985C30.0275 7.5691 30.3053 8.11472 30.3525 8.71322C30.3764 9.00803 30.3413 9.30463 30.2496 9.5858C30.1578 9.86698 30.0113 10.1272 29.8182 10.3512L29.6393 10.5796C29.4276 10.8314 29.1635 11.034 28.8654 11.1731C28.5674 11.3122 28.2425 11.3846 27.9135 11.3851ZM28.1082 7.76372C27.9456 7.76341 27.785 7.79846 27.6374 7.86646C27.4896 7.93445 27.3585 8.03375 27.2532 8.15747L27.0743 8.38697C26.9738 8.50055 26.8971 8.63317 26.8488 8.77694C26.8004 8.92072 26.7815 9.07273 26.793 9.22397C26.8041 9.37115 26.8443 9.51467 26.9114 9.64618C26.9784 9.7777 27.0708 9.89459 27.1835 9.9901C27.639 10.3827 28.3815 10.3208 28.7685 9.86747L28.9475 9.6391C29.1578 9.39272 29.2523 9.10135 29.2287 8.8021C29.2176 8.65492 29.1773 8.5114 29.1104 8.37989C29.0433 8.24837 28.9508 8.13148 28.8383 8.03597C28.6356 7.86017 28.3764 7.7635 28.1082 7.76372Z" fill="url(#paint1_linear_576_4953)"/>
<path id="Vector_3" d="M28.7649 15.346C28.2283 15.346 27.7096 15.1537 27.3036 14.805C27.0786 14.6136 26.8938 14.3796 26.7598 14.1164C26.6257 13.8532 26.5452 13.5661 26.5228 13.2716C26.499 12.9768 26.5341 12.6802 26.6257 12.399C26.7175 12.1179 26.8641 11.8577 27.0571 11.6336L27.9121 10.647C28.6816 9.74475 30.1756 9.6255 31.0824 10.4029C31.5381 10.7921 31.8159 11.3377 31.8631 11.9362C31.887 12.2311 31.852 12.5277 31.7602 12.8088C31.6684 13.09 31.5219 13.3502 31.3288 13.5743L30.4738 14.5609C30.2626 14.8075 30.0004 15.0054 29.7055 15.1409C29.4105 15.2764 29.0896 15.3465 28.7649 15.346ZM29.6199 10.9868C29.4574 10.9864 29.2968 11.0215 29.149 11.0895C29.0014 11.1575 28.8703 11.2568 28.7649 11.3805L27.9099 12.3682C27.814 12.4801 27.7413 12.6099 27.6958 12.7501C27.6505 12.8903 27.6334 13.0381 27.6456 13.185C27.6567 13.3322 27.6969 13.4757 27.7639 13.6072C27.831 13.7387 27.9234 13.8556 28.0359 13.9511C28.2654 14.138 28.5579 14.2295 28.8529 14.2066C29.148 14.1838 29.4231 14.0484 29.6211 13.8285L30.4761 12.8419C30.5719 12.73 30.6447 12.6002 30.6901 12.46C30.7354 12.3198 30.7525 12.172 30.7404 12.0251C30.7293 11.8779 30.6891 11.7344 30.622 11.6029C30.555 11.4714 30.4626 11.3545 30.3501 11.259C30.1474 11.0832 29.8882 10.9865 29.6199 10.9868ZM26.8266 7.79288C26.8366 7.7805 26.8501 7.7715 26.8603 7.76025C25.9663 6.73676 24.8637 5.91631 23.6266 5.35399C22.3894 4.79169 21.0463 4.50051 19.6873 4.5C17.6544 4.5 15.7149 5.13 14.0781 6.32025C13.9636 6.41022 13.8886 6.54105 13.8686 6.68521C13.8486 6.8294 13.8853 6.97569 13.971 7.09338C14.0566 7.21107 14.1845 7.29098 14.3279 7.31631C14.4712 7.34165 14.6188 7.31045 14.7396 7.22925C16.1763 6.18192 17.9094 5.61995 19.6873 5.625C20.9521 5.6256 22.2006 5.91101 23.3401 6.46001C24.4797 7.00902 25.4809 7.80756 26.2696 8.79638C26.3259 8.52525 26.4406 8.26312 26.6331 8.03812L26.8266 7.79288ZM27.0786 18.1249C26.1763 19.767 24.7533 21.0624 23.0338 21.8069C21.3144 22.5513 19.3962 22.7025 17.5813 22.2367C17.4369 22.2 17.2839 22.2222 17.1558 22.2984C17.0277 22.3746 16.9351 22.4985 16.8984 22.643C16.8618 22.7873 16.8838 22.9404 16.96 23.0683C17.0362 23.1964 17.1601 23.289 17.3046 23.3258C18.0832 23.5245 18.8836 23.625 19.6873 23.625C23.1061 23.625 26.1021 21.816 27.7929 19.1115C27.7356 19.0732 27.6714 19.0553 27.6174 19.0091C27.349 18.7787 27.1603 18.469 27.0786 18.1249Z" fill="url(#paint2_linear_576_4953)"/>
<path id="Vector_4" d="M28.7116 19.9767C28.1751 19.9767 27.6564 19.7844 27.2503 19.4356C27.0253 19.2442 26.8405 19.0101 26.7066 18.747C26.5725 18.4837 26.4919 18.1966 26.4696 17.9022C26.4457 17.6074 26.4807 17.3107 26.5725 17.0296C26.6641 16.7484 26.8108 16.4883 27.0039 16.2642L27.8589 15.2776C28.6284 14.3753 30.1224 14.2549 31.0292 15.0334C31.4848 15.4227 31.7626 15.9684 31.8099 16.5669C31.8337 16.8616 31.7987 17.1582 31.707 17.4394C31.6152 17.7205 31.4687 17.9808 31.2756 18.2049L30.4206 19.1914C30.2094 19.438 29.9472 19.6359 29.6521 19.7715C29.3573 19.9071 29.0364 19.977 28.7116 19.9767ZM29.5666 15.6174C29.404 15.6169 29.2434 15.652 29.0958 15.72C28.9482 15.7881 28.8171 15.8874 28.7116 16.0111L27.8566 16.9989C27.7608 17.1106 27.688 17.2405 27.6426 17.3806C27.5973 17.5209 27.5802 17.6688 27.5923 17.8156C27.6034 17.9628 27.6437 18.1063 27.7107 18.2377C27.7776 18.3693 27.8701 18.4861 27.9826 18.5817C28.212 18.7689 28.5047 18.8605 28.7997 18.8376C29.0949 18.8148 29.37 18.6792 29.5679 18.4591L30.4229 17.4724C30.5187 17.3605 30.5915 17.2308 30.6369 17.0905C30.6822 16.9504 30.6993 16.8025 30.6871 16.6557C30.676 16.5085 30.6359 16.365 30.5688 16.2334C30.5017 16.102 30.4094 15.985 30.2969 15.8896C30.0942 15.7138 29.8348 15.6171 29.5666 15.6174ZM17.7384 31.2919C17.8194 31.1668 17.8474 31.0147 17.8165 30.8691C17.7855 30.7233 17.6979 30.5958 17.5731 30.5146L8.26366 24.4722C8.13861 24.3912 7.98651 24.3631 7.84077 24.394C7.69503 24.4251 7.56753 24.5127 7.48629 24.6376L5.96191 26.9844L6.90579 27.5964L8.12304 25.7209L16.4886 31.1502L15.4141 32.8051C15.3652 32.8845 15.3373 32.9751 15.3331 33.0684L16.1566 33.6027C16.2384 33.5593 16.3077 33.4957 16.3581 33.4182L17.7384 31.2919Z" fill="url(#paint3_linear_576_4953)"/>
<path id="Vector_5" d="M28.1781 20.9261C28.1171 20.8845 28.0485 20.8553 27.9762 20.8401C27.9039 20.825 27.8292 20.8242 27.7566 20.8379C27.684 20.8515 27.6148 20.8794 27.5531 20.9198C27.4913 20.9602 27.4379 21.0124 27.3963 21.0735C23.4328 26.8887 20.1896 29.4582 17.4816 28.9249C17.372 28.9023 17.2581 28.9134 17.1549 28.9568C17.0517 29.0001 16.964 29.0737 16.9033 29.1679L16.1756 30.276L17.1194 30.888L17.6458 30.087C21.778 30.5618 25.6998 25.56 28.3266 21.7057C28.4103 21.5826 28.4416 21.4314 28.4137 21.2851C28.386 21.139 28.3011 21.0099 28.1781 20.9261ZM16.7481 34.9222C16.6567 34.9222 16.5666 34.8999 16.4858 34.8573C16.4049 34.8145 16.3356 34.7529 16.284 34.6774C16.2324 34.602 16.1999 34.515 16.1895 34.4242C16.179 34.3333 16.1908 34.2414 16.2239 34.1562L5.90763 27.4557L2.20638 33.2168C2.16664 33.2793 2.11492 33.3335 2.05417 33.376C1.99344 33.4186 1.92489 33.4488 1.85247 33.4647C1.78003 33.4806 1.70518 33.4821 1.63218 33.4691C1.55919 33.456 1.4895 33.4286 1.42713 33.3885C1.36476 33.3483 1.31094 33.2962 1.26876 33.2352C1.22659 33.1743 1.19689 33.1054 1.18138 33.033C1.16587 32.9604 1.16486 32.8855 1.1784 32.8126C1.19193 32.7397 1.21975 32.6703 1.26026 32.6082L5.26751 26.3722C5.30736 26.3098 5.35918 26.256 5.41999 26.2137C5.4808 26.1714 5.5494 26.1417 5.62179 26.1261C5.69418 26.1105 5.76896 26.1093 5.84176 26.1228C5.91459 26.1363 5.984 26.1642 6.04601 26.2045L17.2701 33.4935C17.3892 33.5709 17.4747 33.6903 17.5093 33.8281C17.544 33.9658 17.5253 34.1115 17.4569 34.236L17.2421 34.6297C17.1936 34.7184 17.1221 34.7922 17.0352 34.8438C16.9483 34.8953 16.8492 34.9222 16.7481 34.9222ZM19.6878 13.5C19.5386 13.5 19.3954 13.4407 19.29 13.3353C19.1845 13.2298 19.1253 13.0867 19.1253 12.9375V9C19.1253 8.85081 19.1845 8.70774 19.29 8.60226C19.3954 8.49676 19.5386 8.4375 19.6878 8.4375C19.8369 8.4375 19.98 8.49676 20.0854 8.60226C20.191 8.70774 20.2503 8.85081 20.2503 9V12.9375C20.2503 13.0867 20.191 13.2298 20.0854 13.3353C19.98 13.4407 19.8369 13.5 19.6878 13.5Z" fill="url(#paint4_linear_576_4953)"/>
</g>
<defs>
<linearGradient id="paint0_linear_576_4953" x1="36.1936" y1="27.8613" x2="11.3913" y2="26.9123" gradientUnits="userSpaceOnUse">
<stop stop-color="#FFB555"/>
<stop offset="1" stop-color="#E28000"/>
</linearGradient>
<linearGradient id="paint1_linear_576_4953" x1="43.0615" y1="29.8142" x2="3.95591" y2="27.2039" gradientUnits="userSpaceOnUse">
<stop stop-color="#FFB555"/>
<stop offset="1" stop-color="#E28000"/>
</linearGradient>
<linearGradient id="paint2_linear_576_4953" x1="41.0338" y1="29.751" x2="12.7566" y2="28.444" gradientUnits="userSpaceOnUse">
<stop stop-color="#FFB555"/>
<stop offset="1" stop-color="#E28000"/>
</linearGradient>
<linearGradient id="paint3_linear_576_4953" x1="44.9743" y1="39.7158" x2="4.46533" y2="37.0218" gradientUnits="userSpaceOnUse">
<stop stop-color="#FFB555"/>
<stop offset="1" stop-color="#E28000"/>
</linearGradient>
<linearGradient id="paint4_linear_576_4953" x1="42.293" y1="43.4056" x2="-0.488327" y2="41.2445" gradientUnits="userSpaceOnUse">
<stop stop-color="#FFB555"/>
<stop offset="1" stop-color="#E28000"/>
</linearGradient>
</defs>
</svg>
