<svg width="36" height="36" viewBox="0 0 36 36" fill="none" xmlns="http://www.w3.org/2000/svg">
<g id="SVG">
<path id="Vector" d="M21.375 21.9375H14.625C14.1774 21.9375 13.7482 21.7598 13.4318 21.4432C13.1153 21.1267 12.9375 20.6976 12.9375 20.25V15.75C12.9375 15.3024 13.1153 14.8732 13.4318 14.5568C13.7482 14.2403 14.1774 14.0625 14.625 14.0625H21.375C21.8226 14.0625 22.2517 14.2403 22.5682 14.5568C22.8847 14.8732 23.0625 15.3024 23.0625 15.75V20.25C23.0625 20.6976 22.8847 21.1267 22.5682 21.4432C22.2517 21.7598 21.8226 21.9375 21.375 21.9375ZM14.625 15.1875C14.4758 15.1875 14.3327 15.2468 14.2272 15.3522C14.1218 15.4578 14.0625 15.6007 14.0625 15.75V20.25C14.0625 20.3993 14.1218 20.5422 14.2272 20.6478C14.3327 20.7533 14.4758 20.8125 14.625 20.8125H21.375C21.5243 20.8125 21.6672 20.7533 21.7728 20.6478C21.8782 20.5422 21.9375 20.3993 21.9375 20.25V15.75C21.9375 15.6007 21.8782 15.4578 21.7728 15.3522C21.6672 15.2468 21.5243 15.1875 21.375 15.1875H14.625ZM21.375 32.0625H14.625C14.1774 32.0625 13.7482 31.8848 13.4318 31.5682C13.1153 31.2517 12.9375 30.8226 12.9375 30.375V25.875C12.9375 25.4274 13.1153 24.9983 13.4318 24.6818C13.7482 24.3652 14.1774 24.1875 14.625 24.1875H21.375C21.8226 24.1875 22.2517 24.3652 22.5682 24.6818C22.8847 24.9983 23.0625 25.4274 23.0625 25.875V30.375C23.0625 30.8226 22.8847 31.2517 22.5682 31.5682C22.2517 31.8848 21.8226 32.0625 21.375 32.0625ZM14.625 25.3125C14.4758 25.3125 14.3327 25.3717 14.2272 25.4772C14.1218 25.5828 14.0625 25.7257 14.0625 25.875V30.375C14.0625 30.5243 14.1218 30.6672 14.2272 30.7728C14.3327 30.8783 14.4758 30.9375 14.625 30.9375H21.375C21.5243 30.9375 21.6672 30.8783 21.7728 30.7728C21.8782 30.6672 21.9375 30.5243 21.9375 30.375V25.875C21.9375 25.7257 21.8782 25.5828 21.7728 25.4772C21.6672 25.3717 21.5243 25.3125 21.375 25.3125H14.625ZM21.375 11.8125H14.625C14.1774 11.8125 13.7482 11.6347 13.4318 11.3182C13.1153 11.0018 12.9375 10.5726 12.9375 10.125V5.625C12.9375 5.17744 13.1153 4.74822 13.4318 4.43175C13.7482 4.11529 14.1774 3.9375 14.625 3.9375H21.375C21.8226 3.9375 22.2517 4.11529 22.5682 4.43175C22.8847 4.74822 23.0625 5.17744 23.0625 5.625V10.125C23.0625 10.5726 22.8847 11.0018 22.5682 11.3182C22.2517 11.6347 21.8226 11.8125 21.375 11.8125ZM14.625 5.0625C14.4758 5.0625 14.3327 5.12176 14.2272 5.22726C14.1218 5.33274 14.0625 5.47581 14.0625 5.625V10.125C14.0625 10.2742 14.1218 10.4173 14.2272 10.5228C14.3327 10.6282 14.4758 10.6875 14.625 10.6875H21.375C21.5243 10.6875 21.6672 10.6282 21.7728 10.5228C21.8782 10.4173 21.9375 10.2742 21.9375 10.125V5.625C21.9375 5.47581 21.8782 5.33274 21.7728 5.22726C21.6672 5.12176 21.5243 5.0625 21.375 5.0625H14.625Z" fill="url(#paint0_linear_576_4963)"/>
<path id="Vector_2" d="M20.25 7.3125H18C17.8507 7.3125 17.7078 7.25324 17.6022 7.14774C17.4968 7.04226 17.4375 6.89919 17.4375 6.75C17.4375 6.60081 17.4968 6.45774 17.6022 6.35226C17.7078 6.24676 17.8507 6.1875 18 6.1875H20.25C20.3993 6.1875 20.5422 6.24676 20.6478 6.35226C20.7532 6.45774 20.8125 6.60081 20.8125 6.75C20.8125 6.89919 20.7532 7.04226 20.6478 7.14774C20.5422 7.25324 20.3993 7.3125 20.25 7.3125Z" fill="url(#paint1_linear_576_4963)"/>
<path id="Vector_3" d="M15.75 7.3125C16.0606 7.3125 16.3125 7.06067 16.3125 6.75C16.3125 6.43933 16.0606 6.1875 15.75 6.1875C15.4394 6.1875 15.1875 6.43933 15.1875 6.75C15.1875 7.06067 15.4394 7.3125 15.75 7.3125Z" fill="url(#paint2_linear_576_4963)"/>
<path id="Vector_4" d="M20.25 17.4375H18C17.8507 17.4375 17.7078 17.3782 17.6022 17.2728C17.4968 17.1672 17.4375 17.0243 17.4375 16.875C17.4375 16.7257 17.4968 16.5828 17.6022 16.4772C17.7078 16.3718 17.8507 16.3125 18 16.3125H20.25C20.3993 16.3125 20.5422 16.3718 20.6478 16.4772C20.7532 16.5828 20.8125 16.7257 20.8125 16.875C20.8125 17.0243 20.7532 17.1672 20.6478 17.2728C20.5422 17.3782 20.3993 17.4375 20.25 17.4375Z" fill="url(#paint3_linear_576_4963)"/>
<path id="Vector_5" d="M15.75 17.4375C16.0606 17.4375 16.3125 17.1856 16.3125 16.875C16.3125 16.5644 16.0606 16.3125 15.75 16.3125C15.4394 16.3125 15.1875 16.5644 15.1875 16.875C15.1875 17.1856 15.4394 17.4375 15.75 17.4375Z" fill="url(#paint4_linear_576_4963)"/>
<path id="Vector_6" d="M17.4362 29.9532C17.3621 29.9535 17.2887 29.9394 17.2202 29.9114C17.1516 29.8834 17.0894 29.8422 17.0367 29.79L15.6305 28.3837C15.5216 28.2778 15.4592 28.1329 15.4571 27.9811C15.455 27.8292 15.5133 27.6826 15.6192 27.5737C15.7251 27.4648 15.87 27.4024 16.022 27.4003C16.1738 27.3982 16.3203 27.4566 16.4292 27.5625L17.4362 28.5975L19.568 26.4375C19.6205 26.385 19.6827 26.3434 19.7513 26.3151C19.8198 26.2867 19.8932 26.272 19.9674 26.272C20.0415 26.272 20.115 26.2867 20.1836 26.3151C20.252 26.3434 20.3142 26.385 20.3667 26.4375C20.4192 26.49 20.4608 26.5522 20.4891 26.6208C20.5176 26.6892 20.5322 26.7627 20.5322 26.8369C20.5322 26.911 20.5176 26.9845 20.4891 27.0529C20.4608 27.1215 20.4192 27.1837 20.3667 27.2362L17.8355 29.8125C17.7258 29.9095 17.5824 29.9601 17.4362 29.9532ZM26.4362 18.5625H24.7487C24.5994 18.5625 24.4563 18.5032 24.3509 18.3978C24.2454 18.2922 24.1862 18.1492 24.1862 18C24.1862 17.8507 24.2454 17.7078 24.3509 17.6022C24.4563 17.4967 24.5994 17.4375 24.7487 17.4375H26.4362C27.6296 17.4375 28.7742 16.9633 29.6181 16.1194C30.462 15.2755 30.9362 14.131 30.9362 12.9375C30.9362 11.744 30.462 10.5994 29.6181 9.75552C28.7742 8.91161 27.6296 8.4375 26.4362 8.4375H22.4987C22.3494 8.4375 22.2063 8.37824 22.1009 8.27276C21.9954 8.16726 21.9362 8.02419 21.9362 7.875C21.9362 7.72581 21.9954 7.58274 22.1009 7.47726C22.2063 7.37176 22.3494 7.3125 22.4987 7.3125H26.4362C27.9279 7.3125 29.3588 7.90514 30.4136 8.96002C31.4685 10.0149 32.0612 11.4457 32.0612 12.9375C32.0612 14.4293 31.4685 15.8601 30.4136 16.915C29.3588 17.9698 27.9279 18.5625 26.4362 18.5625Z" fill="url(#paint5_linear_576_4963)"/>
<path id="Vector_7" d="M26.1562 19.9688C26.0821 19.9693 26.0088 19.955 25.9403 19.9271C25.8717 19.8991 25.8095 19.8578 25.757 19.8058L24.3507 18.3995C24.2979 18.3472 24.256 18.2849 24.2275 18.2164C24.1989 18.1478 24.1842 18.0743 24.1842 18.0001C24.1842 17.9258 24.1989 17.8523 24.2275 17.7838C24.256 17.7152 24.2979 17.653 24.3507 17.6008L25.757 16.1945C25.8629 16.0885 26.0064 16.0291 26.1562 16.0291C26.3061 16.0291 26.4496 16.0885 26.5555 16.1945C26.6616 16.3004 26.721 16.444 26.721 16.5938C26.721 16.7437 26.6616 16.8872 26.5555 16.9933L25.543 18.0001L26.5555 19.007C26.6083 19.0592 26.6502 19.1215 26.6787 19.19C26.7073 19.2586 26.722 19.3321 26.722 19.4063C26.722 19.4806 26.7073 19.5541 26.6787 19.6226C26.6502 19.6912 26.6083 19.7534 26.5555 19.8058C26.503 19.8578 26.4408 19.8991 26.3722 19.9271C26.3037 19.955 26.2303 19.9693 26.1562 19.9688ZM11.25 28.6876H9.5625C8.07066 28.6876 6.63991 28.0949 5.58502 27.0401C4.53014 25.9852 3.9375 24.5545 3.9375 23.0626C3.9375 21.5707 4.53014 20.14 5.58502 19.0852C6.63991 18.0302 8.07066 17.4376 9.5625 17.4376H13.5C13.6492 17.4376 13.7923 17.4968 13.8978 17.6023C14.0032 17.7079 14.0625 17.851 14.0625 18.0001C14.0625 18.1493 14.0032 18.2923 13.8978 18.3979C13.7923 18.5033 13.6492 18.5626 13.5 18.5626H9.5625C8.36902 18.5626 7.22444 19.0367 6.38052 19.8806C5.53661 20.7245 5.0625 21.8692 5.0625 23.0626C5.0625 24.2561 5.53661 25.4006 6.38052 26.2445C7.22444 27.0884 8.36902 27.5626 9.5625 27.5626H11.25C11.3992 27.5626 11.5423 27.6218 11.6478 27.7273C11.7532 27.8329 11.8125 27.976 11.8125 28.1251C11.8125 28.2743 11.7532 28.4173 11.6478 28.5229C11.5423 28.6283 11.3992 28.6876 11.25 28.6876Z" fill="url(#paint6_linear_576_4963)"/>
<path id="Vector_8" d="M9.84407 30.0938C9.77005 30.0943 9.69667 30.08 9.62813 30.0521C9.5596 30.0241 9.49726 29.9828 9.4447 29.9308C9.39198 29.8784 9.35012 29.8162 9.32158 29.7476C9.29302 29.6791 9.27832 29.6056 9.27832 29.5313C9.27832 29.4571 9.29302 29.3836 9.32158 29.315C9.35012 29.2465 9.39198 29.1842 9.4447 29.132L10.4572 28.1251L9.4447 27.1183C9.39226 27.0658 9.35065 27.0035 9.32227 26.935C9.29389 26.8664 9.27928 26.7931 9.27928 26.7188C9.27928 26.6447 9.29389 26.5712 9.32227 26.5027C9.35065 26.4341 9.39226 26.3719 9.4447 26.3195C9.49716 26.267 9.55941 26.2255 9.62794 26.197C9.69646 26.1686 9.7699 26.1541 9.84407 26.1541C9.91825 26.1541 9.99169 26.1686 10.0602 26.197C10.1287 26.2255 10.191 26.267 10.2434 26.3195L11.6497 27.7258C11.7024 27.778 11.7443 27.8402 11.7728 27.9088C11.8014 27.9773 11.8161 28.0508 11.8161 28.1251C11.8161 28.1993 11.8014 28.2728 11.7728 28.3414C11.7443 28.4099 11.7024 28.4722 11.6497 28.5245L10.2434 29.9308C10.1909 29.9828 10.1286 30.0241 10.06 30.0521C9.99149 30.08 9.9181 30.0943 9.84407 30.0938ZM9.84407 9.84386C9.77005 9.84428 9.69667 9.83009 9.62813 9.8021C9.5596 9.77411 9.49726 9.73286 9.4447 9.68074C9.39198 9.62845 9.35012 9.56623 9.32158 9.49768C9.29302 9.42914 9.27832 9.35561 9.27832 9.28136C9.27832 9.2071 9.29302 9.13358 9.32158 9.06503C9.35012 8.99648 9.39198 8.93428 9.4447 8.88199L10.4572 7.87511L9.4447 6.86824C9.39226 6.81578 9.35065 6.75353 9.32227 6.685C9.29389 6.61648 9.27928 6.54304 9.27928 6.46886C9.27928 6.31907 9.33879 6.1754 9.4447 6.06949C9.55063 5.96356 9.69428 5.90405 9.84407 5.90405C9.91825 5.90405 9.99169 5.91866 10.0602 5.94706C10.1287 5.97544 10.191 6.01703 10.2434 6.06949L11.6497 7.47574C11.7024 7.52803 11.7443 7.59023 11.7728 7.65878C11.8014 7.72733 11.8161 7.80085 11.8161 7.87511C11.8161 7.94936 11.8014 8.02289 11.7728 8.09143C11.7443 8.15998 11.7024 8.2222 11.6497 8.27449L10.2434 9.68074C10.1909 9.73286 10.1286 9.77411 10.06 9.8021C9.99149 9.83009 9.9181 9.84428 9.84407 9.84386Z" fill="url(#paint7_linear_576_4963)"/>
<path id="Vector_9" d="M11.25 8.4375H4.5C4.35081 8.4375 4.20774 8.37824 4.10226 8.27274C3.99676 8.16726 3.9375 8.02419 3.9375 7.875C3.9375 7.72581 3.99676 7.58274 4.10226 7.47726C4.20774 7.37176 4.35081 7.3125 4.5 7.3125H11.25C11.3992 7.3125 11.5423 7.37176 11.6478 7.47726C11.7532 7.58274 11.8125 7.72581 11.8125 7.875C11.8125 8.02419 11.7532 8.16726 11.6478 8.27274C11.5423 8.37824 11.3992 8.4375 11.25 8.4375ZM20.25 9.5625H15.75C15.6007 9.5625 15.4578 9.50324 15.3522 9.39776C15.2468 9.29226 15.1875 9.14919 15.1875 9C15.1875 8.85081 15.2468 8.70774 15.3522 8.60226C15.4578 8.49676 15.6007 8.4375 15.75 8.4375H20.25C20.3993 8.4375 20.5422 8.49676 20.6478 8.60226C20.7533 8.70774 20.8125 8.85081 20.8125 9C20.8125 9.14919 20.7533 9.29226 20.6478 9.39776C20.5422 9.50324 20.3993 9.5625 20.25 9.5625ZM20.25 19.6875H15.75C15.6007 19.6875 15.4578 19.6282 15.3522 19.5228C15.2468 19.4172 15.1875 19.2743 15.1875 19.125C15.1875 18.9757 15.2468 18.8328 15.3522 18.7272C15.4578 18.6218 15.6007 18.5625 15.75 18.5625H20.25C20.3993 18.5625 20.5422 18.6218 20.6478 18.7272C20.7533 18.8328 20.8125 18.9757 20.8125 19.125C20.8125 19.2743 20.7533 19.4172 20.6478 19.5228C20.5422 19.6282 20.3993 19.6875 20.25 19.6875Z" fill="url(#paint8_linear_576_4963)"/>
</g>
<defs>
<linearGradient id="paint0_linear_576_4963" x1="28.2149" y1="41.0713" x2="12.2862" y2="40.7898" gradientUnits="userSpaceOnUse">
<stop stop-color="#FFB555"/>
<stop offset="1" stop-color="#E28000"/>
</linearGradient>
<linearGradient id="paint1_linear_576_4963" x1="22.53" y1="7.67285" x2="17.3315" y2="6.9073" gradientUnits="userSpaceOnUse">
<stop stop-color="#FFB555"/>
<stop offset="1" stop-color="#E28000"/>
</linearGradient>
<linearGradient id="paint2_linear_576_4963" x1="16.885" y1="7.67285" x2="15.1188" y2="7.58615" gradientUnits="userSpaceOnUse">
<stop stop-color="#FFB555"/>
<stop offset="1" stop-color="#E28000"/>
</linearGradient>
<linearGradient id="paint3_linear_576_4963" x1="22.53" y1="17.7979" x2="17.3315" y2="17.0323" gradientUnits="userSpaceOnUse">
<stop stop-color="#FFB555"/>
<stop offset="1" stop-color="#E28000"/>
</linearGradient>
<linearGradient id="paint4_linear_576_4963" x1="16.885" y1="17.7979" x2="15.1188" y2="17.7112" gradientUnits="userSpaceOnUse">
<stop stop-color="#FFB555"/>
<stop offset="1" stop-color="#E28000"/>
</linearGradient>
<linearGradient id="paint5_linear_576_4963" x1="40.5106" y1="37.2061" x2="14.4147" y2="36.2667" gradientUnits="userSpaceOnUse">
<stop stop-color="#FFB555"/>
<stop offset="1" stop-color="#E28000"/>
</linearGradient>
<linearGradient id="paint6_linear_576_4963" x1="38.3166" y1="32.7422" x2="2.73853" y2="29.5987" gradientUnits="userSpaceOnUse">
<stop stop-color="#FFB555"/>
<stop offset="1" stop-color="#E28000"/>
</linearGradient>
<linearGradient id="paint7_linear_576_4963" x1="13.1075" y1="37.8422" x2="9.11395" y2="37.8216" gradientUnits="userSpaceOnUse">
<stop stop-color="#FFB555"/>
<stop offset="1" stop-color="#E28000"/>
</linearGradient>
<linearGradient id="paint8_linear_576_4963" x1="29.3998" y1="23.6514" x2="2.96225" y2="21.8817" gradientUnits="userSpaceOnUse">
<stop stop-color="#FFB555"/>
<stop offset="1" stop-color="#E28000"/>
</linearGradient>
</defs>
</svg>
