<svg width="62" height="46" viewBox="0 0 62 46" fill="none" xmlns="http://www.w3.org/2000/svg">
<g filter="url(#filter0_dd_820_8739)">
<rect x="9.45898" y="5.00024" width="43.5405" height="28.0501" rx="5.0239" fill="white"/>
<rect x="9.35432" y="4.89558" width="43.7498" height="28.2595" rx="5.12857" stroke="#D6DCE5" stroke-width="0.209329"/>
<path fill-rule="evenodd" clip-rule="evenodd" d="M41.3463 23.7421C38.6294 25.7472 34.6909 26.8133 31.299 26.8133C26.5454 26.8133 22.2649 25.056 19.0259 22.1314C18.7716 21.9016 18.9981 21.588 19.304 21.7661C22.7986 23.7996 27.1204 25.0244 31.5842 25.0244C34.5954 25.0244 37.9054 24.3997 40.9514 23.1078C41.4102 22.9122 41.7955 23.4098 41.3463 23.7421ZM42.4763 22.4514C42.8242 22.8967 42.0898 24.7301 41.7619 25.5491C41.6625 25.7969 41.8755 25.8969 42.1001 25.7091C43.5573 24.4901 43.9341 21.9352 43.636 21.566C43.3398 21.2001 40.792 20.8852 39.2367 21.9771C38.9973 22.1449 39.0386 22.3772 39.3038 22.345C40.1795 22.2404 42.1291 22.0062 42.4763 22.4514Z" fill="#FF9900"/>
<path fill-rule="evenodd" clip-rule="evenodd" d="M38.5429 19.1686L41.3708 11.9711C41.4302 11.8253 41.4605 11.7226 41.4605 11.6626C41.4605 11.56 41.4005 11.5084 41.2805 11.5084H40.5609C40.4235 11.5084 40.3299 11.5303 40.2776 11.5729C40.226 11.6162 40.175 11.7104 40.1234 11.8562L38.3881 16.8428L36.5889 11.8562C36.5372 11.7104 36.4862 11.6162 36.4346 11.5729C36.383 11.5303 36.2888 11.5084 36.1513 11.5084H35.3801C35.2601 11.5084 35.2001 11.56 35.2001 11.6626C35.2001 11.7226 35.2298 11.8253 35.2898 11.9711L37.7705 18.0889L37.5265 18.7446C37.3807 19.1563 37.2181 19.439 37.038 19.5932C36.858 19.7475 36.605 19.8243 36.2797 19.8243C36.1339 19.8243 36.0184 19.8152 35.9332 19.7985C35.8474 19.7817 35.7828 19.7726 35.7402 19.7726C35.6118 19.7726 35.5473 19.8539 35.5473 20.0166V20.3509C35.5473 20.4709 35.5686 20.5587 35.6118 20.6142C35.6544 20.6697 35.7228 20.711 35.8177 20.7361C36.0313 20.7955 36.2759 20.8265 36.5501 20.8265C37.0387 20.8265 37.4349 20.6981 37.7388 20.4406C38.0441 20.1844 38.3119 19.7597 38.5429 19.1686Z" fill="#232F3E"/>
<path fill-rule="evenodd" clip-rule="evenodd" d="M27.9865 13.2773C27.8619 12.8617 27.6844 12.508 27.4528 12.217C27.2217 11.9259 26.9391 11.7027 26.6048 11.5484C26.2711 11.3942 25.8981 11.3174 25.4864 11.3174C25.1011 11.3174 24.7236 11.3897 24.3558 11.5355C23.9873 11.6814 23.6401 11.8956 23.3142 12.1783L23.2503 11.7665C23.2245 11.5955 23.1257 11.5097 22.9541 11.5097H22.3888C22.2177 11.5097 22.1319 11.5955 22.1319 11.7665V20.4167C22.1319 20.5884 22.2177 20.6735 22.3888 20.6735H23.147C23.3187 20.6735 23.4039 20.5877 23.4039 20.4167V17.4094C23.9608 17.9147 24.6249 18.1677 25.3961 18.1677C25.8155 18.1677 26.1969 18.0838 26.5396 17.9173C26.8823 17.7501 27.1733 17.5165 27.4134 17.2165C27.6535 16.917 27.84 16.553 27.9723 16.1239C28.1052 15.6954 28.1717 15.2152 28.1717 14.6841C28.173 14.162 28.1104 13.6929 27.9865 13.2773ZM25.1011 17.139C24.5177 17.139 23.9524 16.9338 23.4045 16.5221V12.9365C23.944 12.5422 24.5184 12.3454 25.1269 12.3454C26.2924 12.3454 26.8752 13.1469 26.8752 14.7487C26.8745 16.3427 26.2834 17.139 25.1011 17.139Z" fill="#232F3E"/>
<path fill-rule="evenodd" clip-rule="evenodd" d="M33.7823 11.822C33.3964 11.4884 32.7968 11.3213 31.9831 11.3213C31.5804 11.3213 31.1777 11.358 30.775 11.4303C30.3717 11.5032 30.0335 11.5994 29.7592 11.7194C29.6566 11.7627 29.5876 11.8072 29.5534 11.8543C29.5192 11.9014 29.5017 11.9853 29.5017 12.1047V12.4512C29.5017 12.6055 29.5572 12.6829 29.6689 12.6829C29.7031 12.6829 29.7399 12.6765 29.7786 12.6636C29.8173 12.6507 29.8496 12.6403 29.8747 12.6313C30.5349 12.4345 31.1641 12.3357 31.7643 12.3357C32.278 12.3357 32.6381 12.4299 32.844 12.619C33.0498 12.8075 33.1524 13.1327 33.1524 13.5954V14.4434C32.5529 14.2976 32.0128 14.2253 31.5326 14.2253C30.7789 14.2253 30.1793 14.4118 29.7334 14.7842C29.2881 15.1565 29.0648 15.656 29.0648 16.2813C29.0648 16.8647 29.2449 17.3287 29.605 17.6759C29.9644 18.0231 30.453 18.1961 31.0699 18.1961C31.4384 18.1961 31.8088 18.1232 32.1818 17.978C32.5548 17.8328 32.8949 17.6262 33.2034 17.361L33.2679 17.785C33.2938 17.9476 33.388 18.0289 33.5513 18.0289H34.1037C34.2747 18.0289 34.3612 17.9431 34.3612 17.7721V13.3773C34.3605 12.6745 34.1676 12.1563 33.7823 11.822ZM33.1524 16.5782C32.8698 16.7925 32.5742 16.9551 32.2657 17.0667C31.9573 17.1784 31.6617 17.2339 31.379 17.2339C31.0447 17.2339 30.7879 17.1461 30.6078 16.9706C30.4278 16.795 30.3381 16.5446 30.3381 16.2188C30.3381 15.4734 30.8221 15.1004 31.7901 15.1004C32.0128 15.1004 32.2419 15.1159 32.4774 15.1455C32.713 15.1759 32.9382 15.2165 33.1524 15.2675V16.5782Z" fill="#232F3E"/>
</g>
<defs>
<filter id="filter0_dd_820_8739" x="0.876826" y="0.604307" width="60.7053" height="45.2152" filterUnits="userSpaceOnUse" color-interpolation-filters="sRGB">
<feFlood flood-opacity="0" result="BackgroundImageFix"/>
<feColorMatrix in="SourceAlpha" type="matrix" values="0 0 0 0 0 0 0 0 0 0 0 0 0 0 0 0 0 0 127 0" result="hardAlpha"/>
<feOffset dy="0.418659"/>
<feGaussianBlur stdDeviation="2.09329"/>
<feColorMatrix type="matrix" values="0 0 0 0 0.717647 0 0 0 0 0.717647 0 0 0 0 0.717647 0 0 0 0.08 0"/>
<feBlend mode="normal" in2="BackgroundImageFix" result="effect1_dropShadow_820_8739"/>
<feColorMatrix in="SourceAlpha" type="matrix" values="0 0 0 0 0 0 0 0 0 0 0 0 0 0 0 0 0 0 127 0" result="hardAlpha"/>
<feOffset dy="4.18659"/>
<feGaussianBlur stdDeviation="4.18659"/>
<feColorMatrix type="matrix" values="0 0 0 0 0.717647 0 0 0 0 0.717647 0 0 0 0 0.717647 0 0 0 0.08 0"/>
<feBlend mode="normal" in2="effect1_dropShadow_820_8739" result="effect2_dropShadow_820_8739"/>
<feBlend mode="normal" in="SourceGraphic" in2="effect2_dropShadow_820_8739" result="shape"/>
</filter>
</defs>
</svg>
