<svg width="24" height="24" viewBox="0 0 24 24" fill="none" xmlns="http://www.w3.org/2000/svg">
<path d="M18.1849 3H5.8818C4.8798 3 4 3.77747 4 4.69774V21.8638C4 22.1719 4.0909 22.4286 4.2374 22.627C4.4126 22.8641 4.6947 23 4.9972 22.9999C5.2832 22.9999 5.5877 22.8798 5.8689 22.6533L11.3733 18.2453C11.5433 18.1083 11.7875 18.0299 12.0414 18.0299C12.2952 18.0299 12.5389 18.1083 12.7094 18.2457L18.1954 22.6526C18.4776 22.8798 18.7611 23 19.0466 23C19.5294 23 20 22.6488 20 21.8639V4.69774C20 3.77747 19.1869 3 18.1849 3Z" fill="#1D3C55"/>
</svg>
