<svg width="167" height="65" viewBox="0 0 167 65" fill="none" xmlns="http://www.w3.org/2000/svg">
<path d="M29.7312 3.87631C31.2604 2.34715 33.7396 2.34715 35.2688 3.87631L61.1237 29.7312C62.6529 31.2604 62.6529 33.7396 61.1237 35.2688L35.2688 61.1237C33.7396 62.6529 31.2604 62.6529 29.7312 61.1237L3.87631 35.2688C2.34715 33.7396 2.34715 31.2604 3.87631 29.7312L29.7312 3.87631Z" stroke="#03599F" stroke-width="1.56626"/>
<rect x="14.0957" y="19.5779" width="151.928" height="23.494" rx="3.13253" fill="white"/>
<path d="M18.8379 39.325V21.6575H21.7198L31.2176 33.7616H30.541V21.6575H34.1497V39.325H31.2928L21.795 27.1958H22.4465V39.325H18.8379ZM36.679 39.325L44.7985 21.6575H47.931L56.0506 39.325H52.1412L50.0361 34.4131L51.5898 35.4907H41.1397L42.6935 34.4131L40.6135 39.325H36.679ZM46.3272 25.7924L43.1195 33.4358L42.4429 32.4584H50.2867L49.6101 33.4358L46.3773 25.7924H46.3272ZM62.7524 39.325L54.8083 21.6575H58.9683L65.058 35.7664H63.8049L69.8946 21.6575H73.8792L65.9351 39.325H62.7524Z" fill="#03599F"/>
<path d="M76.2239 39.325V21.6575H80.1082V36.0421H88.2778V39.325H76.2239ZM91.5919 39.325V21.6575H103.696V24.6898H95.3008V28.8247H103.145V31.8821H95.3008V36.2927H103.696V39.325H91.5919ZM105.444 39.325L113.563 21.6575H116.696L124.815 39.325H120.906L118.801 34.4131L120.355 35.4907H109.905L111.458 34.4131L109.378 39.325H105.444ZM115.092 25.7924L111.884 33.4358L111.208 32.4584H119.052L118.375 33.4358L115.142 25.7924H115.092ZM127.345 39.325V21.6575H135.414C137.386 21.6575 138.906 22.1336 139.975 23.0859C141.044 24.0382 141.579 25.3664 141.579 27.0705C141.579 28.1731 141.337 29.1254 140.852 29.9274C140.368 30.7293 139.666 31.3474 138.747 31.7818C137.845 32.2162 136.734 32.4334 135.414 32.4334L135.615 32.0074H136.642C137.344 32.0074 137.954 32.1828 138.472 32.5336C139.006 32.8678 139.466 33.3857 139.85 34.0874L142.707 39.325H138.421L135.364 33.6864C135.197 33.3857 135.005 33.1518 134.788 32.9847C134.57 32.8009 134.32 32.6756 134.036 32.6088C133.769 32.5253 133.468 32.4835 133.134 32.4835H131.229V39.325H127.345ZM131.229 29.6768H134.712C135.748 29.6768 136.525 29.4679 137.043 29.0503C137.578 28.6326 137.845 28.0061 137.845 27.1707C137.845 26.3521 137.578 25.7339 137.043 25.3163C136.525 24.8986 135.748 24.6898 134.712 24.6898H131.229V29.6768ZM145.796 39.325V21.6575H148.678L158.176 33.7616H157.499V21.6575H161.108V39.325H158.251L148.753 27.1958H149.405V39.325H145.796Z" fill="#202224"/>
</svg>
