<svg width="24" height="24" viewBox="0 0 24 24" fill="none" xmlns="http://www.w3.org/2000/svg">
<path d="M10.8581 17.6051C10.055 18.3302 8.95073 18.4863 7.96913 18.029C7.61219 17.8617 7.31102 17.6274 7.07677 17.3597L5.73823 20.2487C5.68246 20.3826 5.73823 20.483 5.78285 20.5164C5.81632 20.5499 5.90555 20.6391 6.05056 20.5945L7.021 20.3268C7.13255 20.2933 7.24409 20.2822 7.35564 20.2822C7.82412 20.2822 8.25915 20.5387 8.47108 20.9626L8.90611 21.855C8.97304 21.9888 9.09573 22 9.14035 22C9.18497 22 9.30767 21.9888 9.3746 21.855L11.4939 17.2593C11.2597 17.3263 11.0366 17.4378 10.847 17.6163L10.8581 17.6051Z" fill="#03599F"/>
<path d="M18.2981 20.2487L16.9596 17.3597C16.7253 17.6386 16.4242 17.8617 16.0672 18.029C15.0856 18.4863 13.9813 18.3301 13.1782 17.6051C12.9886 17.4378 12.7655 17.3151 12.5312 17.2482L14.6506 21.8438C14.7064 21.9777 14.8291 21.9888 14.8848 21.9888C14.9295 21.9888 15.0522 21.9777 15.1191 21.8438L15.5541 20.9514C15.7661 20.5276 16.2011 20.271 16.6696 20.271C16.7811 20.271 16.8927 20.2822 17.0042 20.3156L17.9746 20.5834C18.1196 20.6168 18.2089 20.5387 18.2423 20.5053C18.2758 20.4718 18.3427 20.3714 18.287 20.2376L18.2981 20.2487Z" fill="#03599F"/>
<path d="M19.3471 10.1428C18.2428 9.39542 17.8971 7.92303 18.5663 6.78527C18.9679 6.10485 18.7559 5.42443 18.4325 5.01171C18.0978 4.61015 17.4732 4.25321 16.7035 4.48745C15.4208 4.87786 14.0264 4.21974 13.5356 2.99275C13.2345 2.25655 12.5652 2 12.0409 2C11.5167 2 10.8363 2.26771 10.5462 2.99275C10.0554 4.21974 8.66114 4.87786 7.37837 4.48745C6.60871 4.25321 5.97291 4.61015 5.64943 5.01171C5.31479 5.41327 5.11401 6.0937 5.51557 6.78527C6.18484 7.92303 5.83905 9.40658 4.73476 10.1428C4.03203 10.589 3.92048 11.2805 4.04318 11.7936C4.16588 12.2956 4.56744 12.8868 5.37057 12.9983C6.69795 13.1991 7.66839 14.3815 7.568 15.6977C7.51223 16.4897 8.00302 17.0139 8.47151 17.237C8.95116 17.4601 9.6762 17.5159 10.2674 16.9693C10.7582 16.5231 11.394 16.3 12.0298 16.3C12.6656 16.3 13.3014 16.5231 13.7922 16.9693C14.3834 17.5047 15.1084 17.4601 15.5881 17.237C16.0677 17.0139 16.5585 16.4897 16.4916 15.6977C16.3912 14.3815 17.3616 13.1991 18.689 12.9983C19.4921 12.8756 19.8937 12.2956 20.0164 11.7936C20.1391 11.2917 20.0164 10.589 19.3583 10.1428H19.3471ZM12.0298 15.1623C9.11847 15.1623 6.75372 12.8422 6.75372 9.99777C6.75372 7.15337 9.11847 4.84439 12.0298 4.84439C14.9411 4.84439 17.3059 7.16453 17.3059 10.0089C17.3059 12.8533 14.9411 15.1734 12.0298 15.1734V15.1623Z" fill="#03599F"/>
<path d="M12.0348 4.55439C8.96735 4.55439 6.46875 6.99722 6.46875 9.99777C6.46875 12.9983 8.96735 15.4412 12.0348 15.4412C15.1023 15.4412 17.6009 12.9983 17.6009 9.99777C17.6009 6.99722 15.1023 4.55439 12.0348 4.55439ZM14.8792 9.47351L11.4102 11.9498C11.2986 12.0279 11.1648 12.0725 11.0309 12.0725C10.9975 12.0725 10.964 12.0725 10.9305 12.0725C10.7632 12.0502 10.6071 11.9498 10.5178 11.816L9.48046 10.377C9.27968 10.0982 9.34661 9.70776 9.63662 9.50698C9.92664 9.3062 10.3282 9.37312 10.529 9.66314L11.1871 10.589L14.1319 8.49192C14.4107 8.29114 14.8123 8.34691 15.0242 8.62577C15.2362 8.90463 15.1692 9.29504 14.8904 9.49582L14.8792 9.47351Z" fill="#03599F"/>
</svg>
