<svg width="25" height="24" viewBox="0 0 25 24" fill="none" xmlns="http://www.w3.org/2000/svg">
<circle cx="12.334" cy="12" r="10" stroke="url(#paint0_linear_906_11078)" stroke-width="1.5"/>
<path d="M13.084 7C13.084 6.58579 12.7482 6.25 12.334 6.25C11.9198 6.25 11.584 6.58579 11.584 7H13.084ZM14.3643 12.9697C14.0714 12.6768 13.5965 12.6768 13.3037 12.9697C13.0108 13.2626 13.0108 13.7374 13.3037 14.0303L14.3643 12.9697ZM14.8037 15.5303C15.0965 15.8232 15.5714 15.8232 15.8643 15.5303C16.1572 15.2374 16.1572 14.7626 15.8643 14.4697L14.8037 15.5303ZM11.584 7V10.5H13.084V7H11.584ZM13.3037 14.0303L14.8037 15.5303L15.8643 14.4697L14.3643 12.9697L13.3037 14.0303ZM13.084 12C13.084 12.4142 12.7482 12.75 12.334 12.75V14.25C13.5766 14.25 14.584 13.2426 14.584 12H13.084ZM12.334 12.75C11.9198 12.75 11.584 12.4142 11.584 12H10.084C10.084 13.2426 11.0913 14.25 12.334 14.25V12.75ZM11.584 12C11.584 11.5858 11.9198 11.25 12.334 11.25V9.75C11.0913 9.75 10.084 10.7574 10.084 12H11.584ZM12.334 11.25C12.7482 11.25 13.084 11.5858 13.084 12H14.584C14.584 10.7574 13.5766 9.75 12.334 9.75V11.25Z" fill="url(#paint1_linear_906_11078)"/>
<defs>
<linearGradient id="paint0_linear_906_11078" x1="32.5115" y1="28.4062" x2="1.1134" y2="26.865" gradientUnits="userSpaceOnUse">
<stop stop-color="#FFB555"/>
<stop offset="1" stop-color="#E28000"/>
</linearGradient>
<linearGradient id="paint1_linear_906_11078" x1="17.6239" y1="17.5625" x2="10.5477" y2="17.3671" gradientUnits="userSpaceOnUse">
<stop stop-color="#FFB555"/>
<stop offset="1" stop-color="#E28000"/>
</linearGradient>
</defs>
</svg>
