<svg width="36" height="36" viewBox="0 0 36 36" fill="none" xmlns="http://www.w3.org/2000/svg">
<g clip-path="url(#clip0_2526_4217)">
<path d="M32.3692 7.08835C30.9848 5.26859 29.287 3.77101 27.3802 2.63047C27.2931 2.57823 27.1799 2.59566 27.1015 2.66527C26.9971 2.76976 27.0232 2.9352 27.1363 3.01353C30.6713 5.30347 33.3965 8.99516 34.0322 13.9232C35.3382 23.9361 28.3466 32.2947 18.5079 32.3208C7.69402 32.3556 1.11164 22.7955 2.83557 14.2105C2.92261 13.7839 2.87909 13.3659 3.01838 12.9567C3.09671 11.4504 3.67137 9.08213 4.90775 6.66162C3.66265 7.3059 2.07802 9.34334 1.29439 11.224C0.162567 13.9407 -0.229215 17.1883 0.127762 20.2792C0.153848 20.5142 0.180004 20.7406 0.20609 20.9757C1.66015 29.491 9.0784 35.9689 18.0029 35.9515C27.9461 35.9341 36.0435 27.7758 35.9912 17.8238C35.9738 13.8013 34.6243 10.0835 32.3692 7.08835Z" fill="url(#paint0_radial_2526_4217)"/>
<path opacity="0.67" d="M32.3692 7.08835C30.9848 5.26859 29.287 3.77101 27.3802 2.63047C27.2931 2.57823 27.1799 2.59566 27.1015 2.66527C26.9971 2.76976 27.0232 2.9352 27.1363 3.01353C30.6713 5.30347 33.3965 8.99516 34.0322 13.9232C35.3382 23.9361 28.3466 32.2947 18.5079 32.3208C7.69402 32.3556 1.11164 22.7955 2.83557 14.2105C2.92261 13.7839 2.87909 13.3659 3.01838 12.9567C3.09671 11.4504 3.67137 9.08213 4.90775 6.66162C3.66265 7.3059 2.07802 9.34334 1.29439 11.224C0.162567 13.9407 -0.229215 17.1883 0.127762 20.2792C0.153848 20.5142 0.180004 20.7406 0.20609 20.9757C1.66015 29.491 9.0784 35.9689 18.0029 35.9515C27.9461 35.9341 36.0435 27.7758 35.9912 17.8238C35.9738 13.8013 34.6243 10.0835 32.3692 7.08835Z" fill="url(#paint1_radial_2526_4217)"/>
<path d="M32.3692 7.08835C30.9848 5.26859 29.287 3.77101 27.3802 2.63047C27.2931 2.57823 27.1799 2.59566 27.1015 2.66527C26.9971 2.76976 27.0232 2.9352 27.1363 3.01353C30.6713 5.30347 33.3965 8.99516 34.0322 13.9232C35.3382 23.9361 28.3466 32.2947 18.5079 32.3208C7.69402 32.3556 1.11164 22.7955 2.83557 14.2105C2.92261 13.7839 2.87909 13.3659 3.01838 12.9567C3.09671 11.4504 3.67137 9.08213 4.90775 6.66162C3.66265 7.3059 2.07802 9.34334 1.29439 11.224C0.162567 13.9407 -0.229215 17.1883 0.127762 20.2792C0.153848 20.5142 0.180004 20.7406 0.20609 20.9757C1.66015 29.491 9.0784 35.9689 18.0029 35.9515C27.9461 35.9341 36.0435 27.7758 35.9912 17.8238C35.9738 13.8013 34.6243 10.0835 32.3692 7.08835Z" fill="url(#paint2_radial_2526_4217)"/>
<path d="M32.3692 7.08835C30.9848 5.26859 29.287 3.77101 27.3802 2.63047C27.2931 2.57823 27.1799 2.59566 27.1015 2.66527C26.9971 2.76976 27.0232 2.9352 27.1363 3.01353C30.6713 5.30347 33.3965 8.99516 34.0322 13.9232C35.3382 23.9361 28.3466 32.2947 18.5079 32.3208C7.69402 32.3556 1.11164 22.7955 2.83557 14.2105C2.92261 13.7839 2.87909 13.3659 3.01838 12.9567C3.09671 11.4504 3.67137 9.08213 4.90775 6.66162C3.66265 7.3059 2.07802 9.34334 1.29439 11.224C0.162567 13.9407 -0.229215 17.1883 0.127762 20.2792C0.153848 20.5142 0.180004 20.7406 0.20609 20.9757C1.66015 29.491 9.0784 35.9689 18.0029 35.9515C27.9461 35.9341 36.0435 27.7758 35.9912 17.8238C35.9738 13.8013 34.6243 10.0835 32.3692 7.08835Z" fill="url(#paint3_radial_2526_4217)"/>
<path d="M32.3692 7.08835C30.9848 5.26859 29.287 3.77101 27.3802 2.63047C27.2931 2.57823 27.1799 2.59566 27.1015 2.66527C26.9971 2.76976 27.0232 2.9352 27.1363 3.01353C30.6713 5.30347 33.3965 8.99516 34.0322 13.9232C35.3382 23.9361 28.3466 32.2947 18.5079 32.3208C7.69402 32.3556 1.11164 22.7955 2.83557 14.2105C2.92261 13.7839 2.87909 13.3659 3.01838 12.9567C3.09671 11.4504 3.67137 9.08213 4.90775 6.66162C3.66265 7.3059 2.07802 9.34334 1.29439 11.224C0.162567 13.9407 -0.229215 17.1883 0.127762 20.2792C0.153848 20.5142 0.180004 20.7406 0.20609 20.9757C1.66015 29.491 9.0784 35.9689 18.0029 35.9515C27.9461 35.9341 36.0435 27.7758 35.9912 17.8238C35.9738 13.8013 34.6243 10.0835 32.3692 7.08835Z" fill="url(#paint4_radial_2526_4217)"/>
<path d="M34.4767 13.427C33.8933 8.18549 30.9504 4.60694 27.1891 2.51732C26.5622 2.16906 25.7699 2.31707 25.3171 2.87429L25.3084 2.88301C29.5922 5.52121 32.2913 10.1968 32.4306 15.0726C32.5961 21.002 27.7289 25.7298 22.1217 25.9997C18.0469 26.2 14.2072 24.2322 12.3264 20.288C11.9085 19.4086 11.6038 18.5205 11.4471 17.4409C10.5589 11.4505 14.5902 6.33958 18.2906 5.0684C16.2968 3.32704 11.2903 3.44889 7.57248 6.18285C4.89076 8.15061 3.1494 11.1457 2.57474 14.7156C2.13936 17.4408 2.54865 20.2705 3.6283 22.7955C4.72539 25.3727 6.51027 27.6452 8.76533 29.3169C11.2033 31.1367 14.1461 32.1902 17.1762 32.4166C17.6202 32.4514 18.073 32.4688 18.517 32.4688C30.4193 32.4863 35.5912 23.466 34.4767 13.427Z" fill="url(#paint5_radial_2526_4217)"/>
<path d="M34.4767 13.427C33.8933 8.18549 30.9504 4.60694 27.1891 2.51732C26.5622 2.16906 25.7699 2.31707 25.3171 2.87429L25.3084 2.88301C29.5922 5.52121 32.2913 10.1968 32.4306 15.0726C32.5961 21.002 27.7289 25.7298 22.1217 25.9997C18.0469 26.2 14.2072 24.2322 12.3264 20.288C11.9085 19.4086 11.6038 18.5205 11.4471 17.4409C10.5589 11.4505 14.5902 6.33958 18.2906 5.0684C16.2968 3.32704 11.2903 3.44889 7.57248 6.18285C4.89076 8.15061 3.1494 11.1457 2.57474 14.7156C2.13936 17.4408 2.54865 20.2705 3.6283 22.7955C4.72539 25.3727 6.51027 27.6452 8.76533 29.3169C11.2033 31.1367 14.1461 32.1902 17.1762 32.4166C17.6202 32.4514 18.073 32.4688 18.517 32.4688C30.4193 32.4863 35.5912 23.466 34.4767 13.427Z" fill="url(#paint6_radial_2526_4217)"/>
<path opacity="0.53" d="M34.4767 13.427C33.8933 8.18549 30.9504 4.60694 27.1891 2.51732C26.5622 2.16906 25.7699 2.31707 25.3171 2.87429L25.3084 2.88301C29.5922 5.52121 32.2913 10.1968 32.4306 15.0726C32.5961 21.002 27.7289 25.7298 22.1217 25.9997C18.0469 26.2 14.2072 24.2322 12.3264 20.288C11.9085 19.4086 11.6038 18.5205 11.4471 17.4409C10.5589 11.4505 14.5902 6.33958 18.2906 5.0684C16.2968 3.32704 11.2903 3.44889 7.57248 6.18285C4.89076 8.15061 3.1494 11.1457 2.57474 14.7156C2.13936 17.4408 2.54865 20.2705 3.6283 22.7955C4.72539 25.3727 6.51027 27.6452 8.76533 29.3169C11.2033 31.1367 14.1461 32.1902 17.1762 32.4166C17.6202 32.4514 18.073 32.4688 18.517 32.4688C30.4193 32.4863 35.5912 23.466 34.4767 13.427Z" fill="url(#paint7_radial_2526_4217)"/>
<path opacity="0.53" d="M34.4767 13.427C33.8933 8.18549 30.9504 4.60694 27.1891 2.51732C26.5622 2.16906 25.7699 2.31707 25.3171 2.87429L25.3084 2.88301C29.5922 5.52121 32.2913 10.1968 32.4306 15.0726C32.5961 21.002 27.7289 25.7298 22.1217 25.9997C18.0469 26.2 14.2072 24.2322 12.3264 20.288C11.9085 19.4086 11.6038 18.5205 11.4471 17.4409C10.5589 11.4505 14.5902 6.33958 18.2906 5.0684C16.2968 3.32704 11.2903 3.44889 7.57248 6.18285C4.89076 8.15061 3.1494 11.1457 2.57474 14.7156C2.13936 17.4408 2.54865 20.2705 3.6283 22.7955C4.72539 25.3727 6.51027 27.6452 8.76533 29.3169C11.2033 31.1367 14.1461 32.1902 17.1762 32.4166C17.6202 32.4514 18.073 32.4688 18.517 32.4688C30.4193 32.4863 35.5912 23.466 34.4767 13.427Z" fill="url(#paint8_radial_2526_4217)"/>
<path d="M25.3342 2.85694C25.3255 2.86565 25.3255 2.87437 25.3167 2.88302C24.803 3.51865 24.9075 4.44157 25.5344 4.96399C28.2336 7.17553 30.0446 10.3187 30.0446 13.9494C30.0446 18.9646 26.1613 22.7869 21.6163 22.5169C14.8598 22.1077 13.162 15.2032 16.6708 12.2167C15.7218 12.0165 13.9456 12.4083 12.7005 14.2628C11.5861 15.9258 11.6469 18.4856 12.3348 20.3054C14.2155 24.2409 18.0552 26.2609 22.13 26.0171C29.8269 25.5469 33.1181 19.1997 33.327 14.6808C33.5534 9.77878 32.4476 5.4341 27.2061 2.50861C26.5706 2.1517 25.7869 2.29971 25.3342 2.85694Z" fill="url(#paint9_radial_2526_4217)"/>
<path d="M32.3693 7.08847C31.8904 6.45285 31.3593 5.86082 30.8021 5.30359C30.3581 4.83341 29.8792 4.39811 29.3742 3.98889C29.6615 4.24138 29.9401 4.51131 30.2101 4.78989C31.1852 5.84345 31.9601 7.08848 32.4042 8.44677C33.3445 11.2852 33.2836 14.8463 31.49 17.6325C29.3481 20.9585 25.8653 22.6041 22.1039 22.5258C21.9385 22.5258 21.7818 22.5258 21.6163 22.5171C14.8598 22.1079 13.1619 15.2033 16.6708 12.2169C15.7217 12.0166 13.9456 12.4084 12.7005 14.263C11.586 15.926 11.6469 18.4858 12.3348 20.3055C11.9168 19.4261 11.6121 18.538 11.4554 17.4584C10.5673 11.468 14.5986 6.35716 18.299 5.08591C16.3051 3.34455 11.2987 3.4664 7.58082 6.20036C5.41287 7.79371 3.86304 10.0575 3.04461 12.7566C3.16653 11.2416 3.74112 8.98656 4.91661 6.67054C3.67151 7.31481 2.08688 9.35226 1.30325 11.2329C0.171355 13.9495 -0.220426 17.1971 0.13655 20.288C0.162636 20.5231 0.188792 20.7495 0.214878 20.9845C1.66022 29.4825 9.06975 35.9604 17.9769 35.9604C27.9288 35.9604 36.0001 27.8892 36.0001 17.9372C35.9914 13.8624 34.6418 10.1097 32.3693 7.08847Z" fill="url(#paint10_linear_2526_4217)"/>
<path d="M32.4042 8.44664C31.9515 7.08834 31.1853 5.84332 30.2101 4.78976C28.1205 2.54341 25.047 1.10679 22.0867 0.453726C19.5965 -0.0947815 16.9844 -0.086133 14.6336 0.410203C12.0738 0.950062 9.82739 2.0558 8.4082 3.43146C13.3189 0.558211 19.9361 1.08935 24.4636 4.31086C25.2211 4.85072 25.9264 5.46891 26.562 6.14798C29.5745 9.39565 30.8022 14.82 28.2685 18.7207C26.9974 20.6972 24.2634 22.543 21.7122 22.5256C25.6216 22.7346 29.2698 21.0802 31.4813 17.6411C33.2836 14.8462 33.3446 11.2851 32.4042 8.44664Z" fill="url(#paint11_linear_2526_4217)"/>
<path d="M32.4042 8.44664C31.9515 7.08834 31.1853 5.84332 30.2101 4.78976C28.1205 2.54341 25.047 1.10679 22.0867 0.453726C19.5965 -0.0947815 16.9844 -0.086133 14.6336 0.410203C12.0738 0.950062 9.82739 2.0558 8.4082 3.43146C13.3189 0.558211 19.9361 1.08935 24.4636 4.31086C25.2211 4.85072 25.9264 5.46891 26.562 6.14798C29.5745 9.39565 30.8022 14.82 28.2685 18.7207C26.9974 20.6972 24.2634 22.543 21.7122 22.5256C25.6216 22.7346 29.2698 21.0802 31.4813 17.6411C33.2836 14.8462 33.3446 11.2851 32.4042 8.44664Z" fill="url(#paint12_linear_2526_4217)"/>
</g>
<defs>
<radialGradient id="paint0_radial_2526_4217" cx="0" cy="0" r="1" gradientUnits="userSpaceOnUse" gradientTransform="translate(32.1828 6.97585) scale(40.6683 40.6683)">
<stop stop-color="#FFF339"/>
<stop offset="0.2949" stop-color="#FF9800"/>
<stop offset="0.4315" stop-color="#FF5D30"/>
<stop offset="0.5302" stop-color="#FF3450"/>
<stop offset="0.7493" stop-color="#FF0D6F"/>
<stop offset="0.7648" stop-color="#FF0B71"/>
<stop offset="0.8801" stop-color="#FD007D"/>
<stop offset="0.9528" stop-color="#F40082"/>
</radialGradient>
<radialGradient id="paint1_radial_2526_4217" cx="0" cy="0" r="1" gradientUnits="userSpaceOnUse" gradientTransform="translate(2.97798 10.4867) scale(23.4884)">
<stop stop-color="#D30082"/>
<stop offset="1" stop-color="#FF0D6F" stop-opacity="0"/>
</radialGradient>
<radialGradient id="paint2_radial_2526_4217" cx="0" cy="0" r="1" gradientUnits="userSpaceOnUse" gradientTransform="translate(35.6748 6.75825) scale(44.5527)">
<stop stop-color="#FFDD00" stop-opacity="0.6"/>
<stop offset="0.0837" stop-color="#FFD800" stop-opacity="0.5244"/>
<stop offset="0.1822" stop-color="#FFCA00" stop-opacity="0.4353"/>
<stop offset="0.2884" stop-color="#FFB200" stop-opacity="0.3394"/>
<stop offset="0.3998" stop-color="#FF9100" stop-opacity="0.2388"/>
<stop offset="0.5154" stop-color="#FF6612" stop-opacity="0.1343"/>
<stop offset="0.6329" stop-color="#FF302B" stop-opacity="0.0282"/>
<stop offset="0.664" stop-color="#FF1F30" stop-opacity="0"/>
</radialGradient>
<radialGradient id="paint3_radial_2526_4217" cx="0" cy="0" r="1" gradientUnits="userSpaceOnUse" gradientTransform="translate(19.0224 21.157) scale(59.8588)">
<stop offset="0.1528" stop-color="#AF0611"/>
<stop offset="0.2061" stop-color="#ED1E32" stop-opacity="0.5541"/>
<stop offset="0.2495" stop-color="#FF2D47" stop-opacity="0.1914"/>
<stop offset="0.2724" stop-color="#FF3450" stop-opacity="0"/>
</radialGradient>
<radialGradient id="paint4_radial_2526_4217" cx="0" cy="0" r="1" gradientUnits="userSpaceOnUse" gradientTransform="translate(14.3395 20.4342) scale(60.2755 60.2755)">
<stop offset="0.1129" stop-color="#AF0611"/>
<stop offset="0.1893" stop-color="#ED1E32" stop-opacity="0.5541"/>
<stop offset="0.2515" stop-color="#FF2D47" stop-opacity="0.1914"/>
<stop offset="0.2843" stop-color="#FF3450" stop-opacity="0"/>
</radialGradient>
<radialGradient id="paint5_radial_2526_4217" cx="0" cy="0" r="1" gradientUnits="userSpaceOnUse" gradientTransform="translate(31.3231 5.79803) scale(37.8771 37.8771)">
<stop stop-color="#FF9800"/>
<stop offset="0.295" stop-color="#FF7232"/>
<stop offset="0.4846" stop-color="#FF5B50"/>
<stop offset="0.626" stop-color="#FF4E5E"/>
<stop offset="0.7365" stop-color="#FF3E55"/>
<stop offset="0.8428" stop-color="#FF3450"/>
</radialGradient>
<radialGradient id="paint6_radial_2526_4217" cx="0" cy="0" r="1" gradientUnits="userSpaceOnUse" gradientTransform="translate(31.3231 7.1902) scale(35.9318)">
<stop offset="0.0841" stop-color="#FFDE00"/>
<stop offset="0.2081" stop-color="#FFD600" stop-opacity="0.832"/>
<stop offset="0.4033" stop-color="#FFBF00" stop-opacity="0.5677"/>
<stop offset="0.6437" stop-color="#FF9B00" stop-opacity="0.242"/>
<stop offset="0.8224" stop-color="#FF7C00" stop-opacity="0"/>
</radialGradient>
<radialGradient id="paint7_radial_2526_4217" cx="0" cy="0" r="1" gradientUnits="userSpaceOnUse" gradientTransform="translate(22.464 18.3562) rotate(75.6841) scale(18.086 18.8742)">
<stop offset="0.3634" stop-color="#FF3450"/>
<stop offset="0.4111" stop-color="#FF424A" stop-opacity="0.7895"/>
<stop offset="0.5902" stop-color="#FF7232" stop-opacity="0"/>
</radialGradient>
<radialGradient id="paint8_radial_2526_4217" cx="0" cy="0" r="1" gradientUnits="userSpaceOnUse" gradientTransform="translate(19.2227 19.8475) rotate(75.6841) scale(18.2927 18.3084)">
<stop offset="0.2159" stop-color="#FF3450" stop-opacity="0.8"/>
<stop offset="0.2702" stop-color="#FF424A" stop-opacity="0.6316"/>
<stop offset="0.4739" stop-color="#FF7232" stop-opacity="0"/>
</radialGradient>
<radialGradient id="paint9_radial_2526_4217" cx="0" cy="0" r="1" gradientUnits="userSpaceOnUse" gradientTransform="translate(38.9874 1.42683) scale(64.0819 64.0819)">
<stop offset="0.0536" stop-color="#FFF339"/>
<stop offset="0.4573" stop-color="#FF9800"/>
<stop offset="0.5211" stop-color="#FF840D"/>
<stop offset="0.5871" stop-color="#FF772B"/>
<stop offset="0.6393" stop-color="#FF7232"/>
</radialGradient>
<linearGradient id="paint10_linear_2526_4217" x1="26.5623" y1="3.21473" x2="8.19014" y2="35.0362" gradientUnits="userSpaceOnUse">
<stop stop-color="#FFF339" stop-opacity="0.8"/>
<stop offset="0.75" stop-color="#FFF339" stop-opacity="0"/>
</linearGradient>
<linearGradient id="paint11_linear_2526_4217" x1="20.7065" y1="22.631" x2="20.7065" y2="0.26917" gradientUnits="userSpaceOnUse">
<stop stop-color="#008EE9"/>
<stop offset="0.1016" stop-color="#1982EE"/>
<stop offset="0.3885" stop-color="#8565FD"/>
<stop offset="0.5309" stop-color="#A059FF"/>
<stop offset="0.6915" stop-color="#B24FFB"/>
<stop offset="0.9888" stop-color="#DD37EB"/>
<stop offset="1" stop-color="#DF36EA"/>
</linearGradient>
<linearGradient id="paint12_linear_2526_4217" x1="16.7739" y1="-0.545189" x2="28.9737" y2="20.5855" gradientUnits="userSpaceOnUse">
<stop offset="0.8054" stop-color="#A059FF" stop-opacity="0"/>
<stop offset="1" stop-color="#80008E" stop-opacity="0.5"/>
</linearGradient>
<clipPath id="clip0_2526_4217">
<rect width="36" height="36" fill="white"/>
</clipPath>
</defs>
</svg>
