<svg width="56" height="56" viewBox="0 0 56 56" fill="none" xmlns="http://www.w3.org/2000/svg">
<path d="M42.4152 17.801C39.8835 17.2887 35.8013 16.5959 34.6608 18.9791C31.1753 25.0163 29.1742 31.3348 27.668 34.0458C27.8262 34.1372 34.7686 38.1651 35.2597 38.4034C36.8205 39.1608 39.4262 38.82 40.5362 36.8179C43.6157 31.264 42.8329 32.7099 46.1048 27.0429C48.2192 23.3807 45.5756 18.4404 42.4152 17.801Z" fill="#EA4335"/>
<path d="M20.5073 42.313C18.8073 40.3682 17.5602 36.4773 19.054 34.2982C23.4178 26.7397 26.9111 22.1641 29.6585 17.5776C31.1152 18.4188 36.9524 21.7298 37.3411 22.0709C38.6452 23.2149 39.7256 25.4009 38.5468 27.3633C35.2767 32.8071 33.9349 35.2708 30.6111 41.0279C28.4963 44.691 22.631 44.7427 20.5073 42.313Z" fill="#FDBD00"/>
<path d="M36.1646 13.9533C32.7638 11.9661 31.0158 12.2265 29.1869 12.5198C27.5243 12.9355 25.2761 14.1438 24.3284 15.6961C21.9377 19.6119 19.6732 23.4867 16.7397 28.7376C15.8362 30.3548 16.5069 32.3417 17.3407 33.1302C17.9058 33.6648 22.0635 35.9588 22.8306 36.2886C23.9158 36.7551 25.5413 36.4306 26.5219 35.4213C26.7927 35.1425 32.9952 24.4888 34.742 21.3465C35.4793 20.0205 36.1434 19.2867 37.246 18.5793C39.3759 17.4616 41.0389 17.3175 43.5862 18.2489C43.5862 18.2489 38.0423 15.0355 36.1646 13.9533Z" fill="#2DA94F"/>
<path d="M14.2802 38.9608C10.8587 37.0093 10.2102 35.3653 9.54974 33.6346C9.07845 31.9871 9.00077 29.4359 9.87127 27.8388C12.0673 23.8107 12.0515 23.7903 15.1322 18.6242C16.081 17.0332 18.1371 16.6206 19.237 16.9483C19.9824 17.1703 24.0478 19.6241 24.7171 20.1236C25.6638 20.8301 26.1954 22.4002 25.8116 23.7541C25.7056 24.1279 21.8193 30.9483 19.9716 34.0324C19.1917 35.3338 18.8883 36.2758 18.8271 37.5842C18.9241 39.9877 19.6306 41.5 21.711 43.2404C21.711 43.2404 16.1561 40.0458 14.2802 38.9608Z" fill="#297AEC"/>
</svg>
