<svg width="24" height="24" viewBox="0 0 24 24" fill="none" xmlns="http://www.w3.org/2000/svg">
<g filter="url(#filter0_d_1169_11618)">
<path d="M11.9989 18.4286C16.1016 18.4286 19.4275 15.1027 19.4275 11C19.4275 6.89731 16.1016 3.57143 11.9989 3.57143C7.8962 3.57143 4.57031 6.89731 4.57031 11C4.57031 15.1027 7.8962 18.4286 11.9989 18.4286Z" fill="white" stroke="#354259" stroke-linecap="round" stroke-linejoin="round"/>
<path d="M8.22656 12.1429C8.79799 14.2 11.0837 15.4571 13.1408 14.8857C14.398 14.4286 15.4266 13.4 15.7695 12.1429" fill="white"/>
<path d="M8.22656 12.1429C8.79799 14.2 11.0837 15.4571 13.1408 14.8857C14.398 14.4286 15.4266 13.4 15.7695 12.1429" stroke="#354259" stroke-linecap="round" stroke-linejoin="round"/>
<path d="M9.71321 7.941C10.2654 7.19038 10.8484 7.72373 10.856 8.29867C10.856 9.1546 9.93171 9.85714 9.71321 9.85714C9.4947 9.85714 8.57031 9.1546 8.57031 8.29867C8.57799 7.72373 9.161 7.19038 9.71321 7.941Z" fill="#354259" stroke="#354259" stroke-linecap="round" stroke-linejoin="round"/>
<path d="M14.2874 7.941C14.8396 7.19038 15.4226 7.72373 15.4302 8.29867C15.4302 9.1546 14.5059 9.85714 14.2874 9.85714C14.0689 9.85714 13.1445 9.1546 13.1445 8.29867C13.1522 7.72373 13.7352 7.19038 14.2874 7.941Z" fill="#354259" stroke="#354259" stroke-linecap="round" stroke-linejoin="round"/>
</g>
<defs>
<filter id="filter0_d_1169_11618" x="0" y="0" width="24" height="24" filterUnits="userSpaceOnUse" color-interpolation-filters="sRGB">
<feFlood flood-opacity="0" result="BackgroundImageFix"/>
<feColorMatrix in="SourceAlpha" type="matrix" values="0 0 0 0 0 0 0 0 0 0 0 0 0 0 0 0 0 0 127 0" result="hardAlpha"/>
<feOffset dy="1"/>
<feGaussianBlur stdDeviation="2"/>
<feComposite in2="hardAlpha" operator="out"/>
<feColorMatrix type="matrix" values="0 0 0 0 0 0 0 0 0 0 0 0 0 0 0 0 0 0 0.12 0"/>
<feBlend mode="normal" in2="BackgroundImageFix" result="effect1_dropShadow_1169_11618"/>
<feBlend mode="normal" in="SourceGraphic" in2="effect1_dropShadow_1169_11618" result="shape"/>
</filter>
</defs>
</svg>
