<svg width="48" height="48" viewBox="0 0 48 48" fill="none" xmlns="http://www.w3.org/2000/svg">
<rect width="48" height="48" rx="24" fill="#03599F"/>
<path d="M24.0029 19.5078C21.5186 19.5078 19.5146 21.5117 19.5146 23.9961C19.5146 26.4805 21.5186 28.4844 24.0029 28.4844C26.4873 28.4844 28.4912 26.4805 28.4912 23.9961C28.4912 21.5117 26.4873 19.5078 24.0029 19.5078ZM24.0029 26.9141C22.3975 26.9141 21.085 25.6055 21.085 23.9961C21.085 22.3867 22.3936 21.0781 24.0029 21.0781C25.6123 21.0781 26.9209 22.3867 26.9209 23.9961C26.9209 25.6055 25.6084 26.9141 24.0029 26.9141ZM29.7217 19.3242C29.7217 19.9062 29.2529 20.3711 28.6748 20.3711C28.0928 20.3711 27.6279 19.9023 27.6279 19.3242C27.6279 18.7461 28.0967 18.2773 28.6748 18.2773C29.2529 18.2773 29.7217 18.7461 29.7217 19.3242ZM32.6943 20.3867C32.6279 18.9844 32.3076 17.7422 31.2803 16.7187C30.2568 15.6953 29.0146 15.375 27.6123 15.3047C26.167 15.2227 21.835 15.2227 20.3896 15.3047C18.9912 15.3711 17.749 15.6914 16.7217 16.7148C15.6943 17.7383 15.3779 18.9805 15.3076 20.3828C15.2256 21.8281 15.2256 26.1602 15.3076 27.6055C15.374 29.0078 15.6943 30.25 16.7217 31.2734C17.749 32.2969 18.9873 32.6172 20.3896 32.6875C21.835 32.7695 26.167 32.7695 27.6123 32.6875C29.0146 32.6211 30.2568 32.3008 31.2803 31.2734C32.3037 30.25 32.624 29.0078 32.6943 27.6055C32.7764 26.1602 32.7764 21.832 32.6943 20.3867ZM30.8271 29.1562C30.5225 29.9219 29.9326 30.5117 29.1631 30.8203C28.0107 31.2773 25.2764 31.1719 24.0029 31.1719C22.7295 31.1719 19.9912 31.2734 18.8428 30.8203C18.0771 30.5156 17.4873 29.9258 17.1787 29.1562C16.7217 28.0039 16.8271 25.2695 16.8271 23.9961C16.8271 22.7227 16.7256 19.9844 17.1787 18.8359C17.4834 18.0703 18.0732 17.4805 18.8428 17.1719C19.9951 16.7148 22.7295 16.8203 24.0029 16.8203C25.2764 16.8203 28.0146 16.7187 29.1631 17.1719C29.9287 17.4766 30.5186 18.0664 30.8271 18.8359C31.2842 19.9883 31.1787 22.7227 31.1787 23.9961C31.1787 25.2695 31.2842 28.0078 30.8271 29.1562Z" fill="white"/>
</svg>
