<svg width="62" height="46" viewBox="0 0 62 46" fill="none" xmlns="http://www.w3.org/2000/svg">
<g filter="url(#filter0_dd_820_8737)">
<rect x="9.25" y="5.00024" width="43.5405" height="28.0501" rx="5.0239" fill="#FFB3C7"/>
<rect x="9.14534" y="4.89558" width="43.7498" height="28.2595" rx="5.12857" stroke="#D6DCE5" stroke-width="0.209329"/>
<path fill-rule="evenodd" clip-rule="evenodd" d="M45.3436 20.8007C44.8605 20.8007 44.469 21.1958 44.469 21.6832C44.469 22.1706 44.8605 22.5658 45.3436 22.5658C45.8266 22.5658 46.2183 22.1706 46.2183 21.6832C46.2183 21.1958 45.8266 20.8007 45.3436 20.8007ZM42.466 20.1184C42.466 19.451 41.9008 18.9102 41.2035 18.9102C40.5061 18.9102 39.9408 19.4511 39.9408 20.1184C39.9408 20.7857 40.5061 21.3267 41.2035 21.3267C41.9009 21.3267 42.466 20.7857 42.466 20.1184ZM42.4707 17.7701H43.8642V22.4665H42.4707V22.1663C42.077 22.4372 41.6019 22.5965 41.0893 22.5965C39.7331 22.5965 38.6335 21.487 38.6335 20.1183C38.6335 18.7497 39.7331 17.6403 41.0893 17.6403C41.6019 17.6403 42.0771 17.7995 42.4707 18.0705V17.7701ZM31.3192 18.3818V17.7702H29.8926V22.4665H31.3224V20.2738C31.3224 19.5341 32.117 19.1364 32.6684 19.1364C32.674 19.1364 32.6793 19.137 32.6849 19.1371V17.7705C32.1191 17.7705 31.5986 18.0149 31.3192 18.3818ZM27.7654 20.1184C27.7654 19.451 27.2001 18.9102 26.5028 18.9102C25.8054 18.9102 25.2401 19.4511 25.2401 20.1184C25.2401 20.7857 25.8054 21.3267 26.5028 21.3267C27.2001 21.3267 27.7654 20.7857 27.7654 20.1184ZM27.77 17.7701H29.1635V22.4665H27.77V22.1663C27.3763 22.4373 26.9012 22.5965 26.3887 22.5965C25.0324 22.5965 23.9328 21.487 23.9328 20.1184C23.9328 18.7497 25.0324 17.6403 26.3887 17.6403C26.9012 17.6403 27.3764 17.7995 27.77 18.0705V17.7701ZM36.1574 17.6438C35.6008 17.6438 35.0739 17.8182 34.7217 18.2993V17.7704H33.3343V22.4665H34.7388V19.9985C34.7388 19.2844 35.2134 18.9347 35.7848 18.9347C36.3973 18.9347 36.7493 19.3038 36.7493 19.9889V22.4665H38.1412V19.48C38.1412 18.3871 37.28 17.6438 36.1574 17.6438ZM21.903 22.4665H23.3615V15.6773H21.903V22.4665ZM15.4961 22.4684H17.0405V15.676H15.4961V22.4684ZM20.8979 15.676C20.8979 17.1465 20.33 18.5144 19.318 19.5312L21.4528 22.4687H19.5453L17.2253 19.2763L17.824 18.8238C18.817 18.0732 19.3866 16.926 19.3866 15.676L20.8979 15.676Z" fill="#0A0B09"/>
</g>
<defs>
<filter id="filter0_dd_820_8737" x="0.667842" y="0.604307" width="60.7053" height="45.2152" filterUnits="userSpaceOnUse" color-interpolation-filters="sRGB">
<feFlood flood-opacity="0" result="BackgroundImageFix"/>
<feColorMatrix in="SourceAlpha" type="matrix" values="0 0 0 0 0 0 0 0 0 0 0 0 0 0 0 0 0 0 127 0" result="hardAlpha"/>
<feOffset dy="0.418659"/>
<feGaussianBlur stdDeviation="2.09329"/>
<feColorMatrix type="matrix" values="0 0 0 0 0.717647 0 0 0 0 0.717647 0 0 0 0 0.717647 0 0 0 0.08 0"/>
<feBlend mode="normal" in2="BackgroundImageFix" result="effect1_dropShadow_820_8737"/>
<feColorMatrix in="SourceAlpha" type="matrix" values="0 0 0 0 0 0 0 0 0 0 0 0 0 0 0 0 0 0 127 0" result="hardAlpha"/>
<feOffset dy="4.18659"/>
<feGaussianBlur stdDeviation="4.18659"/>
<feColorMatrix type="matrix" values="0 0 0 0 0.717647 0 0 0 0 0.717647 0 0 0 0 0.717647 0 0 0 0.08 0"/>
<feBlend mode="normal" in2="effect1_dropShadow_820_8737" result="effect2_dropShadow_820_8737"/>
<feBlend mode="normal" in="SourceGraphic" in2="effect2_dropShadow_820_8737" result="shape"/>
</filter>
</defs>
</svg>
