<svg width="48" height="48" viewBox="0 0 48 48" fill="none" xmlns="http://www.w3.org/2000/svg">
<rect width="48" height="48" rx="24" fill="#03599F"/>
<path d="M14 16.6644C14 16.0209 14.2252 15.49 14.6757 15.0717C15.1261 14.6535 15.7117 14.4443 16.4324 14.4443C17.1403 14.4443 17.713 14.6502 18.1506 15.0621C18.601 15.4868 18.8263 16.0402 18.8263 16.7223C18.8263 17.3401 18.6075 17.8549 18.1699 18.2667C17.7194 18.6914 17.1274 18.9038 16.3938 18.9038H16.3745C15.6667 18.9038 15.094 18.6914 14.6564 18.2667C14.2188 17.842 14 17.3079 14 16.6644ZM14.251 33.5563V20.6606H18.5367V33.5563H14.251ZM20.9112 33.5563H25.1969V26.3555C25.1969 25.9051 25.2484 25.5576 25.3514 25.3131C25.5315 24.8755 25.805 24.5055 26.1718 24.203C26.5386 23.9006 26.9987 23.7494 27.5521 23.7494C28.9936 23.7494 29.7143 24.721 29.7143 26.6644V33.5563H34V26.1625C34 24.2577 33.5496 22.8131 32.6486 21.8285C31.7477 20.8439 30.5573 20.3517 29.0772 20.3517C27.417 20.3517 26.1236 21.066 25.1969 22.4945V22.5331H25.1776L25.1969 22.4945V20.6606H20.9112C20.9369 21.0724 20.9498 22.3529 20.9498 24.5023C20.9498 26.6515 20.9369 29.6695 20.9112 33.5563Z" fill="white"/>
</svg>
