<svg width="62" height="46" viewBox="0 0 62 46" fill="none" xmlns="http://www.w3.org/2000/svg">
<g filter="url(#filter0_dd_820_8727)">
<rect x="9.20898" y="5.00024" width="43.5405" height="28.0501" rx="5.0239" fill="white"/>
<rect x="9.10432" y="4.89558" width="43.7498" height="28.2595" rx="5.12857" stroke="#D6DCE5" stroke-width="0.209329"/>
<path d="M34.1063 13.2659H27.6956V24.7861H34.1063V13.2659Z" fill="#FF5F00"/>
<path d="M28.1027 19.026C28.1017 17.9165 28.3531 16.8213 28.8379 15.8234C29.3227 14.8254 30.0282 13.9509 30.901 13.2659C29.8202 12.4163 28.5221 11.888 27.1553 11.7413C25.7884 11.5946 24.4078 11.8354 23.1713 12.4362C21.9348 13.0371 20.8924 13.9737 20.163 15.139C19.4336 16.3043 19.0469 17.6513 19.0469 19.026C19.0469 20.4007 19.4336 21.7477 20.163 22.913C20.8924 24.0783 21.9348 25.0149 23.1713 25.6157C24.4078 26.2166 25.7884 26.4574 27.1553 26.3107C28.5221 26.164 29.8202 25.6356 30.901 24.7861C30.0282 24.1011 29.3227 23.2265 28.8379 22.2286C28.3531 21.2306 28.1017 20.1355 28.1027 19.026Z" fill="#EB001B"/>
<path d="M42.7547 19.026C42.7548 20.4007 42.368 21.7477 41.6387 22.913C40.9094 24.0783 39.867 25.0149 38.6305 25.6157C37.394 26.2166 36.0135 26.4574 34.6466 26.3107C33.2798 26.164 31.9818 25.6356 30.901 24.7861C31.773 24.1004 32.4779 23.2257 32.9627 22.2279C33.4474 21.2301 33.6993 20.1353 33.6993 19.026C33.6993 17.9167 33.4474 16.8219 32.9627 15.8241C32.4779 14.8263 31.773 13.9516 30.901 13.2659C31.9818 12.4163 33.2798 11.888 34.6466 11.7413C36.0135 11.5946 37.394 11.8354 38.6305 12.4363C39.867 13.0371 40.9094 13.9737 41.6387 15.139C42.368 16.3043 42.7548 17.6513 42.7547 19.026Z" fill="#F79E1B"/>
<path d="M42.0557 23.5659V23.3301H42.1508V23.282H41.9086V23.3301H42.0038V23.5659H42.0557ZM42.526 23.5659V23.2816H42.4517L42.3663 23.4772L42.2809 23.2816H42.2066V23.5659H42.2591V23.3514L42.3391 23.5364H42.3935L42.4736 23.351V23.5659H42.526Z" fill="#F79E1B"/>
</g>
<defs>
<filter id="filter0_dd_820_8727" x="0.626826" y="0.604307" width="60.7053" height="45.2152" filterUnits="userSpaceOnUse" color-interpolation-filters="sRGB">
<feFlood flood-opacity="0" result="BackgroundImageFix"/>
<feColorMatrix in="SourceAlpha" type="matrix" values="0 0 0 0 0 0 0 0 0 0 0 0 0 0 0 0 0 0 127 0" result="hardAlpha"/>
<feOffset dy="0.418659"/>
<feGaussianBlur stdDeviation="2.09329"/>
<feColorMatrix type="matrix" values="0 0 0 0 0.717647 0 0 0 0 0.717647 0 0 0 0 0.717647 0 0 0 0.08 0"/>
<feBlend mode="normal" in2="BackgroundImageFix" result="effect1_dropShadow_820_8727"/>
<feColorMatrix in="SourceAlpha" type="matrix" values="0 0 0 0 0 0 0 0 0 0 0 0 0 0 0 0 0 0 127 0" result="hardAlpha"/>
<feOffset dy="4.18659"/>
<feGaussianBlur stdDeviation="4.18659"/>
<feColorMatrix type="matrix" values="0 0 0 0 0.717647 0 0 0 0 0.717647 0 0 0 0 0.717647 0 0 0 0.08 0"/>
<feBlend mode="normal" in2="effect1_dropShadow_820_8727" result="effect2_dropShadow_820_8727"/>
<feBlend mode="normal" in="SourceGraphic" in2="effect2_dropShadow_820_8727" result="shape"/>
</filter>
</defs>
</svg>
