<svg width="24" height="24" viewBox="0 0 24 24" fill="none" xmlns="http://www.w3.org/2000/svg">
<path d="M20.1491 16.0942C18.8892 15.0292 18.1667 13.4725 18.1667 11.8233V9.5C18.1667 6.56757 15.9884 4.14005 13.1667 3.7334V2.83328C13.1667 2.37247 12.7933 2 12.3333 2C11.8734 2 11.5 2.37247 11.5 2.83328V3.7334C8.67743 4.14005 6.5 6.56757 6.5 9.5V11.8233C6.5 13.4725 5.7775 15.0292 4.50995 16.1008C4.18585 16.3784 4 16.7816 4 17.2083C4 18.0126 4.65414 18.6667 5.45828 18.6667H19.2083C20.0126 18.6667 20.6667 18.0126 20.6667 17.2083C20.6667 16.7816 20.4809 16.3784 20.1491 16.0942Z" fill="#03599F"/>
<path d="M12.3351 22C13.8444 22 15.1069 20.9241 15.3968 19.5H9.27344C9.56351 20.9241 10.826 22 12.3351 22Z" fill="#03599F"/>
</svg>
