<svg width="16" height="16" viewBox="0 0 16 16" fill="none" xmlns="http://www.w3.org/2000/svg">
<path d="M7.99888 15.4286C12.1016 15.4286 15.4275 12.1027 15.4275 8C15.4275 3.89731 12.1016 0.571426 7.99888 0.571426C3.8962 0.571426 0.570312 3.89731 0.570312 8C0.570312 12.1027 3.8962 15.4286 7.99888 15.4286Z" fill="white" stroke="#354259" stroke-linecap="round" stroke-linejoin="round"/>
<path d="M5.42634 6.28572C5.26855 6.28572 5.14062 6.1578 5.14062 6C5.14062 5.84221 5.26855 5.71429 5.42634 5.71429" fill="white"/>
<path d="M5.42634 6.28572C5.26855 6.28572 5.14062 6.1578 5.14062 6C5.14062 5.84221 5.26855 5.71429 5.42634 5.71429" stroke="#354259" stroke-linecap="round" stroke-linejoin="round"/>
<path d="M5.42578 6.28572C5.58358 6.28572 5.7115 6.1578 5.7115 6C5.7115 5.84221 5.58358 5.71429 5.42578 5.71429" fill="white"/>
<path d="M5.42578 6.28572C5.58358 6.28572 5.7115 6.1578 5.7115 6C5.7115 5.84221 5.58358 5.71429 5.42578 5.71429" stroke="#354259" stroke-linecap="round" stroke-linejoin="round"/>
<path d="M10.5709 6.28572C10.4131 6.28572 10.2852 6.1578 10.2852 6C10.2852 5.84221 10.4131 5.71429 10.5709 5.71429" fill="white"/>
<path d="M10.5709 6.28572C10.4131 6.28572 10.2852 6.1578 10.2852 6C10.2852 5.84221 10.4131 5.71429 10.5709 5.71429" stroke="#354259" stroke-linecap="round" stroke-linejoin="round"/>
<path d="M10.5703 6.28572C10.7281 6.28572 10.856 6.1578 10.856 6C10.856 5.84221 10.7281 5.71429 10.5703 5.71429" fill="white"/>
<path d="M10.5703 6.28572C10.7281 6.28572 10.856 6.1578 10.856 6C10.856 5.84221 10.7281 5.71429 10.5703 5.71429" stroke="#354259" stroke-linecap="round" stroke-linejoin="round"/>
<path d="M4.57031 11.4286C5.08204 9.79648 7.0266 8.79909 8.97117 9.25244C10.097 9.52447 11.0181 10.3405 11.4275 11.4286" fill="white"/>
<path d="M4.57031 11.4286C5.08204 9.79648 7.0266 8.79909 8.97117 9.25244C10.097 9.52447 11.0181 10.3405 11.4275 11.4286" stroke="#354259" stroke-linecap="round" stroke-linejoin="round"/>
</svg>
