<svg width="36" height="36" viewBox="0 0 36 36" fill="none" xmlns="http://www.w3.org/2000/svg">
<g clip-path="url(#clip0_2526_3930)">
<g opacity="0.08">
<path d="M17.9995 36C27.4518 36 35.1143 28.3375 35.1143 18.8853C35.1143 9.43305 27.4518 1.77051 17.9995 1.77051C8.54731 1.77051 0.884766 9.43305 0.884766 18.8853C0.884766 28.3375 8.54731 36 17.9995 36Z" fill="black"/>
</g>
<path d="M17.9996 35.4094C27.7776 35.4094 35.7043 27.4827 35.7043 17.7047C35.7043 7.92666 27.7776 0 17.9996 0C8.22158 0 0.294922 7.92666 0.294922 17.7047C0.294922 27.4827 8.22158 35.4094 17.9996 35.4094Z" fill="url(#paint0_linear_2526_3930)"/>
<g opacity="0.08">
<path d="M17.9998 0C8.22139 0 0.294922 7.92647 0.294922 17.7049C0.294922 27.4833 8.22139 35.4099 17.9998 35.4099C27.7783 35.4099 35.7047 27.4834 35.7047 17.705C35.7047 7.92654 27.7783 0 17.9998 0ZM17.9998 34.2295C8.88831 34.2295 1.47526 26.8165 1.47526 17.705C1.47526 8.59345 8.88831 1.18034 17.9998 1.18034C27.1113 1.18034 34.5244 8.59338 34.5244 17.7049C34.5244 26.8164 27.1113 34.2295 17.9998 34.2295Z" fill="url(#paint1_linear_2526_3930)"/>
</g>
<g opacity="0.16">
<path d="M17.9998 0C8.22139 0 0.294922 7.92647 0.294922 17.7049C0.294922 27.4833 8.22139 35.4099 17.9998 35.4099C27.7783 35.4099 35.7047 27.4834 35.7047 17.705C35.7047 7.92654 27.7783 0 17.9998 0ZM17.9998 34.8197C8.54778 34.8197 0.885055 27.157 0.885055 17.7049C0.885055 8.25279 8.54778 0.590133 17.9998 0.590133C27.4519 0.590133 35.1146 8.25279 35.1146 17.7049C35.1146 27.157 27.4519 34.8197 17.9998 34.8197Z" fill="black"/>
</g>
<path d="M17.9996 33.6389C26.7999 33.6389 33.9339 26.5049 33.9339 17.7047C33.9339 8.9045 26.7999 1.77051 17.9996 1.77051C9.19942 1.77051 2.06543 8.9045 2.06543 17.7047C2.06543 26.5049 9.19942 33.6389 17.9996 33.6389Z" fill="url(#paint2_linear_2526_3930)"/>
<g opacity="0.16">
<path d="M17.9999 1.77051C9.19934 1.77051 2.06543 8.90441 2.06543 17.7049C2.06543 26.5055 9.19934 33.6394 17.9999 33.6394C26.8004 33.6394 33.9343 26.5055 33.9343 17.7049C33.9343 8.90441 26.8004 1.77051 17.9999 1.77051ZM17.9999 33.0492C9.52573 33.0492 2.65563 26.1791 2.65563 17.705C2.65563 9.23087 9.52573 2.36071 17.9999 2.36071C26.474 2.36071 33.3441 9.2308 33.3441 17.7049C33.3441 26.1791 26.474 33.0492 17.9999 33.0492Z" fill="url(#paint3_linear_2526_3930)"/>
</g>
<g opacity="0.36">
<path d="M18 5.85286C17.8641 5.85286 17.7539 5.74268 17.7539 5.60677V3.24609C17.7539 3.11018 17.8641 3 18 3C18.1359 3 18.2461 3.11018 18.2461 3.24609V5.60677C18.2461 5.74268 18.1359 5.85286 18 5.85286Z" fill="white"/>
<path d="M16.2661 4.78589C16.1445 4.78589 16.0387 4.69575 16.0224 4.57193L15.8683 3.40221C15.8506 3.26742 15.9455 3.14381 16.0802 3.12609C16.2146 3.10866 16.3386 3.20323 16.3563 3.33795L16.5104 4.50767C16.5281 4.64245 16.4332 4.76606 16.2985 4.78378C16.2877 4.78519 16.2769 4.78589 16.2661 4.78589Z" fill="white"/>
<path d="M12.919 5.68354C12.8224 5.68354 12.7309 5.62637 12.6916 5.53159L12.2395 4.44098C12.1875 4.3154 12.247 4.17147 12.3726 4.11937C12.4983 4.06741 12.6422 4.12696 12.6942 4.25247L13.1463 5.34308C13.1983 5.46866 13.1387 5.61259 13.0132 5.66469C12.9823 5.67749 12.9504 5.68354 12.919 5.68354Z" fill="white"/>
<path d="M9.91626 7.41698C9.84236 7.41698 9.76931 7.38386 9.72086 7.32072L9.00206 6.38416C8.9193 6.27637 8.93962 6.1219 9.04748 6.03914C9.15527 5.95645 9.30982 5.9767 9.3925 6.08456L10.1113 7.02112C10.1941 7.12891 10.1737 7.28339 10.0659 7.36615C10.0212 7.40046 9.9685 7.41698 9.91626 7.41698Z" fill="white"/>
<path d="M7.46577 9.86773C7.41346 9.86773 7.36079 9.85114 7.31614 9.81682L6.37951 9.09802C6.27165 9.01526 6.25133 8.86078 6.33409 8.753C6.41685 8.64521 6.57139 8.62489 6.67911 8.70757L7.61575 9.42638C7.72361 9.50914 7.74393 9.66361 7.66117 9.7714C7.61272 9.83461 7.53967 9.86773 7.46577 9.86773Z" fill="white"/>
<path d="M5.73219 12.8702C5.70084 12.8702 5.66891 12.8642 5.63805 12.8514L4.54743 12.3993C4.42185 12.3473 4.3623 12.2033 4.41433 12.0777C4.46636 11.9522 4.61029 11.8925 4.73594 11.9446L5.82655 12.3967C5.95213 12.4487 6.01169 12.5927 5.95966 12.7183C5.92035 12.813 5.82873 12.8702 5.73219 12.8702Z" fill="white"/>
<path d="M4.83507 16.2179C4.82439 16.2179 4.81356 16.2172 4.80266 16.2158L3.63294 16.0618C3.49815 16.044 3.4033 15.9204 3.42109 15.7856C3.43881 15.6509 3.56242 15.5566 3.69721 15.5738L4.86693 15.7278C5.00172 15.7456 5.09657 15.8692 5.07878 16.004C5.06247 16.1278 4.95664 16.2179 4.83507 16.2179Z" fill="white"/>
<path d="M14.8685 6.26536C14.7598 6.26536 14.6604 6.19287 14.631 6.0829L14.0202 3.80252C13.985 3.67125 14.0629 3.53625 14.1942 3.50109C14.3254 3.46601 14.4604 3.54377 14.4956 3.67512L15.1064 5.95549C15.1416 6.08677 15.0637 6.22177 14.9324 6.25692C14.911 6.26262 14.8896 6.26536 14.8685 6.26536Z" fill="white"/>
<path d="M11.9511 7.47354C11.8661 7.47354 11.7834 7.42945 11.7377 7.35049L10.5574 5.30616C10.4895 5.18845 10.5298 5.03799 10.6475 4.96999C10.7652 4.90214 10.9157 4.94229 10.9836 5.06006L12.164 7.1044C12.2319 7.2221 12.1916 7.37257 12.0739 7.44056C12.0352 7.46285 11.9928 7.47354 11.9511 7.47354Z" fill="white"/>
<path d="M9.44539 9.39601C9.38239 9.39601 9.31939 9.37196 9.27137 9.32394L7.60236 7.655C7.50624 7.55888 7.50624 7.40307 7.60236 7.30695C7.69848 7.21083 7.85429 7.21083 7.95041 7.30695L9.61942 8.97589C9.71553 9.07201 9.71553 9.22782 9.61942 9.32394C9.57132 9.37196 9.50832 9.39601 9.44539 9.39601Z" fill="white"/>
<path d="M7.52172 11.902C7.47995 11.902 7.43769 11.8914 7.39888 11.869L5.35454 10.6887C5.23684 10.6207 5.19648 10.4702 5.26447 10.3525C5.33247 10.2348 5.483 10.1946 5.60064 10.2625L7.64497 11.4428C7.76268 11.5108 7.80304 11.6613 7.73504 11.779C7.68955 11.8579 7.60679 11.902 7.52172 11.902Z" fill="white"/>
<path d="M6.31477 14.8199C6.29374 14.8199 6.2723 14.8172 6.25092 14.8115L3.97055 14.2007C3.83927 14.1655 3.76137 14.0306 3.79652 13.8992C3.83168 13.768 3.9664 13.6901 4.09795 13.7252L6.37833 14.336C6.5096 14.3712 6.58751 14.5061 6.55235 14.6374C6.52289 14.7473 6.42347 14.8199 6.31477 14.8199Z" fill="white"/>
<path d="M5.90169 17.9512H3.54102C3.4051 17.9512 3.29492 17.841 3.29492 17.7051C3.29492 17.5692 3.4051 17.459 3.54102 17.459H5.90169C6.0376 17.459 6.14778 17.5692 6.14778 17.7051C6.14778 17.841 6.0376 17.9512 5.90169 17.9512Z" fill="white"/>
<path d="M3.66478 19.8385C3.54314 19.8385 3.43739 19.7485 3.42107 19.6246C3.40336 19.4898 3.49821 19.3662 3.63293 19.3485L4.80264 19.1945C4.93771 19.1769 5.06104 19.2715 5.07876 19.4063C5.09648 19.5411 5.00163 19.6647 4.86691 19.6825L3.69719 19.8364C3.68629 19.8378 3.67546 19.8385 3.66478 19.8385Z" fill="white"/>
<path d="M4.64179 23.4844C4.54518 23.4844 4.45363 23.4272 4.41433 23.3325C4.3623 23.2069 4.42185 23.0629 4.54743 23.0109L5.63805 22.5589C5.76376 22.5068 5.90762 22.5665 5.95966 22.692C6.01169 22.8176 5.95213 22.9616 5.82655 23.0136L4.73594 23.4656C4.70514 23.4784 4.67315 23.4844 4.64179 23.4844Z" fill="white"/>
<path d="M6.52949 26.7535C6.45559 26.7535 6.38253 26.7204 6.33409 26.6572C6.25133 26.5495 6.27165 26.395 6.37951 26.3122L7.31614 25.5934C7.424 25.5106 7.57848 25.5309 7.66117 25.6388C7.74393 25.7466 7.72361 25.9011 7.61575 25.9839L6.67911 26.7027C6.63446 26.737 6.5818 26.7535 6.52949 26.7535Z" fill="white"/>
<path d="M9.19808 29.4219C9.14577 29.4219 9.09311 29.4054 9.04846 29.371C8.9406 29.2883 8.92028 29.1338 9.00303 29.026L9.72184 28.0895C9.8046 27.9817 9.95914 27.9613 10.0669 28.044C10.1747 28.1268 10.195 28.2813 10.1123 28.3891L9.39348 29.3256C9.34496 29.3889 9.27191 29.4219 9.19808 29.4219Z" fill="white"/>
<path d="M12.4668 31.3096C12.4354 31.3096 12.4035 31.3036 12.3726 31.2908C12.247 31.2388 12.1875 31.0948 12.2395 30.9693L12.6916 29.8786C12.7436 29.7531 12.8875 29.6933 13.0132 29.7454C13.1387 29.7974 13.1983 29.9414 13.1463 30.0669L12.6942 31.1576C12.6549 31.2525 12.5633 31.3096 12.4668 31.3096Z" fill="white"/>
<path d="M16.1136 32.2864C16.1029 32.2864 16.0921 32.2857 16.0812 32.2843C15.9464 32.2666 15.8515 32.1429 15.8693 32.0082L16.0234 30.8385C16.0412 30.7037 16.1648 30.609 16.2995 30.6266C16.4343 30.6443 16.5291 30.768 16.5114 30.9027L16.3573 32.0725C16.341 32.1963 16.2352 32.2864 16.1136 32.2864Z" fill="white"/>
<path d="M4.03411 21.6935C3.92541 21.6935 3.82599 21.621 3.79652 21.5109C3.76137 21.3797 3.83927 21.2447 3.97055 21.2096L6.25092 20.5987C6.38248 20.5638 6.5172 20.6414 6.55235 20.7728C6.58751 20.9041 6.5096 21.039 6.37833 21.0742L4.09795 21.685C4.07665 21.6907 4.0552 21.6935 4.03411 21.6935Z" fill="white"/>
<path d="M5.47784 25.181C5.39276 25.181 5.31008 25.1368 5.26444 25.0579C5.19652 24.9402 5.23681 24.7897 5.35451 24.7217L7.39885 23.5414C7.51662 23.4733 7.66709 23.5137 7.73501 23.6314C7.80293 23.7491 7.76265 23.8996 7.64494 23.9676L5.60061 25.1479C5.56186 25.1704 5.51961 25.181 5.47784 25.181Z" fill="white"/>
<path d="M10.7703 30.4732C10.7286 30.4732 10.6863 30.4625 10.6475 30.4401C10.5298 30.3721 10.4895 30.2216 10.5574 30.1039L11.7378 28.0596C11.8058 27.9418 11.9563 27.9016 12.0739 27.9695C12.1916 28.0375 12.232 28.188 12.164 28.3057L10.9837 30.35C10.9381 30.4291 10.8554 30.4732 10.7703 30.4732Z" fill="white"/>
<path d="M14.258 31.9178C14.2369 31.9178 14.2156 31.915 14.1942 31.9093C14.0629 31.8742 13.985 31.7392 14.0202 31.608L14.631 29.3275C14.6661 29.1962 14.8008 29.1183 14.9324 29.1534C15.0637 29.1886 15.1416 29.3235 15.1064 29.4548L14.4956 31.7352C14.4661 31.8452 14.3667 31.9178 14.258 31.9178Z" fill="white"/>
<path d="M18 32.4099C17.8641 32.4099 17.7539 32.2997 17.7539 32.1638V29.8032C17.7539 29.6673 17.8641 29.5571 18 29.5571C18.1359 29.5571 18.2461 29.6673 18.2461 29.8032V32.1638C18.2461 32.2997 18.1359 32.4099 18 32.4099Z" fill="white"/>
<path d="M19.8871 32.2864C19.7655 32.2864 19.6597 32.1964 19.6434 32.0725L19.4894 30.9028C19.4717 30.768 19.5666 30.6444 19.7013 30.6266C19.8364 30.6089 19.9597 30.7037 19.9774 30.8385L20.1314 32.0082C20.1492 32.143 20.0543 32.2666 19.9195 32.2843C19.9087 32.2857 19.8978 32.2864 19.8871 32.2864Z" fill="white"/>
<path d="M23.5333 31.3095C23.4367 31.3095 23.3451 31.2524 23.3059 31.1576L22.8538 30.0669C22.8017 29.9414 22.8613 29.7974 22.987 29.7454C23.1121 29.6934 23.2565 29.7529 23.3085 29.8785L23.7606 30.9692C23.8126 31.0947 23.7531 31.2387 23.6274 31.2908C23.5967 31.3035 23.5648 31.3095 23.5333 31.3095Z" fill="white"/>
<path d="M26.8031 29.4224C26.7292 29.4224 26.6561 29.3893 26.6077 29.3261L25.8888 28.3896C25.806 28.2818 25.8263 28.1273 25.9342 28.0446C26.0418 27.9618 26.1964 27.9821 26.2792 28.09L26.9981 29.0265C27.0809 29.1343 27.0605 29.2888 26.9527 29.3716C26.9081 29.4058 26.8554 29.4224 26.8031 29.4224Z" fill="white"/>
<path d="M29.4705 26.7536C29.4183 26.7536 29.3656 26.7371 29.3209 26.7027L28.3843 25.9839C28.2766 25.9011 28.2562 25.7466 28.3389 25.6388C28.4215 25.531 28.576 25.5105 28.6839 25.5934L29.6205 26.3122C29.7283 26.395 29.7486 26.5495 29.6659 26.6573C29.6175 26.7205 29.5444 26.7536 29.4705 26.7536Z" fill="white"/>
<path d="M31.3582 23.4849C31.3268 23.4849 31.2949 23.4788 31.2641 23.466L30.1735 23.014C30.0479 22.962 29.9883 22.818 30.0403 22.6925C30.0923 22.5668 30.2363 22.5074 30.3618 22.5593L31.4524 23.0113C31.578 23.0634 31.6377 23.2074 31.5856 23.3329C31.5464 23.4277 31.4548 23.4849 31.3582 23.4849Z" fill="white"/>
<path d="M32.3351 19.8386C32.3245 19.8386 32.3136 19.8379 32.3027 19.8365L31.1329 19.6825C30.9982 19.6648 30.9033 19.5412 30.9211 19.4064C30.9388 19.2717 31.0626 19.1767 31.1972 19.1945L32.3669 19.3485C32.5016 19.3662 32.5966 19.4899 32.5788 19.6246C32.5625 19.7484 32.4567 19.8386 32.3351 19.8386Z" fill="white"/>
<path d="M21.7426 31.9178C21.6339 31.9178 21.5345 31.8453 21.5051 31.7352L20.8942 29.4548C20.859 29.3235 20.9369 29.1886 21.0683 29.1534C21.1992 29.1183 21.3345 29.1962 21.3696 29.3275L21.9805 31.608C22.0157 31.7392 21.9378 31.8742 21.8064 31.9093C21.7851 31.915 21.7637 31.9178 21.7426 31.9178Z" fill="white"/>
<path d="M25.2294 30.4732C25.1443 30.4732 25.0616 30.429 25.016 30.35L23.8358 28.3057C23.7678 28.188 23.8081 28.0375 23.9258 27.9695C24.0434 27.9016 24.194 27.9418 24.262 28.0596L25.4423 30.1039C25.5103 30.2216 25.4699 30.3721 25.3522 30.4401C25.3135 30.4625 25.2711 30.4732 25.2294 30.4732Z" fill="white"/>
<path d="M28.2237 28.1752C28.1607 28.1752 28.0978 28.1512 28.0497 28.1032L26.3807 26.4342C26.2846 26.3382 26.2846 26.1823 26.3807 26.0862C26.4767 25.9901 26.6325 25.9901 26.7287 26.0862L28.3977 27.7552C28.4938 27.8512 28.4938 28.0071 28.3977 28.1032C28.3497 28.1512 28.2867 28.1752 28.2237 28.1752Z" fill="white"/>
<path d="M30.5216 25.1809C30.4799 25.1809 30.4376 25.1703 30.3988 25.1479L28.3545 23.9675C28.2368 23.8996 28.1965 23.7491 28.2645 23.6314C28.3325 23.5136 28.4831 23.4734 28.6006 23.5413L30.6449 24.7217C30.7626 24.7896 30.803 24.9401 30.735 25.0578C30.6894 25.1368 30.6067 25.1809 30.5216 25.1809Z" fill="white"/>
<path d="M31.9662 21.6935C31.9451 21.6935 31.9237 21.6908 31.9024 21.6851L29.622 21.0742C29.4907 21.039 29.4127 20.9041 29.4479 20.7728C29.483 20.6415 29.6183 20.5637 29.7492 20.5987L32.0297 21.2096C32.161 21.2448 32.2389 21.3797 32.2038 21.511C32.1743 21.621 32.0749 21.6935 31.9662 21.6935Z" fill="white"/>
<path d="M32.4593 17.9512H30.0986C29.9627 17.9512 29.8525 17.841 29.8525 17.7051C29.8525 17.5692 29.9627 17.459 30.0986 17.459H32.4593C32.5952 17.459 32.7054 17.5692 32.7054 17.7051C32.7054 17.841 32.5951 17.9512 32.4593 17.9512Z" fill="white"/>
<path d="M32.4593 17.9512H30.0986C29.9627 17.9512 29.8525 17.841 29.8525 17.7051C29.8525 17.5692 29.9627 17.459 30.0986 17.459H32.4593C32.5952 17.459 32.7054 17.5692 32.7054 17.7051C32.7054 17.841 32.5951 17.9512 32.4593 17.9512Z" fill="white"/>
<path d="M31.1647 16.218C31.0432 16.218 30.9374 16.1278 30.9211 16.004C30.9033 15.8692 30.9982 15.7456 31.1329 15.7279L32.3027 15.5738C32.4374 15.5565 32.5611 15.651 32.5788 15.7857C32.5966 15.9205 32.5016 16.0441 32.3669 16.0618L31.1972 16.2158C31.1863 16.2172 31.1755 16.218 31.1647 16.218Z" fill="white"/>
<path d="M30.2677 12.8701C30.1712 12.8701 30.0795 12.813 30.0403 12.7182C29.9883 12.5926 30.0478 12.4487 30.1735 12.3966L31.2641 11.9445C31.3893 11.8927 31.5336 11.9521 31.5856 12.0776C31.6377 12.2032 31.5781 12.3472 31.4525 12.3993L30.3618 12.8513C30.331 12.8641 30.2991 12.8701 30.2677 12.8701Z" fill="white"/>
<path d="M28.5344 9.86774C28.4605 9.86774 28.3874 9.83462 28.339 9.77148C28.2562 9.66369 28.2765 9.50922 28.3844 9.42646L29.321 8.70765C29.4288 8.62483 29.5832 8.64522 29.666 8.75308C29.7487 8.86087 29.7284 9.01534 29.6206 9.0981L28.684 9.81691C28.6393 9.85122 28.5866 9.86774 28.5344 9.86774Z" fill="white"/>
<path d="M26.0838 7.41662C26.0315 7.41662 25.9789 7.40003 25.9341 7.36572C25.8264 7.28296 25.806 7.12848 25.8887 7.02069L26.6076 6.08413C26.6904 5.97627 26.8446 5.95588 26.9526 6.03871C27.0604 6.12147 27.0807 6.27594 26.998 6.38373L26.2792 7.3203C26.2307 7.38351 26.1577 7.41662 26.0838 7.41662Z" fill="white"/>
<path d="M23.0811 5.68355C23.0497 5.68355 23.0177 5.6775 22.9869 5.6647C22.8614 5.61267 22.8017 5.46867 22.8538 5.34309L23.3059 4.25248C23.3579 4.1269 23.5023 4.06741 23.6274 4.11938C23.753 4.17141 23.8126 4.31541 23.7606 4.44099L23.3085 5.5316C23.2692 5.62631 23.1776 5.68355 23.0811 5.68355Z" fill="white"/>
<path d="M19.7338 4.78588C19.7231 4.78588 19.7122 4.78518 19.7013 4.78377C19.5666 4.76605 19.4717 4.64237 19.4894 4.50765L19.6434 3.33793C19.6612 3.20314 19.7847 3.10871 19.9195 3.12608C20.0543 3.1438 20.1492 3.26748 20.1314 3.4022L19.9774 4.57192C19.9612 4.69574 19.8554 4.78588 19.7338 4.78588Z" fill="white"/>
<path d="M29.6855 14.8199C29.5768 14.8199 29.4774 14.7474 29.4479 14.6375C29.4127 14.5062 29.4906 14.3712 29.622 14.336L31.9024 13.7252C32.0336 13.6901 32.1686 13.7681 32.2038 13.8993C32.2389 14.0305 32.161 14.1655 32.0297 14.2007L29.7493 14.8115C29.728 14.8171 29.7066 14.8199 29.6855 14.8199Z" fill="white"/>
<path d="M28.4778 11.902C28.3928 11.902 28.31 11.8579 28.2645 11.779C28.1965 11.6613 28.2368 11.5108 28.3545 11.4428L30.3988 10.2625C30.5164 10.1946 30.667 10.2348 30.735 10.3525C30.803 10.4702 30.7626 10.6207 30.6449 10.6887L28.6006 11.869C28.5619 11.8914 28.5195 11.902 28.4778 11.902Z" fill="white"/>
<path d="M24.0487 7.47352C24.0069 7.47352 23.9646 7.46291 23.9258 7.44055C23.8081 7.37256 23.7678 7.22209 23.8358 7.10438L25.016 5.06005C25.0841 4.94234 25.2346 4.90213 25.3522 4.96998C25.4699 5.03797 25.5103 5.18844 25.4423 5.30614L24.262 7.35048C24.2164 7.42937 24.1337 7.47352 24.0487 7.47352Z" fill="white"/>
<path d="M21.132 6.26535C21.1109 6.26535 21.0896 6.26261 21.0683 6.25691C20.937 6.22176 20.859 6.08683 20.8942 5.95548L21.5051 3.67511C21.5402 3.54391 21.6754 3.466 21.8064 3.50109C21.9377 3.53624 22.0157 3.67117 21.9805 3.80251L21.3696 6.08289C21.3402 6.19286 21.2407 6.26535 21.132 6.26535Z" fill="white"/>
<path d="M18 5.85286C17.8641 5.85286 17.7539 5.74268 17.7539 5.60677V3.24609C17.7539 3.11018 17.8641 3 18 3C18.1359 3 18.2461 3.11018 18.2461 3.24609V5.60677C18.2461 5.74268 18.1359 5.85286 18 5.85286Z" fill="white"/>
</g>
<path d="M28.382 7.32275L15.9131 15.6181L17.9999 17.7049L28.382 7.32275Z" fill="#F4413D"/>
<path d="M28.3821 7.32275L18 17.7049L20.0868 19.7917L28.3821 7.32275Z" fill="#CC2B2B"/>
<path d="M15.9135 15.6182L7.61816 28.0872L18.0003 17.705L15.9135 15.6182Z" fill="white"/>
<path d="M7.61816 28.0873L20.0871 19.7919L18.0003 17.7051L7.61816 28.0873Z" fill="#D8D8D8"/>
</g>
<defs>
<linearGradient id="paint0_linear_2526_3930" x1="17.9996" y1="35.4094" x2="17.9996" y2="0" gradientUnits="userSpaceOnUse">
<stop stop-color="#F2F2F2"/>
<stop offset="1" stop-color="white"/>
</linearGradient>
<linearGradient id="paint1_linear_2526_3930" x1="17.9998" y1="35.4099" x2="17.9998" y2="0" gradientUnits="userSpaceOnUse">
<stop/>
<stop offset="0.36" stop-opacity="0"/>
</linearGradient>
<linearGradient id="paint2_linear_2526_3930" x1="17.9996" y1="33.6389" x2="17.9996" y2="1.77051" gradientUnits="userSpaceOnUse">
<stop stop-color="#3871E9"/>
<stop offset="1" stop-color="#61C5F6"/>
</linearGradient>
<linearGradient id="paint3_linear_2526_3930" x1="17.9999" y1="33.6394" x2="17.9999" y2="1.77051" gradientUnits="userSpaceOnUse">
<stop/>
<stop offset="0.36" stop-opacity="0"/>
</linearGradient>
<clipPath id="clip0_2526_3930">
<rect width="36" height="36" fill="white"/>
</clipPath>
</defs>
</svg>
