<svg width="24" height="24" viewBox="0 0 24 24" fill="none" xmlns="http://www.w3.org/2000/svg">
<path fill-rule="evenodd" clip-rule="evenodd" d="M14.0615 2.09034C14.2009 2.16795 14.3104 2.29003 14.3723 2.43709C14.4343 2.58416 14.4452 2.74774 14.4034 2.90174L12.5063 9.85674H19.428C19.5672 9.85675 19.7033 9.89743 19.8197 9.97378C19.9361 10.0501 20.0276 10.1588 20.0831 10.2865C20.1385 10.4142 20.1555 10.5553 20.1318 10.6925C20.1081 10.8296 20.0449 10.9569 19.9499 11.0586L9.9502 21.7725C9.84128 21.8895 9.6963 21.9665 9.53843 21.9913C9.38056 22.0162 9.21893 21.9873 9.07938 21.9094C8.93984 21.8315 8.83045 21.7091 8.76871 21.5617C8.70697 21.4143 8.69644 21.2505 8.73881 21.0964L10.6359 14.1423H3.71422C3.57502 14.1423 3.43886 14.1016 3.32247 14.0253C3.20609 13.9489 3.11454 13.8402 3.0591 13.7125C3.00366 13.5849 2.98673 13.4438 3.0104 13.3066C3.03407 13.1694 3.0973 13.0422 3.19233 12.9404L13.192 2.22652C13.3009 2.11 13.4457 2.03329 13.6033 2.0086C13.7609 1.98392 13.9222 2.0127 14.0615 2.09034Z" fill="#768998"/>
</svg>
