<svg width="24" height="24" viewBox="0 0 24 24" fill="none" xmlns="http://www.w3.org/2000/svg">
<path d="M4.50781 16.2552C4.50781 16.4774 4.63354 16.6805 4.83237 16.7796C4.83237 16.7796 5.24329 16.9844 5.79199 17.2588C7.70834 18.2173 9.85419 18.7241 11.9974 18.7241C14.1407 18.7241 16.2865 18.2173 18.2029 17.2588C18.7516 16.9846 19.1624 16.7798 19.1625 16.7796C19.3613 16.6805 19.4871 16.4775 19.4871 16.2552V14.9583H4.50781V16.2552Z" fill="#768998"/>
<path d="M21.091 8.91724L20.0867 8.03802C20.0865 8.03802 20.0864 8.03787 20.0862 8.03772C17.845 6.0788 14.9732 5 12 5C9.02682 5 6.15497 6.0788 3.9133 8.03802L2.90958 8.91663C2.33157 9.42154 2 10.1527 2 10.9232C2 11.6862 2.29739 12.4028 2.83694 12.9404C2.83694 12.9404 3.26114 13.3649 3.68243 13.7865H20.3176L21.1624 12.9411C21.7026 12.403 22 11.6862 22 10.9227C22 10.1527 21.6684 9.42154 21.091 8.91724ZM13.9841 11.2297C13.3216 11.8945 12.7057 12.1642 12.2628 12.3857C12.1801 12.4272 12.09 12.448 12 12.448C11.91 12.448 11.8199 12.4272 11.7372 12.3857C11.2917 12.1629 10.6771 11.8933 10.0159 11.2297C9.78748 11.0004 9.78824 10.6294 10.0174 10.401C10.2466 10.1726 10.6176 10.1732 10.8461 10.4025C11.0196 10.5768 11.2099 10.7336 11.4141 10.873V9.62372H11.3724C11.0488 9.62372 10.7865 9.36142 10.7865 9.03778C10.7865 8.71414 11.0488 8.45184 11.3724 8.45184H11.4141V8.09631C11.4141 7.77283 11.6764 7.51038 12 7.51038C12.3236 7.51038 12.5859 7.77283 12.5859 8.09631V8.45184H12.6276C12.9512 8.45184 13.2135 8.71414 13.2135 9.03778C13.2135 9.36142 12.9512 9.62372 12.6276 9.62372H12.5859V10.873C12.7898 10.7338 12.9802 10.5769 13.1539 10.4025C13.3824 10.1732 13.7534 10.1726 13.9826 10.401C14.2118 10.6294 14.2125 11.0004 13.9841 11.2297Z" fill="#768998"/>
</svg>
