<svg width="24" height="24" viewBox="0 0 24 24" fill="none" xmlns="http://www.w3.org/2000/svg">
<g filter="url(#filter0_d_1169_11663)">
<path d="M11.9989 18.4286C16.1016 18.4286 19.4275 15.1027 19.4275 11C19.4275 6.89731 16.1016 3.57143 11.9989 3.57143C7.8962 3.57143 4.57031 6.89731 4.57031 11C4.57031 15.1027 7.8962 18.4286 11.9989 18.4286Z" fill="white" stroke="#354259" stroke-linecap="round" stroke-linejoin="round"/>
<path d="M8.57031 13.8571C9.08204 12.2251 11.0266 11.2277 12.9712 11.681C14.097 11.953 15.0181 12.7691 15.4275 13.8571" stroke="#354259" stroke-linecap="round" stroke-linejoin="round"/>
<path d="M8.33984 9.1452C8.44498 8.94057 8.77392 8.57704 9.15498 8.35704C9.53603 8.13704 10.0153 8.03392 10.2451 8.0452" stroke="#354259" stroke-linecap="round" stroke-linejoin="round"/>
<path d="M13.7539 8.04352C13.9837 8.03225 14.463 8.13536 14.844 8.35536C15.2251 8.57536 15.554 8.93889 15.6591 9.14352" stroke="#354259" stroke-linecap="round" stroke-linejoin="round"/>
</g>
<defs>
<filter id="filter0_d_1169_11663" x="0" y="0" width="24" height="24" filterUnits="userSpaceOnUse" color-interpolation-filters="sRGB">
<feFlood flood-opacity="0" result="BackgroundImageFix"/>
<feColorMatrix in="SourceAlpha" type="matrix" values="0 0 0 0 0 0 0 0 0 0 0 0 0 0 0 0 0 0 127 0" result="hardAlpha"/>
<feOffset dy="1"/>
<feGaussianBlur stdDeviation="2"/>
<feComposite in2="hardAlpha" operator="out"/>
<feColorMatrix type="matrix" values="0 0 0 0 0 0 0 0 0 0 0 0 0 0 0 0 0 0 0.12 0"/>
<feBlend mode="normal" in2="BackgroundImageFix" result="effect1_dropShadow_1169_11663"/>
<feBlend mode="normal" in="SourceGraphic" in2="effect1_dropShadow_1169_11663" result="shape"/>
</filter>
</defs>
</svg>
