<svg width="24" height="24" viewBox="0 0 24 24" fill="none" xmlns="http://www.w3.org/2000/svg">
<g clip-path="url(#clip0_1169_10808)">
<path d="M12.8391 1.86864L15.5649 7.3715C15.6269 7.51118 15.7244 7.63215 15.8477 7.72239C15.971 7.81262 16.1158 7.86897 16.2677 7.88578L22.2848 8.77721C22.4592 8.7996 22.6234 8.8711 22.7585 8.98337C22.8936 9.09562 22.994 9.24401 23.0478 9.41117C23.1018 9.57835 23.107 9.75742 23.0629 9.92746C23.019 10.0975 22.9275 10.2515 22.7991 10.3715L18.462 14.6744C18.3514 14.7778 18.2682 14.9072 18.2204 15.051C18.1724 15.1947 18.1613 15.3481 18.1877 15.4972L19.2334 21.5486C19.2637 21.7226 19.2445 21.9014 19.1782 22.0649C19.1118 22.2285 19.0009 22.3701 18.858 22.4738C18.7152 22.5773 18.546 22.6387 18.3699 22.651C18.1938 22.6632 18.0178 22.6258 17.862 22.5429L12.4449 19.68C12.3062 19.6119 12.1537 19.5766 11.9991 19.5766C11.8446 19.5766 11.6922 19.6119 11.5534 19.68L6.13629 22.5429C5.98044 22.6258 5.80447 22.6632 5.6284 22.651C5.45232 22.6387 5.28321 22.5773 5.14032 22.4738C4.99742 22.3701 4.88647 22.2285 4.82009 22.0649C4.75373 21.9014 4.73459 21.7226 4.76486 21.5486L5.81057 15.4286C5.83708 15.2795 5.82587 15.1261 5.77797 14.9824C5.73007 14.8387 5.64698 14.7092 5.53629 14.6058L1.14772 10.3715C1.01789 10.2482 0.926578 10.09 0.88486 9.91587C0.843141 9.74177 0.852802 9.5593 0.91267 9.39058C0.97254 9.22186 1.08005 9.07413 1.22217 8.96525C1.3643 8.85639 1.53494 8.79106 1.71343 8.77721L7.73057 7.88578C7.88246 7.86897 8.02728 7.81262 8.15061 7.72239C8.27393 7.63215 8.37144 7.51118 8.43343 7.3715L11.1591 1.86864C11.2334 1.70837 11.3519 1.57268 11.5008 1.47759C11.6496 1.38249 11.8225 1.33196 11.9991 1.33196C12.1758 1.33196 12.3487 1.38249 12.4976 1.47759C12.6464 1.57268 12.7649 1.70837 12.8391 1.86864Z" fill="#FF9C1C" stroke="#FF9C1C" stroke-width="1.5" stroke-linecap="round" stroke-linejoin="round"/>
</g>
<defs>
<clipPath id="clip0_1169_10808">
<rect width="24" height="24" fill="white"/>
</clipPath>
</defs>
</svg>
