<svg width="60" height="60" viewBox="0 0 60 60" fill="none" xmlns="http://www.w3.org/2000/svg">
<path fill-rule="evenodd" clip-rule="evenodd" d="M30.0107 3.76498C44.5057 3.76498 56.2608 15.5201 56.2608 30.0151C56.2608 44.5101 44.5057 56.2653 30.0107 56.2653C15.5157 56.2653 3.76055 44.5101 3.76055 30.0151C3.76055 15.5201 15.5157 3.76498 30.0107 3.76498ZM24.5595 38.5414L18.1328 32.1094C17.038 31.0138 17.0377 29.2273 18.1328 28.132C19.2282 27.0369 21.0226 27.0438 22.11 28.132L26.6408 32.6663L37.9118 21.3953C39.0071 20.3 40.7938 20.3 41.8889 21.3953C42.9843 22.4904 42.9827 24.2787 41.8889 25.3725L28.6261 38.6353C27.5324 39.7291 25.7441 39.7306 24.649 38.6353C24.6182 38.6045 24.5885 38.5733 24.5595 38.5414Z" fill="#00BA00"/>
</svg>
