<svg width="20" height="22" viewBox="0 0 20 22" fill="none" xmlns="http://www.w3.org/2000/svg">
<g id="elements">
<path id="Rectangle 2174" d="M1.5 11.9999V11.1962C1.5 8.22885 1.5 6.74517 1.96894 5.56018C2.72281 3.65515 4.31714 2.15249 6.33836 1.44195C7.59563 0.999972 9.16981 0.999971 12.3182 0.999971C14.1173 0.999971 15.0168 0.99997 15.7352 1.25253C16.8902 1.65855 17.8012 2.51722 18.232 3.6058C18.5 4.28294 18.5 5.13076 18.5 6.8264V11.0142V11.9999" stroke="#FAFBFB" stroke-width="1.5" stroke-linecap="round" stroke-linejoin="round"/>
<path id="Vector" d="M1.5 11C1.5 9.15905 2.99238 7.66667 4.83333 7.66667C5.49912 7.66667 6.28404 7.78333 6.93137 7.60988C7.50652 7.45576 7.95576 7.00652 8.10988 6.43136C8.28333 5.78404 8.16667 4.99912 8.16667 4.33333C8.16667 2.49238 9.65905 1 11.5 1" stroke="#FAFBFB" stroke-width="1.5" stroke-linecap="round" stroke-linejoin="round"/>
<path id="Vector_2" d="M1.5 21V18M1.5 18V16.2C1.5 15.6343 1.5 15.3515 1.67574 15.1757C1.85147 15 2.13431 15 2.7 15H3.5C4.32843 15 5 15.6716 5 16.5C5 17.3284 4.32843 18 3.5 18H1.5ZM18.5 15H17C16.0572 15 15.5858 15 15.2929 15.2929C15 15.5858 15 16.0572 15 17V18M15 21V18M15 18H17.5M12 18C12 19.6569 10.6569 21 9 21C8.62615 21 8.43923 21 8.3 20.9196C7.96665 20.7272 8 20.3376 8 20V16C8 15.6624 7.96665 15.2728 8.3 15.0804C8.43923 15 8.62615 15 9 15C10.6569 15 12 16.3431 12 18Z" stroke="#FAFBFB" stroke-width="1.5" stroke-linecap="round" stroke-linejoin="round"/>
</g>
</svg>
