<svg width="593" height="319" viewBox="0 0 593 319" fill="none" xmlns="http://www.w3.org/2000/svg">
<g clip-path="url(#clip0_2122_4044)">
<path d="M221.783 154.255C227.523 152.249 239.719 146.072 233.941 137.742C228.163 129.412 225.708 132.902 227.93 122.886C230.152 112.87 223.123 104.894 216.316 106.818C209.51 108.742 207.718 114.23 199.418 112.744C191.117 111.259 184.119 118.984 187.175 125.784C190.231 132.584 191.533 135.857 188.565 139.569C185.597 143.282 172.364 147.171 177.767 156.203C183.169 165.236 185.696 164.713 183.735 169.291C181.774 173.868 186.124 179.153 193.778 178.522C201.432 177.892 208.385 175.068 211.283 166.535C214.181 158.003 221.783 154.255 221.783 154.255Z" fill="#2C2858"/>
<path d="M208.853 300.25L208.379 305.143L212.459 306.385L215.737 302.876L216.276 300.855L208.853 300.25Z" fill="#FFB555"/>
<path d="M221.721 201.555C221.721 201.555 227.846 241.332 226.194 258.38C224.542 275.428 216.234 300.932 216.234 300.932H208.78C208.78 300.932 208.906 297.847 209.198 287.684C209.57 274.722 209.199 264.079 214.842 257.393C211.919 244.747 204.441 201.555 204.441 201.555L221.721 201.555Z" fill="#FFB555"/>
<path d="M214.16 208.355C214.16 208.355 212.18 244.969 206.162 260.998C190.747 271.539 176.732 276.647 167.405 280.328C166.966 280.501 165.113 273.541 165.113 273.541C175.472 266.744 184.564 254.492 195.132 256.068C193.325 244.343 191.574 214.208 191.574 214.208L214.16 208.355Z" fill="#FFB555"/>
<path d="M205.891 143.272V158.314C205.891 158.314 210.889 160.988 215.221 158.314C214.555 154.971 214.159 144.322 214.159 144.322L205.891 143.272Z" fill="#FFB555"/>
<path d="M196.948 151.387H221.826C221.826 151.387 226.294 161.448 225.687 170.061C225.08 178.675 223.99 202.113 223.99 202.113C223.99 202.113 208.73 198.639 198.988 195.624C198.213 177.949 192.982 169.891 193.342 164.148C193.703 158.406 196.948 151.387 196.948 151.387Z" fill="#F595AD"/>
<path d="M210.316 145.364C216.566 145.364 221.633 138.532 221.633 130.105C221.633 121.677 216.566 114.846 210.316 114.846C204.066 114.846 199 121.677 199 130.105C199 138.532 204.066 145.364 210.316 145.364Z" fill="#FFB555"/>
<path d="M198.235 130.105C204.483 129.304 210.291 125.812 213.571 121.3C215.691 126.573 221.621 130.105 221.621 130.105C221.621 130.105 226.065 120.017 217.982 114.574C210.272 109.383 191.875 112.93 198.235 130.105Z" fill="#2C2858"/>
<path d="M205.554 133.361C204.89 133.361 204.352 132.821 204.352 132.154C204.352 131.488 204.89 130.948 205.554 130.948C206.218 130.948 206.757 131.488 206.757 132.154C206.757 132.821 206.218 133.361 205.554 133.361Z" fill="#011B30"/>
<path d="M215.14 133.361C214.476 133.361 213.938 132.821 213.938 132.154C213.938 131.488 214.476 130.948 215.14 130.948C215.804 130.948 216.343 131.488 216.343 132.154C216.343 132.821 215.804 133.361 215.14 133.361Z" fill="#011B30"/>
<path d="M217.262 131.067C217.064 131.068 216.872 130.966 216.764 130.783C216.467 130.281 216.107 129.98 215.695 129.888C214.982 129.73 214.276 130.207 214.269 130.212C214.006 130.392 213.647 130.327 213.466 130.065C213.286 129.803 213.348 129.444 213.609 129.261C213.654 129.23 214.722 128.492 215.932 128.754C216.674 128.915 217.289 129.399 217.758 130.193C217.921 130.468 217.83 130.823 217.556 130.986C217.463 131.041 217.362 131.067 217.262 131.067Z" fill="#2C2858"/>
<path d="M203.273 131.126C203.146 131.126 203.018 131.085 202.912 130.999C202.663 130.799 202.623 130.434 202.822 130.184C203.581 129.234 204.422 128.716 205.319 128.647C206.478 128.557 207.275 129.273 207.308 129.304C207.543 129.52 207.56 129.886 207.345 130.122C207.13 130.358 206.768 130.375 206.532 130.163C206.515 130.148 206.042 129.746 205.394 129.803C204.832 129.853 204.27 130.225 203.724 130.909C203.61 131.052 203.442 131.126 203.273 131.126Z" fill="#2C2858"/>
<path d="M211.513 133.738C213.068 134.863 213.553 135.325 214.154 135.7C213.739 137.093 211.561 137.785 210.941 137.624C212.458 136.874 212.672 135.858 212.672 135.858L211.513 133.738Z" fill="#FF9C1C"/>
<path d="M200.69 131.282C201.987 132.93 202.051 135.047 200.834 136.011C199.617 136.975 197.579 136.421 196.282 134.773C194.985 133.126 194.921 131.009 196.138 130.045C197.355 129.08 199.393 129.635 200.69 131.282Z" fill="#FFB555"/>
<path d="M199.546 134.841C199.496 134.841 199.445 134.831 199.396 134.811C199.2 134.728 199.108 134.501 199.191 134.305C199.466 133.651 199.472 133.126 199.209 132.743C198.804 132.152 197.847 131.969 197.152 131.992C196.939 132 196.761 131.832 196.754 131.619C196.747 131.406 196.913 131.227 197.126 131.22C198.059 131.189 199.263 131.458 199.844 132.305C200.133 132.728 200.378 133.47 199.9 134.605C199.838 134.752 199.696 134.841 199.546 134.841Z" fill="#FF9C1C"/>
<path d="M207.315 139.684C207.154 139.42 207.383 139.091 207.685 139.155C208.453 139.318 209.725 139.559 210.95 139.669C212.176 139.779 213.471 139.767 214.255 139.744C214.564 139.734 214.731 140.098 214.526 140.33C213.895 141.042 212.628 142.094 210.75 141.926C208.872 141.758 207.81 140.497 207.315 139.684Z" fill="white"/>
<path d="M212.56 305.842C213.574 303.172 215.74 302.876 215.74 302.876C219.952 308.51 230.294 305.053 229.952 312.674C214.224 312.576 207.688 312.674 207.688 312.674C207.708 310.924 208.019 306.769 208.382 305.143L209.202 305.289L212.56 305.842Z" fill="#011B30"/>
<path d="M229.202 314.709H208.446C208.027 314.709 207.688 314.368 207.688 313.948V312.464H229.961V313.948C229.961 314.368 229.621 314.709 229.202 314.709Z" fill="#011B30"/>
<path d="M165.836 273.059L160.277 275.899L161.062 279.975L165.551 281.209L167.661 280.226L165.836 273.059Z" fill="#FFB555"/>
<path d="M161.567 279.814C164.31 279.478 165.546 281.209 165.546 281.209C162.631 287.389 170.274 294.73 163.596 297.887C156.556 284.297 153.512 278.712 153.512 278.712C155.019 277.937 158.717 276.323 160.273 275.899L160.519 276.671L161.567 279.814Z" fill="#011B30"/>
<path d="M161.445 298.025L152.189 280.424C151.959 279.988 152.126 279.447 152.562 279.217L153.695 278.617L163.782 297.8L162.649 298.399C162.214 298.629 161.675 298.462 161.445 298.025Z" fill="#011B30"/>
<path d="M197.594 245.38C193.007 244.548 188.608 244.553 186.027 244.61C187.66 239.13 187.188 205.304 197.538 193.672H223.586C232.806 209.542 229.328 233.058 235.026 242.691C232.8 243.77 226.56 246.473 218.389 247.3C209.354 248.214 205.344 246.786 197.594 245.38Z" fill="#012440"/>
<path d="M205.888 151.387L199.631 150.863C199.631 150.863 191.783 134.243 188.769 128.87C186.715 120.243 189.633 97.4777 189.633 97.4777L180.513 95.3034C180.513 95.3034 176.337 123.087 177.748 130.926C178.121 132.994 189.493 157.323 189.493 157.323C189.493 157.323 193.34 164.148 188.087 198.41C195.504 200.256 200.678 200.367 200.678 200.367L205.888 151.387Z" fill="#E53A3A"/>
<path d="M214.523 151.387L219.38 200.367C219.38 200.367 221.599 201.12 229.93 198.635C225.895 178.18 227.071 165.628 227.641 161.696C227.759 160.882 228.014 160.097 228.399 159.37C230.147 156.066 235.915 144.782 241.229 130.105C240.896 123.27 235.967 95.3038 235.967 95.3038L227.339 94.8428L229.972 127.727C229.972 127.727 220.738 147.923 219.65 151.268L214.523 151.387Z" fill="#E53A3A"/>
<path d="M273.352 98.9597H145.396C139.508 98.9597 134.734 94.1718 134.734 88.2653V58.4884C134.734 52.582 139.508 47.7939 145.396 47.7939H273.352C279.24 47.7939 284.013 52.582 284.013 58.4884V88.2655C284.013 94.1718 279.24 98.9597 273.352 98.9597Z" fill="#7F99EB"/>
<path d="M160.029 85.0519L153.394 81.0562L146.742 85.0243C146.094 85.4105 145.301 84.8299 145.47 84.0935L147.208 76.5287L141.39 71.409C140.824 70.9106 141.129 69.9744 141.88 69.9082L149.589 69.2287L152.646 62.0963C152.943 61.4021 153.925 61.4041 154.22 62.0996L157.247 69.2447L164.953 69.9563C165.704 70.0258 166.005 70.9632 165.437 71.4592L159.598 76.5546L161.304 84.1268C161.471 84.8637 160.675 85.4409 160.029 85.0519Z" fill="#FBD12C"/>
<path d="M188.014 85.0519L181.378 81.0562L174.726 85.0243C174.079 85.4105 173.285 84.8299 173.454 84.0935L175.192 76.5287L169.375 71.409C168.808 70.9106 169.114 69.9744 169.864 69.9082L177.574 69.2287L180.63 62.0963C180.927 61.4021 181.909 61.4041 182.204 62.0996L185.231 69.2447L192.938 69.9563C193.688 70.0258 193.989 70.9632 193.421 71.4592L187.582 76.5546L189.289 84.1268C189.455 84.8637 188.659 85.4409 188.014 85.0519Z" fill="#FBD12C"/>
<path d="M215.986 85.0519L209.351 81.0562L202.699 85.0243C202.051 85.4105 201.258 84.8299 201.427 84.0935L203.165 76.5287L197.347 71.409C196.781 70.9106 197.086 69.9744 197.837 69.9082L205.546 69.2287L208.603 62.0963C208.9 61.4021 209.882 61.4041 210.177 62.0996L213.204 69.2447L220.911 69.9563C221.661 70.0258 221.962 70.9632 221.394 71.4592L215.555 76.5546L217.262 84.1268C217.428 84.8637 216.632 85.4409 215.986 85.0519Z" fill="#FBD12C"/>
<path d="M243.967 85.0519L237.331 81.0562L230.679 85.0243C230.032 85.4105 229.238 84.8299 229.408 84.0935L231.146 76.5287L225.328 71.409C224.762 70.9106 225.067 69.9744 225.817 69.9082L233.527 69.2287L236.583 62.0963C236.881 61.4021 237.863 61.4041 238.157 62.0996L241.184 69.2447L248.891 69.9563C249.641 70.0258 249.943 70.9632 249.374 71.4592L243.535 76.5546L245.242 84.1268C245.408 84.8637 244.613 85.4409 243.967 85.0519Z" fill="#FBD12C"/>
<path d="M271.951 85.0519L265.315 81.0562L258.664 85.0243C258.016 85.4105 257.223 84.8299 257.392 84.0935L259.13 76.5287L253.312 71.409C252.746 70.9106 253.051 69.9744 253.802 69.9082L261.511 69.2287L264.567 62.0963C264.865 61.4021 265.847 61.4041 266.142 62.0996L269.168 69.2447L276.875 69.9563C277.625 70.0258 277.927 70.9632 277.359 71.4592L271.52 76.5546L273.226 84.1268C273.393 84.8637 272.597 85.4409 271.951 85.0519Z" fill="#FBD12C"/>
<path d="M559.483 318.547H27.3909C26.1049 318.547 25.0625 317.501 25.0625 316.211C25.0625 314.921 26.1049 313.876 27.3909 313.876H559.483C560.769 313.876 561.811 314.921 561.811 316.211C561.811 317.501 560.769 318.547 559.483 318.547Z" fill="#95A6DB"/>
<path d="M558.806 235.653C558.806 235.653 563.043 240.285 560.661 250.936C558.233 261.791 560.747 268.344 560.747 268.344L557.286 273.114C557.286 273.114 553.975 263.024 556.34 254.394C559.313 243.597 558.806 235.653 558.806 235.653Z" fill="#95A6DB"/>
<path d="M572.415 235.517C572.415 235.517 574.275 239.759 570.478 247.21C566.593 254.801 566.927 260.143 566.927 260.143L563.999 263.928C563.999 263.928 563.499 254.914 566.878 248.957C571.096 241.506 572.415 235.517 572.415 235.517Z" fill="#95A6DB"/>
<path d="M551.793 248.096C551.793 248.096 548.495 251.81 548.65 263.591C548.775 273.191 551.989 277.458 552.031 283.35L556.184 275.935C555.577 271.894 552.416 269.895 551.883 261.195C551.381 253.049 551.793 248.096 551.793 248.096Z" fill="#95A6DB"/>
<path d="M524.355 290.4C524.355 290.4 523.682 295.342 530.357 305.024C535.798 312.925 540.605 312.994 541.958 314.793L542.858 309.927C539.624 307.088 536.99 308.156 531.71 301.232C526.764 294.733 524.355 290.4 524.355 290.4Z" fill="#95A6DB"/>
<path d="M544.232 257.293C544.232 257.293 543.394 265.837 543.973 271.019C544.782 278.386 548.511 281.539 549.877 289.004L547.082 294.742C547.082 294.742 541.767 287.84 541.132 278.71C540.064 263.389 544.232 257.293 544.232 257.293Z" fill="#95A6DB"/>
<path d="M531.473 264.256C533.357 268.687 534.585 273.371 535.117 278.158C536.628 292.677 546.112 301.128 546.112 301.128L544.311 305.087C544.311 305.087 533.472 299.824 532.545 287.594C531.579 274.669 531.473 264.256 531.473 264.256Z" fill="#95A6DB"/>
<path d="M556.118 277.006C556.118 277.006 559.155 275.04 573.345 273.535C582.439 272.574 579.067 269.831 587.996 270.387C581.787 272.45 580.721 277.606 572.314 278.993C565.59 280.098 558.962 281.729 552.492 283.873L556.118 277.006Z" fill="#95A6DB"/>
<path d="M584.954 279.659C584.954 279.659 581.152 287.772 568.725 289.792C561.08 291.054 553.694 293.568 546.863 297.235L549.096 290.185C549.096 290.185 553.291 285.298 566.413 284.443C575.429 283.854 584.954 279.659 584.954 279.659Z" fill="#95A6DB"/>
<path d="M580.407 293.036C580.407 293.036 576.605 301.149 564.178 303.169C556.534 304.431 549.148 306.945 542.316 310.611L544.549 303.562C544.549 303.562 548.744 298.675 561.866 297.82C570.882 297.23 580.407 293.036 580.407 293.036Z" fill="#95A6DB"/>
<path d="M588.298 255.172C588.298 255.172 585.232 259.639 577.331 260.619C569.318 261.609 563.973 264.657 563.973 264.657L565.627 261.829C565.627 261.829 568.278 258.741 576.573 258.197C582.276 257.821 588.298 255.172 588.298 255.172Z" fill="#95A6DB"/>
<path d="M561.554 269.221C561.554 269.221 567.426 267.184 576.452 265.869C582.144 265.022 588.769 259.895 588.769 259.895C588.769 259.895 584.936 269.268 576.303 270.01C566.403 270.858 557.258 274.391 557.258 274.391L561.554 269.221Z" fill="#95A6DB"/>
<path d="M565.27 262.894C565.27 262.894 568.413 253.848 576.436 250.3C581.173 248.157 585.52 245.236 589.297 241.656C589.297 241.656 586.568 250.871 578.854 253.331C571.74 255.621 567.84 261.612 567.84 261.612L565.27 262.894Z" fill="#95A6DB"/>
<path d="M542.662 314.775L541.277 314.546C542.687 305.983 551.346 277.196 566.772 260.21L567.809 261.158C552.599 277.91 544.056 306.321 542.662 314.775Z" fill="#95A6DB"/>
<path d="M61.9167 227.757C61.9167 227.757 57.0363 232.645 59.1433 244.473C61.293 256.524 58.2148 263.609 58.2148 263.609L61.7918 269.02C61.7918 269.02 65.916 258.085 63.7294 248.483C60.9776 236.468 61.9167 227.757 61.9167 227.757Z" fill="#95A6DB"/>
<path d="M46.9701 226.951C46.9701 226.951 44.7218 231.525 48.5397 239.901C52.4474 248.435 51.8243 254.293 51.8243 254.293L54.8623 258.596C54.8623 258.596 55.8437 248.709 52.4142 241.997C48.1335 233.6 46.9701 226.951 46.9701 226.951Z" fill="#95A6DB"/>
<path d="M69.0391 241.778C69.0391 241.778 72.4874 246.02 71.7524 258.966C71.1549 269.515 67.4161 274.052 67.0871 280.528L62.877 272.175C63.7373 267.761 67.3086 265.715 68.3124 256.175C69.2552 247.243 69.0391 241.778 69.0391 241.778Z" fill="#95A6DB"/>
<path d="M97.1847 289.615C97.1847 289.615 97.687 295.081 89.884 305.405C83.5228 313.83 78.2338 313.674 76.6599 315.586L75.9043 310.193C79.5949 307.228 82.4405 308.528 88.5776 301.171C94.3281 294.263 97.1847 289.615 97.1847 289.615Z" fill="#95A6DB"/>
<path d="M76.9242 252.254C76.9242 252.254 77.436 261.69 76.5512 267.359C75.3086 275.42 71.0564 278.707 69.1973 286.85L71.9953 293.293C71.9953 293.293 78.1693 285.961 79.3061 275.953C81.2145 259.158 76.9242 252.254 76.9242 252.254Z" fill="#95A6DB"/>
<path d="M90.6105 260.526C88.3264 265.306 86.7515 270.397 85.9363 275.635C83.5793 291.526 72.2148 300.827 72.2148 300.827L74.537 304.801C74.537 304.801 86.7067 299.536 88.3126 286.135C89.994 271.97 90.6105 260.526 90.6105 260.526Z" fill="#95A6DB"/>
<path d="M62.8987 273.355C62.8987 273.355 59.6537 271.048 44.1235 268.709C34.1705 267.213 38.0099 264.36 28.166 264.54C34.8933 267.108 35.8189 272.829 44.9956 274.759C52.3361 276.298 59.545 278.412 66.5563 281.081L62.8987 273.355Z" fill="#95A6DB"/>
<path d="M31.0684 274.882C31.0684 274.882 34.8595 283.986 48.4267 286.806C56.772 288.562 64.7722 291.684 72.1075 296.044L69.9906 288.185C69.9906 288.185 65.6128 282.61 51.2252 281.037C41.3402 279.954 31.0684 274.882 31.0684 274.882Z" fill="#95A6DB"/>
<path d="M35.4219 289.809C35.4219 289.809 39.213 298.913 52.7803 301.733C61.1255 303.49 69.1258 306.611 76.461 310.971L74.3443 303.112C74.3443 303.112 69.9666 297.537 55.5785 295.964C45.6939 294.881 35.4219 289.809 35.4219 289.809Z" fill="#95A6DB"/>
<path d="M28.5586 247.796C28.5586 247.796 31.7151 252.856 40.3556 254.315C49.1189 255.79 54.8502 259.399 54.8502 259.399L53.1665 256.209C53.1665 256.209 50.3995 252.686 41.3056 251.688C35.0529 251 28.5586 247.796 28.5586 247.796Z" fill="#95A6DB"/>
<path d="M57.2954 264.534C57.2954 264.534 50.9364 262.011 41.0754 260.13C34.858 258.924 27.8184 252.967 27.8184 252.967C27.8184 252.967 31.5837 263.458 41.0405 264.69C51.885 266.099 61.7712 270.426 61.7712 270.426L57.2954 264.534Z" fill="#95A6DB"/>
<path d="M53.5176 257.398C53.5176 257.398 50.4949 247.3 41.8437 243.012C36.7381 240.427 32.0986 237.005 28.1172 232.887C28.1172 232.887 30.6756 243.151 39.0389 246.228C46.7517 249.089 50.7531 255.864 50.7531 255.864L53.5176 257.398Z" fill="#95A6DB"/>
<path d="M75.8717 315.532L77.4043 315.347C76.2653 305.864 68.1238 273.795 51.9771 254.374L50.791 255.367C66.7126 274.52 74.7438 306.17 75.8717 315.532Z" fill="#95A6DB"/>
<path d="M337.338 275.917L329.151 314.062C328.932 315.079 328.568 315.689 328.178 315.689C327.456 315.689 326.906 313.653 327.019 311.404L328.801 275.917H337.338Z" fill="#4364CC"/>
<path d="M545.824 275.917L554.012 314.062C554.231 315.079 554.595 315.689 554.984 315.689C555.706 315.689 556.257 313.653 556.144 311.404L554.362 275.917H545.824Z" fill="#4364CC"/>
<path d="M482.363 275.917L490.551 314.062C490.769 315.079 491.133 315.689 491.523 315.689C492.245 315.689 492.796 313.653 492.683 311.404L490.9 275.917H482.363Z" fill="#4364CC"/>
<path d="M422.795 282.791H335.457C330.391 282.791 326.285 278.672 326.285 273.591V226.822C326.285 222.871 329.478 219.668 333.417 219.668H422.796L422.795 282.791Z" fill="#768FDB"/>
<path d="M441.112 282.791H353.773C348.708 282.791 344.602 278.672 344.602 273.591V226.822C344.602 222.871 347.795 219.668 351.733 219.668H441.112L441.112 282.791Z" fill="#4364CC"/>
<path d="M544.096 235.632H387.941V202.742C387.941 198.95 391.006 195.876 394.787 195.876H544.096V235.632Z" fill="#768FDB"/>
<path d="M554.716 234.551H352.8C348.181 234.551 344.438 238.307 344.438 242.939V252.613H554.716L554.716 234.551Z" fill="#95ADF5"/>
<path d="M344.436 282.837H554.715V250.515L344.436 250.515V282.837Z" fill="#768FDB"/>
<path d="M554.697 235.632H533.492V195.876H547.852C551.632 195.876 554.697 198.95 554.697 202.742V235.632Z" fill="#4364CC"/>
<path d="M344.152 305.825L337.351 308.046L334.113 302.053C334.393 301.816 334.573 297.677 334.642 294.53L345.913 295.327C345.575 298.52 344.927 302.709 344.152 305.825Z" fill="#FFB555"/>
<path d="M332.163 310.286C332.163 310.286 329.503 306.412 326.454 306.361C326.454 306.361 320.755 307.072 318.909 309.62C318.329 310.42 318.679 312.021 318.997 313.04C319.196 313.676 319.789 314.341 321.515 314.762C324.065 315.383 327.465 315.64 333.563 313.611C340.878 311.177 342.12 311.895 344.812 310.821C347.602 309.709 346.453 306.274 345.448 302.921C345.449 302.921 343.651 307.227 332.163 310.286Z" fill="#2C2858"/>
<path d="M333.876 301.461C333.876 301.461 330.688 303.702 326.41 304.994C324.017 305.716 317.622 307.41 318.954 311.673C319.152 312.309 319.745 312.975 321.472 313.395C324.022 314.016 327.422 314.273 333.52 312.244C340.835 309.81 342.076 310.528 344.768 309.454C347.558 308.342 345.978 304.462 344.974 301.109C344.961 301.978 344.713 304.272 339.676 306.65C338.173 307.36 338.98 300.445 333.876 301.461Z" fill="#4364CC"/>
<path d="M371.138 305.028L364.509 307.725L360.859 301.975C361.122 301.719 361.01 297.577 360.859 294.433H372.157C372.045 297.642 371.692 301.866 371.138 305.028Z" fill="#FFB555"/>
<path d="M377.444 228.476C362.179 232.342 340.898 243.853 338.885 246.282C334.727 251.3 334.393 267.675 334.207 296.72H346.583C350.073 273.806 354.548 263.647 354.704 254.426C354.704 254.426 366.611 254.454 383.986 246.357C392.551 242.365 401.448 237.781 398.281 229.991C395.758 223.784 392 224.79 377.444 228.476Z" fill="#8A284C"/>
<path d="M394.356 227.069C381.605 229.259 365.46 245.143 363.447 247.572C359.289 252.59 361.05 268.741 360.864 297.786H372.547C373.73 282.666 379.566 265.427 378.816 254.433C378.816 254.433 391.365 252.566 408.739 244.469C417.304 240.477 426.001 240.874 423.925 230.894C422.56 224.332 409.153 224.527 394.356 227.069Z" fill="#E53A3A"/>
<path d="M356.547 174.91C359.772 171.646 357.656 168.3 357.656 168.3C359.426 167.919 368.762 182.106 372.788 191.121C379.81 184.022 392.184 174.434 395.53 173.876C395.53 173.876 400.044 172.659 401.666 178.133C403.113 183.019 397.467 186.481 397.467 186.481C397.467 186.481 373.315 203.585 369.744 202.065C364.185 199.699 359.155 179.341 356.547 174.91Z" fill="#FFB555"/>
<path d="M351.5 174.506C353.471 174.627 355.908 173.65 356.668 175.422L360.557 173.52L360.793 171.167C357.45 165.795 349.304 164.271 348.497 164.2C346.401 164.015 345.428 163.798 345.264 164.079C345.101 164.36 344.587 166.232 347.628 166.598C351.444 167.058 348.911 170.118 341.169 167.205C339.231 166.476 335.583 167.422 336.902 168.843C338.356 170.409 342.533 173.958 351.5 174.506Z" fill="#FFB555"/>
<path d="M394.368 177.874C388.356 177.037 378.798 174.447 382.83 165.157C386.862 155.866 387.458 159.422 383.328 150.051C379.197 140.68 384.524 131.491 391.564 132.038C398.603 132.585 401.428 137.606 409.265 134.522C417.103 131.438 425.462 137.628 423.797 144.886C422.131 152.144 421.496 155.603 425.127 158.656C428.757 161.709 442.473 162.918 438.946 172.822C435.418 182.727 432.842 182.711 435.656 186.808C438.469 190.905 435.241 196.934 427.624 197.819C420.007 198.705 412.648 197.305 408.146 189.519C403.643 181.734 394.368 177.874 394.368 177.874Z" fill="#2C2858"/>
<path d="M381.504 181.393C386.598 178.298 395.028 169.636 401.438 172.202C407.847 174.769 405.671 182.544 402.604 185.758C399.537 188.973 390.012 196.33 390.012 196.33L381.504 181.393Z" fill="#3F964F"/>
<path d="M423.154 229.104C420.301 214.34 420.999 214.372 419.813 207.423C416.884 190.251 431.963 176.465 409.922 169.659L400.161 171.828C390.782 176.473 388.948 184.825 388.024 190.526C386.265 201.376 387.803 217.572 387.803 217.572L384.113 226.821C384.113 226.821 386.674 229.398 398.807 231.697C410.94 233.996 423.154 229.104 423.154 229.104Z" fill="#0E6A41"/>
<path d="M425.383 185.247C427.724 193.944 427.975 222.704 425.989 225.281L415.934 219.689C415.934 219.689 411.278 189.747 410.745 184.74C409.803 176.071 421.587 171.04 425.383 185.247Z" fill="#FFB555"/>
<path d="M410.567 198.965C409.633 192.355 408.389 179.719 413.919 175.578C419.449 171.438 424.743 176.484 425.872 180.786C427.002 185.089 428.278 197.08 428.278 197.08L410.567 198.965Z" fill="#3F964F"/>
<path d="M413.79 154.875C413.582 162.682 408.458 168.877 402.346 168.713C396.233 168.549 391.447 162.088 391.655 154.282C391.863 146.475 396.986 140.28 403.099 140.444C409.211 140.607 413.997 147.068 413.79 154.875Z" fill="#FFB555"/>
<path d="M411.803 159.386L403.402 167.448C403.402 167.448 403.447 171.916 403.312 173.397C403.033 176.454 406.683 176.99 409.169 174.597C411.654 172.204 411.879 169.659 411.879 169.659L411.803 159.386Z" fill="#FFB555"/>
<path d="M390.395 151.585C393.192 151.24 399.043 149.499 400.67 146.457C403.322 151.372 410.952 154.967 416.887 156.153C415.972 150.728 413.846 140.841 403.367 138.769C395.135 137.14 390.395 151.585 390.395 151.585Z" fill="#2C2858"/>
<path d="M394.659 156.057C394.512 156.627 393.931 156.969 393.363 156.822C392.794 156.674 392.453 156.092 392.601 155.521C392.748 154.951 393.329 154.609 393.897 154.757C394.465 154.905 394.807 155.487 394.659 156.057Z" fill="#011B30"/>
<path d="M403.387 155.945C403.227 156.562 402.598 156.933 401.983 156.773C401.368 156.613 400.999 155.982 401.158 155.365C401.318 154.748 401.946 154.377 402.561 154.538C403.176 154.698 403.546 155.328 403.387 155.945Z" fill="#011B30"/>
<path d="M404.449 154.746C404.364 154.724 404.286 154.674 404.229 154.597C403.407 153.496 401.832 153.581 401.816 153.582C401.596 153.596 401.406 153.428 401.391 153.207C401.377 152.987 401.543 152.796 401.763 152.781C401.845 152.775 403.784 152.66 404.87 154.117C405.003 154.294 404.966 154.546 404.79 154.679C404.688 154.754 404.563 154.775 404.449 154.746Z" fill="#2C2858"/>
<path d="M392.202 154.624C392.161 154.613 392.12 154.596 392.082 154.571C391.898 154.448 391.847 154.2 391.968 154.015C392.913 152.577 394.49 152.756 394.556 152.764C394.775 152.792 394.931 152.992 394.904 153.213C394.877 153.432 394.678 153.588 394.459 153.562C394.407 153.556 393.301 153.446 392.637 154.457C392.54 154.604 392.363 154.666 392.202 154.624Z" fill="#2C2858"/>
<path d="M395.94 157.783C395.493 158.493 395.12 159.206 394.648 159.666C394.489 159.822 394.482 160.08 394.628 160.246C395.234 160.936 396.655 161.308 397.514 161.477C397.639 161.502 397.702 161.331 397.59 161.268C396.647 160.737 396.197 160.294 395.994 160.041C395.893 159.916 395.86 159.75 395.901 159.594C395.996 159.236 396.182 158.508 396.287 157.916C396.323 157.712 396.05 157.608 395.94 157.783Z" fill="#FF9C1C"/>
<path d="M410.999 155.516C409.818 156.919 409.789 158.843 410.933 159.812C412.078 160.782 413.963 160.43 415.144 159.027C416.325 157.624 416.355 155.701 415.211 154.731C414.066 153.762 412.18 154.113 410.999 155.516Z" fill="#FFB555"/>
<path d="M412.61 159.107C412.552 159.092 412.496 159.063 412.447 159.021C411.752 158.412 411.53 157.609 411.852 156.873C412.183 156.119 412.989 155.636 413.77 155.723C413.989 155.747 414.148 155.946 414.123 156.166C414.099 156.387 413.901 156.545 413.681 156.521C413.254 156.473 412.772 156.77 412.585 157.196C412.406 157.606 412.544 158.039 412.974 158.416C413.141 158.562 413.158 158.816 413.012 158.983C412.909 159.101 412.752 159.144 412.61 159.107Z" fill="#FF9C1C"/>
<path d="M416.694 218.868C419.597 217.946 426.324 224.268 426.09 225.31C417.451 241.205 395.317 247.732 395.317 247.732L391.449 244.801C391.449 244.801 406.354 232.212 416.694 218.868Z" fill="#FFB555"/>
<path d="M395.321 247.732C394.89 251.879 388.733 257.283 383.346 257.669C377.958 258.055 379.69 252.844 381.807 251.493C383.923 250.142 386.971 248.797 386.217 247.732C385.462 246.668 384.113 246.949 383.153 245.703C382.297 244.591 386.492 242.398 391.452 244.802C393.123 246.067 395.321 247.732 395.321 247.732Z" fill="#FFB555"/>
<path d="M399.711 163.899C399.867 164.64 399.34 165.379 398.533 165.55C397.726 165.721 396.945 165.26 396.789 164.519C396.633 163.778 397.161 163.038 397.967 162.867C398.774 162.696 399.555 163.158 399.711 163.899Z" fill="white"/>
<path d="M359.514 310.324C359.514 310.324 356.588 306.647 353.543 306.811C353.543 306.811 347.908 307.923 346.245 310.595C345.723 311.434 346.185 313.006 346.573 314C346.816 314.621 347.454 315.242 349.206 315.54C351.793 315.979 355.203 315.996 361.143 313.542C368.27 310.597 369.558 311.225 372.168 309.965C374.873 308.658 373.486 305.313 372.249 302.039C372.249 302.039 370.758 306.461 359.514 310.324Z" fill="#2C2858"/>
<path d="M360.6 301.401C360.6 301.401 357.577 303.862 353.4 305.451C351.064 306.341 344.804 308.482 346.43 312.641C346.674 313.261 347.312 313.883 349.063 314.18C351.65 314.62 355.06 314.637 361.001 312.182C368.127 309.238 369.416 309.866 372.026 308.605C374.731 307.299 372.883 303.54 371.646 300.266C371.694 301.134 371.607 303.44 366.75 306.168C365.3 306.982 365.62 300.028 360.6 301.401Z" fill="#4364CC"/>
<path d="M460.473 171.613C452.774 173.959 448.942 190.216 445.664 207.234C440.414 217.591 436.492 225.555 431.453 235.998C436.157 237.066 440.052 234.095 440.052 234.095C440.052 234.095 452.015 223.069 457.563 210.94C458.833 208.165 459.266 202.579 459.985 200.097C460.301 192.315 460.473 171.613 460.473 171.613Z" fill="#E86686"/>
<path d="M419.883 305.858L413.081 308.079L409.844 302.086C410.123 301.849 410.303 297.709 410.373 294.563L421.643 295.361C421.306 298.553 420.658 302.742 419.883 305.858Z" fill="#FFB555"/>
<path d="M407.906 310.319C407.906 310.319 405.245 306.444 402.196 306.393C402.196 306.393 396.497 307.105 394.651 309.653C394.071 310.453 394.421 312.054 394.739 313.073C394.938 313.709 395.531 314.374 397.257 314.795C399.807 315.415 403.208 315.673 409.305 313.644C416.621 311.21 417.862 311.927 420.554 310.854C423.344 309.741 422.195 306.307 421.191 302.954C421.191 302.954 419.393 307.26 407.906 310.319Z" fill="#011B30"/>
<path d="M409.614 301.494C409.614 301.494 406.427 303.735 402.149 305.027C399.756 305.749 393.361 307.443 394.692 311.706C394.891 312.342 395.484 313.008 397.21 313.428C399.76 314.049 403.16 314.306 409.258 312.277C416.574 309.843 417.815 310.561 420.507 309.487C423.297 308.375 421.717 304.495 420.713 301.142C420.7 302.011 420.451 304.305 415.415 306.683C413.911 307.393 414.718 300.478 409.614 301.494Z" fill="#2C2858"/>
<path d="M410.921 306.65C410.673 306.65 410.441 306.49 410.361 306.239C409.694 304.155 407.501 304.152 407.408 304.152C407.084 304.155 406.817 303.894 406.813 303.569C406.808 303.244 407.066 302.976 407.39 302.971C408.478 302.95 410.733 303.535 411.482 305.879C411.582 306.189 411.411 306.522 411.102 306.621C411.042 306.641 410.981 306.65 410.921 306.65Z" fill="#494C7F"/>
<path d="M408.265 307.929C408.016 307.929 407.784 307.77 407.704 307.519C407.038 305.435 404.845 305.432 404.752 305.431C404.428 305.434 404.161 305.174 404.156 304.848C404.152 304.523 404.409 304.256 404.734 304.25C405.822 304.229 408.076 304.814 408.826 307.158C408.926 307.469 408.755 307.801 408.445 307.901C408.385 307.92 408.325 307.929 408.265 307.929Z" fill="#494C7F"/>
<path d="M447.079 306.662L440.45 309.358L436.801 303.609C437.063 303.352 437.748 298.947 437.597 295.803L448.099 296.067C447.986 299.275 447.633 303.5 447.079 306.662Z" fill="#FFB555"/>
<path d="M453.177 228.509C437.911 232.376 416.631 243.887 414.618 246.316C410.46 251.333 409.35 267.709 409.164 296.754H422.749C426.239 273.839 430.28 263.681 430.437 254.459C430.437 254.459 442.344 254.488 459.718 246.39C468.283 242.399 477.181 237.815 474.014 230.025C471.491 223.818 467.733 224.823 453.177 228.509Z" fill="#1D3C55"/>
<path d="M470.553 228.702C457.802 230.893 441.657 246.777 439.644 249.206C435.485 254.223 435.994 270.375 435.809 299.42L449.351 299.764C450.535 284.643 455.763 267.06 455.013 256.066C455.013 256.066 466.887 252.64 485.257 247.184C495.306 244.199 498.261 242.409 499.768 235.596C500.281 233.278 500.83 227.95 499.734 226.843C494.883 221.943 482.623 226.629 470.553 228.702Z" fill="#1D3C55"/>
<path d="M435.439 311.957C435.439 311.957 432.513 308.28 429.469 308.444C429.469 308.444 423.834 309.556 422.171 312.228C421.649 313.067 422.11 314.639 422.499 315.633C422.742 316.254 423.38 316.876 425.132 317.173C427.719 317.613 431.129 317.629 437.069 315.175C444.196 312.231 445.484 312.859 448.094 311.598C450.799 310.292 449.412 306.947 448.175 303.673C448.175 303.673 446.684 308.095 435.439 311.957Z" fill="#011B30"/>
<path d="M436.529 303.034C436.529 303.034 433.506 305.495 429.33 307.085C426.993 307.975 420.733 310.116 422.36 314.274C422.603 314.895 423.241 315.517 424.993 315.814C427.58 316.253 430.99 316.27 436.93 313.816C444.057 310.871 445.345 311.5 447.955 310.239C450.66 308.932 448.812 305.173 447.575 301.9C447.623 302.767 447.537 305.074 442.679 307.801C441.229 308.615 441.549 301.661 436.529 303.034Z" fill="#2C2858"/>
<path d="M439.343 308.234C439.094 308.234 438.863 308.074 438.783 307.824C438.116 305.74 435.923 305.736 435.83 305.736C435.506 305.739 435.239 305.479 435.234 305.153C435.23 304.828 435.488 304.561 435.812 304.555C436.9 304.534 439.155 305.119 439.904 307.463C440.004 307.774 439.833 308.106 439.523 308.206C439.464 308.225 439.403 308.234 439.343 308.234Z" fill="#494C7F"/>
<path d="M436.695 309.514C436.446 309.514 436.214 309.354 436.134 309.103C435.468 307.019 433.274 307.016 433.182 307.016C432.858 307.019 432.59 306.758 432.586 306.433C432.582 306.108 432.839 305.84 433.164 305.835C434.252 305.813 436.506 306.398 437.256 308.742C437.355 309.053 437.185 309.386 436.875 309.485C436.815 309.504 436.755 309.514 436.695 309.514Z" fill="#494C7F"/>
<path d="M479.631 158.601H479.625L474.491 158.62L473.328 170.785L479.322 173.959L485.713 170.82L484.68 158.62L479.631 158.601Z" fill="#FFB555"/>
<path d="M481.952 156.754C486.258 158.626 490.298 153.608 490.298 153.608C493.168 153.976 493.522 151.106 493.522 151.106C494.939 151.097 497.084 150.218 497.269 147.568C497.425 145.324 495.34 144.806 495.81 142.264C496.187 140.224 499.047 135.806 492.871 133.543C492.871 133.543 493.812 129.824 490.297 127.813C485.988 125.347 484.01 127.794 481.831 127.686C479.397 127.565 475.146 124.011 472.941 129.084C472.941 129.084 469.681 128.189 467.489 130.105C465.446 131.89 465.419 134.947 466.043 136.262C466.043 136.262 463.183 136.369 461.851 138.657C460.958 140.19 460.963 142.52 462.296 144.05C463.143 145.023 464.117 145.382 464.117 145.382C465.126 145.874 464.343 148.741 465.113 149.571C466.348 150.904 467.791 152.016 469.299 153.006L481.952 156.754Z" fill="#2C2858"/>
<path d="M491.271 150.78C489.831 159.188 482.244 165.568 475.66 164.435C469.077 163.301 465.99 155.082 467.43 146.673C468.869 138.265 475.373 132.368 481.957 133.502C488.54 134.636 492.71 142.371 491.271 150.78Z" fill="#FFB555"/>
<path d="M470.588 148.649C470.34 149.243 469.659 149.522 469.068 149.273C468.476 149.025 468.198 148.341 468.446 147.748C468.694 147.155 469.375 146.875 469.967 147.124C470.558 147.373 470.837 148.056 470.588 148.649Z" fill="#011B30"/>
<path d="M479.847 150.309C479.578 150.951 478.841 151.254 478.201 150.984C477.56 150.714 477.259 149.975 477.528 149.333C477.797 148.69 478.534 148.388 479.174 148.657C479.814 148.927 480.116 149.666 479.847 150.309Z" fill="#011B30"/>
<path d="M472.709 150.098C471.432 151.642 469.824 153.519 469.824 153.519C469.824 153.519 470.2 155.38 472.536 155.722C471.601 155.177 470.712 154.377 471.293 153.108C471.875 151.839 472.709 150.098 472.709 150.098Z" fill="#FF9C1C"/>
<path d="M481.932 149.087C481.975 149.077 482.018 149.062 482.06 149.043C482.349 148.904 482.472 148.557 482.334 148.267C481.958 147.476 480.79 146.075 479.059 146.438C478.744 146.508 478.545 146.811 478.61 147.126C478.675 147.44 478.983 147.641 479.296 147.576C480.577 147.308 481.281 148.753 481.288 148.768C481.405 149.016 481.675 149.141 481.932 149.087Z" fill="#2C2858"/>
<path d="M471.273 145.984C471.355 145.967 471.432 145.928 471.498 145.868C471.695 145.687 471.709 145.381 471.528 145.183C471.5 145.152 470.826 144.425 469.851 144.452C469.184 144.471 468.567 144.823 468.015 145.5C467.847 145.707 467.877 146.013 468.083 146.182C468.29 146.351 468.595 146.321 468.763 146.113C469.13 145.664 469.504 145.431 469.878 145.421C470.407 145.406 470.812 145.833 470.816 145.838C470.936 145.969 471.111 146.019 471.273 145.984Z" fill="#2C2858"/>
<path d="M466.832 136.502L482.247 129.123L495.476 141.643L490.272 152.33C491.394 147.016 487.729 147.76 486.533 145.759C485.319 143.73 485.298 141.112 480.766 142.09C480.766 142.09 478.231 138.965 475.7 141.577C473.744 143.596 472.166 142.635 470.426 142.26C468.372 141.818 468.279 143.917 467.069 143.493L466.832 136.502Z" fill="#2C2858"/>
<path d="M489.48 149.861C487.98 151.187 487.641 153.261 488.723 154.493C489.805 155.725 491.899 155.648 493.399 154.321C494.9 152.995 495.239 150.921 494.157 149.689C493.075 148.457 490.981 148.534 489.48 149.861Z" fill="#FFB555"/>
<path d="M490.633 153.998C490.572 153.973 490.517 153.932 490.471 153.879C489.817 153.109 489.705 152.205 490.171 151.462C490.648 150.7 491.597 150.307 492.427 150.527C492.66 150.589 492.8 150.829 492.738 151.063C492.676 151.297 492.437 151.437 492.203 151.375C491.749 151.255 491.181 151.498 490.911 151.929C490.652 152.343 490.732 152.833 491.137 153.31C491.294 153.494 491.271 153.771 491.088 153.928C490.957 154.04 490.781 154.061 490.633 153.998Z" fill="#FF9C1C"/>
<path d="M475.179 159.246C475.009 160.185 474.041 160.796 473.017 160.61C471.993 160.423 471.301 159.511 471.471 158.571C471.641 157.63 472.609 157.019 473.633 157.206C474.657 157.392 475.349 158.305 475.179 159.246Z" fill="white"/>
<path d="M490.419 173.822C486.69 172.56 482.768 171.974 478.834 172.09C465.512 172.09 463.473 175.466 463.473 175.387L473.359 202.62L478.834 205.33L484.827 203.55C484.827 203.55 492.596 174.634 490.419 173.822Z" fill="#FFD0B7"/>
<path d="M500.376 227.972C500.376 227.972 489.529 230.757 479.46 230.824C469.392 230.75 458.75 227.116 458.75 227.116C458.75 227.116 460.103 208.569 459.965 201.446C459.769 193.267 460.488 182.421 460.488 171.612C460.488 171.612 467.63 170.459 471.658 169.961C472.313 169.88 472.885 169.817 473.332 169.777C473.332 169.777 475.628 174.608 485.63 169.777C486.155 169.725 486.806 169.728 487.533 169.77C491.735 170.022 498.502 171.613 498.502 171.613C498.502 182.392 498.936 192.957 498.791 201.137C499.238 208.433 500.376 227.972 500.376 227.972Z" fill="#F5A3B7"/>
<path d="M473.875 194.979L471.438 193.562C471.438 193.562 470.763 190.094 466.849 190.011C467.297 191.466 467.943 193.562 467.943 193.562C467.943 193.562 466.016 195.063 461.446 192.495C456.979 191.488 458.888 194.755 457.407 194.99C455.222 195.335 458.999 199.642 463.46 200.301C469.231 201.153 469.916 199.968 469.916 199.968L473.182 201.113L473.875 194.979Z" fill="#FFB555"/>
<path d="M496.428 198.684C488.281 198.113 474.382 194.077 474.382 194.077C472.158 197.498 472.773 202.044 472.773 202.044C485.426 213.171 504.468 216.768 510.31 214.089C515.644 211.645 511.879 179.074 498.486 171.613L498.022 171.656C493.431 179.449 496.428 198.684 496.428 198.684Z" fill="#E86686"/>
<path d="M432.487 236.953C432.562 236.835 432.608 236.707 432.643 236.577C432.662 236.59 432.68 236.604 432.701 236.617C433.88 237.373 435.275 237.297 435.814 236.448C435.903 236.308 435.961 236.156 435.994 235.997C436.862 236.2 437.682 235.99 438.068 235.384C438.221 235.143 438.286 234.866 438.278 234.575C439.132 234.835 440.019 234.602 440.451 233.923C440.991 233.074 440.612 231.862 439.605 231.217C438.598 230.572 437.344 230.738 436.804 231.587C436.667 231.802 436.59 232.04 436.566 232.287C435.471 231.746 434.284 231.88 433.796 232.647C433.707 232.787 433.65 232.939 433.616 233.098C432.749 232.895 431.928 233.105 431.542 233.711C431.4 233.935 431.333 234.19 431.33 234.458C430.583 234.193 429.787 234.383 429.407 234.98C428.951 235.697 429.271 236.721 430.121 237.265C430.972 237.81 432.031 237.67 432.487 236.953Z" fill="#FFB555"/>
<path d="M487.523 169.77V169.772C486.827 170.937 485.843 171.818 484.455 172.519C482.257 173.631 479.269 174.103 477.43 173.959C475.973 173.844 474.358 173.248 473.323 172.425C472.224 171.55 471.746 170.434 471.648 169.961C472.303 169.88 472.976 169.778 473.423 169.739C473.423 169.739 475.618 174.608 485.619 169.778C486.145 169.725 486.795 169.728 487.523 169.77Z" fill="#E86686"/>
<path d="M543.565 282.076H479.389C475.071 282.076 471.57 278.565 471.57 274.233V225.052C471.57 221.684 474.292 218.953 477.65 218.953H545.305C548.663 218.953 551.385 221.684 551.385 225.052V274.233C551.385 278.565 547.884 282.076 543.565 282.076Z" fill="#768FDB"/>
<path d="M554.711 282.837H497.644C493.75 282.837 490.594 279.671 490.594 275.765V224.453C490.594 221.415 493.048 218.953 496.076 218.953H554.711V282.837Z" fill="#4364CC"/>
<path d="M298.085 78.7099H358.054C365.477 78.7099 371.495 84.7461 371.495 92.1921V120.234C371.495 127.68 365.477 133.716 358.054 133.716H357.609L362.422 149.891C362.634 150.602 361.815 151.17 361.226 150.72L339.007 133.716H298.085C290.662 133.716 284.645 127.68 284.645 120.234V92.1921C284.645 84.7461 290.662 78.7099 298.085 78.7099Z" fill="#E53A3A"/>
<path d="M358.021 102.257H300.446C296.771 102.257 293.793 99.269 293.793 95.5837C293.793 91.898 296.771 88.9102 300.446 88.9102H358.021C361.695 88.9102 364.674 91.898 364.674 95.5837C364.674 99.2688 361.695 102.257 358.021 102.257Z" fill="white"/>
<path d="M358.021 122.637H300.446C296.771 122.637 293.793 119.649 293.793 115.964C293.793 112.278 296.771 109.29 300.446 109.29H358.021C361.695 109.29 364.674 112.278 364.674 115.964C364.674 119.649 361.695 122.637 358.021 122.637Z" fill="white"/>
<path d="M562.951 82.6061H507.515C500.653 82.6061 495.09 88.1861 495.09 95.0694V120.992C495.09 127.875 500.653 133.455 507.515 133.455H507.926L503.476 148.407C503.28 149.064 504.038 149.589 504.582 149.173L525.122 133.455H562.95C569.812 133.455 575.375 127.875 575.375 120.992V95.0694C575.376 88.1861 569.813 82.6061 562.951 82.6061Z" fill="#95ADF5"/>
<path d="M562.482 104.515H506.665C503.896 104.515 501.652 102.264 501.652 99.4873V98.23C501.652 95.4529 503.896 93.202 506.665 93.202H562.482C565.25 93.202 567.494 95.4529 567.494 98.23V99.4873C567.494 102.264 565.25 104.515 562.482 104.515Z" fill="white"/>
<path d="M535.234 121.62H509.096C505.982 121.62 503.457 119.088 503.457 115.964C503.457 112.839 505.982 110.307 509.096 110.307H535.234C538.348 110.307 540.873 112.839 540.873 115.964C540.873 119.088 538.348 121.62 535.234 121.62Z" fill="white"/>
<path d="M407.497 0.565613H352.061C345.199 0.565613 339.637 6.14534 339.637 13.0287V38.9513C339.637 45.8343 345.199 51.4142 352.061 51.4142H352.473L348.023 66.3662C347.827 67.0237 348.585 67.5488 349.129 67.1323L369.669 51.4142H407.497C414.359 51.4142 419.922 45.8343 419.922 38.9513V13.0287C419.922 6.14553 414.359 0.565613 407.497 0.565613Z" fill="#95ADF5"/>
<path d="M389.683 22.4748H351.838C348.724 22.4748 346.199 19.9421 346.199 16.8183C346.199 13.694 348.724 11.1615 351.838 11.1615H389.683C392.797 11.1615 395.322 13.6942 395.322 16.8183C395.322 19.9421 392.797 22.4748 389.683 22.4748Z" fill="white"/>
<path d="M408.631 39.5799H353.647C350.532 39.5799 348.008 37.0474 348.008 33.9233C348.008 30.799 350.533 28.2665 353.647 28.2665H408.631C411.745 28.2665 414.27 30.799 414.27 33.9233C414.27 37.0476 411.745 39.5799 408.631 39.5799Z" fill="white"/>
<path d="M254.014 111.374C255.798 110.022 257.939 109.346 260.437 109.346C265.83 109.346 268.685 112.289 268.685 116.426C268.685 118.813 267.536 121.239 265.196 123.665C262.222 126.808 260.081 128.359 258.733 128.359C257.424 128.359 256.472 127.325 256.472 126.092C256.472 124.978 257.503 123.864 259.288 122.234C259.407 122.114 259.526 121.995 259.605 121.955C261.627 120.086 262.262 119.052 262.262 117.779C262.262 116.188 261.191 115.313 259.645 115.313C258.931 115.313 258.098 115.472 257.107 115.79C256.115 116.108 255.401 116.267 254.965 116.267C253.855 116.267 252.586 115.313 252.586 113.722C252.586 112.886 253.062 112.09 254.014 111.374ZM259.446 137.905C257.027 137.905 255.402 136.076 255.402 133.848C255.402 131.939 257.027 130.109 259.446 130.109C261.548 130.109 263.174 131.939 263.174 133.848C263.174 136.036 261.627 137.905 259.446 137.905Z" fill="white"/>
<path d="M477.142 69.7693C469.934 69.7693 464.07 63.8871 464.07 56.6572C464.07 49.4273 469.934 43.5452 477.142 43.5452C484.349 43.5452 490.213 49.4273 490.213 56.6572C490.213 63.8871 484.349 69.7693 477.142 69.7693ZM477.142 47.1569C471.919 47.1569 467.671 51.4186 467.671 56.6574C467.671 61.896 471.919 66.1579 477.142 66.1579C482.364 66.1579 486.613 61.8962 486.613 56.6574C486.613 51.4184 482.364 47.1569 477.142 47.1569Z" fill="white"/>
<path d="M213.054 54.4515C208.314 54.4515 204.457 50.5831 204.457 45.8283C204.457 41.0735 208.314 37.2048 213.054 37.2048C217.794 37.2048 221.65 41.0735 221.65 45.8283C221.65 50.5829 217.794 54.4515 213.054 54.4515ZM213.054 39.5799C209.619 39.5799 206.825 42.3827 206.825 45.8281C206.825 49.2734 209.619 52.0763 213.054 52.0763C216.488 52.0763 219.283 49.2734 219.283 45.8281C219.283 42.3829 216.488 39.5799 213.054 39.5799Z" fill="white"/>
<path d="M499.412 27.3283C499.412 32.4233 495.295 36.5531 490.216 36.5531C485.137 36.5531 481.02 32.4231 481.02 27.3283C481.02 22.2339 485.137 18.1039 490.216 18.1039C495.295 18.1039 499.412 22.2339 499.412 27.3283Z" fill="white"/>
<path d="M169.701 7.59343C169.701 12.688 165.584 16.8182 160.505 16.8182C155.426 16.8182 151.309 12.688 151.309 7.59343C151.309 2.49884 155.426 -1.63132 160.505 -1.63132C165.584 -1.63132 169.701 2.49884 169.701 7.59343Z" fill="white"/>
<path d="M116.067 96.7315C113.025 99.783 108.093 99.783 105.051 96.7315C102.009 93.6802 102.009 88.7327 105.051 85.6814C108.093 82.6299 113.025 82.6299 116.067 85.6814C119.109 88.7329 119.109 93.6802 116.067 96.7315Z" fill="white"/>
<path d="M102.311 144.443H102.317L107.477 144.462L108.646 156.687L102.622 159.877L96.1992 156.723L97.2373 144.462L102.311 144.443Z" fill="#FFB555"/>
<path d="M86.941 137.528C90.4739 146.383 98.9582 151.306 105.892 148.522C112.825 145.739 115.582 136.304 112.049 127.449C108.517 118.594 100.032 113.672 93.0985 116.455C86.165 119.238 83.4083 128.673 86.941 137.528Z" fill="#FFB555"/>
<path d="M109.037 130.355C109.447 130.946 110.256 131.092 110.845 130.681C111.434 130.27 111.579 129.458 111.17 128.868C110.76 128.277 109.951 128.131 109.362 128.542C108.773 128.953 108.628 129.764 109.037 130.355Z" fill="#011B30"/>
<path d="M99.3105 134.338C99.754 134.977 100.63 135.135 101.268 134.691C101.905 134.246 102.062 133.367 101.619 132.727C101.176 132.088 100.3 131.93 99.6621 132.375C99.0244 132.82 98.867 133.698 99.3105 134.338Z" fill="#011B30"/>
<path d="M107.066 132.434C108.822 133.823 111.018 135.498 111.018 135.498C111.018 135.498 111.04 137.621 108.567 138.542C109.462 137.727 110.247 136.644 109.316 135.393C108.385 134.141 107.066 132.434 107.066 132.434Z" fill="#FF9C1C"/>
<path d="M96.7463 133.49C96.6965 133.49 96.6456 133.484 96.5954 133.472C96.2472 133.388 96.0326 133.038 96.1154 132.689C96.342 131.735 97.293 129.93 99.2696 129.92C99.6303 129.924 99.919 130.208 99.9207 130.567C99.9224 130.926 99.6338 131.219 99.2757 131.22C97.8123 131.227 97.3801 132.973 97.376 132.991C97.305 133.289 97.0394 133.49 96.7463 133.49Z" fill="#1D3C55"/>
<path d="M107.688 127.6C107.595 127.6 107.501 127.575 107.416 127.525C107.158 127.374 107.072 127.042 107.223 126.784C107.246 126.743 107.814 125.79 108.887 125.591C109.619 125.455 110.377 125.696 111.137 126.307C111.37 126.493 111.408 126.834 111.222 127.068C111.035 127.301 110.696 127.34 110.463 127.153C109.958 126.747 109.493 126.58 109.084 126.656C108.501 126.765 108.158 127.326 108.155 127.332C108.054 127.504 107.873 127.6 107.688 127.6Z" fill="#1D3C55"/>
<path d="M79.1322 134.017C76.9216 125.248 84.2958 118.393 84.2958 118.393C84.2958 118.393 83.3396 118.297 82.3182 117.859C80.9436 117.27 81.3942 115.207 82.8892 115.225C84.6996 115.248 86.8576 114.916 88.4437 113.723C98.4352 106.206 106.558 110.238 106.558 114.402C106.558 115.884 115.7 116.865 112.373 128.308C112.57 127.632 108.763 120.772 106.6 120.364C104.429 119.953 106.39 122.855 101.868 123.478C97.3063 124.106 93.9519 122.995 91.1653 125.576C85.9885 130.914 91.0594 143.754 91.3907 144.443C90.6305 142.862 81.5871 143.754 79.1322 134.017Z" fill="#1D3C55"/>
<path d="M90.485 135.644C92.4344 136.743 93.2882 138.93 92.3922 140.53C91.4959 142.131 89.1892 142.538 87.24 141.439C85.2903 140.341 84.4365 138.153 85.3326 136.553C86.2284 134.953 88.5355 134.546 90.485 135.644Z" fill="#FFB555"/>
<path d="M90.1825 140.438C90.2426 140.396 90.2942 140.339 90.3315 140.27C90.8675 139.274 90.7796 138.26 90.0965 137.557C89.3976 136.836 88.2685 136.629 87.4128 137.063C87.1716 137.186 87.0754 137.48 87.1974 137.722C87.3193 137.964 87.6136 138.06 87.8543 137.938C88.3234 137.7 89.0006 137.833 89.3962 138.241C89.7766 138.632 89.8032 139.187 89.4713 139.804C89.343 140.042 89.4317 140.339 89.6694 140.468C89.8377 140.559 90.0358 140.541 90.1825 140.438Z" fill="#FF9C1C"/>
<path d="M105.399 143.081C104.65 142.901 103.869 142.595 103.061 142.161C102.85 142.048 102.771 141.786 102.883 141.574C102.995 141.364 103.257 141.284 103.468 141.397C105.261 142.358 106.868 142.632 108.246 142.21C109.949 141.689 110.726 140.25 110.734 140.236C110.845 140.025 111.106 139.944 111.317 140.055C111.528 140.166 111.609 140.426 111.499 140.638C111.462 140.71 110.562 142.4 108.514 143.034C107.552 143.332 106.51 143.347 105.399 143.081Z" fill="#FF9C1C"/>
<path d="M111.743 304.376C116.305 310.691 127.509 306.816 127.138 315.356C110.1 315.247 103.02 315.356 103.02 315.356C103.042 313.395 103.379 308.739 103.772 306.917L111.743 304.376Z" fill="#011B30"/>
<path d="M84.8702 304.376C89.4324 310.691 100.636 306.816 100.266 315.356C83.2274 315.247 76.1465 315.356 76.1465 315.356C76.169 313.395 76.5058 308.739 76.8988 306.917L84.8702 304.376Z" fill="#011B30"/>
<path d="M119.5 207.843C119.5 207.843 124.441 249.772 123.318 258.77C122.194 267.767 116.04 277.843 116.491 307.604C110.937 308.999 102.89 307.604 102.89 307.604C102.89 307.604 101.697 273.953 107.568 258.923C105.181 244.323 97.5195 210.883 97.5195 210.883L119.5 207.843Z" fill="#1D3C55"/>
<path d="M109.12 209.084C109.12 209.084 103.534 254.518 100.8 263.136C98.0654 271.754 93.9137 278.118 88.9632 307.435C83.2556 307.722 76.7598 308.358 76.7598 308.358C76.7598 308.358 77.5303 271.17 86.4197 262.713C86.7208 247.908 84.9824 209.376 84.9824 209.376L109.12 209.084Z" fill="#1D3C55"/>
<path d="M82.207 155.961C82.207 155.961 93.3791 155.586 96.5215 155.782C103.08 161.72 108.654 155.675 108.654 155.675C112.18 154.89 120.508 154.89 120.508 154.89C121.563 169.004 123.31 214.139 123.31 214.139C123.31 214.139 112.614 216.952 102.496 217.025C92.3777 216.959 78.7363 214.609 78.7363 214.609C78.7363 214.609 80.7233 194.768 81.1727 187.435C81.0267 179.216 82.207 166.794 82.207 155.961Z" fill="#3F964F"/>
<path d="M162.193 162.014C162.024 161.164 161.662 160.406 161.178 159.748C157.453 152.883 146.924 155.543 131.725 158.208C129.184 158.654 130.038 155.382 129.626 148.658C129.358 144.284 125.311 138.294 120.689 139.218C113.07 140.74 121.592 145.278 117.801 161.468C115.776 170.118 106.847 167.283 108.429 175.249L112.029 193.384C112.645 196.485 113.542 199.405 118.006 199.023C122.335 198.653 121.981 201.856 128.088 200.636L158.656 194.529C161.77 193.907 163.8 190.87 163.182 187.761C162.926 186.472 162.241 185.388 161.322 184.583C162.858 183.272 163.682 181.211 163.262 179.097C163.007 177.811 162.323 176.727 161.406 175.923C162.948 174.613 163.774 172.549 163.354 170.431C163.049 168.893 162.148 167.624 160.941 166.804C162.018 165.514 162.544 163.784 162.193 162.014Z" fill="#F9F93A"/>
<path d="M143.1 171.693L157.676 168.781C159.658 168.385 161.308 166.954 161.983 165.048C162.26 164.263 161.847 163.401 161.06 163.123C160.274 162.846 159.41 163.263 159.131 164.049C158.813 164.955 158.026 165.633 157.086 165.82L142.161 168.802C140.682 169.098 139.241 168.137 138.948 166.659C138.655 165.182 139.619 163.741 141.098 163.446L151.071 161.453C151.889 161.29 152.422 160.494 152.259 159.677C152.097 158.86 151.301 158.329 150.483 158.493L140.508 160.485C137.395 161.107 135.364 164.142 135.982 167.252C136.326 168.986 137.435 170.36 138.878 171.148C138.039 172.38 137.672 173.931 137.984 175.501C138.329 177.24 139.445 178.618 140.893 179.403C140.061 180.632 139.7 182.176 140.011 183.742C140.387 185.637 141.666 187.119 143.309 187.856C142.619 189.029 142.321 190.438 142.606 191.872C143.224 194.982 146.259 197.006 149.372 196.383L158.663 194.527C160.645 194.132 162.296 192.702 162.971 190.796C163.25 190.011 162.838 189.148 162.052 188.871C161.265 188.597 160.4 189.007 160.123 189.792C159.801 190.699 159.015 191.379 158.075 191.567L148.784 193.423C147.305 193.718 145.864 192.757 145.571 191.28C145.278 189.803 146.242 188.362 147.721 188.066L158.743 185.864C160.725 185.468 162.378 184.037 163.051 182.131C163.33 181.344 162.917 180.482 162.132 180.206C161.337 179.923 160.479 180.343 160.203 181.128C159.877 182.05 159.11 182.713 158.155 182.904L146.19 185.294C144.711 185.59 143.269 184.627 142.976 183.15C142.683 181.673 143.647 180.232 145.126 179.936L158.833 177.198C160.815 176.802 162.467 175.373 163.141 173.467C163.42 172.681 163.008 171.819 162.222 171.541C161.433 171.266 160.57 171.678 160.293 172.463C159.967 173.383 159.2 174.046 158.245 174.237L144.164 177.05C142.685 177.346 141.243 176.385 140.951 174.908C140.657 173.432 141.619 171.989 143.1 171.693Z" fill="#F7D33C"/>
<path d="M114.06 201.235L104.542 203.136C103.224 203.4 101.943 202.541 101.68 201.218L96.0474 172.848C95.7847 171.525 96.6404 170.24 97.9589 169.976L107.476 168.075C108.795 167.812 110.076 168.67 110.339 169.993L115.972 198.363C116.234 199.686 115.378 200.972 114.06 201.235Z" fill="#7F99EB"/>
<path d="M122.348 204.647C120.324 204.486 118.078 203.498 116.541 204.778L113.617 200.257C117.786 195.269 126.046 194.543 126.877 194.586C129.037 194.699 130.058 194.618 130.185 194.928C130.312 195.238 130.567 197.217 127.419 197.153C123.469 197.073 125.611 200.551 133.907 198.698C135.985 198.234 139.563 199.722 138.017 200.979C136.314 202.364 131.555 205.377 122.348 204.647Z" fill="#FFB555"/>
<path d="M80.7903 195.416C77.7538 196.7 76.6379 206.646 77.5608 207.339C91.2481 211.735 117.13 204.612 117.13 204.612L119.047 199.579C119.047 199.579 98.6464 199.123 80.7903 195.416Z" fill="#FFB555"/>
<path d="M74.0664 166.378C72.6627 175.378 75.2828 204.966 77.5611 207.339L87.7057 199.321C87.7057 199.321 88.7366 169.352 88.7249 164.26C88.7249 155.443 76.3302 151.68 74.0664 166.378Z" fill="#E28000"/>
<path d="M156.8 158.1C156.676 157.965 156.587 157.811 156.513 157.649C156.49 157.671 156.47 157.693 156.447 157.715C155.093 158.965 153.271 159.188 152.378 158.214C152.231 158.054 152.122 157.87 152.042 157.671C150.966 158.135 149.855 158.052 149.217 157.357C148.964 157.08 148.816 156.736 148.76 156.358C147.715 156.891 146.513 156.794 145.799 156.015C144.905 155.04 145.118 153.385 146.273 152.318C147.429 151.251 149.09 151.176 149.984 152.151C150.21 152.397 150.365 152.688 150.452 153.001C151.745 152.049 153.312 151.948 154.119 152.83C154.266 152.989 154.375 153.173 154.455 153.372C155.531 152.908 156.642 152.991 157.281 153.687C157.516 153.943 157.661 154.258 157.726 154.605C158.632 154.089 159.707 154.152 160.335 154.837C161.09 155.66 160.91 157.058 159.934 157.959C158.958 158.86 157.555 158.924 156.8 158.1Z" fill="#FFB555"/>
<path d="M80.7903 195.416C77.7538 196.7 76.6379 206.646 77.5608 207.339C91.2481 211.735 115.699 205.031 115.699 205.031L113.943 198.028C113.943 198.028 98.6464 199.123 80.7903 195.416Z" fill="#0E6A41"/>
<path d="M73.8379 166.184C72.3465 175.383 73.5351 205.263 77.5586 207.339L87.7845 199.51C87.7845 199.51 88.9849 168.945 88.9958 163.756C89.0358 154.769 76.2437 151.162 73.8379 166.184Z" fill="#0E6A41"/>
</g>
<defs>
<clipPath id="clip0_2122_4044">
<rect width="592.098" height="318.634" fill="white" transform="translate(0 0.365967)"/>
</clipPath>
</defs>
</svg>
