<svg width="26" height="18" viewBox="0 0 26 18" fill="none" xmlns="http://www.w3.org/2000/svg">
<g id="flag-01.svg" clip-path="url(#clip0_193_1106)">
<path id="Vector" d="M0.0168457 14.5358H25.6169V15.8113H0.0168457V14.5358Z" fill="white"/>
<path id="Vector_2" d="M0.0168457 11.9854H25.6169V13.2608H0.0168457V11.9854Z" fill="white"/>
<path id="Vector_3" d="M0.0168457 9.43402H25.6169V10.7095H0.0168457V9.43402Z" fill="white"/>
<path id="Vector_4" d="M0.0168457 6.88849H25.6169V8.16393H0.0168457V6.88849Z" fill="white"/>
<path id="Vector_5" d="M0.0168457 4.3371H25.6169V5.61253H0.0168457V4.3371Z" fill="white"/>
<path id="Vector_6" d="M0.0168457 1.78668H25.6169V3.06212H0.0168457V1.78668Z" fill="white"/>
<path id="Vector_7" d="M0.0168457 15.8115H25.6169V17.0869H0.0168457V15.8115Z" fill="#BD3D44"/>
<path id="Vector_8" d="M0.0168457 13.2606H25.6169V14.536H0.0168457V13.2606Z" fill="#BD3D44"/>
<path id="Vector_9" d="M0.0168457 10.7097H25.6169V11.9852H0.0168457V10.7097Z" fill="#BD3D44"/>
<path id="Vector_10" d="M0.0168457 8.16318H25.6169V9.4386H0.0168457V8.16318Z" fill="#BD3D44"/>
<path id="Vector_11" d="M0.0168457 5.61276H25.6169V6.88819H0.0168457V5.61276Z" fill="#BD3D44"/>
<path id="Vector_12" d="M0.0168457 3.0614H25.6169V4.33683H0.0168457V3.0614Z" fill="#BD3D44"/>
<path id="Vector_13" d="M0.0168457 0.510986H25.6169V1.78641H0.0168457V0.510986Z" fill="#BD3D44"/>
<path id="Vector_14" d="M0.0168457 0.510986H10.8101V8.03558H0.0168457V0.510986Z" fill="#192F5D"/>
<path id="Vector_15" d="M0.766268 1.70398L1.02227 1.51655L1.27827 1.70398L1.18227 1.40227L1.43827 1.21941H1.12285L1.02227 0.917694L0.926268 1.21941H0.61084L0.86684 1.40227L0.766268 1.70398Z" fill="white"/>
<path id="Vector_16" d="M1.02227 2.40308L0.926268 2.7048H0.61084L0.86684 2.88765L0.766268 3.18937L1.02227 3.00194L1.27827 3.18937L1.18227 2.88765L1.43827 2.7048H1.12285L1.02227 2.40308Z" fill="white"/>
<path id="Vector_17" d="M1.02227 3.88895L0.926268 4.19067H0.61084L0.86684 4.37352L0.766268 4.67524L1.02227 4.48781L1.27827 4.67524L1.18227 4.37352L1.43827 4.19067H1.12285L1.02227 3.88895Z" fill="white"/>
<path id="Vector_18" d="M1.02227 5.37482L0.926268 5.67196H0.61084L0.86684 5.85939L0.766268 6.1611L1.02227 5.97367L1.27827 6.1611L1.18227 5.85939L1.43827 5.67196H1.12285L1.02227 5.37482Z" fill="white"/>
<path id="Vector_19" d="M1.12285 7.15734L1.02227 6.8602L0.926268 7.15734H0.61084L0.86684 7.34477L0.766268 7.64649L1.02227 7.45906L1.27827 7.64649L1.18227 7.34477L1.43827 7.15734H1.12285Z" fill="white"/>
<path id="Vector_20" d="M2.4349 1.70398L2.6909 1.51655L2.94233 1.70398L2.84633 1.40227L3.10233 1.21941H2.7869L2.6909 0.917694L2.59033 1.21941H2.2749L2.5309 1.40227L2.4349 1.70398Z" fill="white"/>
<path id="Vector_21" d="M2.6909 2.40308L2.59033 2.7048H2.2749L2.5309 2.88765L2.4349 3.18937L2.6909 3.00194L2.94233 3.18937L2.84633 2.88765L3.10233 2.7048H2.7869L2.6909 2.40308Z" fill="white"/>
<path id="Vector_22" d="M2.6909 3.88895L2.59033 4.19067H2.2749L2.5309 4.37352L2.4349 4.67524L2.6909 4.48781L2.94233 4.67524L2.84633 4.37352L3.10233 4.19067H2.7869L2.6909 3.88895Z" fill="white"/>
<path id="Vector_23" d="M2.6909 5.37482L2.59033 5.67196H2.2749L2.5309 5.85939L2.4349 6.1611L2.6909 5.97367L2.94233 6.1611L2.84633 5.85939L3.10233 5.67196H2.7869L2.6909 5.37482Z" fill="white"/>
<path id="Vector_24" d="M2.7869 7.15734L2.6909 6.8602L2.59033 7.15734H2.2749L2.5309 7.34477L2.4349 7.64649L2.6909 7.45906L2.94233 7.64649L2.84633 7.34477L3.10233 7.15734H2.7869Z" fill="white"/>
<path id="Vector_25" d="M4.09896 1.70398L4.35497 1.51655L4.60639 1.70398L4.51039 1.40227L4.76639 1.21941H4.45096L4.35497 0.917694L4.25439 1.21941H3.93896L4.19496 1.40227L4.09896 1.70398Z" fill="white"/>
<path id="Vector_26" d="M4.35497 2.40308L4.25439 2.7048H3.93896L4.19496 2.88765L4.09896 3.18937L4.35497 3.00194L4.60639 3.18937L4.51039 2.88765L4.76639 2.7048H4.45096L4.35497 2.40308Z" fill="white"/>
<path id="Vector_27" d="M4.35497 3.88895L4.25439 4.19067H3.93896L4.19496 4.37352L4.09896 4.67524L4.35497 4.48781L4.60639 4.67524L4.51039 4.37352L4.76639 4.19067H4.45096L4.35497 3.88895Z" fill="white"/>
<path id="Vector_28" d="M4.35497 5.37482L4.25439 5.67196H3.93896L4.19496 5.85939L4.09896 6.1611L4.35497 5.97367L4.60639 6.1611L4.51039 5.85939L4.76639 5.67196H4.45096L4.35497 5.37482Z" fill="white"/>
<path id="Vector_29" d="M4.45096 7.15734L4.35497 6.8602L4.25439 7.15734H3.93896L4.19496 7.34477L4.09896 7.64649L4.35497 7.45906L4.60639 7.64649L4.51039 7.34477L4.76639 7.15734H4.45096Z" fill="white"/>
<path id="Vector_30" d="M5.76285 1.70398L6.01885 1.51655L6.27486 1.70398L6.17429 1.40227L6.43029 1.21941H6.11485L6.01885 0.917694L5.91828 1.21941H5.60742L5.85886 1.40227L5.76285 1.70398Z" fill="white"/>
<path id="Vector_31" d="M6.01885 2.40308L5.91828 2.7048H5.60742L5.85886 2.88765L5.76285 3.18937L6.01885 3.00194L6.27486 3.18937L6.17429 2.88765L6.43029 2.7048H6.11485L6.01885 2.40308Z" fill="white"/>
<path id="Vector_32" d="M6.01885 3.88895L5.91828 4.19067H5.60742L5.85886 4.37352L5.76285 4.67524L6.01885 4.48781L6.27486 4.67524L6.17429 4.37352L6.43029 4.19067H6.11485L6.01885 3.88895Z" fill="white"/>
<path id="Vector_33" d="M6.01885 5.37482L5.91828 5.67196H5.60742L5.85886 5.85939L5.76285 6.1611L6.01885 5.97367L6.27486 6.1611L6.17429 5.85939L6.43029 5.67196H6.11485L6.01885 5.37482Z" fill="white"/>
<path id="Vector_34" d="M6.11485 7.15734L6.01885 6.8602L5.91828 7.15734H5.60742L5.85886 7.34477L5.76285 7.64649L6.01885 7.45906L6.27486 7.64649L6.17429 7.34477L6.43029 7.15734H6.11485Z" fill="white"/>
<path id="Vector_35" d="M7.42691 1.70398L7.68291 1.51655L7.93891 1.70398L7.83834 1.40227L8.09434 1.21941H7.77892L7.68291 0.917694L7.58692 1.21941H7.27148L7.52748 1.40227L7.42691 1.70398Z" fill="white"/>
<path id="Vector_36" d="M7.68291 2.40308L7.58692 2.7048H7.27148L7.52748 2.88765L7.42691 3.18937L7.68291 3.00194L7.93891 3.18937L7.83834 2.88765L8.09434 2.7048H7.77892L7.68291 2.40308Z" fill="white"/>
<path id="Vector_37" d="M7.68291 3.88895L7.58692 4.19067H7.27148L7.52748 4.37352L7.42691 4.67524L7.68291 4.48781L7.93891 4.67524L7.83834 4.37352L8.09434 4.19067H7.77892L7.68291 3.88895Z" fill="white"/>
<path id="Vector_38" d="M7.68291 5.37482L7.58692 5.67196H7.27148L7.52748 5.85939L7.42691 6.1611L7.68291 5.97367L7.93891 6.1611L7.83834 5.85939L8.09434 5.67196H7.77892L7.68291 5.37482Z" fill="white"/>
<path id="Vector_39" d="M7.77892 7.15734L7.68291 6.8602L7.58692 7.15734H7.27148L7.52748 7.34477L7.42691 7.64649L7.68291 7.45906L7.93891 7.64649L7.83834 7.34477L8.09434 7.15734H7.77892Z" fill="white"/>
<path id="Vector_40" d="M9.09555 1.70398L9.34697 1.51655L9.60297 1.70398L9.50698 1.40227L9.76297 1.21941H9.44754L9.34697 0.917694L9.25098 1.21941H8.93555L9.19155 1.40227L9.09555 1.70398Z" fill="white"/>
<path id="Vector_41" d="M9.34697 2.40308L9.25098 2.7048H8.93555L9.19155 2.88765L9.09555 3.18937L9.34697 3.00194L9.60297 3.18937L9.50698 2.88765L9.76297 2.7048H9.44754L9.34697 2.40308Z" fill="white"/>
<path id="Vector_42" d="M9.34697 3.88895L9.25098 4.19067H8.93555L9.19155 4.37352L9.09555 4.67524L9.34697 4.48781L9.60297 4.67524L9.50698 4.37352L9.76297 4.19067H9.44754L9.34697 3.88895Z" fill="white"/>
<path id="Vector_43" d="M9.34697 5.37482L9.25098 5.67196H8.93555L9.19155 5.85939L9.09555 6.1611L9.34697 5.97367L9.60297 6.1611L9.50698 5.85939L9.76297 5.67196H9.44754L9.34697 5.37482Z" fill="white"/>
<path id="Vector_44" d="M9.44754 7.15734L9.34697 6.8602L9.25098 7.15734H8.93555L9.19155 7.34477L9.09555 7.64649L9.34697 7.45906L9.60297 7.64649L9.50698 7.34477L9.76297 7.15734H9.44754Z" fill="white"/>
<path id="Vector_45" d="M1.60312 2.52228L1.85454 2.33486L2.11055 2.52228L2.01454 2.22056L2.27054 2.03314H1.95512L1.85454 1.73599L1.75855 2.03314H1.44312L1.69911 2.22056L1.60312 2.52228Z" fill="white"/>
<path id="Vector_46" d="M1.85454 3.22137L1.75855 3.51852H1.44312L1.69911 3.70595L1.60312 4.00309L1.85454 3.82023L2.11055 4.00309L2.01454 3.70595L2.27054 3.51852H1.95512L1.85454 3.22137Z" fill="white"/>
<path id="Vector_47" d="M1.85454 4.70673L1.75855 5.00387H1.44312L1.69911 5.1913L1.60312 5.48844L1.85454 5.30559L2.11055 5.48844L2.01454 5.1913L2.27054 5.00387H1.95512L1.85454 4.70673Z" fill="white"/>
<path id="Vector_48" d="M1.85454 6.19312L1.75855 6.49026H1.44312L1.69911 6.67769L1.60312 6.97483L1.85454 6.79198L2.11055 6.97483L2.01454 6.67769L2.27054 6.49026H1.95512L1.85454 6.19312Z" fill="white"/>
<path id="Vector_49" d="M3.26718 2.52228L3.52318 2.33486L3.7746 2.52228L3.67861 2.22056L3.93461 2.03314H3.61917L3.52318 1.73599L3.42261 2.03314H3.10718L3.36318 2.22056L3.26718 2.52228Z" fill="white"/>
<path id="Vector_50" d="M3.52318 3.22137L3.42261 3.51852H3.10718L3.36318 3.70595L3.26718 4.00309L3.52318 3.82023L3.7746 4.00309L3.67861 3.70595L3.93461 3.51852H3.61917L3.52318 3.22137Z" fill="white"/>
<path id="Vector_51" d="M3.52318 4.70673L3.42261 5.00387H3.10718L3.36318 5.1913L3.26718 5.48844L3.52318 5.30559L3.7746 5.48844L3.67861 5.1913L3.93461 5.00387H3.61917L3.52318 4.70673Z" fill="white"/>
<path id="Vector_52" d="M3.52318 6.19312L3.42261 6.49026H3.10718L3.36318 6.67769L3.26718 6.97483L3.52318 6.79198L3.7746 6.97483L3.67861 6.67769L3.93461 6.49026H3.61917L3.52318 6.19312Z" fill="white"/>
<path id="Vector_53" d="M4.93099 2.52228L5.187 2.33486L5.443 2.52228L5.34243 2.22056L5.59842 2.03314H5.28299L5.187 1.73599L5.09099 2.03314H4.771L5.02699 2.22056L4.93099 2.52228Z" fill="white"/>
<path id="Vector_54" d="M5.187 3.22137L5.09099 3.51852H4.771L5.02699 3.70595L4.93099 4.00309L5.187 3.82023L5.443 4.00309L5.34243 3.70595L5.59842 3.51852H5.28299L5.187 3.22137Z" fill="white"/>
<path id="Vector_55" d="M5.187 4.70673L5.09099 5.00387H4.771L5.02699 5.1913L4.93099 5.48844L5.187 5.30559L5.443 5.48844L5.34243 5.1913L5.59842 5.00387H5.28299L5.187 4.70673Z" fill="white"/>
<path id="Vector_56" d="M5.187 6.19312L5.09099 6.49026H4.771L5.02699 6.67769L4.93099 6.97483L5.187 6.79198L5.443 6.97483L5.34243 6.67769L5.59842 6.49026H5.28299L5.187 6.19312Z" fill="white"/>
<path id="Vector_57" d="M6.59513 2.52228L6.85113 2.33486L7.10713 2.52228L7.00656 2.22056L7.26256 2.03314H6.94713L6.85113 1.73599L6.75513 2.03314H6.4397L6.69571 2.22056L6.59513 2.52228Z" fill="white"/>
<path id="Vector_58" d="M6.85113 3.22137L6.75513 3.51852H6.4397L6.69571 3.70595L6.59513 4.00309L6.85113 3.82023L7.10713 4.00309L7.00656 3.70595L7.26256 3.51852H6.94713L6.85113 3.22137Z" fill="white"/>
<path id="Vector_59" d="M6.85113 4.70673L6.75513 5.00387H6.4397L6.69571 5.1913L6.59513 5.48844L6.85113 5.30559L7.10713 5.48844L7.00656 5.1913L7.26256 5.00387H6.94713L6.85113 4.70673Z" fill="white"/>
<path id="Vector_60" d="M6.85113 6.19312L6.75513 6.49026H6.4397L6.69571 6.67769L6.59513 6.97483L6.85113 6.79198L7.10713 6.97483L7.00656 6.67769L7.26256 6.49026H6.94713L6.85113 6.19312Z" fill="white"/>
<path id="Vector_61" d="M8.25919 2.52228L8.51519 2.33486L8.77119 2.52228L8.67519 2.22056L8.92661 2.03314H8.61119L8.51519 1.73599L8.41919 2.03314H8.10376L8.35976 2.22056L8.25919 2.52228Z" fill="white"/>
<path id="Vector_62" d="M8.51519 3.22137L8.41919 3.51852H8.10376L8.35976 3.70595L8.25919 4.00309L8.51519 3.82023L8.77119 4.00309L8.67519 3.70595L8.92661 3.51852H8.61119L8.51519 3.22137Z" fill="white"/>
<path id="Vector_63" d="M8.51519 4.70673L8.41919 5.00387H8.10376L8.35976 5.1913L8.25919 5.48844L8.51519 5.30559L8.77119 5.48844L8.67519 5.1913L8.92661 5.00387H8.61119L8.51519 4.70673Z" fill="white"/>
<path id="Vector_64" d="M8.51519 6.19312L8.41919 6.49026H8.10376L8.35976 6.67769L8.25919 6.97483L8.51519 6.79198L8.77119 6.97483L8.67519 6.67769L8.92661 6.49026H8.61119L8.51519 6.19312Z" fill="white"/>
</g>
<defs>
<clipPath id="clip0_193_1106">
<rect width="25.9664" height="16.978" fill="white" transform="translate(0.0168457 0.510986)"/>
</clipPath>
</defs>
</svg>
