<svg width="48" height="48" viewBox="0 0 48 48" fill="none" xmlns="http://www.w3.org/2000/svg">
<g id="inbox-unread">
<g id="elements">
<path id="Rectangle 116" d="M42 24V25C42 33.9567 42 38.435 39.2175 41.2175C36.435 44 31.9567 44 23 44C14.0433 44 9.56497 44 6.78249 41.2175C4 38.435 4 33.9567 4 25C4 16.0433 4 11.565 6.78249 8.78249C9.56497 6 14.0433 6 23 6H24" stroke="#768998" stroke-width="3" stroke-linecap="round" stroke-linejoin="round"/>
<path id="Ellipse 1200" d="M44 11C44 14.866 40.866 18 37 18C33.134 18 30 14.866 30 11C30 7.13401 33.134 4 37 4C40.866 4 44 7.13401 44 11Z" stroke="#768998" stroke-width="3"/>
<path id="Vector" d="M42 28H32.1487C30.4645 28 29.1412 29.4072 28.3989 30.8945C27.5925 32.5102 25.9777 34 23 34C20.0223 34 18.4075 32.5102 17.6011 30.8945C16.8588 29.4072 15.5355 28 13.8513 28H4" stroke="#768998" stroke-width="3" stroke-linejoin="round"/>
</g>
</g>
</svg>
