<svg width="25" height="24" viewBox="0 0 25 24" fill="none" xmlns="http://www.w3.org/2000/svg">
<g id="link-square-01">
<g id="elements">
<path id="Rectangle 1702" d="M11.6002 3C7.95057 3.00657 6.03942 3.09617 4.81806 4.31754C3.5 5.63559 3.5 7.75698 3.5 11.9997C3.5 16.2425 3.5 18.3639 4.81806 19.6819C6.13611 21 8.2575 21 12.5003 21C16.743 21 18.8644 21 20.1825 19.6819C21.4038 18.4606 21.4934 16.5494 21.5 12.8998" stroke="#FAFBFB" stroke-width="1.5" stroke-linecap="round" stroke-linejoin="round"/>
<path id="Vector" d="M21.5705 4.03235C21.8645 3.74058 21.8663 3.26571 21.5745 2.9717C21.2827 2.67769 20.8079 2.67588 20.5139 2.96765L21.5705 4.03235ZM14.9717 8.46765C14.6777 8.75942 14.6759 9.23429 14.9676 9.5283C15.2594 9.82231 15.7343 9.82412 16.0283 9.53235L14.9717 8.46765ZM20.5285 3.22706L20.3977 3.96557L20.5285 3.22706ZM16.4999 2.25C16.0857 2.25004 15.75 2.58585 15.75 3.00007C15.75 3.41428 16.0859 3.75004 16.5001 3.75L16.4999 2.25ZM20.75 8C20.75 8.41421 21.0858 8.75 21.5 8.75C21.9142 8.75 22.25 8.41421 22.25 8H20.75ZM21.2729 3.97175L22.0115 3.84109V3.84109L21.2729 3.97175ZM20.5139 2.96765L14.9717 8.46765L16.0283 9.53235L21.5705 4.03235L20.5139 2.96765ZM20.6593 2.48855C19.9584 2.36443 18.9015 2.30696 18.058 2.27871C17.6282 2.26432 17.2396 2.25715 16.9585 2.25357C16.8178 2.25179 16.7038 2.25089 16.6247 2.25045C16.5851 2.25022 16.5542 2.25011 16.5331 2.25006C16.5225 2.25003 16.5144 2.25001 16.5088 2.25001C16.5061 2.25 16.5039 2.25 16.5024 2.25C16.5017 2.25 16.5011 2.25 16.5007 2.25C16.5005 2.25 16.5003 2.25 16.5002 2.25C16.5001 2.25 16.5001 2.25 16.5 2.25C16.5 2.25 16.4999 2.25 16.5 3C16.5001 3.75 16.5 3.75 16.5 3.75C16.5 3.75 16.5 3.75 16.5001 3.75C16.5001 3.75 16.5002 3.75 16.5003 3.75C16.5006 3.75 16.501 3.75 16.5016 3.75C16.5027 3.75 16.5045 3.75 16.507 3.75001C16.5119 3.75001 16.5193 3.75002 16.5292 3.75005C16.5489 3.7501 16.5782 3.75021 16.6162 3.75042C16.6922 3.75085 16.8027 3.75171 16.9394 3.75345C17.2131 3.75694 17.591 3.76391 18.0078 3.77787C18.8577 3.80633 19.8151 3.86239 20.3977 3.96557L20.6593 2.48855ZM21.5 8C22.25 8 22.25 7.99996 22.25 7.99991C22.25 7.99988 22.25 7.99981 22.25 7.99975C22.25 7.99963 22.25 7.99946 22.25 7.99926C22.25 7.99884 22.25 7.99826 22.25 7.99752C22.25 7.99603 22.25 7.99388 22.25 7.99109C22.25 7.98552 22.25 7.97739 22.2499 7.96682C22.2499 7.9457 22.2498 7.91483 22.2495 7.87526C22.2491 7.79614 22.2482 7.68213 22.2464 7.54148C22.2428 7.2604 22.2356 6.87182 22.2212 6.44203C22.1929 5.59857 22.1355 4.54186 22.0115 3.84109L20.5344 4.1024C20.6375 4.68506 20.6936 5.64247 20.722 6.49229C20.736 6.90913 20.743 7.28697 20.7465 7.56066C20.7483 7.69739 20.7491 7.80784 20.7496 7.88384C20.7498 7.92183 20.7499 7.95119 20.7499 7.9709C20.75 7.98075 20.75 7.98819 20.75 7.99308C20.75 7.99553 20.75 7.99734 20.75 7.9985C20.75 7.99908 20.75 7.99949 20.75 7.99974C20.75 7.99987 20.75 7.99995 20.75 8C20.75 8.00002 20.75 8.00002 20.75 8.00003C20.75 8.00002 20.75 8 21.5 8ZM20.3977 3.96557C20.4482 3.97451 20.4756 3.99342 20.4911 4.00886C20.5065 4.02432 20.5255 4.05182 20.5344 4.1024L22.0115 3.84109C21.8874 3.13972 21.3609 2.6128 20.6593 2.48855L20.3977 3.96557Z" fill="#FAFBFB"/>
</g>
</g>
</svg>
