<svg width="20" height="20" viewBox="0 0 20 20" fill="none" xmlns="http://www.w3.org/2000/svg">
<g id="SVG">
<path id="Vector" d="M0 2.66441C0 2.0209 0.225232 1.49001 0.675676 1.07175C1.12612 0.653467 1.71172 0.444336 2.43243 0.444336C3.14029 0.444336 3.71299 0.650243 4.15058 1.0621C4.60102 1.48681 4.82625 2.0402 4.82625 2.72233C4.82625 3.34009 4.60747 3.85488 4.16988 4.26673C3.71944 4.69144 3.12741 4.9038 2.39382 4.9038H2.37452C1.66666 4.9038 1.09396 4.69144 0.656371 4.26673C0.218784 3.84202 0 3.30791 0 2.66441ZM0.250965 19.5563V6.66055H4.53668V19.5563H0.250965ZM6.9112 19.5563H11.1969V12.3555C11.1969 11.9051 11.2484 11.5576 11.3514 11.3131C11.5315 10.8755 11.805 10.5055 12.1718 10.203C12.5386 9.90057 12.9987 9.74936 13.5521 9.74936C14.9936 9.74936 15.7143 10.721 15.7143 12.6644V19.5563H20V12.1625C20 10.2577 19.5496 8.81306 18.6486 7.82851C17.7477 6.84395 16.5573 6.35167 15.0772 6.35167C13.417 6.35167 12.1236 7.06596 11.1969 8.49453V8.53314H11.1776L11.1969 8.49453V6.66055H6.9112C6.93693 7.07239 6.94981 8.35295 6.94981 10.5023C6.94981 12.6515 6.93693 15.6695 6.9112 19.5563Z" fill="white"/>
</g>
</svg>
