<svg width="128" height="50" viewBox="0 0 128 50" fill="none" xmlns="http://www.w3.org/2000/svg">
<g id="Logo">
<path id="Vector" d="M15.3033 30.32V16.7689H17.5178L24.8134 26.0511H24.2926V16.7689H27.0635V30.32H24.8691L17.5735 21.0178H18.0742V30.32H15.3033ZM29.0087 30.32L35.2449 16.7689H37.6508L43.887 30.32H40.8846L39.2688 26.5533L40.4618 27.38H32.4339L33.6269 26.5533L32.0289 30.32H29.0065H29.0087ZM36.42 19.9422L33.9563 25.8044L33.4355 25.0556H39.4602L38.9417 25.8044L36.4579 19.9422H36.42ZM49.0371 30.32L42.9344 16.7689H46.1304L50.8087 27.5889H49.8472L54.5255 16.7689H57.5857L51.483 30.32H49.0393H49.0371Z" fill="#03599F"/>
<path id="Vector_2" d="M59.384 30.32V16.7689H62.3686V27.8022H68.6448V30.32H59.3863H59.384ZM71.1887 30.32V16.7689H80.4874V19.0956H74.0375V22.2667H80.0623V24.6111H74.0375V27.9933H80.4874V30.32H71.1887ZM81.8294 30.32L88.0656 16.7689H90.4715L96.7077 30.32H93.7053L92.0895 26.5533L93.2825 27.38H85.2547L86.4476 26.5533L84.8496 30.32H81.8272H81.8294ZM89.2407 19.9422L86.777 25.8044L86.2584 25.0556H92.2832L91.7624 25.8044L89.2786 19.9422H89.2407ZM98.6529 30.32V16.7689H104.851C106.365 16.7689 107.533 17.1333 108.354 17.8644C109.176 18.5956 109.587 19.6133 109.587 20.92C109.587 21.7667 109.4 22.4956 109.029 23.1111C108.657 23.7267 108.118 24.2 107.411 24.5333C106.719 24.8667 105.864 25.0333 104.851 25.0333L105.005 24.7067H105.795C106.334 24.7067 106.803 24.84 107.199 25.1111C107.611 25.3667 107.963 25.7644 108.259 26.3022L110.453 30.32H107.161L104.813 25.9956C104.684 25.7644 104.537 25.5844 104.371 25.4578C104.204 25.3178 104.012 25.22 103.792 25.1689C103.587 25.1044 103.356 25.0733 103.1 25.0733H101.637V30.32H98.6529ZM101.637 22.92H104.313C105.107 22.92 105.706 22.76 106.102 22.44C106.514 22.12 106.719 21.64 106.719 20.9978C106.719 20.3556 106.514 19.8956 106.102 19.5756C105.704 19.2556 105.107 19.0956 104.313 19.0956H101.637V22.92ZM112.828 30.32V16.7689H115.042L122.338 26.0511H121.819V16.7689H124.59V30.32H122.396L115.1 21.0178H115.601V30.32H112.83H112.828Z" fill="#011B30"/>
<path id="Vector_3" d="M39.9966 15.0889L27.9359 3.04888C26.7608 1.87555 24.8557 1.87555 23.6828 3.04888L3.82133 22.8778C2.64842 24.0511 2.64842 25.9511 3.82133 27.1244L23.6828 46.9533C24.8557 48.1267 26.7608 48.1267 27.9359 46.9533L41.8016 33.1089" stroke="#03599F" stroke-width="2.5" stroke-linecap="round"/>
</g>
</svg>
