<svg width="20" height="20" viewBox="0 0 20 20" fill="none" xmlns="http://www.w3.org/2000/svg">
<g id="mail-01">
<g id="elements">
<path id="Vector 7163" d="M1.66699 5L7.42784 8.26414C9.55166 9.46751 10.449 9.46751 12.5728 8.26414L18.3337 5" stroke="#FF9C1C" stroke-width="1.3" stroke-linejoin="round"/>
<path id="Vector" d="M1.68013 11.2296C1.73461 13.7843 1.76185 15.0616 2.70446 16.0078C3.64706 16.9539 4.95894 16.9869 7.58268 17.0528C9.19975 17.0935 10.8009 17.0935 12.418 17.0528C15.0417 16.9869 16.3536 16.9539 17.2962 16.0078C18.2388 15.0616 18.266 13.7843 18.3205 11.2296C18.338 10.4082 18.338 9.59169 18.3205 8.77029C18.266 6.21568 18.2388 4.93837 17.2962 3.99218C16.3536 3.04599 15.0417 3.01302 12.418 2.9471C10.8009 2.90647 9.19975 2.90647 7.58268 2.94709C4.95893 3.01301 3.64706 3.04597 2.70445 3.99217C1.76184 4.93836 1.73461 6.21566 1.68013 8.77027C1.66261 9.59168 1.66261 10.4082 1.68013 11.2296Z" stroke="#FF9C1C" stroke-width="1.3" stroke-linejoin="round"/>
</g>
</g>
</svg>
