<svg width="20" height="20" viewBox="0 0 20 20" fill="none" xmlns="http://www.w3.org/2000/svg">
<g id="mail-open-01">
<g id="elements">
<path id="Vector 7163" d="M1.66602 15.8333L7.42687 11.9086C9.53157 10.4748 10.4671 10.4748 12.5718 11.9086L18.3327 15.8333" stroke="#1D3C55" stroke-width="1.5" stroke-linejoin="round"/>
<path id="Vector" d="M1.67928 12.1257C1.73423 14.6535 1.76171 15.9173 2.70444 16.8533C3.64717 17.7893 4.95921 17.8218 7.58328 17.8866C9.19878 17.9266 10.7999 17.9266 12.4154 17.8866C15.0395 17.8218 16.3515 17.7893 17.2943 16.8533C18.237 15.9173 18.2645 14.6535 18.3194 12.1257C18.3463 10.8873 18.3323 9.66111 18.2772 8.41001C18.243 7.63295 18.2259 7.24443 18.0289 6.89979C17.8318 6.55515 17.4921 6.33271 16.8127 5.88784L13.6787 3.83564C11.8945 2.66738 11.0025 2.08325 9.99935 2.08325C8.99622 2.08325 8.10416 2.66738 6.32004 3.83564L3.18599 5.88784C2.50659 6.33271 2.16689 6.55515 1.96984 6.89979C1.77278 7.24443 1.75568 7.63296 1.72148 8.41001C1.66642 9.66111 1.65235 10.8873 1.67928 12.1257Z" stroke="#1D3C55" stroke-width="1.5" stroke-linejoin="round"/>
<path id="Vector_2" d="M18.3327 7.9165L14.7782 10.5059C13.9164 11.1337 13.208 11.6665 12.0827 11.6665M1.66602 7.9165L5.2205 10.5059C6.08231 11.1337 6.79069 11.6665 7.91602 11.6665" stroke="#1D3C55" stroke-width="1.5" stroke-linejoin="round"/>
</g>
</g>
</svg>
