<svg width="20" height="20" viewBox="0 0 20 20" fill="none" xmlns="http://www.w3.org/2000/svg">
<g clip-path="url(#clip0_1952_7545)">
<path d="M10.792 18.3334C12.9959 18.3334 14.0978 18.3334 14.889 17.7032C15.6801 17.0729 15.9325 15.994 16.4373 13.8362L18.035 7.0059C18.3145 5.81145 18.4542 5.21423 18.2005 4.78168C17.7398 3.99617 16.5658 4.16677 15.7995 4.16677" stroke="#768998" stroke-width="1.5" stroke-linecap="round" stroke-linejoin="round"/>
<path d="M1.6665 7.50008C1.6665 4.75022 1.6665 3.37529 2.52078 2.52102C3.37505 1.66675 4.74998 1.66675 7.49984 1.66675L9.99984 1.66675C12.7497 1.66675 14.1246 1.66675 14.9789 2.52102C15.8332 3.37529 15.8332 4.75022 15.8332 7.50008V12.5001C15.8332 15.2499 15.8332 16.6249 14.9789 17.4791C14.1246 18.3334 12.7497 18.3334 9.99984 18.3334L7.49984 18.3334C4.74998 18.3334 3.37505 18.3334 2.52078 17.4791C1.6665 16.6249 1.6665 15.2499 1.6665 12.5001L1.6665 7.50008Z" stroke="#768998" stroke-width="1.5"/>
<path d="M8.74984 5C10.5908 5 12.0832 6.49238 12.0832 8.33333C12.0832 10.1743 10.5908 11.6667 8.74984 11.6667M8.74984 5C6.90889 5 5.4165 6.49238 5.4165 8.33333C5.4165 10.1743 6.90889 11.6667 8.74984 11.6667M8.74984 5C8.05948 5 7.49984 6.49238 7.49984 8.33333C7.49984 10.1743 8.05948 11.6667 8.74984 11.6667M8.74984 5C9.44019 5 9.99984 6.49238 9.99984 8.33333C9.99984 10.1743 9.44019 11.6667 8.74984 11.6667" stroke="#768998"/>
<path d="M5.83301 14.1667L11.6663 14.1667" stroke="#768998" stroke-linecap="round"/>
</g>
<defs>
<clipPath id="clip0_1952_7545">
<rect width="20" height="20" fill="white"/>
</clipPath>
</defs>
</svg>
