<svg width="25" height="24" viewBox="0 0 25 24" fill="none" xmlns="http://www.w3.org/2000/svg">
<g id="play-circle">
<g id="elements">
<circle id="Ellipse 1909" cx="12.5" cy="12" r="10" stroke="#FAFBFB" stroke-width="1.5"/>
<path id="Vector 3642" d="M15.9531 12.3948C15.8016 13.0215 15.0857 13.4644 13.6539 14.3502C12.2697 15.2064 11.5777 15.6346 11.0199 15.4625C10.7893 15.3913 10.5793 15.2562 10.4098 15.07C10 14.6198 10 13.7465 10 12C10 10.2535 10 9.38018 10.4098 8.92995C10.5793 8.74381 10.7893 8.60868 11.0199 8.53753C11.5777 8.36544 12.2697 8.79357 13.6539 9.64983C15.0857 10.5356 15.8016 10.9785 15.9531 11.6052C16.0156 11.8639 16.0156 12.1361 15.9531 12.3948Z" stroke="#FAFBFB" stroke-width="1.5" stroke-linejoin="round"/>
</g>
</g>
</svg>
