<svg width="24" height="24" viewBox="0 0 24 24" fill="none" xmlns="http://www.w3.org/2000/svg">
<g id="Settings">
<g id="Layer 2">
<path id="Vector" d="M19.8759 9.35942C19.5062 9.30571 19.1533 9.16927 18.8436 8.96028C18.5339 8.75128 18.2753 8.47511 18.0871 8.15232C17.8989 7.82954 17.786 7.46846 17.7567 7.09597C17.7274 6.72348 17.7825 6.34918 17.9179 6.00095C18.004 5.77328 18.0167 5.52439 17.9542 5.28916C17.8917 5.05392 17.7571 4.84415 17.5694 4.68924C16.7406 3.99325 15.7971 3.44651 14.7812 3.07337C14.5499 2.98744 14.2973 2.9767 14.0595 3.04269C13.8217 3.10868 13.6108 3.24804 13.4568 3.4409C13.2251 3.73724 12.9289 3.97692 12.5907 4.14175C12.2526 4.30659 11.8813 4.39226 11.5051 4.39226C11.1289 4.39226 10.7577 4.30659 10.4195 4.14175C10.0813 3.97692 9.78515 3.73724 9.5534 3.4409C9.39943 3.24804 9.18853 3.10868 8.95073 3.04269C8.71293 2.9767 8.46037 2.98744 8.22903 3.07337C7.29098 3.41786 6.41392 3.90987 5.63096 4.53082C5.4336 4.68706 5.29145 4.90239 5.22531 5.14526C5.15917 5.38814 5.17253 5.64581 5.26343 5.88055C5.40966 6.238 5.47007 6.62474 5.43983 7.00975C5.40959 7.39477 5.28954 7.76734 5.0893 8.09757C4.88906 8.42781 4.61422 8.70652 4.28681 8.91135C3.9594 9.11618 3.58855 9.24142 3.20399 9.27704C2.95433 9.30373 2.71984 9.40988 2.53503 9.57985C2.35023 9.74983 2.22488 9.97465 2.17744 10.2212C2.05945 10.8053 2.00001 11.3996 2.00001 11.9955C1.99915 12.4943 2.03942 12.9924 2.12041 13.4846C2.16072 13.7391 2.28374 13.9732 2.47044 14.1507C2.65714 14.3283 2.89713 14.4394 3.1533 14.4668C3.5463 14.5037 3.92475 14.6342 4.25697 14.8474C4.58919 15.0605 4.86552 15.3502 5.06283 15.692C5.26014 16.0339 5.37269 16.4181 5.39105 16.8124C5.40941 17.2067 5.33306 17.5996 5.16838 17.9584C5.06061 18.1917 5.03388 18.4544 5.09243 18.7046C5.15098 18.9549 5.29146 19.1785 5.49156 19.3398C6.3154 20.0231 7.24973 20.561 8.25437 20.9303C8.38284 20.9748 8.51764 20.9983 8.65359 21C8.83999 20.9996 9.02359 20.9545 9.18897 20.8685C9.35436 20.7825 9.49671 20.6581 9.6041 20.5057C9.82995 20.1767 10.1327 19.9077 10.4861 19.7222C10.8394 19.5367 11.2327 19.4402 11.6319 19.4412C12.0186 19.4417 12.3998 19.5324 12.7452 19.7062C13.0907 19.8801 13.3908 20.1321 13.6216 20.4424C13.7751 20.6488 13.9926 20.7986 14.2402 20.8685C14.4878 20.9384 14.7515 20.9245 14.9903 20.8289C15.909 20.4592 16.7642 19.9482 17.525 19.3144C17.7161 19.1564 17.8522 18.9418 17.9137 18.7016C17.9752 18.4613 17.9589 18.2078 17.8672 17.9774C17.7182 17.6245 17.6532 17.2419 17.6774 16.8596C17.7016 16.4774 17.8143 16.1059 18.0066 15.7747C18.199 15.4435 18.4657 15.1615 18.7857 14.951C19.1057 14.7405 19.4703 14.6073 19.8506 14.5619C20.0972 14.5278 20.3266 14.416 20.5054 14.2429C20.6843 14.0697 20.8034 13.8441 20.8455 13.5987C20.9472 13.0702 21.0024 12.5337 21.0102 11.9955C21.0103 11.4278 20.9573 10.8614 20.8518 10.3036C20.809 10.0636 20.6917 9.84323 20.5165 9.67373C20.3413 9.50424 20.1172 9.39426 19.8759 9.35942ZM14.6735 11.9955C14.6735 12.6221 14.4877 13.2347 14.1395 13.7557C13.7914 14.2768 13.2965 14.6829 12.7176 14.9227C12.1387 15.1625 11.5016 15.2252 10.887 15.103C10.2724 14.9807 9.70785 14.679 9.26474 14.2359C8.82164 13.7928 8.51988 13.2282 8.39763 12.6136C8.27538 11.999 8.33812 11.362 8.57793 10.783C8.81773 10.2041 9.22383 9.70924 9.74487 9.3611C10.2659 9.01295 10.8785 8.82713 11.5051 8.82713C12.3454 8.82713 13.1513 9.16094 13.7455 9.75512C14.3397 10.3493 14.6735 11.1552 14.6735 11.9955Z" fill="#768998"/>
</g>
</g>
</svg>
