<svg width="20" height="20" viewBox="0 0 20 20" fill="none" xmlns="http://www.w3.org/2000/svg">
<g clip-path="url(#clip0_1952_6110)">
<path d="M15.8499 11.9195L14.8413 14.1668M15.8499 11.9195H13.333M15.8499 11.9195C16.487 10.5001 16.8056 9.79037 16.6083 9.14484C16.5896 9.0835 16.5675 9.02332 16.5424 8.96461C16.2774 8.3468 15.5903 8.04913 14.2161 7.4538L11.8339 6.42176C10.9286 6.02959 10.476 5.8335 9.99967 5.8335C9.52337 5.8335 9.07074 6.02959 8.16547 6.42176L5.78321 7.4538C4.40901 8.04913 3.72191 8.3468 3.45699 8.96461C3.43181 9.02332 3.4098 9.0835 3.39105 9.14484C3.19378 9.79037 3.51233 10.5001 4.14943 11.9195M5.15809 14.1668L4.14943 11.9195M4.14943 11.9195H6.66634" stroke="#768998" stroke-width="1.5" stroke-linecap="round" stroke-linejoin="round"/>
<path d="M15 7.50016L15 6.66683C15 5.09548 15 4.30981 14.5118 3.82165C14.0237 3.3335 13.238 3.3335 11.6667 3.3335L8.33333 3.3335C6.76198 3.3335 5.97631 3.3335 5.48816 3.82165C5 4.30981 5 5.09548 5 6.66683V7.50016" stroke="#768998" stroke-width="1.5" stroke-linecap="round" stroke-linejoin="round"/>
<path d="M10 3.33341V1.66675" stroke="#768998" stroke-width="1.5" stroke-linecap="round" stroke-linejoin="round"/>
<path d="M1.6665 17.6611C2.23753 18.537 2.9757 18.537 3.56066 17.6611C5.44138 14.7841 7.23279 19.7304 8.56066 17.6935C10.5857 14.6413 12.0422 19.935 13.5607 17.6611C15.5409 14.6319 16.7744 19.6481 18.3332 17.9869" stroke="#768998" stroke-width="1.5" stroke-linecap="round"/>
</g>
<defs>
<clipPath id="clip0_1952_6110">
<rect width="20" height="20" fill="white"/>
</clipPath>
</defs>
</svg>
