<svg width="16" height="17" viewBox="0 0 16 17" fill="none" xmlns="http://www.w3.org/2000/svg">
<g id="Social Icons">
<path id="Vector" d="M14.8156 0.977722H1.18125C0.528125 0.977722 0 1.49335 0 2.13085V15.8215C0 16.459 0.528125 16.9777 1.18125 16.9777H14.8156C15.4688 16.9777 16 16.459 16 15.8246V2.13085C16 1.49335 15.4688 0.977722 14.8156 0.977722ZM4.74687 14.6121H2.37188V6.9746H4.74687V14.6121ZM3.55938 5.93397C2.79688 5.93397 2.18125 5.31835 2.18125 4.55897C2.18125 3.7996 2.79688 3.18397 3.55938 3.18397C4.31875 3.18397 4.93437 3.7996 4.93437 4.55897C4.93437 5.31522 4.31875 5.93397 3.55938 5.93397ZM13.6344 14.6121H11.2625V10.8996C11.2625 10.0152 11.2469 8.8746 10.0281 8.8746C8.79375 8.8746 8.60625 9.84022 8.60625 10.8371V14.6121H6.2375V6.9746H8.5125V8.01835H8.54375C8.85938 7.41835 9.63438 6.78397 10.7875 6.78397C13.1906 6.78397 13.6344 8.36522 13.6344 10.4215V14.6121Z" fill="#1D3C55"/>
</g>
</svg>
