<svg width="21" height="20" viewBox="0 0 21 20" fill="none" xmlns="http://www.w3.org/2000/svg">
<path d="M10.334 13.7497V12.083" stroke="#768998" stroke-width="1.5" stroke-linecap="round"/>
<path d="M3.89017 15.704C4.07757 17.0958 5.23043 18.1863 6.63337 18.2508C7.81389 18.305 9.01308 18.3333 10.3337 18.3333C11.6542 18.3333 12.8534 18.305 14.0339 18.2508C15.4369 18.1863 16.5897 17.0958 16.7771 15.704C16.8995 14.7956 17.0003 13.8647 17.0003 12.9167C17.0003 11.9686 16.8995 11.0378 16.7771 10.1294C16.5897 8.73752 15.4369 7.64707 14.0339 7.58258C12.8534 7.52831 11.6542 7.5 10.3337 7.5C9.01308 7.5 7.81389 7.52831 6.63337 7.58258C5.23043 7.64707 4.07757 8.73752 3.89017 10.1294C3.76786 11.0378 3.66699 11.9686 3.66699 12.9167C3.66699 13.8647 3.76786 14.7956 3.89017 15.704Z" stroke="#768998" stroke-width="1.5"/>
<path d="M6.58398 7.49984V5.4165C6.58398 3.34544 8.26292 1.6665 10.334 1.6665C12.4051 1.6665 14.084 3.34544 14.084 5.4165V7.49984" stroke="#768998" stroke-width="1.5" stroke-linecap="round" stroke-linejoin="round"/>
</svg>
