<svg width="16" height="15" viewBox="0 0 16 15" fill="none" xmlns="http://www.w3.org/2000/svg">
<path id="Star 9" d="M7.09303 0.952961C7.45143 0.181229 8.54857 0.181231 8.90697 0.952963L10.3155 3.98589C10.4612 4.29964 10.7587 4.5158 11.1021 4.55742L14.4219 4.95977C15.2666 5.06215 15.6056 6.10559 14.9824 6.68492L12.5332 8.96172C12.2798 9.19725 12.1662 9.54701 12.2327 9.88648L12.8759 13.1681C13.0396 14.0031 12.152 14.648 11.4084 14.2343L8.48618 12.6085C8.18388 12.4403 7.81612 12.4403 7.51382 12.6085L4.59161 14.2343C3.84804 14.648 2.96044 14.0031 3.1241 13.1681L3.76731 9.88648C3.83384 9.54701 3.7202 9.19725 3.46683 8.96172L1.0176 6.68492C0.39439 6.10559 0.733426 5.06215 1.57814 4.95977L4.89788 4.55742C5.2413 4.5158 5.53882 4.29964 5.68452 3.98589L7.09303 0.952961Z" fill="#FACC15"/>
</svg>
