<svg width="20" height="20" viewBox="0 0 20 20" fill="none" xmlns="http://www.w3.org/2000/svg">
<g id="SVG">
<path id="Vector" d="M7.22656 9.74919C7.86975 11.0773 8.94369 12.1485 10.2734 12.7882C10.3715 12.8347 10.4801 12.8548 10.5883 12.8466C10.6964 12.8383 10.8007 12.8021 10.8906 12.7413L12.8438 11.4367C12.93 11.3781 13.0297 11.3424 13.1336 11.3329C13.2374 11.3233 13.342 11.3402 13.4375 11.3819L17.0938 12.9523C17.2187 13.0043 17.3231 13.0959 17.3909 13.2131C17.4586 13.3303 17.486 13.4665 17.4688 13.6007C17.3529 14.5052 16.9114 15.3365 16.2269 15.939C15.5424 16.5415 14.6619 16.8739 13.75 16.8742C10.9321 16.8742 8.22956 15.7548 6.23699 13.7622C4.24442 11.7696 3.125 9.06713 3.125 6.24918C3.12519 5.33728 3.45768 4.45673 4.06018 3.77226C4.66267 3.08779 5.49396 2.64632 6.39844 2.53042C6.53269 2.51318 6.66888 2.54053 6.78606 2.60828C6.90325 2.67607 6.99487 2.78048 7.04687 2.90541L8.61719 6.56944C8.658 6.6635 8.67512 6.76613 8.66694 6.86832C8.65875 6.9705 8.62556 7.06907 8.57031 7.15538L7.26562 9.13982C7.2075 9.2295 7.17344 9.33269 7.16663 9.43938C7.15975 9.54607 7.18038 9.65275 7.22656 9.74919Z" fill="#00001C" fill-opacity="0.1"/>
<path id="Vector_2" fill-rule="evenodd" clip-rule="evenodd" d="M9.09256 7.49963L7.79031 9.48019C7.79031 9.48019 8.68856 11.3331 10.5409 12.2242L10.5434 12.2225L12.4929 10.9203C12.4929 10.9203 12.7577 10.7407 13.0763 10.7114C13.0763 10.7114 13.3948 10.682 13.6841 10.8086L17.3339 12.3761C17.3339 12.3761 17.7216 12.5375 17.9319 12.9011C17.9319 12.9011 18.1422 13.2646 18.0887 13.681C18.0887 13.681 17.8789 15.3183 16.6399 16.409C16.6399 16.409 15.4008 17.4996 13.75 17.5C13.75 17.5 11.5122 17.5 9.44481 16.6436C9.44481 16.6436 7.37738 15.7873 5.79505 14.2049C5.79505 14.2049 4.21271 12.6226 3.35636 10.5552C3.35636 10.5552 2.5 8.48776 2.5 6.24988C2.5 6.24988 2.50037 4.59919 3.59104 3.36015C3.59104 3.36015 4.68171 2.12111 6.31881 1.91136C6.31881 1.91136 6.73537 1.85785 7.09894 2.06811C7.09894 2.06811 7.4625 2.27836 7.62131 2.66007L9.19044 6.32132C9.19044 6.32132 9.31481 6.60776 9.28994 6.91901C9.28994 6.91901 9.26506 7.23026 9.09256 7.49963ZM6.66281 10.0198L6.66181 10.0178C6.66181 10.0178 6.52213 9.72451 6.54288 9.40026C6.54288 9.40026 6.56375 9.07482 6.74094 8.80107L8.04388 6.81926L6.47244 3.15247C6.47244 3.15247 5.30641 3.30326 4.52931 4.18607C4.52931 4.18607 3.75027 5.07109 3.75 6.25013C3.75 6.25013 3.75 8.23913 4.51121 10.0769C4.51121 10.0769 5.27241 11.9146 6.67894 13.3211C6.67894 13.3211 8.08544 14.7276 9.92319 15.4888C9.92319 15.4888 11.7609 16.25 13.75 16.25C13.75 16.25 14.9289 16.2498 15.8139 15.4707C15.8139 15.4707 16.6968 14.6935 16.8481 13.5278L13.191 11.9571L11.2378 13.2619C11.2378 13.2619 10.9658 13.4455 10.6356 13.4706C10.6356 13.4706 10.3053 13.4957 10.0059 13.3539C10.0059 13.3539 7.75231 12.2698 6.66406 10.0224L6.66356 10.0214L6.66281 10.0198Z" fill="#011B30"/>
</g>
</svg>
