<svg width="20" height="20" viewBox="0 0 20 20" fill="none" xmlns="http://www.w3.org/2000/svg">
<g id="SVG">
<path id="Vector" fill-rule="evenodd" clip-rule="evenodd" d="M17.2559 3.92259C17.5813 3.59715 17.5813 3.06952 17.2559 2.74408C16.9305 2.41864 16.4028 2.41864 16.0774 2.74408L11.1233 7.69819L7.56119 2.84054C7.40419 2.62647 7.15463 2.5 6.88919 2.5H3.33333C3.01931 2.5 2.73194 2.67653 2.59 2.95665C2.44805 3.23677 2.47563 3.57289 2.66133 3.82612L7.8795 10.942L2.74408 16.0774C2.41864 16.4028 2.41864 16.9305 2.74408 17.2559C3.06952 17.5813 3.59715 17.5813 3.92259 17.2559L8.87669 12.3018L12.4388 17.1595C12.5958 17.3735 12.8454 17.5 13.1108 17.5H16.6667C16.9807 17.5 17.2681 17.3235 17.41 17.0433C17.5519 16.7633 17.5244 16.4271 17.3387 16.1738L12.1205 9.058L17.2559 3.92259ZM10.3086 9.40544C10.3343 9.44831 10.3643 9.48931 10.3984 9.528L15.0222 15.8333H13.5332L4.97782 4.16667H6.46688L10.3086 9.40544Z" fill="white"/>
</g>
</svg>
