<svg width="36" height="36" viewBox="0 0 36 36" fill="none" xmlns="http://www.w3.org/2000/svg">
<g id="SVG">
<g id="Clip path group">
<mask id="mask0_576_4943" style="mask-type:luminance" maskUnits="userSpaceOnUse" x="0" y="0" width="36" height="36">
<g id="clip0_7103_44076">
<path id="Vector" d="M35.25 0H0.75V36H35.25V0Z" fill="white"/>
</g>
</mask>
<g mask="url(#mask0_576_4943)">
<g id="Group">
<path id="Vector_2" d="M26.7438 35.4962H12.5493C12.461 35.4962 12.3736 35.4776 12.2923 35.4418C12.211 35.4059 12.1373 35.3534 12.0758 35.2874C12.0143 35.2214 11.966 35.1431 11.934 35.0573C11.9019 34.9715 11.8867 34.8797 11.8892 34.7876C11.9121 33.9394 11.9415 33.01 11.8674 32.5945C11.7024 31.6667 8.5408 31.9214 8.13811 31.9336C6.88722 31.9715 5.90397 31.366 5.75466 29.806C5.71908 29.4355 5.44684 23.2879 5.44684 23.2879C3.38117 23.1518 3.25206 23.2055 3.00705 23.0159C2.2246 22.4099 1.82812 21.8539 1.82812 21.3634C1.82812 21.1187 1.8284 20.7839 5.9409 14.3872C5.89482 13.8188 5.78107 12.3664 5.72851 11.2094C5.67865 10.1142 7.5942 6.40308 9.8704 4.23915C11.649 2.54771 14.7901 2.11403 16.5043 2.00603C16.5912 2.00013 16.6782 2.01218 16.7605 2.04149C16.8429 2.0708 16.9188 2.11679 16.984 2.1768C17.0493 2.23683 17.1025 2.3097 17.1406 2.39126C17.1787 2.47281 17.2011 2.56142 17.2063 2.652C17.2117 2.7426 17.1997 2.83338 17.1712 2.91914C17.1427 3.00489 17.0983 3.08394 17.0406 3.15173C16.9827 3.21953 16.9126 3.27472 16.8343 3.31418C16.756 3.35364 16.671 3.37654 16.5841 3.38162C15.0438 3.47894 12.239 3.85158 10.7601 5.25783C8.62516 7.28761 7.08075 10.5372 7.04787 11.1596C7.11282 12.5807 7.27534 14.4896 7.27669 14.5087C7.29045 14.6656 3.65097 20.5117 3.21082 21.3563C3.30919 21.4765 3.42618 21.7646 3.64638 21.7883C4.57357 21.8879 6.1161 21.9509 6.1161 21.9509C6.27742 21.9616 6.42939 22.0337 6.54319 22.1534C6.657 22.2733 6.72475 22.4324 6.73359 22.6009C6.73359 22.6009 6.88615 29.6602 7.30797 30.2146C7.63518 30.6446 7.88718 30.5579 8.25402 30.5608C9.95826 30.5743 13.0315 30.5332 13.1185 32.1325C13.136 32.4514 13.2331 33.2807 13.2231 34.1177H26.0832V28.5824C26.067 28.3369 26.0428 27.2587 26.7748 26.3558C28.1995 24.6002 29.4373 26.8315 29.9623 16.3594C29.9814 15.9797 30.2854 15.6827 30.6555 15.706C30.8304 15.7153 30.9946 15.7966 31.1121 15.9322C31.2295 16.0676 31.2904 16.2463 31.2817 16.4288C31.2577 16.9225 31.044 21.2722 30.9222 22.0487C30.2022 26.6402 28.2309 26.6933 27.7831 27.2459C27.4692 27.6329 27.4039 28.0652 27.4039 28.5551V34.8068C27.4039 34.8973 27.387 34.987 27.3538 35.0705C27.3207 35.1542 27.2721 35.2303 27.2107 35.2942C27.1495 35.3582 27.0766 35.4091 26.9965 35.4437C26.9164 35.4784 26.8306 35.4962 26.7438 35.4962ZM24.4711 25.4144C22.7157 25.4144 21.2877 23.9242 21.2877 22.0924C21.2877 21.1024 21.705 20.2121 22.3653 19.6033L16.7136 17.1809C16.4973 17.5355 16.1986 17.8274 15.8455 18.0298C15.4925 18.232 15.0962 18.3382 14.6934 18.3382C13.3727 18.3382 12.2986 17.2172 12.2986 15.839C12.2986 14.4609 13.3727 13.3398 14.6934 13.3398C15.1802 13.3398 15.6338 13.492 16.0122 13.7536L20.5411 7.33908C19.1514 6.91637 18.1333 5.57537 18.1333 3.99081C18.1333 2.06819 19.6326 0.50415 21.475 0.50415C23.3176 0.50415 24.8161 2.06819 24.8161 3.99081C24.8161 5.21395 24.2097 6.29199 23.2936 6.9144L30.4299 11.3036C30.5935 10.9598 30.8457 10.6705 31.1581 10.4681C31.4707 10.2657 31.831 10.1583 32.1988 10.1581C33.2875 10.1581 34.1731 11.0825 34.1731 12.2185C34.1731 13.3545 33.2872 14.2789 32.1988 14.2789C31.9128 14.279 31.63 14.2141 31.3704 14.0886C31.1107 13.9632 30.8805 13.7802 30.6954 13.5525L25.5034 18.9497C26.7538 19.3979 27.6549 20.6374 27.6549 22.0927C27.6549 23.9245 26.2269 25.4144 24.4711 25.4144ZM22.6084 22.0924C22.6084 23.1641 23.4442 24.0364 24.4711 24.0364C25.498 24.0364 26.3338 23.1641 26.3338 22.0924C26.3338 21.0205 25.498 20.1484 24.4711 20.1484C23.4472 20.1484 22.6084 21.0175 22.6084 22.0924ZM17.0887 15.8519L23.1144 18.4346L21.3844 8.46774L16.8879 14.8372C17.0206 15.1531 17.089 15.4943 17.0887 15.8393V15.8519ZM22.6686 8.12968L24.4065 18.1444L29.8135 12.5242L22.6686 8.12968ZM14.6934 14.718C14.1012 14.718 13.6193 15.2209 13.6193 15.839C13.6193 16.4572 14.1012 16.9601 14.6934 16.9601C15.2858 16.9601 15.768 16.4572 15.768 15.839C15.768 15.2209 15.2861 14.718 14.6934 14.718ZM32.1987 11.5365C31.8382 11.5365 31.545 11.8425 31.545 12.2188C31.545 12.5951 31.8382 12.9011 32.1987 12.9011C32.559 12.9011 32.8522 12.5951 32.8522 12.2188C32.8522 11.8425 32.559 11.5365 32.1987 11.5365ZM21.475 1.88228C20.3608 1.88228 19.4541 2.82812 19.4541 3.99081C19.4541 5.15349 20.3605 6.09934 21.475 6.09934C22.5888 6.09934 23.4954 5.15406 23.4954 3.99081C23.4954 2.8284 22.5891 1.88228 21.475 1.88228Z" fill="url(#paint0_linear_576_4943)"/>
</g>
</g>
</g>
</g>
<defs>
<linearGradient id="paint0_linear_576_4943" x1="50.6327" y1="46.7046" x2="-0.163646" y2="44.3997" gradientUnits="userSpaceOnUse">
<stop stop-color="#FFB555"/>
<stop offset="1" stop-color="#E28000"/>
</linearGradient>
</defs>
</svg>
